<?xml version="1.0" standalone="no"?>
<!DOCTYPE svg PUBLIC "-//W3C//DTD SVG 1.1//EN" "http://www.w3.org/Graphics/SVG/1.1/DTD/svg11.dtd" >
<svg xmlns="http://www.w3.org/2000/svg" xmlns:xlink="http://www.w3.org/1999/xlink" version="1.1">
<metadata>
Created by FontForge 20220308 at Mon May 16 01:18:46 2005
 By vongillernj
Copyright 1997 International Typeface Corporation. All rights reserved. "Aquinas" is a trademark of International Typeface Corporation and may be registered in certain jurisdictions.
</metadata>
<defs>
<font id="AquinasStd" horiz-adv-x="551" >
  <font-face 
    font-family="Aquinas Std"
    font-weight="400"
    font-stretch="normal"
    units-per-em="1000"
    panose-1="2 0 5 3 6 0 0 2 0 3"
    ascent="800"
    descent="-200"
    x-height="438"
    cap-height="664"
    bbox="-187 -282 1168 870"
    underline-thickness="0"
    underline-position="0"
    stemh="35"
    stemv="60"
    unicode-range="U+0020-FB04"
  />
<missing-glyph horiz-adv-x="500" 
d="M12 0v665h475v-665h-475zM88 618l162 -243l161 243h-323zM60 575v-484c0 -1 161 242 161 242zM440 575l-162 -242l162 -243v485zM411 48l-161 242l-162 -242h323z" />
    <glyph glyph-name="f_f" unicode="ff" horiz-adv-x="439" 
d="M-93 -268l2 8l5 17l1 11l2 10l13 -1c11 -1 15 -3 20 -8l6 1l2 -3l14 1h12l18 7c20 5 36 27 41 58c15 0 11 18 8 28l10 74v13l6 3l-5 4l4 11s-5 25 -3 36c16 6 3 16 3 20c0 6 1 11 5 22l-1 16c-1 4 -3 6 7 63c6 28 3 51 4 58l4 57l3 7l1 44l4 18l-1 24l2 35l1 26l-13 -4
l-4 2l-54 -1v19l3 3l7 -3c8 4 11 5 18 3c9 6 13 7 26 6c4 5 8 7 11 7c1 0 2 0 4 -1l4 6c-2 4 -3 6 -3 7c0 2 3 9 7 19c1 2 2 5 3 9c-2 4 -3 8 -3 9l8 28l3 17l10 31c2 15 3 16 12 23l-3 14c9 7 12 22 20 27c-1 7 -1 10 4 14l13 5l6 9c-5 3 -6 4 -6 9l8 4l5 11l11 11
c6 5 10 8 13 8c0 0 2 -1 3 8l12 6l7 2l10 7l34 11l19 4l15 -2l36 -3l15 -5c13 -3 13 -3 15 -9c9 -1 12 -1 22 -6l5 -3l17 16c23 21 26 23 62 36l12 4l11 -4l4 5l10 -2c10 0 10 0 15 -4l4 3l55 -18l-6 -16c-6 -24 -11 -36 -16 -36c-3 0 -12 4 -24 11l-17 7l-19 3l-32 4
l-17 -2c-17 -4 -22 -8 -34 -25l-11 -1l5 -11l-12 -23v-17c-2 -3 -15 4 -5 -22c-3 -5 -4 -6 -8 -7l2 -20l-7 -29l-7 -62l-9 -49l2 -12l81 -2l2 3l18 -2v-11c0 -6 -1 -8 -4 -13l3 -3l-4 -9l-101 1l-5 -11c0 -2 1 -4 -3 -12l3 -10c-7 -21 -9 -29 -9 -39v-2l2 -22l-5 -30l-3 -38
l-7 -32l-1 -35l-4 -30l-5 -10l2 -16c0 -8 -2 -19 -4 -30c0 -4 -2 -6 -6 -11l-2 -10l5 -3c1 -26 -7 -50 -7 -72l-7 -35l-1 -13l-6 -7l2 -6l-3 -13l-5 -13v-15l-3 -2v-6c0 -9 -6 -24 -17 -39l-7 -9c-11 -17 -17 -25 -22 -26l-6 -3l-23 -18c-9 -6 -17 -8 -44 -11
c-2 -1 -6 -1 -32 3c-13 21 -9 0 -12 0s-7 2 -12 5l4 16l5 12l1 21c10 -5 15 -7 27 -7l40 -4c4 1 8 2 12 4l16 7l11 1l1 8c8 1 10 3 10 9c0 8 10 19 10 24l1 7l8 27l-2 13l4 18l2 22l2 23l2 28l1 34l4 12l1 6l-2 34c-2 13 4 16 5 29l5 53c0 1 0 4 6 20l-6 5l4 19l2 34l4 34
v20l3 10v35c3 12 4 22 4 27l-1 14l4 2c-6 5 -9 6 -14 6c-3 0 -9 0 -15 -1l-10 -1c-8 0 -12 1 -16 4l-11 -3l-15 2l-50 -2c-1 0 -5 0 -11 1c-6 -1 -8 -2 -12 -8c1 -3 1 -5 1 -5c0 -4 -2 -10 -7 -16l7 -4l-2 -27l1 -13l-5 -9l-4 -22l-6 -9c4 -5 4 -7 4 -15l-6 -37l1 -13
l-7 -39c-2 -15 -3 -16 -6 -16c0 -12 1 -17 5 -23c-3 -10 -6 -18 -6 -21l-3 -30l-4 -30l-10 -64l-2 -30l-6 -33l-2 -18l-8 -33l-1 -20l-10 -18l-4 -12l-10 -20l-3 -10c-26 -40 -51 -60 -76 -62l-20 -8c-4 0 -8 0 -10 -1h-18c-11 0 -19 2 -31 9zM163 421c3 -1 5 -1 6 -1l11 3
l14 -4l25 3c4 0 3 -5 27 0l39 1c6 -5 10 -6 14 -6c5 0 9 2 10 4l2 32l5 27l2 27l7 24c2 17 1 16 8 23c-1 4 -1 8 -1 10c0 14 18 59 34 81v5l3 8l-15 -4l-9 2l1 8c-4 1 -6 1 -8 1l-14 -1c-5 0 -13 5 -20 13c-6 -4 -9 -5 -17 -5c-2 0 -6 1 -16 6l-5 -1v-3c-3 1 -5 1 -6 1h-10
c-1 -1 -4 1 -9 -3c-18 -1 -26 -8 -38 -28c-10 -19 -20 -50 -20 -63v-2v-4c0 -4 -1 -5 -5 -8l-1 -12l-6 -68l-4 -17l-1 -9l2 -4c-4 -15 -5 -20 -5 -36z" />
    <glyph glyph-name="f_i" unicode="fi" horiz-adv-x="408" 
d="M-93 -270l12 49c22 -6 34 -8 47 -8c30 0 47 7 60 23c13 17 21 35 24 59c5 3 6 4 8 8c-10 9 -6 11 -3 20l5 12v6l-5 4v4l4 23c1 0 -1 9 4 31c-2 14 5 29 5 29l-3 19s3 12 6 29l2 11h3c-2 7 -3 13 -3 16c0 4 1 10 3 17c-1 4 -2 8 -2 9l2 14c0 3 1 8 8 31l-6 4l-2 13
c0 6 2 12 6 25c2 9 5 12 5 17c0 3 -2 6 -6 10l-1 12l4 7c-3 8 -2 14 -3 20l5 12l4 28v5l-1 8l-1 11h3c1 6 1 10 1 12l6 48v12v9h-16l-24 2l-13 -1h-15c-2 5 -4 9 -4 11c0 3 1 7 4 11c2 0 4 -1 4 -1l32 6s3 -1 6 -3l-1 5l14 4l16 7c2 6 3 10 3 11v30l8 35c0 4 1 9 1 17l5 -1
l-2 13l9 6c-2 7 -4 13 -4 15c0 1 1 5 3 10l7 21l7 17h7v7h-4c7 19 9 22 23 35l-3 1v5c4 3 7 5 8 6l12 22c9 16 54 48 84 61c15 6 26 8 45 8c37 0 63 -7 63 -18c0 -4 -4 -18 -13 -37c-1 -2 -2 -6 -3 -10c-13 9 -17 11 -28 12c-19 7 -21 7 -22 7c-2 0 -4 1 -7 3l-5 -3
c-6 2 -11 3 -13 3c-3 0 -8 0 -14 -3l-4 5l-8 -3v-4c-23 -4 -30 -10 -43 -31l-18 -35l-2 -15l-3 -2l-1 -15l-7 -36l-1 -11l3 -3l-5 -14l-7 -44l-2 -10l-7 -50l-1 -12h10l10 -3c1 0 8 4 20 4c3 0 5 0 18 -4l15 1c4 2 7 3 11 3c1 0 4 0 6 -1l10 -1l3 3l14 -1c13 0 27 3 38 5
l30 4l18 7c-1 -6 -2 -10 -2 -12l-6 -25c-3 -31 -3 -32 -15 -39v-7l10 3l-3 -11l-11 -38l3 -7c-1 -5 -2 -8 -2 -10l-4 -15l1 -20l-5 -19l-2 -14c-1 -3 -4 -7 -10 -11l9 -7c0 -5 -1 -9 -1 -12l-6 -33c0 -1 -1 -25 -1 -19l-5 -46l1 -12c4 -35 10 -46 29 -46c16 0 26 9 54 33
c2 2 5 4 9 8c7 -7 10 -12 10 -14c0 -3 -3 -7 -9 -12c-8 -7 -13 -13 -16 -17c-13 -13 -18 -18 -48 -34l-1 -5l-16 -4c-5 -3 -8 -5 -11 -5c-2 0 -6 2 -10 5l-1 -4l-4 -1l-4 3c-21 1 -35 14 -37 35l-1 14l-3 21l5 22c2 8 -1 29 3 40l4 13l-2 13l3 17c0 2 -1 5 -1 8
c4 6 6 11 6 15c0 1 -1 4 -2 7l6 5c-3 4 -5 7 -5 9c0 5 3 17 8 33c1 2 2 6 3 10c-1 5 -2 8 -2 9l9 78c1 3 1 5 1 8c0 27 -22 44 -59 44c-5 0 -9 -1 -19 -2l-36 2l-19 -1l-2 5v-12l-8 -42l-5 -44l-4 -29l-2 -25c0 -18 -7 -26 -6 -32c1 -3 1 -5 1 -7c0 -1 0 -4 -1 -5l-2 -10
c0 -1 -1 -10 -2 -23c0 -3 -1 -7 -1 -12l-2 -9l3 -3l-3 -17l-2 -12c3 -6 2 -7 1 -13c-1 -5 -2 -7 -7 -12c4 -8 4 -5 -8 -40c3 -8 5 -12 5 -16c0 -11 -4 -18 -12 -28c5 -5 7 -7 7 -12c-8 -8 -6 -10 -4 -31c-1 -5 -2 -8 -2 -10c-2 -6 -3 -12 -3 -14s0 -4 1 -7l-10 -23
c2 -4 3 -8 3 -11c0 -1 -1 -4 -2 -7l-4 -17c-10 -58 -21 -79 -63 -119l-8 -7l-11 -5l-9 -2l-32 -14l-24 -3h-10h-1c-12 0 -15 1 -24 5z" />
    <glyph glyph-name="f_l" unicode="fl" horiz-adv-x="428" 
d="M324 692l-8 2l-5 5l-5 -1c-7 4 -11 5 -22 6l-14 -1l-9 3l-2 -4h-22c-3 -7 -5 -8 -12 -11l-11 -12c-6 -4 -7 -7 -9 -16l-5 -1c-1 -6 -1 -10 -1 -11l-16 -51l-3 -28l-7 -17l7 -4c-7 -12 -11 -22 -11 -27v-11c0 -1 -1 -4 -2 -9l-6 -43l-2 -29c0 -2 -1 -6 -1 -10
c6 -1 11 -1 11 -1l52 4l15 -1c8 0 9 0 17 -2l-5 -32l-8 -2c-6 0 -19 5 -27 0c-17 0 -24 2 -32 -2l-26 3l-3 -13l-2 -21l-5 -15l1 -13l-3 -8v-12l-5 -33v-11l-5 -22l2 -10l-3 -41c-2 -21 -4 -26 -8 -33c2 -6 6 -11 -2 -27c5 -19 -7 -31 0 -55l-1 -3l-5 -4l-1 -5l1 -5l1 -11
l-7 -22c-10 -8 0 -26 -1 -32l-1 -17l-7 -26l1 -13v-9l-12 -10l4 -7l-2 -4l4 -4c0 -13 -1 -19 -4 -28l-14 -46c-1 0 -1 -4 -1 -11c-9 -2 -11 -4 -11 -13v-7l-17 -24l-6 -3l-15 -17c-2 -2 -4 -4 -15 -7c-3 -9 -2 -9 -21 -13c-4 -3 -7 -5 -9 -5c-1 0 -2 0 -3 1l-2 -4l-19 -4
l-15 2l-6 -3l-7 4l-11 -5c-3 7 -5 8 -13 8l11 52h6c3 -3 5 -5 6 -5l31 -5l19 -3c1 -1 2 -1 3 -1c15 0 35 11 45 26c3 5 8 14 13 27c8 19 12 37 12 46c0 2 0 6 -2 16l5 19c0 4 0 9 -2 15c9 7 10 9 2 14l8 56l6 6c-6 7 -9 12 -9 16c0 8 4 14 13 24l-7 1c-1 2 -1 4 -1 4l5 23
l-2 13l1 16v15l3 7l-1 11l5 20l2 16c0 3 1 7 3 12l-10 10c8 2 9 3 13 11l-6 4v14l1 6l-3 15l-2 18c7 5 8 8 9 14l1 34l7 70l-1 24l-24 -1l-28 -3v0c-14 0 -19 3 -19 12c0 2 0 7 1 11c34 3 40 4 57 12l5 -2c3 6 5 7 13 9c0 24 7 77 13 103c10 3 12 5 12 13h-3l-1 4h-4
c6 38 23 78 43 100l1 3c3 8 4 10 11 14v4c0 5 3 8 9 17c7 7 10 9 16 11c1 3 2 6 3 7l6 4l25 21l14 5l37 14l16 2c3 0 7 0 13 1l3 -4c5 1 8 1 10 1c7 0 17 -2 29 -6h2c2 -1 3 -1 5 -2h1v5l16 3l20 7c2 1 6 2 11 4l-6 -64l-13 -10c7 -5 9 -8 9 -12v-4l-3 -13l-5 -64
c-3 -18 -3 10 -3 -43c0 -4 -4 -8 -4 -11l-6 -63l-4 -3c1 -3 1 -5 1 -7s-1 -6 -3 -10c1 -6 3 -9 4 -12c1 -2 1 -4 1 -5l-8 -17c-1 -2 -2 -6 -4 -11c3 -5 1 -8 8 -13c-2 -5 -2 -9 -3 -11l-1 -27c0 -3 -5 -10 -11 -17l7 1l1 -20l-17 -10c14 -7 18 -11 18 -18
c0 -5 -3 -17 -6 -34l-3 -45l-2 -10l-5 1l-9 -5c10 -4 15 -7 15 -13c0 -3 -2 -11 -4 -20l-4 -29c0 -3 0 -12 -1 -17l-2 -32c-1 -7 -2 -15 -2 -20c0 -17 11 -29 28 -29c9 0 18 4 27 11l6 4l25 20c1 1 4 3 8 6c6 -6 8 -8 11 -16c-4 -4 -6 -7 -8 -8l-6 -3c-1 0 -3 -4 -11 -7
l-13 -19l-5 2l-11 -12c-10 -8 -13 -5 -17 -12c-7 -1 -9 -2 -14 -9l-5 1l-1 -5l-22 -7c-1 0 -3 0 -6 1c-3 -1 -5 -2 -7 -2s-5 2 -9 5c-7 0 -9 2 -14 9h-4l-6 11l1 8c-3 3 -4 6 -4 8c0 1 0 2 2 5l-4 3v23l1 23c1 9 2 15 2 15c0 1 0 2 -1 5l5 2c-3 4 -5 7 -5 7l5 26l15 163
l4 12l-2 18l6 51l1 43l5 18v8v9c5 0 7 1 10 5l-7 2l-2 6l2 6l-2 26l3 12v41l4 15c1 4 1 9 1 14v19l4 21c0 16 3 21 3 26c0 19 2 32 -8 41z" />
    <glyph glyph-name="f_f_i" unicode="ffi" horiz-adv-x="616" 
d="M-93 -267l11 46l35 -8l10 1l25 -1c6 0 22 8 32 16c7 5 12 11 13 14l9 25l7 16l2 13c2 9 1 20 1 23l7 49l5 13l-2 26c0 3 3 7 2 16l2 49l6 43l5 64l5 24v2l-5 21l7 24l9 167v17l-5 1l1 -6c-12 -1 -21 0 -26 1c-8 1 -14 2 -16 2c-3 0 -7 -2 -12 -6l-4 4l-5 -4l-5 2l2 21h12
l47 12c1 0 3 -1 6 -1l-2 6c9 2 11 5 11 15c-1 12 1 25 4 38l7 24l7 37l12 31l3 11c7 10 9 14 13 30l16 20l7 16l21 24c6 6 7 7 15 11l25 19l12 5c37 13 39 14 56 11c8 3 14 5 17 5c1 0 2 0 3 -1l11 -3l11 -1l1 -3c10 0 14 -1 26 -7c11 -7 12 -7 26 -11l1 -4l8 1
c8 19 12 23 26 25l11 6l9 13l3 -1l7 2l18 8l12 1l3 -7l4 2c5 8 17 3 28 5l13 -4l16 -2c10 -1 19 -6 33 -18l-5 -7l-11 -26l-6 -11l-10 4l-39 18h-15c-3 0 -8 2 -15 7l-5 -5h-15c-21 0 -42 -18 -57 -49l-3 -17l-10 -34l-5 -28l-5 -11l-1 -37l-4 -5l-4 -11l7 -2l-2 -13l-4 -17
v-20l-5 -28v-4c0 -4 2 -7 7 -10l2 5h40l49 -2l43 6l19 1l5 4c15 0 20 1 34 9l5 -2l-4 -15l-11 -66l-3 -3l1 -9l-3 -10l1 -5l-6 -38l-1 -10l-5 -24l-3 -31l-4 -12l1 -18l-6 -62v-6l-5 -3c4 -6 5 -10 5 -15c0 -2 0 -5 -1 -13l-1 -20c0 -18 3 -24 17 -31l1 -4l19 -1v4
c14 3 17 5 27 15l8 3l13 12l-1 2l7 2l9 -13l-9 -16l-7 -5l-17 -14l-12 -14l-41 -27l-10 2l-3 -4c-33 0 -51 8 -55 24l-3 16l-4 11l2 11l-1 21l4 38v11l9 42l6 52l5 42l4 21l4 59l2 10l-6 9l-3 18c-1 9 -17 17 -33 16l-68 -1l-8 1c-3 1 -7 1 -12 2c-13 -5 -16 -76 -16 -84
l-6 -20l1 -20l-4 -19l-1 -12c-5 -6 -3 -8 -2 -17l2 -8l-1 -16l-11 -54l-5 -38v-4l1 -14c0 -2 0 -4 -1 -5l-5 -15l3 -10l-3 -10l2 -20l-7 -34l-1 -13l-5 -1l2 -19v-4l-7 -37c-6 -31 -7 -34 -16 -45c2 -9 -1 -13 -2 -16l-6 -16s0 -2 1 -4l-7 -1c-2 -10 -4 -13 -11 -18
c-3 -9 -5 -11 -7 -13l-15 -15l-14 -6c-5 -5 -6 -6 -20 -16l-25 -7l-8 3l-28 -5l-1 -1c-4 0 -10 2 -18 6l-10 4l4 3l1 11c4 4 5 5 3 13v6v4l9 10l12 -6l17 -2l11 -2l26 3c2 0 4 0 17 7c19 8 27 17 31 33l8 32l5 18l-2 16l4 10l6 10l-3 25v7c0 4 1 6 5 10c-4 21 -3 24 2 30
l-3 13l8 4c-4 10 -5 15 -5 22c0 10 1 17 5 37c0 21 -3 32 -3 34c0 4 3 10 8 19l-2 8l15 172l1 64l5 2l-3 7l-48 3l-21 -4l-21 2l-61 -1l1 -9l-3 -42c0 -11 0 -33 -2 -37l-7 -18c0 -1 1 -3 -2 -10c-7 -33 -1 -52 -3 -62v-13l-3 -10l-6 1c4 -11 5 -16 5 -20v-4l-8 -53l-3 -33
l-4 -17l-1 -34c0 -9 -2 -14 -7 -26l-1 -31l-5 -3c2 -7 2 -11 2 -13c0 -6 -2 -22 -7 -46l-7 -33l-9 -32h-4c-1 -16 -5 -27 -15 -44c-14 -22 -15 -23 -25 -27l-8 -10c-4 -6 -5 -7 -12 -9c-13 -15 -17 -18 -24 -20c-14 -5 -35 -7 -58 -7c-12 0 -16 1 -28 7zM160 422l19 -5l40 3
l49 -3l25 2l5 3l3 -4l5 16l6 55l5 12l-2 3l1 11l4 15l7 20l1 15l13 29l9 27c6 12 9 10 9 15c0 3 3 7 8 12c-14 9 -23 13 -33 16l-28 8l-27 5h-23c-16 -6 -21 -7 -35 -9v-3c-16 -15 -19 -20 -28 -42c-8 -18 -17 -44 -19 -56l-3 -31l-9 -70z" />
    <glyph glyph-name="f_f_l" unicode="ffl" horiz-adv-x="635" 
d="M163 422l19 -5l40 3l49 -3c2 0 23 4 25 2l5 3l4 -4l4 16l7 55l4 12l-2 3c1 5 2 8 2 11l3 15l7 20l2 15l12 29l9 27c6 12 9 10 9 15c0 3 3 7 8 12c-14 9 -22 13 -32 16l-29 8l-26 5h-24c-16 -6 -21 -7 -35 -9l1 -3c-16 -15 -19 -20 -29 -42l-18 -56l-4 -31l-9 -70
c-1 -9 -2 -21 -2 -44zM510 701h-11c-2 0 -8 2 -15 7l-4 -5h-15c-21 0 -42 -18 -57 -49l-4 -17l-10 -34l-5 -28l-4 -11l-1 -37l-4 -5c-2 -2 -3 -6 -4 -11l6 -2l-2 -13l-3 -17l-1 -20l-4 -28c-1 -1 -1 -3 -1 -4c0 -4 2 -7 8 -10l2 5h40l49 -1l-4 -18l-1 -12l-71 -2l-8 2
c-3 0 -7 0 -12 1c-13 -5 -15 -76 -16 -84l-5 -20v-20l-4 -19v-12c-5 -6 -4 -8 -3 -17l2 -8l-1 -16l-10 -54c-5 -29 -6 -33 -6 -38c0 0 1 -2 1 -4c0 -5 1 -10 1 -14l-1 -5l-6 -15l3 -10l-3 -10l3 -20l-7 -34l-2 -13l-5 -1l2 -19v-4l-7 -37c-5 -31 -6 -34 -15 -45
c1 -9 -1 -13 -3 -16c-3 -7 -5 -12 -5 -16v-4l-6 -1c-3 -10 -4 -13 -11 -18c-3 -9 -6 -11 -8 -13l-15 -15l-13 -6l-20 -16l-26 -7l-7 3l-28 -5c-1 -1 -2 -1 -2 -1c-4 0 -10 2 -17 6l-10 4l3 3l1 11c4 4 5 5 4 13l-1 6l1 4l9 10l11 -6l17 -2l11 -2l27 3c1 0 4 0 16 7
c19 8 27 17 32 33l7 32l5 18l-2 16l5 10l6 10l-3 25l-1 7c0 4 1 6 5 10c-3 21 -2 24 3 30l-3 13l7 4c-3 10 -4 15 -4 22c0 10 1 17 5 37c-1 21 -3 32 -3 34c0 4 2 10 8 19l-2 8l14 172l2 64l4 2l-2 7l-49 3l-21 -4l-20 2l-62 -1l2 -9l-3 -42c-1 -11 -1 -33 -3 -37l-6 -18
c0 -1 0 -3 -3 -10c-6 -33 -1 -52 -3 -62l1 -13l-4 -10l-6 1c4 -11 6 -16 6 -20v-4l-8 -53l-3 -33l-4 -17l-2 -34c0 -9 -1 -14 -7 -26l-1 -31l-4 -3c1 -7 2 -11 2 -13c0 -6 -3 -22 -8 -46l-6 -33l-9 -32h-5c-1 -16 -4 -27 -15 -44c-13 -22 -14 -23 -25 -27l-8 -10
c-3 -6 -5 -7 -12 -9c-13 -15 -16 -18 -23 -20c-15 -5 -36 -7 -59 -7c-11 0 -16 1 -27 7l10 46l36 -8l10 1l24 -1c6 0 22 8 33 16c6 5 11 11 12 14l10 25l7 16l1 13l2 23l7 49l4 13l-2 26c1 3 3 7 2 16l2 49l6 43l5 64c4 12 6 20 6 24c0 1 -1 1 -1 2l-4 21l6 24l9 167l1 17
l-6 1l1 -6c-11 -1 -20 0 -26 1c-8 1 -14 2 -16 2c-3 0 -7 -2 -11 -6l-5 4l-5 -4l-4 2l2 21c6 -1 10 0 12 0l47 12s2 -1 5 -1l-2 6c9 2 11 5 11 15c0 12 1 25 5 38l6 24l7 37l12 31l3 11c7 10 9 14 14 30l16 20l7 16l21 24l14 11l26 19l11 5c37 13 39 14 57 11c8 3 13 5 16 5
c1 0 3 0 4 -1l11 -3l11 -1v-3c10 0 15 -1 26 -7c11 -7 13 -7 26 -11l2 -4l8 1c7 19 11 23 25 25l12 6l8 13l4 -1l6 2l18 8l13 1l2 -7l5 2c5 8 16 3 27 5l13 -4l16 -2l7 -1l10 1l13 1c14 0 19 2 33 10l6 -3l-5 -15l-11 -65l-3 -4l1 -9l-3 -10l1 -5c-3 -22 -6 -31 -6 -38
l-1 -9l-5 -25l-2 -30l-6 -37l-1 -25l-7 -32l4 -16l-10 -72l-1 -10l-2 -20l-5 -18v-20l-8 -74l1 -18l-7 -62l1 -6l-6 -3c5 -6 6 -10 6 -15l-1 -13c-1 -7 -2 -16 -2 -20c0 -18 4 -24 18 -31l1 -4l19 -1v4c13 3 17 5 27 15l8 3l12 12v2l7 2l9 -13l-9 -16l-8 -5l-16 -14
c-7 -5 -8 -7 -12 -14l-41 -27l-10 2l-3 -4c-33 0 -52 8 -55 24l-3 16l-4 11l2 11l-2 21l5 38v11l9 42l6 52l10 130l11 50l-5 6l8 54l3 57l7 16l-4 9l4 32l6 20l4 60l1 10l-5 9l-8 18c-1 9 -14 12 -25 15z" />
    <glyph glyph-name=".notdef" horiz-adv-x="500" 
d="M12 0v665h475v-665h-475zM88 618l162 -243l161 243h-323zM60 575v-484c0 -1 161 242 161 242zM440 575l-162 -242l162 -243v485zM411 48l-161 242l-162 -242h323z" />
    <glyph glyph-name="space" unicode=" " horiz-adv-x="147" 
 />
    <glyph glyph-name="exclam" unicode="!" horiz-adv-x="212" 
d="M67 34c4 6 7 12 7 16c0 0 -5 14 8 19c5 8 8 10 16 15c3 2 6 3 10 3c22 0 35 -14 38 -40l-7 2l3 -10l-6 -10l9 -5l-2 -7c-11 -19 -23 -28 -38 -28c-4 0 -8 2 -20 13c-1 1 -11 5 -11 24zM71 666h56l2 -6h5l1 5h8c0 -12 -1 -20 -1 -26c-1 -18 -2 -30 -3 -47
c-1 -24 -1 -28 -1 -31c0 -1 0 -8 1 -18c0 -3 0 -6 1 -12l-11 -1c3 -5 4 -7 12 -9l-1 -5c-4 -1 -5 -2 -6 -36c2 -11 1 -16 1 -18v-43c0 -2 -2 -8 -5 -16c3 -10 2 -13 2 -14l-2 -32c0 -1 -1 -4 -3 -10c3 -5 5 -9 5 -10l-5 -31c0 -1 2 -13 2 -13l-8 -104v-12l-22 -3
c-1 5 -2 9 -3 12c-2 12 -4 21 -4 28c0 4 3 10 8 18l-8 4l7 20c-6 4 -11 9 -12 12v13l-1 19c0 1 0 -12 0 25c0 1 1 11 2 26v4c0 4 -2 21 -6 43v4c0 3 2 8 -3 20c5 3 5 5 5 10l-4 3c0 7 1 11 1 13l-2 46c0 4 2 8 5 13c-6 8 -8 13 -8 18c0 4 0 7 1 11c2 5 2 8 2 8l-5 39
c1 -2 -1 15 -1 21c2 2 3 5 3 6s-1 4 -3 9c-1 1 -1 16 -1 38z" />
    <glyph glyph-name="quotedbl" unicode="&#x22;" 
d="M33 675l13 1l7 -5l6 6l24 -2l3 -6l5 5c2 1 3 1 3 1c3 0 5 -2 5 -5c0 -2 0 -4 -2 -7c-3 -6 -4 -14 -4 -23c0 -7 2 -13 2 -14c0 -2 -1 -5 -3 -8l-7 1c1 -5 1 -7 2 -13l4 -3l-3 -7c-2 -3 -2 -6 -2 -7v-14c0 -4 -2 -7 -7 -11l6 -2c-1 -2 -1 -3 -2 -4l-1 -13s-1 -2 -3 -4
c1 -5 2 -9 2 -13c0 -2 -1 -3 0 -9v-4c0 -6 0 -13 -1 -21l-3 -10l1 -16h-17l-4 16c-1 2 -1 3 -1 3l-1 16l-3 3c1 3 1 5 1 7v6c0 2 2 4 6 6c-6 4 -6 7 -8 37c-1 4 -1 9 -2 16c1 1 1 2 1 2l-4 23l2 1c2 1 3 2 5 4c-4 2 -7 4 -7 5l1 7l-6 17c-2 15 -1 11 -2 18l-1 16zM135 675
l13 1l7 -5l6 6l24 -2l3 -6l5 5c2 1 3 1 3 1c3 0 5 -2 5 -5c0 -2 0 -4 -2 -7c-3 -6 -4 -14 -4 -23c0 -7 2 -13 2 -14c0 -2 -1 -5 -3 -8l-7 1c1 -5 1 -7 2 -13l4 -3l-3 -7c-2 -3 -2 -6 -2 -7v-14c0 -4 -2 -7 -7 -11l6 -2c-1 -2 -1 -3 -2 -4l-1 -13s-1 -2 -3 -4
c1 -5 2 -9 2 -13c0 -2 -1 -3 0 -9v-4c0 -6 0 -13 -1 -21l-3 -10l1 -16h-17l-4 16c-1 2 -1 3 -1 3l-1 16l-3 3c1 3 1 5 1 7v6c0 2 2 4 6 6c-6 4 -6 7 -8 37c-1 4 -1 9 -2 16c1 1 1 2 1 2l-4 23l2 1c2 1 3 2 5 4c-4 2 -7 4 -7 5l1 7l-6 17c-2 15 -1 11 -2 18l-1 16z" />
    <glyph glyph-name="dollar" unicode="$" horiz-adv-x="487" 
d="M43 179l22 -4v-10v-8l4 -32v-6l8 -12l-1 -13l5 -8c13 -20 15 -27 12 -40l14 2c4 0 5 -1 12 -4c2 -1 7 -3 12 -5c16 -7 24 -6 23 -6l30 -6c4 -1 8 -1 12 -1c9 0 21 0 36 2v12l2 38c0 3 -1 10 3 21l9 9l-7 6l-5 -1l-2 20l-1 19v2l2 36l-2 38l3 10l6 3c-1 8 0 10 5 17
c-3 5 -5 9 -5 11s1 4 2 7l-18 -1c-12 0 -16 -2 -20 -2l-33 17c-6 -3 -7 -1 -30 11c-7 3 -12 6 -36 29l-7 4l-3 6l-13 22c0 1 -1 5 -2 11c-3 4 -4 9 -4 11c0 1 0 3 1 6l-4 4l3 12c0 2 -1 4 -1 4l7 29v11l7 12l19 30c0 1 14 18 26 18v6l21 10l29 13c15 7 23 10 30 10l10 -1
c2 0 7 1 13 3l3 9c-7 7 -9 11 -9 18c0 1 0 4 1 7v19l1 13l6 2l26 -4c-1 -5 -1 -8 -1 -10c-1 -8 -1 -13 -1 -14l4 -35l11 -7l10 5c6 -2 10 -3 11 -3l37 -1l17 -6c2 0 4 -1 6 -1l14 1l4 -5l10 1h4c14 0 21 -9 21 -26l3 -23c-3 -14 0 -23 0 -24l6 -39c0 -1 -1 -5 -2 -10l5 -15
c-12 -3 -16 -3 -29 -3l-4 43c-2 14 -5 20 -10 28l2 8c-4 3 -6 6 -8 8c-9 14 -8 14 -20 15c-7 8 -11 8 -13 9l-21 3l-22 8c-8 -1 -14 -3 -18 -3c-3 0 -6 1 -11 2l-3 -6l3 -3l-2 -12l-1 -85c0 -3 -5 -8 -11 -13c3 -4 4 -4 9 -4h2v-13c0 -22 -1 -27 -5 -42l7 -5
c-2 -5 -3 -9 -3 -13c0 -2 2 -8 4 -14c17 -2 23 -4 33 -13c3 4 4 5 9 5c15 -14 22 -16 45 -16l1 -8c28 -12 41 -21 63 -42l4 -7c16 -22 26 -46 26 -62v-3l-1 -10c-1 -2 -1 -6 -1 -12c4 -21 -13 -25 -19 -45l-2 -16c-8 -11 -10 -13 -19 -21l-23 -19c-17 -12 -22 -17 -24 -17
l-39 -15l-14 -6l-9 4c-6 -5 -10 -7 -23 -9l-9 -6l3 -8l-5 -11l2 -22l-1 -48v-12c-7 -1 -14 -2 -18 -2c-5 0 -9 1 -15 5l-1 30l1 41v2v7v6c0 6 2 8 10 11l3 6l-6 3c-4 -2 -7 -3 -9 -4l-8 -5c-3 -1 -7 -2 -11 -2c-6 0 -12 1 -39 8c-10 -2 -14 -2 -17 -2c-2 0 -18 1 -29 2
c-13 2 -16 2 -29 5c-15 6 -27 7 -27 7c-2 0 -5 3 -8 7l-9 -3l-2 11c-6 26 -9 49 -9 65c0 0 1 1 1 2c0 9 1 15 1 15l-4 20l-2 40v5c0 3 1 4 3 7zM155 367c0 -14 3 -15 4 -15l13 1l34 -15c7 -3 12 -5 26 -8l2 22l-2 3l1 163l-43 -8l-19 -15l-10 -5l-10 -10
c-3 -2 -6 -2 -16 -18l-9 -15c-1 -2 -2 -9 -2 -21c0 -31 9 -49 31 -59zM263 33l28 3l14 11c11 0 11 0 37 15c6 4 20 19 25 20c3 5 6 9 8 11c8 12 11 33 12 39c3 3 4 6 4 7l-2 16l-2 20l-5 3l-7 17l-4 2l-23 18l-32 15l-19 10l-10 5c-2 0 -3 -1 -4 -1c-3 0 -9 3 -14 9v-26
l1 -12v-2c-1 -1 -1 -3 -1 -3l-2 -10l1 -14l-1 -28c1 -2 1 -4 3 -7l-7 -23l8 -28c-1 -21 -2 -23 -8 -25c4 -13 4 -17 4 -20c0 -2 1 -6 2 -11l-2 -5h-4v-6z" />
    <glyph glyph-name="percent" unicode="%" horiz-adv-x="804" 
d="M47 499l-6 13l7 29c1 8 11 37 22 47l8 19l11 9c14 8 14 8 16 18l9 7c10 -1 14 0 19 6c14 9 17 10 19 11c22 11 25 12 50 13l25 2l27 -1c4 0 7 0 9 -1l12 -3c2 -1 9 1 14 -5c42 -9 73 -30 93 -62l6 -9c9 -14 14 -24 15 -30l1 -16l6 -21l-3 -45l1 -10l-17 -15l10 -11
c-2 -5 -4 -9 -5 -12l-9 -19l-23 -32l-6 -11c-8 -1 -10 -2 -11 -9c-19 -15 -24 -18 -42 -19c-6 -7 -9 -8 -16 -8c-1 0 2 4 -30 -11l-24 -2c-7 0 -9 1 -14 4l-1 -5l-34 3c-7 5 -12 7 -17 7c-4 0 -19 5 -25 9c-3 1 -7 3 -12 6c-9 2 -14 5 -16 8l-37 26l-7 20l-18 28l-6 19
l-5 19c0 3 1 5 1 9zM167 16c6 20 8 23 19 26l6 16c10 8 11 5 37 56c0 1 25 28 36 53l18 14c0 19 19 32 40 40l-10 8l15 17l6 8c1 12 2 14 14 30l31 43l14 15l26 39l12 13l2 8c1 2 10 8 22 23l10 31c12 6 15 10 16 12c8 12 11 15 22 20l4 12l30 47l4 1c4 11 8 19 12 22l10 11
l32 47l21 25c2 3 4 9 6 16c5 -3 9 -5 11 -7c11 -6 13 -8 21 -18c-4 -4 -7 -8 -9 -10c-14 -22 -13 -20 -25 -23c1 -3 1 -5 1 -7c0 -6 -8 -29 -32 -35c-12 -16 -15 -17 -17 -24c9 -18 -10 -13 -20 -21l8 -9c-8 -20 -15 -30 -26 -37c-11 -6 -14 -9 -14 -14c0 -3 1 -5 -17 -24
l-43 -61l-12 -16c-7 -6 -8 -9 -8 -10l-16 -25l-17 -22c-2 -10 -4 -13 -14 -17c-2 -11 -2 -11 -18 -30c-1 -2 -3 -5 -6 -9l-5 -19c-17 -4 -23 -12 -27 -32l-8 -2c-8 -12 -22 -38 -23 -39c-8 -2 -9 -4 -19 -30l-7 -1c-9 -11 -11 -14 -13 -28c-36 -24 -27 -45 -43 -51
c-14 -28 -16 -30 -18 -32c-11 -14 -11 -15 -23 -19l5 -7l-4 -3c-4 1 -7 3 -9 4c-14 6 -19 11 -19 18c0 5 3 7 11 7zM400 200c12 30 11 31 11 32c0 2 3 6 6 10v6l8 4c4 14 8 19 24 33l13 11c9 8 12 9 21 11c6 7 10 8 12 9c17 8 33 13 41 13l18 -1c6 5 10 6 15 6
c4 0 9 -1 20 -4l-2 4h7h5l10 3l20 -7l34 -7l11 -7c2 -1 5 -2 24 -14c14 -9 16 -11 29 -29c2 -2 4 -5 7 -9v-3l7 -5c0 -6 1 -7 5 -10c0 -6 8 -17 11 -22l-3 -30l11 -9l-13 -21c9 -5 14 -10 14 -14l-11 -46l-5 -16c-8 -6 -6 -3 -21 -33c-6 -10 -15 -21 -27 -28l-23 -15
c-9 -5 -15 -9 -18 -9c-9 0 -19 -8 -23 -8l-21 -4l-32 -6l-35 1l-14 -1c-10 7 -12 8 -24 11c11 -3 -42 17 -53 27l-11 16c-10 2 -13 5 -20 16l-5 7l-3 10l-11 11c-10 27 -13 40 -14 55v9v8c0 14 1 26 5 45zM112 443c-4 -2 -6 -4 -6 -7c0 -1 0 -2 1 -2l7 -11l12 -23l16 -4
l16 -23c5 -2 10 -4 13 -5c25 -6 24 -6 32 -15l10 1l4 5l10 -3c7 4 27 0 60 16c11 2 9 4 32 25l20 27l12 6v11l-6 1c1 4 2 8 2 10l5 16l-1 16l6 31l-4 10l-1 18l-9 18l-6 16l-6 11l-6 -1c-3 8 -4 10 -10 18l-9 8c-11 4 -14 6 -19 14l-7 -1l-2 3c-17 10 -24 12 -38 12h-12
l-2 2l-15 -2c-11 0 -15 4 -23 -6l-28 -6c-21 -3 -45 -37 -51 -72l-14 -16l1 -17l5 -17c-15 -6 9 -59 11 -64zM448 153l9 -8l11 -35l-4 -7l8 -10c4 -17 14 -31 41 -55c11 -9 24 -15 34 -15h5h10l7 -7l7 5l12 -2c5 -1 9 -1 12 -1c2 0 6 0 8 1l18 7l13 3l15 5
c23 22 33 35 41 52c7 15 14 49 14 70c0 17 -2 35 -6 44l-7 16l-4 12l4 1c-1 13 -3 17 -12 23v10c-11 12 -12 13 -18 11l-29 20l-2 -1c-15 10 -18 11 -39 16v-6l-10 6c-4 -2 -8 -4 -11 -4c-2 0 -5 1 -9 2c-12 -1 -15 -1 -26 -9l-17 2c-3 -8 -5 -10 -16 -10l-38 -56
c-1 -4 -3 -7 -3 -9l-6 -13c-2 -3 -2 -10 -3 -22l-3 -5c1 -4 1 -6 1 -8c0 -5 -3 -14 -7 -23z" />
    <glyph glyph-name="ampersand" unicode="&#x26;" horiz-adv-x="742" 
d="M20 233l8 28l7 13l4 14l9 4l3 11l16 22l12 12l9 8l24 20l13 5l29 19l21 6c2 -4 15 -11 12 6l9 5c-19 22 -25 31 -29 51h-4l-4 18l-11 24l-3 10l2 46l-2 12h5c6 23 26 54 40 62l17 10c1 1 3 4 18 13c26 10 39 13 58 15l25 2h3l21 -5l3 4h3c3 0 5 -2 7 -6c5 1 8 1 11 1
c7 0 14 -3 30 -13l13 -7h8c3 -8 6 -10 17 -11l13 -12v-8l9 -14l4 -19l5 -12l-3 -3l2 -9l-3 -2l2 -8l-10 -40l-10 -16c-5 -5 -16 -13 -17 -21l-8 -6l-23 -19l-29 -13c-14 -9 -13 -8 -22 -9c-11 -2 -15 -4 -19 -10l-12 -4l-13 -5l-9 -1l-3 -5h4v-5c7 -3 8 -3 11 -10l22 -23
l13 -17c8 -3 9 -5 11 -12l36 -38l4 -4l19 -16l2 -15c17 -1 21 -5 22 -22l1 -13h4l-1 6l5 2l-1 4c8 -1 10 -3 13 -12l7 -11c28 -27 33 -33 67 -74l12 -15l10 11l15 25l8 10l9 31c4 8 7 18 7 24c0 3 0 3 -1 7l6 3l-8 16c4 5 4 8 4 10l-1 23l-5 16l-3 16l-6 5l2 10l-9 1
c-11 28 -49 51 -82 51c-5 0 -11 -1 -14 -2l-24 -9l-15 -4l18 54l29 -1l19 -1l29 2c34 0 44 -2 58 -13l4 7l8 2l5 -5l7 7c5 -7 7 -9 14 -9l15 7c3 2 4 2 5 2l29 -2v2l54 7l-3 -13h-4l-4 -14c-5 -21 -11 -31 -18 -31l-40 5l-48 -4h-16l14 -12v-6c12 -32 12 -40 11 -45l5 -10
c0 -2 -2 -6 -6 -11c6 -2 8 -3 9 -9l-6 -5l8 -12c-9 -31 -10 -35 -10 -45l-13 -39l-4 -12c0 -2 -4 -5 -9 -9c0 -14 -5 -24 -25 -44c-2 -2 -5 -5 -9 -10l7 -9c11 -17 13 -18 31 -25c2 -12 4 -14 18 -21l10 -5l11 -10c1 -1 3 -2 7 -2l26 -5l20 -4l13 1l14 -1l2 -4
c-4 -5 -5 -6 -5 -12c0 -1 1 -3 1 -5l-14 6l-2 -5h-6c-4 0 -8 1 -13 5l-3 -2h-17c-11 0 -14 0 -20 4l-3 -5l-45 -4l-14 -6l-9 8l-6 6l-18 26l-16 21l-10 10c-24 -19 -49 -35 -61 -39l-40 -15l-21 -11l-24 -1c-2 -1 -4 -6 -27 -6c-3 0 -8 3 -10 0l-20 -3c-17 4 -19 6 -38 7
l-10 -3l-82 13c-9 -1 -12 0 -15 7l-34 11l-15 8l-16 16h-8l-12 10l-22 28l-9 14l-10 10v10l-7 11v8l-12 48l-1 7l1 5l3 12c0 1 -4 1 3 26zM74 187l7 -17c5 -5 6 -7 6 -16l-9 -3c6 -6 8 -11 8 -14s-2 -8 -8 -14h4l2 -4l8 -1v4l7 2l15 -24l7 -6l7 -10l9 -7l31 -24
c14 -11 30 -18 56 -24c3 3 5 4 8 4c2 0 3 -1 5 -1l12 -5l16 -7h28l9 -1c1 0 3 1 5 4h6l3 4l23 -7v5l10 1l40 4l40 15c2 1 6 1 11 8l21 9l1 5c15 4 18 6 28 21h-9l-7 10c-21 25 -19 21 -19 32c-17 8 -18 9 -26 23l-5 -1c-3 4 -6 7 -7 9c-10 14 -16 19 -25 30
c-11 7 -13 10 -17 31c-23 9 -25 10 -35 24c-11 8 -12 12 -13 22l-7 2c-20 15 -22 17 -29 29c0 11 -3 12 -17 27l-8 -5l-6 7l-18 19l-4 6c-1 2 -3 3 -7 4l-5 6c-2 7 -4 9 -13 13l-5 -5c-6 0 -7 -1 -11 -5l-10 2c-5 -8 -9 -13 -11 -14l-15 -6l-13 -7l-9 3l3 -8
c-23 -18 -41 -37 -52 -58l-10 -24c-4 -12 -4 -13 -5 -49c0 -4 0 -10 -1 -18zM197 563l-1 -29c0 -17 2 -24 10 -37l-2 -10l43 -49c7 -12 10 -14 22 -15l-2 7c17 -2 19 -1 23 6l42 17l7 3l4 -4l35 27l1 7h5l5 10l10 26c0 2 -1 5 -3 11l9 23c-1 34 -3 21 -10 34
c-17 33 -46 49 -89 49c-41 0 -82 -18 -98 -43c-4 -6 -6 -12 -11 -33z" />
    <glyph glyph-name="quoteright" unicode="&#x2019;" horiz-adv-x="162" 
d="M33 464c4 5 5 7 5 12l4 2c2 5 2 8 3 11c5 20 3 17 8 22l-2 10c5 6 7 9 7 14c0 3 -1 7 -1 11l4 8l-1 9l3 3c-1 5 -1 9 -1 12c0 1 2 13 0 25l-3 27l-6 25c1 2 2 4 5 8c3 -2 5 -3 6 -3c2 0 4 1 6 2l6 -4c8 4 12 6 17 6c7 0 15 -4 15 -8l-3 -29l3 -17l-3 -19v-18
c-2 -5 -4 -9 -11 -15l3 -6l-10 -11l1 -24c-13 -4 -16 -7 -17 -18l4 -3c-5 -19 -9 -26 -24 -45c-12 3 -19 7 -19 11z" />
    <glyph glyph-name="parenleft" unicode="(" horiz-adv-x="317" 
d="M100 328l1 22c5 15 6 20 6 22c0 4 -1 8 -2 14l-3 12c7 11 8 15 9 29l2 7c-1 3 -1 5 -1 7c0 5 1 12 3 19c5 17 8 31 8 38v4c-2 11 -3 19 -3 20c0 2 0 4 1 8h9c-3 -4 12 26 12 28c0 7 1 13 5 22l29 72l6 10l34 70c4 7 10 17 18 30l6 10c12 -3 22 -9 22 -14l-11 -18l-17 -37
l-8 -14l-11 -36l-11 -29c-2 -6 -5 -18 -8 -35c-21 3 -5 -20 -5 -21l-7 -26l-5 -37c0 -1 -1 -5 -3 -10c0 -5 -1 -9 -1 -11c-1 -8 -1 -9 -3 -28l-2 -11l-8 -5c11 -8 8 -13 6 -39v-36c0 -1 -2 -7 -6 -15c-11 -11 -7 -17 3 -12c1 -15 2 -27 3 -35v-14s0 -6 -7 -16
c-7 -12 -7 -8 7 -16l5 -64c8 -2 9 -9 8 -13l-4 -10l3 -34c-1 -1 -3 -3 2 -35c7 -8 8 -10 7 -26c0 -2 4 -10 11 -21c-3 -4 -5 -6 -5 -8c0 -1 2 -4 16 -31v-10l6 -10c9 -4 12 -8 15 -23l-4 -3l15 -18l-1 -4c10 -12 13 -16 22 -38l-4 -4l-9 -1l1 -9l-4 -2l-7 8
c-11 14 -19 25 -22 30l-28 45c-9 14 -17 28 -24 42c-9 17 -10 20 -11 30v2c0 2 0 5 1 9c-13 11 -16 16 -23 41l-13 45l-7 41c-2 6 -4 10 -4 11l2 19l-6 17v17l-4 27c0 2 0 6 1 10l8 16l-2 19z" />
    <glyph glyph-name="parenright" unicode=")" horiz-adv-x="331" 
d="M228 336l-1 -22c-5 -15 -6 -20 -6 -22c0 -4 1 -8 2 -14l3 -12c-7 -11 -8 -15 -9 -29l-2 -7c1 -3 1 -5 1 -7c0 -5 -1 -12 -3 -19c-5 -17 -8 -31 -8 -38v-4c2 -11 3 -19 3 -20c0 -2 0 -4 -1 -8h-9c3 4 -12 -26 -12 -28c0 -7 -1 -13 -5 -22l-29 -72l-6 -10l-34 -70
c-4 -7 -10 -17 -18 -30l-6 -10c-12 3 -22 9 -22 14l11 18l17 37l8 14l11 36l11 29c2 6 5 18 8 35c21 -3 5 20 5 21l7 26l5 37c0 1 1 5 3 10c0 5 1 9 1 11c1 8 1 9 3 28l2 11l8 5c-11 8 -8 13 -6 39v36c0 1 2 7 6 15c11 11 7 17 -3 12c-1 15 -2 27 -3 35v14s0 6 7 16
c7 12 7 8 -7 16l-5 64c-8 2 -9 9 -8 13l4 10l-3 34c1 1 3 3 -2 35c-7 8 -8 10 -7 26c0 2 -4 10 -11 21c3 4 5 6 5 8c0 1 -2 4 -16 31v10l-6 10c-9 4 -12 8 -15 23l4 3l-15 18l1 4c-10 12 -13 16 -22 38l4 4l9 1l-1 9l4 2l7 -8c11 -14 19 -25 22 -30l28 -45
c9 -14 17 -28 24 -42c9 -17 10 -20 11 -30v-2c0 -2 0 -5 -1 -9c13 -11 16 -16 23 -41l13 -45l7 -41c2 -6 4 -10 4 -11l-2 -19l6 -17v-17l4 -27c0 -2 0 -6 -1 -10l-8 -16l2 -19z" />
    <glyph glyph-name="asterisk" unicode="*" horiz-adv-x="378" 
d="M53 580c2 8 4 10 11 15v6l5 3l9 21c4 -6 6 -8 11 -10c2 -8 4 -10 13 -16l32 -13l1 -9c5 -1 8 -2 9 -3l24 -13c2 -2 5 -3 9 -5v13c-1 18 -1 31 -2 36c-1 9 -2 26 -3 36c-2 19 -3 24 -3 25s1 5 2 11c7 -1 13 -1 16 -1l21 1c4 0 7 -2 12 -6c-2 -17 -2 -18 -6 -26l-7 2
l-3 -10l6 -9c7 -6 3 -13 3 -14l-4 -52c0 -1 0 -3 1 -6c6 3 10 6 11 6l41 29c22 15 29 20 39 31c7 -3 8 -4 12 -14c2 -3 4 -8 8 -13c-2 -4 -3 -7 -3 -8c0 -3 2 -8 6 -12c-16 -8 -22 -10 -29 -10h-6l-8 -7l-14 -5l-19 -8c-3 -8 -4 -9 -14 -11c-3 0 -9 -2 -15 -3
c5 -3 8 -6 11 -7c7 -5 12 -8 12 -8l20 -10c1 0 4 -3 15 -12h9l4 -4c8 -8 10 -9 10 -9c2 0 6 2 9 5c4 -7 6 -9 16 -12l-20 -40c-5 0 -8 1 -10 1l-14 11l-19 13l-8 9l-14 7l-29 24c-1 0 -5 2 -10 4l4 -26l-2 -3l6 -15c-4 -9 0 -19 0 -26l-1 -10v-1v-2l6 -25c0 -2 1 -7 1 -15
c-7 1 -12 2 -14 2c-4 0 -12 -1 -24 -2c-2 -1 -6 -1 -10 -1l-3 8l3 6c1 6 2 11 2 13s-1 7 -1 18v6c0 7 1 12 1 14l4 9c1 2 2 7 3 14l-8 10c6 5 9 9 9 12c0 2 -2 5 -6 9l-6 -4l-3 1c-3 -5 -5 -6 -10 -6c-2 -3 -4 -5 -5 -5l-9 -7c-2 -1 -4 -4 -8 -7l-12 -10l-10 1
c-5 -4 -8 -6 -8 -14l-13 3l-5 -13h-5c-14 16 -17 23 -21 41c15 4 18 6 35 18c12 5 15 4 20 4c11 9 16 13 21 14l13 5c2 0 7 3 13 7c-5 3 -9 5 -12 7c-9 6 -16 10 -16 11l-21 7l-12 5c-2 0 -4 0 -7 -1l-6 7c-8 7 -11 9 -23 9z" />
    <glyph glyph-name="plus" unicode="+" 
d="M516 224h-215v-224h-50v224h-216v50h216v225h50v-225h215v-50z" />
    <glyph glyph-name="comma" unicode="," horiz-adv-x="162" 
d="M48 -65l2 15l6 5c-1 3 -1 8 -1 10c0 7 1 10 7 16l-3 11l5 2c-2 3 -3 6 -3 7l2 22l-4 12l-1 24l-5 24c0 2 2 5 5 8c4 -3 7 -5 8 -5l32 6c1 0 3 -2 7 -4c2 -4 3 -7 3 -8l-3 -25l3 -17l-4 -24v-13c0 -3 -2 -5 -5 -10c-3 -3 -4 -5 -4 -7c0 -1 0 -2 1 -4l-9 -11
c0 -1 -1 -3 -1 -3l4 -19c0 -1 -1 -2 -3 -5c-11 0 -13 -2 -16 -15l3 -2c-4 -20 -8 -27 -24 -46c-12 4 -17 7 -17 10c0 4 3 10 8 17c5 6 8 15 8 24c0 1 0 3 -1 5z" />
    <glyph glyph-name="hyphen" unicode="-" horiz-adv-x="384" 
d="M54 200l3 28l-3 21c5 1 8 2 9 2l82 -7c1 0 2 0 4 1l11 5l120 -1h6c6 0 8 -1 15 -5c6 5 9 5 16 5h12c1 -2 1 -4 1 -4c0 -2 -2 -5 -7 -8c3 -11 4 -14 9 -22l-6 -2l-1 -13c-3 -1 -6 -1 -6 -1l-64 7c-1 0 -6 -1 -13 -3c-9 -2 -17 -2 -25 -2c-1 0 -2 -1 -3 -1l-24 3l-14 -3
c-3 0 -7 1 -12 3h-7c-4 0 -8 -1 -15 -4l-2 4l-4 -5l-5 7l9 2l-4 3v4c-14 -4 -18 -6 -26 -16l-6 2h-13h-27h-10z" />
    <glyph glyph-name="period" unicode="." horiz-adv-x="162" 
d="M100 83c16 -12 22 -23 22 -42c0 -21 -7 -33 -21 -41l-2 -6l-15 -5c-2 2 -5 2 -6 2h-3l-3 4h-5l-3 9l-8 2c-1 4 -1 6 -2 7l-5 11c-2 4 -3 9 -3 14s1 11 4 16l6 9l6 13c5 6 11 10 18 10c2 0 5 -1 9 -1c3 -1 6 -1 11 -2z" />
    <glyph glyph-name="slash" unicode="/" horiz-adv-x="496" 
d="M20 -94l4 4c1 6 2 10 3 11l18 33l5 14c1 1 7 -1 20 40c5 14 7 20 10 22c12 25 16 28 21 31l-2 6c21 5 23 7 23 18l-12 -3l-4 3c4 7 7 13 9 17c16 31 18 34 25 43l-2 3c3 5 4 9 6 12c14 31 15 32 17 44c5 4 7 6 20 30c1 2 4 4 9 8l-2 25l15 10v8c5 6 7 11 8 12l34 74l6 10
l3 18c1 3 6 6 13 8l-2 5c8 8 11 13 15 21l31 70l16 30c6 17 6 17 14 23l1 12l8 1c-1 14 23 54 22 57c3 5 5 8 5 9l18 38l6 11l5 13l8 11l14 39c1 2 2 5 4 9l7 14l37 -15c-6 -10 -10 -19 -13 -24c-4 -9 -8 -18 -13 -27c-7 -14 -7 -15 -9 -18c-8 -10 -8 -11 -10 -21l-6 -2
c-3 -18 -3 -19 -11 -21c0 -10 -2 -14 -7 -25c-9 -22 -31 -42 -31 -50c0 -2 -1 -6 -3 -10l2 -3c-3 -11 -5 -16 -11 -26l-11 -21c-5 -10 -10 -21 -17 -35l-75 -152l-28 -53c-7 -22 -9 -25 -18 -32c0 -2 1 -4 1 -4l-11 -23l-23 -52l-16 -28c-1 -2 -2 -5 -4 -10
c-6 -21 -8 -24 -17 -24c3 -15 2 -19 -8 -22c-2 -22 -3 -25 -15 -33c1 -2 1 -4 1 -6c0 -6 -23 -42 -19 -36l-12 -31l-26 -47c-2 -5 -3 -10 -6 -21c-5 -4 -8 -6 -12 -6c-6 0 -11 2 -28 14z" />
    <glyph glyph-name="zero" unicode="0" 
d="M50 298c6 3 6 3 8 15c2 7 5 12 19 26c6 12 9 16 23 28c27 24 41 35 54 40l35 16c16 7 28 11 33 11c1 0 2 -1 5 -1c2 0 4 -1 8 -2l1 6l11 -1l19 -3l3 4c3 1 5 1 5 1l34 -4c1 0 2 0 4 1c5 1 9 1 10 1c12 0 33 -5 59 -15l25 -13l32 -20l21 -18l9 -3v-13l7 -4l-3 -8l10 1
l13 -21l15 -41c2 -6 3 -10 3 -13c0 -2 -2 -10 -5 -17c3 -4 8 -12 0 -13c-5 -3 -6 -4 -6 -11l11 -3l1 -3c-8 -3 -10 -4 -15 -10c-2 -2 -4 -4 -7 -8l8 1v-4c0 -4 -2 -7 -8 -10l3 -4l-1 -5l3 -4c7 8 8 10 9 20l2 12l9 -2v-10c0 -11 -3 -30 -9 -51c-3 -11 -4 -13 -13 -24l-3 -10
l-4 1l-1 -8l-9 -7l9 -1l-10 -17l-25 -30l-4 -7c-3 -3 -7 -5 -22 -11c-3 -6 -5 -7 -10 -9l-3 4c-12 -1 -14 -4 -17 -16c-5 -3 -9 -5 -12 -5c-25 0 -29 -4 -31 -12l-12 1c-2 -3 -5 -5 -6 -6l-15 -3l-22 -4l-34 1l-15 -1c-5 0 -10 2 -19 8v-4l-7 -1l-5 4c-18 0 -22 1 -29 9
l-18 2l-9 6l-12 4l-10 9l-15 2l-1 7l-10 8c-15 9 -18 12 -20 21c-17 10 -34 32 -41 54l-6 19c0 1 -2 4 -4 9l3 6l-4 -1l-1 11l-4 19l4 8h3c-11 16 -11 16 -11 23c0 22 2 41 6 52l11 32v9zM101 207l-3 -2l5 -10c2 -5 3 -9 3 -11s-1 -4 -2 -8l2 -6h10l-1 -14l-6 -1
c9 -26 14 -38 20 -47l29 -43l16 -18l9 -1c21 -15 32 -22 40 -23l46 -9l7 -1h2c28 0 62 9 86 23l5 -1l4 6c8 1 10 2 13 9l15 3l-2 2l6 9l23 36l15 36l4 8l-2 14l4 9c2 3 2 5 2 6l-1 23c0 1 0 3 1 5h4l1 5c-8 13 -9 16 -8 26l5 3l-3 15c-12 56 -20 76 -34 89c-8 7 -9 9 -9 14
v2h-5l-18 19l-4 -1c-5 8 -7 11 -18 16c-18 9 -25 11 -59 15l-12 2l-4 7l-8 -4l-14 3l-19 -8l-8 4l-5 -5c-4 1 -8 0 -9 -1l-6 -3l-10 -2c-2 -1 -4 -3 -6 -6h-4c-8 0 -10 -1 -24 -13l-18 -15l-6 -9l-9 1c-10 -13 -8 -15 -16 -20l3 -8c-12 -15 -15 -22 -20 -46l-3 -18l-7 1
l-2 4l-5 -5c9 -3 14 -8 15 -12c0 0 -1 -2 -2 -6c-2 -3 -3 -8 -3 -13c0 -3 -5 -11 0 -25z" />
    <glyph glyph-name="one" unicode="1" horiz-adv-x="301" 
d="M27 6v13l12 1c38 3 45 6 60 22c12 13 16 23 17 43l9 4v4l-6 -1l-1 9l4 1l-1 7l1 35v18l6 6l2 23h-7v9v14l3 25l-4 9l1 25c0 1 0 3 -1 7c3 0 5 -1 7 -1l1 -3l5 7l-16 25l5 17l-5 3c-1 25 -3 33 -12 47c-5 2 -7 3 -10 8h-6l-10 10c-3 0 -4 1 -5 1l-14 -1l-11 5l-6 -2l-7 6
l-6 -5l3 23l14 -2c15 -2 22 -3 32 -3h20l31 1l6 -11l16 5v5h21l6 -5c4 5 23 6 25 7l25 -1l4 2l3 -3c9 5 12 6 15 6c5 0 9 -6 10 -16l-8 -6l-14 -1l-9 -4h-7h-4v-5c-14 -3 -17 -4 -28 -15c-6 -11 -7 -14 -8 -27l-3 -4v-13l-9 -9l7 -10c0 -1 -1 -2 -2 -5l-4 2l-4 -2l7 -5l3 -9
l-4 -2c2 -7 4 -11 4 -12l-4 -49l3 -16l-1 -9l5 -3l-4 -16c-1 -4 -2 -7 -2 -9v-2l1 -11c0 -2 0 -6 -1 -10c5 -10 3 -14 2 -15v-12l-4 -9l5 -4c1 -19 2 -25 7 -43l-4 -4c3 -11 4 -14 11 -18v-7c23 -14 36 -18 80 -23l-1 -18c-6 -1 -10 -2 -12 -2l-22 5l-121 4s-4 1 -11 2
l-8 -6l-20 3l-13 -4l-8 2l-12 -3l-8 2l-8 -5z" />
    <glyph glyph-name="two" unicode="2" horiz-adv-x="453" 
d="M163 84l11 -1l2 10c7 3 9 5 15 12h8l4 8l17 18l5 8l6 -2c12 7 19 12 27 21l31 36l6 7l7 12l7 -4l5 9l-6 3l4 9c9 21 15 35 15 43v3c-2 11 -3 22 -3 32c0 12 1 18 5 31l-5 -4l-8 13l4 3c0 8 -2 11 -11 17l-4 -1l-17 14l1 6l-9 2l-35 15c-3 1 -13 2 -27 3l-31 1l-10 -10
l-4 6l-8 -1l-9 -1l-31 -5l-2 -4l-9 2l-5 -10l-15 -12l-3 -9l-7 -12l-1 -12l-3 -2l-11 -54l-20 2c-1 4 -2 7 -2 8l4 46c0 1 0 3 -1 6l8 -2v7h-5c-1 12 -1 17 -1 22c0 12 1 22 4 42c6 4 8 5 13 7c2 0 7 2 13 3l17 4s1 0 2 -1l11 -1l5 6l11 1l19 2c3 0 7 0 12 -2v3l8 3l26 -2h3
c10 2 17 3 21 3c5 0 20 -2 42 -6l12 -1v-3c4 1 7 1 9 1s6 -1 10 -2l17 -7l29 -16l15 -6l1 -5c13 -8 18 -14 31 -39l6 -11l-5 -5l2 -10l10 -10l-2 -12s1 -8 3 -19c1 -2 1 -3 1 -3c0 -13 -13 -45 -28 -71l2 -9l-15 -9l-44 -48l-21 -16l-8 -9l-13 2v-10l-10 -6l-23 -17l-8 -4
c-19 -10 -34 -19 -58 -38l15 -10v10h4l1 -8l7 -4c6 3 6 4 6 11h8h10c5 0 7 0 11 -3l11 4l27 -1l1 -5l8 -4l4 9l11 -3l3 4l55 3l6 -7l1 7l7 4l53 2c-8 -16 -9 -19 -10 -30l-8 -4l2 -12l-4 -16l-27 2l-2 6c-12 -5 -22 -7 -27 -7h-15l-15 1l-3 7l-18 -7l-3 11l-4 -1l1 -7
l-11 -2c-16 -4 -19 -5 -28 7l-10 -7l-5 4c-10 -4 -18 -6 -23 -6c-3 0 -7 1 -14 2l-2 3l-51 -1l-1 -6h-5l-3 5l-20 -1c-2 3 -3 6 -3 7c0 2 2 5 4 8c-8 -4 -10 -6 -10 -14l-8 -3l-6 8c-4 -4 -7 -5 -9 -6l-11 -1l-16 -2c-5 1 -9 4 -9 8c0 6 7 12 22 18c22 10 40 20 55 31
c9 7 16 12 19 13c16 9 14 7 20 15z" />
    <glyph glyph-name="three" unicode="3" horiz-adv-x="413" 
d="M33 293c2 9 2 16 2 21c2 33 2 32 8 47l-6 6l7 14l-1 40l80 15l5 -6l5 2v4l10 1c6 1 11 1 15 1s11 -1 19 -2c5 5 10 8 13 8s9 -4 17 -10l18 2c1 1 2 1 3 1c3 0 7 -2 11 -6c5 2 8 2 10 2c3 0 9 -2 15 -6l5 2l5 -5l7 1l9 -6c5 -4 9 -6 11 -6c1 0 2 0 3 1l19 -19l10 -5l2 -7
l12 -7v-8l7 -4l3 -15l5 -9l3 -3l1 -17l1 -15c0 -3 -1 -5 -4 -9l2 -13h-4v-11l-5 -2c-8 -34 -39 -63 -91 -85l-3 2l-9 -9l-6 4l-11 -12l-6 3l-5 -9l19 4l2 -6l10 2c5 0 8 1 8 1c14 0 35 -8 60 -21c8 -4 13 -8 15 -10l6 -8c1 -2 5 -5 11 -9v-7h-7l1 -5c2 -3 4 -5 5 -5l14 2
c1 0 3 -5 8 -16c10 -23 13 -33 13 -48c-6 -4 -7 -5 -8 -12l7 -4c0 -21 -4 -36 -14 -55c-6 -10 -7 -12 -17 -15l1 -4h4c-2 -10 -5 -16 -9 -20l-45 -41l-10 -10h-6l-5 -7c-15 -4 -19 -11 -21 -11c-4 0 -5 -1 -9 -6l-56 -27c-11 -5 -17 -6 -29 -6l-8 -2l-7 -8l-5 4l-15 -11
l-28 -5l-9 -2c-2 0 -5 0 -9 2l-8 -13l-13 6l-12 -4l-9 -4c-7 5 -8 6 -8 15l-1 11l18 4l7 -3l17 8l2 -5l5 7c9 1 15 2 18 4l7 5l13 4l5 -4l27 11c8 13 15 16 35 18c8 2 0 0 23 13c9 6 13 12 19 10c3 7 5 10 15 16l17 20l14 9l5 23l8 -3l19 42c1 16 -1 18 7 28l-5 6l10 1
c-7 4 -8 7 -8 14v6l10 -1c1 11 -2 19 -7 19c-2 0 -5 -2 -7 -5l-3 14l-4 12l-7 8l-4 12l-6 3l-8 11l-11 6c-27 13 -32 15 -50 17v4l-11 2l-20 1l-6 3l-8 2l-16 -2l-12 2l-10 -1c-5 -1 -8 -1 -10 -2c-6 -1 -11 -1 -15 -1c-7 0 -8 3 -8 17v13l10 1l17 1c4 0 10 -1 18 -6
c7 3 9 4 13 11c45 3 66 11 96 36c18 17 27 30 27 37c0 3 -1 5 -2 9l6 -2l9 26l7 -1c3 4 5 8 5 10c0 3 -1 7 -5 12l-2 -9l-5 1l2 24l-2 2c-3 20 -6 27 -17 44c-4 2 -5 3 -5 7c-7 3 -8 5 -12 11h-8l-17 8l-28 7l-16 3l-12 -1l-10 -2l-3 3l-14 -5l-2 5c-7 -5 -12 -8 -16 -8
c-2 0 -5 1 -8 3l-3 -1c-5 -3 -9 -4 -12 -5c-25 -9 -28 -11 -42 -31l-3 -1l-5 -14c-6 -20 -9 -35 -9 -44c0 -15 -3 -20 -11 -20c-3 0 -8 2 -14 5z" />
    <glyph glyph-name="four" unicode="4" horiz-adv-x="521" 
d="M33 5l1 13c5 9 7 11 14 15l-1 3c3 4 5 7 7 9c5 7 7 8 13 12c2 12 5 18 19 31l7 7v5l7 8c8 8 9 10 12 20l8 4c3 11 5 13 15 18l-3 4l2 3l8 2c3 15 3 15 20 37l7 10h5c2 11 4 12 14 13l-1 10l8 2l4 7c-8 -6 12 23 20 23l-1 10l5 4l4 -4l5 18l24 32h9l-1 10l7 3l2 9l5 1
c1 7 2 9 14 15c9 4 0 10 4 14l8 10l12 14l6 11l7 10l8 5l-2 4l6 7c17 -1 23 -3 45 -12l-3 -32v-10l-3 -73l7 -28l-4 -18l1 -52l-3 -47l3 -17l-4 -4l1 -89l23 1l30 2h2l13 -3l3 3l7 -1c4 2 8 3 10 3h4l12 2l3 -5l-4 -11c-4 -9 -4 -11 -5 -20h-4c1 -4 2 -7 2 -9s-1 -5 -3 -8
h-4l-1 -8h-4l-1 4l-29 1l-9 3l-4 -4c-4 0 -6 1 -7 1l-23 -1l-8 1c-1 -1 -3 -3 -5 -6l3 -5l-3 -5c2 -4 3 -8 3 -10c0 -3 -2 -7 -6 -13v-6l4 -3l2 -7c-5 -3 -6 -4 -7 -10c3 -3 5 -6 5 -7c0 -2 -2 -5 -5 -8c6 -9 4 -10 2 -22l1 -11c0 -4 1 -6 1 -7v-2l-2 -9l-1 -13l-6 3v-4
c-5 -3 -8 -6 -8 -9c0 0 1 -1 2 -3l12 5l1 -11l-12 3l-2 -2l-7 4l-5 -3c-7 -1 -12 -2 -16 -2s-10 1 -18 2l5 48l-2 2v13v8l1 21v32l4 4l-4 4v2c0 3 1 4 3 6l-4 26l-6 -3c-2 3 -5 5 -7 5c0 0 -2 -1 -4 -1c-2 -1 -4 -2 -6 -2h-14c-2 0 -7 -1 -14 -5l-5 6l-9 6l-19 -5l-4 -5
l-2 4l-8 2l-7 -7l-13 7l-14 -8l-17 4l-23 -3c-6 0 -10 1 -13 1c-2 1 -3 1 -4 1c-2 0 -5 -1 -13 -4c-11 -2 -14 1 -29 0c-10 1 -12 -1 -13 -1l-15 3l-19 -3c-2 1 -5 2 -9 5zM100 53l81 -2l10 5l9 -5h12l1 -3l8 -3l1 6l29 3c5 -5 7 -6 14 -6v5l54 2l2 33c0 10 -1 16 -4 30
c6 2 7 4 7 12l3 5l-5 1c0 2 1 4 1 5c0 3 -1 5 -1 6l-1 30l2 29c-1 4 -2 7 -2 8c0 2 2 6 5 11l-3 32c0 1 2 4 6 9l-9 3l1 12l1 9l1 6l-1 28v10v9l-1 13l-8 2l-2 -13c-1 -17 -2 -17 -18 -35l-6 -9l-6 2l-9 -16l-8 -10l-15 -21l-14 -17c-8 -14 -8 -14 -18 -15v-5l-6 -2l-3 -15
l-13 -9c0 -8 -1 -9 -6 -13l-1 -14l-7 -1l-22 -36l3 -3l-3 -8h-7c-17 -15 -24 -24 -42 -56l-11 -2z" />
    <glyph glyph-name="five" unicode="5" horiz-adv-x="394" 
d="M33 -192c4 1 7 2 10 2l10 1c6 2 12 3 14 3c4 0 6 0 11 -1l-2 5l36 12l2 5h11l2 4l37 13c3 7 4 8 11 8l16 9l13 23l12 -3c4 5 6 6 14 8l3 9c12 8 14 11 19 22c7 1 9 2 11 9l6 12l9 6c1 2 4 6 7 12l7 16c5 10 5 11 5 29l6 7l1 -3c1 2 1 3 1 4l-3 12v47l-5 18
c-3 15 -7 22 -17 31c2 9 3 13 3 16s-1 6 -3 11c-5 0 -7 -1 -9 -6h-6l-6 8l5 15l-15 11l-3 -3l1 -7l-12 -1l1 4l-10 5l-8 3c-1 0 -4 3 -8 7c-2 -1 -4 -2 -6 -2s-5 2 -8 5l-10 -2l-6 6l-11 -1l-50 1l-12 -3l-13 -2l-3 -4l-20 -1l-18 -6v4l-8 5v-7l6 -4l-4 -5l-8 8l3 13l-2 12
l4 2v37l4 6l-4 8c0 2 1 4 4 8c-1 4 -2 8 -2 10v6l2 15h2l-1 23l-1 7l2 10l4 25v5l-1 13c0 3 1 10 4 17l-2 14v8l12 1c7 0 10 -1 18 -5v4l14 -2h12h36l12 1l49 -1l32 -1l22 -1l4 -5l1 6c6 2 11 3 12 3l49 -4c1 0 6 2 14 5c7 3 13 4 18 4c1 0 4 0 7 -1l-20 -57l-35 4l-3 6
l-6 -2v-5c-5 0 -9 -1 -12 -1c-4 0 -6 1 -11 4c-8 -4 -11 -5 -22 -5l-2 2c-4 0 -7 -1 -10 -1s-6 2 -9 7c-8 -5 -9 -3 -25 -5c-5 0 -8 0 -11 -1c-8 -1 -14 -2 -16 -2c-3 0 -7 1 -9 1c-7 2 -11 4 -11 4c-2 0 -4 -2 -7 -4c-3 0 -4 1 -4 1l-26 -2c-1 -1 -4 1 -8 4
c-6 -5 -6 -5 -19 -5l-12 -2v-5v-6l-4 -13l1 -22l-3 -9c0 -11 -1 -15 -1 -17l1 -20l-1 -16l-4 -2l2 -42l38 8l13 4l8 2l3 -3l24 5l2 4l8 -4c24 0 47 -3 73 -8c17 -4 20 -5 24 -14l11 -1l10 -6l13 -5c2 -2 6 -6 11 -12c13 -6 16 -8 30 -29c11 -17 18 -31 18 -37l1 -14l4 -11
c0 -2 -1 -5 -4 -9l4 -2v-8h3l-2 -15c0 -2 1 -5 -6 -37l4 -1c-4 -17 -8 -29 -17 -48c-5 -10 -6 -11 -16 -18c-1 -8 -3 -11 -8 -16l-10 -8v-4l-10 -10l-7 -8c-11 -15 -37 -34 -88 -65c-34 -21 -56 -29 -81 -31l-7 -6l-16 -5l-19 -7c-2 0 -7 2 -13 5l-7 -9l-20 -1
c-3 -2 -6 -3 -8 -3c-5 0 -8 4 -9 16z" />
    <glyph glyph-name="six" unicode="6" horiz-adv-x="511" 
d="M33 301l6 7c1 -8 2 -10 7 -15c2 5 3 8 3 9l-5 35l7 29l1 7l25 64c2 13 4 14 12 16l4 4c-2 3 -3 4 -3 7v3h5c0 14 3 20 26 45c2 3 5 7 9 12c15 19 22 24 37 29l-1 5l7 7l13 13c2 2 6 4 13 8v5l16 12c9 2 8 2 16 11c3 3 12 8 26 15l34 17l52 23l22 7c3 1 7 2 12 4
c5 -7 7 -12 7 -17c0 -3 -1 -6 -2 -6l-28 -10l-24 -12l-11 -1l-19 -12c-3 -2 -9 -2 -17 -2l2 -6l-2 -4c-9 -2 -9 -2 -16 -10l-25 -17c-7 -4 -16 -13 -27 -24l-5 -6c-16 -17 -26 -30 -31 -37c-25 -40 -22 -37 -37 -47c1 -3 2 -4 2 -6c0 -1 -1 -5 -3 -8h-4l-3 -17
c-14 -31 -13 -34 -13 -35c0 -5 -2 -7 -7 -10l-6 4l-3 -6l9 -4c-1 -6 -2 -10 -2 -11l-7 -61l-5 -11l-5 -19l7 -1l12 19l12 13l12 15l12 6l8 6l15 4c3 6 5 7 12 6l5 6l14 5l21 3l16 5l14 1l2 -2l11 2l39 -2h3c6 0 11 -1 23 -5h5c5 -4 11 -7 14 -7l5 1l2 -9c3 2 5 3 6 3
c2 0 5 -2 8 -6c16 -4 22 -7 27 -11l18 -19l25 -26c9 -9 15 -21 21 -44l-9 -1l1 -5c-3 -5 -6 -9 -6 -12c0 -1 1 -2 2 -5l12 -3l1 11c10 -16 10 -16 11 -33c1 -3 1 -7 2 -12l-2 -11l-4 -34c-1 -10 -5 -22 -15 -43h-3v-5c0 -6 -4 -14 -12 -22l-4 -2c-3 -8 -5 -10 -13 -14
c-14 -25 -29 -35 -87 -62l-2 2l2 4l-3 -1c-7 -5 -11 -7 -15 -7c-3 0 -7 1 -11 2c-6 -1 -7 -3 -8 -10c-3 2 -6 3 -7 3l-21 -6h-4c-3 0 -7 1 -13 3v-3l-12 1l-1 3c-12 -3 -15 -3 -19 -3c-2 0 -5 1 -25 8c-10 -2 -12 -1 -16 2c-6 3 -10 5 -13 5l-9 1c-5 0 -12 4 -25 14l-9 6
l-4 12c-5 7 -7 8 -17 8c-9 9 -12 12 -14 22h-5l-1 7c-13 9 -16 15 -16 31v8l-5 -1c-12 20 -15 28 -15 37c0 3 1 7 3 13c-11 10 -14 18 -14 44l1 16l-3 11c-2 5 -2 8 -2 10c0 3 1 7 4 12l4 9l-7 15h5l-5 12c0 2 1 6 -3 16zM98 217c3 -3 4 -4 9 -4l2 6h5l-1 -17
c0 -8 -1 -10 -7 -15c5 -4 6 -6 6 -11v-4h-6c5 -9 8 -16 8 -21c0 -2 -1 -6 -3 -11l6 -5l4 -34c7 -2 9 -4 9 -9v-5l14 -4l-3 -13c6 -3 10 -6 11 -6l28 -29l28 -13c7 -3 14 -5 20 -5l16 -1l8 -3l9 1c1 1 3 1 4 1h2l11 -1c4 0 13 2 26 7l13 3l6 -5l-2 7l25 18l8 -3l1 8l11 11h6
v6l13 15l7 1l-1 8c18 29 23 43 23 67l4 4c-3 7 -4 11 -4 15s1 9 5 18l-3 -1l-5 6v10l-5 22l-7 21l-11 16l-4 12l-12 13l-5 10l-7 2l-3 10l-3 -5c-8 12 -11 14 -22 19l-3 -3l-7 10c-8 -6 -11 -7 -18 -7l-3 14l-8 -3l-5 5c-10 -3 -16 -4 -19 -4c-5 0 -11 1 -18 2l-30 -6
c-10 -5 -20 -8 -25 -8l-8 1v-8l-8 1v3l-5 -3c-10 -6 -13 -9 -13 -12l-3 -10l-8 -5l-6 -13l-6 -1l-4 -12c-11 -18 -11 -20 -11 -22c0 -4 -2 -10 -5 -17l-4 1l-2 5l-8 -4v-4c0 -4 -2 -7 -7 -12z" />
    <glyph glyph-name="seven" unicode="7" horiz-adv-x="432" 
d="M27 292l4 42c1 13 1 17 1 31l4 3l2 -1v4l-4 8l4 22l1 21l12 -2l21 -2l12 -6l-1 6l11 -3l49 1h158l51 2c4 -2 7 -3 9 -3l6 2c5 2 12 3 21 2l2 -7l5 2v6l7 -2l25 3l7 -5l-6 -18l-49 -89l-16 -36l-9 -10l7 -3l-14 -17l-19 -32c-6 -3 -6 -4 -6 -8v-4l-7 -4
c-2 -5 -2 -9 -3 -11c-1 -7 -2 -8 -7 -13l-5 4c2 -5 2 -10 2 -13c0 -4 0 -7 -2 -9l-23 -41l-2 -11c-2 -5 -7 -14 -16 -25c-10 -13 -14 -20 -19 -35h-4c-4 0 -8 -5 -8 -11l2 -12l-14 -7l3 -17l-7 -2c-2 -11 -3 -19 -5 -22l-10 -17l-5 -11h-4l-1 -11l-9 -3l2 -6l-9 -22l-2 -11
l-7 -1l-2 -6c-7 -5 -6 -8 -6 -9l-18 -46l-3 -11l-44 19v3l7 9l4 10l6 8l-1 3c9 9 11 13 11 23v8c13 5 18 11 23 31c3 11 5 13 12 19l4 14l1 8l16 28l3 9l10 11l15 26l7 10c9 1 7 2 8 16l5 13l9 13l2 8c0 1 2 4 6 6c2 2 5 4 8 7l-3 8c11 13 15 21 19 29l6 16l8 15l7 2l1 4
l4 19l18 28c6 12 7 15 7 16l22 40l4 18l4 10h6c6 5 9 11 9 15c0 0 -1 1 -1 2c7 13 9 16 19 26l-34 2l-11 1h-35l-29 2l-12 -5l-13 9c-3 -5 -5 -6 -9 -6h-11h-9l-17 -2l-29 2l-20 -3h-7c-4 0 -8 1 -20 4l-2 -4l-11 -1c-16 0 -24 -2 -26 -4l-8 -8l-13 -10l-1 -7l-8 -27l-1 -8
l1 -12c-3 1 -4 2 -5 2l-8 -5z" />
    <glyph glyph-name="eight" unicode="8" horiz-adv-x="515" 
d="M34 159l1 23c3 3 4 6 4 8c0 1 -1 3 -2 6c6 9 6 10 9 26c2 15 6 20 15 21l-2 10c7 3 8 5 8 11l8 7l21 24l17 12l10 8c25 18 63 34 104 43l-3 7l-14 -5c-1 0 -3 0 -6 1l-4 5c-17 -1 -41 14 -53 33l-1 -4c-13 10 -17 14 -25 27l-29 39c-5 8 -6 11 -6 20l-6 9v16l-3 18l2 6
l-2 6l3 -2l4 6l-2 24l11 25c9 18 36 46 49 52l43 19l14 7l19 3l38 6l12 -1l6 2l10 -4l9 1h6l6 1l3 -3c19 -1 27 -3 42 -13l3 2l12 -5l8 -5l19 -14l9 -5c9 -6 19 -19 30 -38l5 -8c1 -3 2 -4 2 -5l-1 -11l6 -18v-7l1 -10l-3 -1l1 -10c0 -5 -2 -13 -7 -22c1 -1 1 -3 1 -4
c0 -3 -2 -6 -14 -21c-2 -10 -3 -18 -4 -19l-22 -22l-12 -16l-24 -18c-16 -13 -14 -12 -23 -14c-4 -4 -8 -6 -10 -6c-1 0 -1 1 -3 1c-5 -6 -6 -6 -28 -14l20 -3l21 -12l18 -6l33 -20c13 -7 22 -14 28 -20l14 -15l10 -8c-1 -3 -2 -5 -2 -6c0 -2 2 -6 5 -9l8 3v-7l3 -3
c7 -7 12 -16 12 -21c0 -3 -7 -12 4 -9c4 -5 6 -9 6 -11c0 -4 -4 -8 -13 -16c2 -3 3 -6 3 -7c0 -2 -1 -4 -4 -7l10 -6l5 5l-1 -23c4 -7 7 -13 7 -16c0 -6 -3 -11 -10 -23l-5 1c-3 -3 -3 -5 -3 -7v-3l-5 -6l10 1c-9 -26 -11 -30 -24 -38v-5c-6 -5 -7 -7 -9 -14l-15 -6l2 -10
l-12 -4l-29 -21c-4 -3 -7 -4 -14 -4h-3v-5l-10 -3l-12 -6l-22 -3l-7 -4l-24 -4l-13 -3l-9 1l-2 -4c-8 2 -5 2 -35 2h-12l-6 5l-6 -4l-21 6h-8l-5 5h-9c-13 0 -15 1 -29 14c-11 1 -16 2 -24 9l-28 23l-15 10c-3 3 -4 9 -6 17c-8 5 -9 8 -9 18l-6 1l-5 18l3 -1l3 6l-7 -1
c-4 8 -6 14 -6 16l-1 23zM90 114l5 -3v-9c4 -4 6 -8 6 -10c0 -1 0 -1 -1 -3l21 -29c26 -19 42 -29 59 -35c17 -5 54 -12 67 -12h3l11 1l32 4c20 3 26 6 27 7l8 2v-4h5v7c6 5 13 7 16 7l6 -1l11 9l14 10c5 3 10 8 17 17h3l16 25l1 8l7 6l1 14l4 8v4v8c3 26 3 26 -3 41
c-1 3 1 7 -3 12l-5 9l-7 15l-10 11l-7 9l-8 8l-14 9l-16 17h-7l-21 13l-16 7l-5 8l-10 4l-11 7l-10 2c-4 2 -10 5 -16 11l1 7l-11 -4l-9 5l-17 -6l-26 -9l-7 -7l-55 -42l-8 -11l-5 -4l-3 -9l-5 -2l-5 -9c-15 -32 -24 -64 -24 -84c0 -2 0 -4 1 -9l2 -15c1 -2 1 -8 1 -15z
M167 452l7 1c5 -11 8 -14 17 -20c15 -10 20 -13 24 -13c1 0 3 1 6 2c0 -7 1 -8 7 -12l14 -6c23 -9 37 -14 41 -14c3 0 6 1 8 2l16 10l25 17c12 8 13 10 15 13c7 16 6 15 15 18c1 12 3 15 11 20l4 11c13 36 11 30 12 45l3 1l-4 6l-1 5l1 24c0 4 -18 34 -35 58l-9 3l-17 14
c-2 1 -8 2 -18 2l-3 3h-5c-8 0 -13 1 -24 6l-3 -3l-44 -1l-3 -4l-6 3l-10 -4h-3l-1 -4l-24 -11l2 -7c-11 -1 -15 -3 -21 -11l-16 -20v-4v-9l-7 -1c-5 -17 -7 -32 -7 -54s6 -34 33 -66z" />
    <glyph glyph-name="nine" unicode="9" horiz-adv-x="510" 
d="M33 207v32c0 58 21 108 58 136v4l17 8c4 8 6 9 13 11l3 5l13 6l10 -1l8 10l10 4l25 10l7 -3l1 4l13 4h30l13 4l23 -5l14 1l15 -4l34 -10l34 -20l-1 -20h7c1 -8 3 -9 12 -8v4c10 -1 15 -3 18 -7l11 -18l9 -9l4 -10l3 -2l4 -9l12 -19l3 -19l7 -16v-7l4 -11l-3 -3l5 -9
l4 -23l2 -17l-3 -13l4 -2c1 -2 1 -3 1 -4s-6 -10 -2 -25l1 -11h-5l4 -8l-3 -17c-2 -3 -3 -4 -2 -8v-6l-1 -11l-4 -4l2 -9l-5 -3l2 -6l-5 -8l-2 -17l-6 -7l-4 -9l-2 -16l-5 -1c0 -10 -1 -13 -9 -22l1 -6c-8 -7 -10 -10 -14 -22c-6 -6 -31 -37 -29 -34c0 -3 -1 -6 -1 -8
l-22 -21c-6 -1 -9 -3 -9 -6v-5c-17 -11 -20 -13 -24 -22l-24 -19l-14 -10l-19 -13l-34 -16l-10 -5l-1 -3h-8l-2 -6c-7 0 -9 -1 -13 -4l-9 -4l-7 -4c0 -1 -3 -1 -6 -2c-5 2 -7 3 -9 9l2 3l-6 10l9 6l30 17c13 7 15 7 22 8c0 0 2 0 5 -1l7 12l10 -2l4 11c10 1 12 3 16 14
l13 10l10 8c19 19 26 26 32 36l7 -1l3 3l-4 2v4l5 2l2 7l8 10l7 14l4 -7l8 22c3 14 6 21 7 26l13 40l4 4l6 43c2 2 5 6 8 11l-6 4c2 4 3 9 3 11c0 1 0 3 -1 6l-11 -9l-10 -11l-6 -3l-5 -6c-2 -1 -5 -3 -10 -4c-1 -4 -2 -6 -7 -9l-9 -4c-16 -9 -27 -14 -32 -14c0 0 -2 0 -4 1
l-4 -8c-6 -2 -10 -3 -14 -3c-1 0 -3 0 -6 1l-4 -4l-52 -6l-3 5c-4 -3 -6 -4 -10 -4l-10 1l-2 3l-6 -5c-12 7 -12 7 -34 10c-2 0 -6 1 -11 2c-8 4 -11 6 -15 11c-6 1 -10 1 -11 2l-15 11l-8 3l-5 5l-20 17c-2 2 -3 3 -3 5l2 5c-17 3 -20 7 -20 25h-4c-5 5 -8 10 -8 13l3 6
c-9 5 -9 7 -10 26l-3 9l1 5zM379 394l5 1l3 -7c-1 -1 -2 -1 -3 -1c-3 0 -5 2 -5 3v4zM91 256l1 -14v-12l6 -16l-3 -7c5 -6 7 -45 16 -46c5 0 6 -1 7 -7l-3 -3l5 -4l-2 -8c4 -3 7 -4 10 -4c7 0 5 -7 21 -22l2 -6l-6 -3c14 0 18 -1 26 -11h15c6 -8 6 -7 18 -10
c14 -4 19 -5 27 -5c1 0 3 0 4 1l21 2l10 -4l14 5l19 8h3c1 0 3 -1 5 -1l3 5c12 3 18 5 23 9l14 13l9 2l1 7c9 8 11 11 18 23c2 -1 3 -1 3 -1c3 0 7 3 11 8c1 8 2 11 10 19h-11l-2 5l11 6l-5 3c4 9 11 14 11 19l3 14l-2 31l-7 25l-2 34c-6 6 -8 8 -9 15l-7 1l1 6
c0 3 -1 7 -4 12c-7 2 -8 3 -24 20c-1 6 -2 8 -6 12l-8 -2l-2 7l5 6l-11 3v-7h-5l-17 17c-3 -1 -4 -1 -5 -1c-4 0 -2 4 -36 7l-2 5c-3 -2 -6 -3 -6 -3l-15 2l-8 -3l-7 5l-4 -6l-20 -4l-3 3c-17 -10 -23 -13 -28 -13c-2 0 -4 0 -8 1l1 -5l-9 -7c-20 -13 -18 -11 -23 -20l-5 -8
c-5 -2 -6 -4 -8 -9h-3l-2 -9h-4l-4 -11l-10 -22l-3 -13l5 -5c-5 -9 -8 -18 -8 -24v-5h-2z" />
    <glyph glyph-name="colon" unicode=":" horiz-adv-x="162" 
d="M100 83c16 -12 22 -23 22 -42c0 -21 -7 -33 -21 -41l-2 -6l-15 -5c-2 2 -5 2 -6 2h-3l-3 4h-5l-3 9l-8 2c-1 4 -1 6 -2 7l-5 11c-2 4 -3 9 -3 14s1 11 4 16l6 9l6 13c5 6 11 9 18 9h9c3 -1 6 -1 11 -2zM96 360h3c14 -9 23 -26 23 -48c0 -6 -1 -10 -4 -19
c-3 -4 -5 -6 -7 -8c-12 -9 -10 -8 -13 -14c-6 -3 -12 -4 -15 -4c-2 0 -4 0 -7 1l-4 5h-5l-7 4l-4 7c-1 4 -2 7 -3 8l-4 10c-1 2 -2 6 -2 9c0 26 17 51 33 51c5 0 10 -1 16 -2z" />
    <glyph glyph-name="semicolon" unicode=";" horiz-adv-x="162" 
d="M48 -69l5 4l-2 9c4 7 6 10 6 15c0 3 0 7 -1 11l5 7l-2 10l4 2c-2 6 -2 10 -2 13s1 8 2 15c-2 5 -3 8 -3 10l-2 28l-5 24c0 1 2 4 4 7c9 0 12 0 17 -4c5 4 8 5 13 5c4 0 9 -1 18 -3c2 -4 3 -7 3 -8l-3 -25l3 -17l-3 -19l-1 -18c-1 -5 -4 -9 -10 -16l2 -5l-9 -11
c-1 -2 -1 -3 -1 -3l3 -19c1 -1 -1 -3 -2 -5c-12 0 -14 -2 -17 -15l4 -4c-8 -23 -12 -30 -23 -44c-5 1 -9 3 -12 4l-7 3l16 40v5v4zM83 360h3c14 -9 22 -26 22 -48c0 -6 -1 -10 -3 -19c-3 -4 -6 -6 -8 -8c-11 -8 -10 -8 -12 -14c-6 -2 -12 -4 -15 -4c-2 0 -5 0 -9 1l-2 5
l-6 -1l-2 10l-8 2c-1 4 -2 7 -3 8l-5 10c-1 2 -1 6 -1 10c0 25 16 50 33 50c4 0 10 -1 16 -2z" />
    <glyph glyph-name="less" unicode="&#x3c;" 
d="M516 15l-481 212v44l481 212v-56l-411 -177l411 -179v-56z" />
    <glyph glyph-name="equal" unicode="=" 
d="M516 319h-481v50h481v-50zM516 127h-481v50h481v-50z" />
    <glyph glyph-name="greater" unicode="&#x3e;" 
d="M516 227l-481 -212v56l411 177l-411 179v56l481 -212v-44z" />
    <glyph glyph-name="question" unicode="?" horiz-adv-x="486" 
d="M53 512v6h4l-3 7l5 39l-1 5c1 12 1 16 7 17l-3 16h4l3 8l-6 4l5 21l4 -1c-3 6 -5 11 -5 13c0 4 1 8 3 13c29 9 41 13 53 13l22 1l11 2l4 -5l4 6h5l10 -9v10h21l6 -5c6 2 10 2 14 2s11 -2 20 -5v1c7 0 9 -1 12 -8l5 4v5l6 -1l3 -7l8 4c10 -1 12 -3 19 -11l5 3l26 -13
l10 -2l8 -7l35 -26l12 -13l10 -10l10 -18l7 -7v-13l7 -9l1 -12l4 -16c0 -1 0 -4 -1 -7l5 -4l-2 -9l2 -6l-1 -4l1 -17v-5c0 -12 -1 -22 -5 -30l-18 -42l-6 -12l-4 -1l-17 -21l-14 -13c-7 -7 -8 -8 -17 -9l-3 -8c-10 -2 -12 -4 -18 -11h-11v-6l-43 -16c-16 -4 -18 -5 -31 -5
l-24 2h-10c-2 -4 -3 -8 -3 -11c0 -1 0 -2 1 -5l5 -4l-5 -29c2 -15 2 -24 2 -33c0 -7 -1 -20 -3 -36c-6 2 -11 3 -14 3s-8 -1 -14 -3l-4 4c0 6 1 11 1 14c0 21 0 35 1 37c0 1 1 3 4 6c-3 3 -5 6 -5 8c0 0 0 1 1 2l7 2l1 4c-7 8 -9 14 -9 21c0 6 1 12 3 18l3 13l-4 45v7l6 -1
l2 -4l9 1l1 -5c3 0 5 1 7 1c3 0 9 -2 15 -3c18 -2 23 -1 26 0s6 2 7 2l10 -3v4l14 3l19 9l8 2l7 7l6 2l3 5l7 -3c-1 9 1 11 8 12l10 12l19 11l8 12h-4l-2 6l-8 4l11 17l4 -11l7 4l1 20l-7 -1c-2 4 -3 6 -3 8c0 1 0 3 1 6l7 -3c-4 10 -7 16 -7 19v30l-2 12l-15 34l-4 15
l-27 29l1 -6l-7 -2l-7 13l-14 9l-5 7l-11 -2l-8 7l-12 7l-10 -3l-3 5l-7 -1l-4 7l-8 -3l-28 2c-10 -2 -12 -1 -16 -2l-7 -2c-3 5 -4 5 -8 6l-7 -5l-4 2l-8 -6l-7 1l1 -4c-35 -5 -56 -35 -64 -89c-5 -29 -4 -25 -7 -34zM156 51l6 4l-3 7c11 18 21 26 36 26c12 0 19 -6 23 -19
l8 -4c0 -5 0 -8 1 -10l5 -11l-1 -5l-2 -16l-5 -11c0 -1 1 -3 2 -5h-8l-16 -19c-5 2 -9 4 -11 4l-9 -1c-4 0 -10 4 -13 9c-8 13 -15 32 -14 38z" />
    <glyph glyph-name="A" unicode="A" horiz-adv-x="816" 
d="M3 1l4 12l-1 9h7l19 -1c5 0 10 3 17 9h5c2 3 3 4 9 7l12 7v5l17 21l4 12l5 10l8 2l-1 11l4 9c4 4 7 8 7 11c0 0 -1 2 2 17h8c9 18 9 20 10 28l10 19l9 5l-5 13l9 -1v15c11 2 8 8 12 21c6 4 7 5 7 12l10 21l13 21c3 21 4 24 14 29v9l8 1l-3 9l3 2c8 12 10 16 12 28h7l3 8
l-2 9c6 4 7 6 8 14l10 18c5 4 5 5 6 11l13 22l6 2l-5 5l3 5l-2 5l18 24l19 34c6 6 9 11 9 14l-1 4l7 3c3 16 5 21 16 31c0 13 2 16 20 32c3 1 8 19 17 27c10 14 11 26 19 34c2 -8 7 -12 8 -14l8 -17l13 -19l9 -11c-3 -3 -4 -7 -4 -8c0 -3 1 -6 4 -10v3l9 -2l4 -11l8 -12
l2 -9l7 -7l4 -16l8 -4l2 -16l8 -10l8 -8c7 -21 6 -20 13 -29l-2 -5l3 -8l5 -1l3 -9c2 -12 2 -12 8 -18l8 -9l-3 -5l8 -7v-5c3 -3 3 -3 6 -10c2 -3 4 -8 8 -13v-6c4 -6 6 -12 6 -15c0 -2 -1 -4 -2 -7l8 1l3 -7l6 -21l7 -2l26 -53l15 -34c7 -15 8 -17 12 -23
c9 -13 10 -15 12 -25l2 -10l7 -4l-1 -10c10 -8 12 -11 15 -21l3 -9c2 -10 4 -13 8 -18v-4c6 -5 7 -7 7 -15c11 -13 12 -14 14 -23l9 -16l5 -4v-6c5 -3 6 -4 7 -11l17 -15c23 -9 33 -11 60 -11l4 -5l-1 -5l-10 2l-2 -7l-10 -1h-5c-2 0 -5 1 -9 3h-11l-15 -2l-4 6
c-5 -3 -8 -5 -11 -5c-2 0 -5 2 -9 5l-5 -1l-8 3l-11 -9l-6 9c-4 -5 -6 -6 -20 2c-3 -6 -5 -7 -10 -7c-9 1 -11 0 -22 4c-15 -5 -17 -8 -30 -2l-5 -4l-6 3l-11 -4l-25 -2l-11 -1c-2 4 -3 8 -3 10s1 4 2 7l12 3l34 6c28 6 42 20 42 44c0 10 -3 21 -8 31c-10 18 -9 16 -10 26
l-8 5v4l4 2l-1 4c-3 5 -6 9 -6 12c0 1 1 3 -5 18l-8 7l-10 16l-14 32l-12 23l-3 10l4 6l-5 3l-12 -13l-5 3l-17 -3l-9 3l-6 -3l-40 4l-40 -3s-2 1 -5 1l-3 10h-7c-5 -7 -6 -8 -14 -10l-4 9c-6 0 -7 0 -9 -5c-3 -2 -5 -2 -6 -2c-2 0 -5 1 -9 3l-18 2c-7 -4 -11 -6 -16 -6
c-6 0 -8 8 -13 8c-1 0 -4 0 -7 2l-15 -9l-14 5l-5 -6l-63 -2c-9 -8 -10 -11 -17 -28c-1 -3 -2 -6 -7 -16l-5 -10c-5 -9 -6 -12 -8 -20l-9 -1c5 -7 6 -11 6 -22c-16 -18 -15 -15 -17 -24l-5 -3l-3 -19c-12 1 -19 -2 -19 -8c0 -2 2 -4 5 -6v8l6 1c1 -3 2 -5 2 -6
c0 -3 -2 -7 -6 -12l-4 -2l-2 7h-3l1 -10h5l3 -6l-7 -15c19 -34 39 -47 80 -47h8l3 -3c-2 -1 -3 -9 -3 -11c0 -1 1 -2 1 -4l-3 -3l-10 3l-28 1l-10 2l-14 -1l-14 4l-10 -2l-4 5l-12 -4l-12 5h-23l-3 -4c-6 -1 -10 -2 -13 -2s-8 1 -14 3l-28 -4l-24 -3c-1 0 -2 1 -5 2z
M236 289c3 -1 5 -1 6 -1l13 3l44 -1l57 2c1 0 3 0 5 -1l5 5l42 -7l13 2h24l13 4c9 0 13 0 15 -6l7 -3l10 6l12 -1l18 -3l12 2l11 3l-7 25l-9 7l-4 11l-6 8l-1 7h8l-9 8c-10 9 -14 14 -14 18c0 2 1 3 -15 29c1 7 3 8 10 8v7c-15 0 -16 1 -24 19l-6 11l2 8l1 8l-5 -3l-6 1
c1 3 1 5 1 6c0 3 -2 8 -5 13h-7l-10 21l-18 32l-9 24c-3 6 -6 10 -17 24l-13 -22l-25 -50c-6 -12 -6 -12 -26 -23l1 -6l8 1c-4 -16 -7 -19 -17 -23v-10l-10 -19c-9 -20 -11 -24 -20 -35c-11 -21 -13 -23 -12 -32l-6 -5v-6l-7 -5c-1 -10 -2 -11 -8 -19c-6 -9 -13 -23 -22 -42
z" />
    <glyph glyph-name="B" unicode="B" horiz-adv-x="538" 
d="M23 -1l-5 22l12 1c15 0 17 1 24 7l8 -2c3 0 10 2 17 6l8 -5l4 2l-3 9h8l9 18l1 14l4 12l2 33l3 6l-2 24l4 9l-3 17c5 2 6 3 -1 12l2 24c4 7 2 10 4 16l-10 42h7v12l2 31c0 3 -1 7 -4 13c4 7 6 13 6 17c0 7 5 19 5 21c0 3 -4 10 -10 16l7 4l-4 14l2 16l-5 3l6 45l-8 6
c5 12 6 16 6 29l-3 14v16l-1 9l1 8l-3 12v16c0 4 -1 11 -4 19l6 4l-1 6l-9 3l2 6l-3 9l-10 5l1 6l-3 2l-5 -1c-14 9 -17 10 -52 13l-12 2l2 19l62 -6l4 -3l4 4c8 -2 16 -4 20 -4l11 1l12 1c19 -3 24 1 33 1c5 0 8 -1 14 1l26 1l14 -1c12 4 18 6 28 6c6 0 20 -1 46 -3
c33 -2 42 -3 54 -8l19 -8l13 -5c1 -1 11 -13 17 -13l10 -4v-8c11 0 14 -2 16 -12c13 -9 16 -13 20 -26l4 -9l7 -5l-1 -6l5 -23l2 -21l-4 -3l5 -9l-1 -4l-9 -4l-7 3l-2 -7c1 -9 2 -12 11 -18l-5 -13c-5 -12 -8 -19 -12 -21l-13 -11l-15 -16l-1 -7c-8 -2 -9 -2 -17 -8
c-2 -2 -5 -4 -11 -13c-13 0 -14 -1 -40 -15l-11 -5v-2l16 2l4 -3l11 -2l27 -5h5c4 -2 7 -4 9 -6c10 -7 14 -9 21 -9l8 -6l22 -15l10 -13l16 -14c1 -3 3 -8 4 -15l8 -6l-1 -6l8 -9l3 -17l4 -15l-4 -12l5 -5l-7 -13c6 -4 9 -9 9 -12c0 0 0 -1 -1 -3c-7 0 -9 -1 -15 -6l5 -11
c0 -3 -1 -6 -3 -11c5 -3 6 -5 5 -11l-6 -5l-10 -21l-7 -9c1 -2 1 -4 1 -4c0 -5 -5 -12 -14 -19v-8l-13 -10c-2 0 -4 4 -4 -3c0 -4 -5 -6 -12 -6l-4 -3v-6c-18 -14 -25 -18 -32 -18c-1 0 -2 0 -5 1c-8 -10 -12 -11 -27 -13l-5 4c-4 -10 -10 -12 -36 -14l-21 -1l-28 -1l-14 2
h-3l-21 1h-8c-7 0 -13 0 -16 2c-4 1 -6 2 -6 2l-16 -2l-14 4l-18 -5l-1 11l-12 1l1 -8l-8 -3l-6 8c-5 -3 -9 -4 -11 -5l-10 1l-10 -2l-73 -5zM169 72l9 -10l7 4c9 -7 11 -9 14 -16c12 -2 14 -4 16 -13l5 4c18 -4 21 -5 28 -10c4 3 7 4 9 4s5 -1 9 -4l3 1l3 -3l21 10
c8 -3 13 -4 17 -4c6 0 11 0 17 2l34 8l11 1c14 13 17 15 20 15c2 0 4 0 12 10c6 3 8 5 12 10l6 -2l-1 15l8 15c5 8 6 12 7 27l1 5v6c4 4 5 6 6 13h7v7c-6 4 -9 7 -9 10c0 1 1 3 4 7v10l-3 1v9l-8 24l2 7l-9 11l7 8l-11 1l-8 15l-6 8l-10 12c-7 3 -9 5 -9 11l-11 5l-9 1l-2 5
l-9 1l-15 10l-9 5l-11 3l-9 -1l-2 7l-18 -3l-4 5l4 5l-18 2l1 -11c-7 3 -14 5 -18 5l-6 -1h-13c-5 1 -7 -1 -18 3l-7 -2c-1 0 -3 1 -5 2l-6 -2l-11 2l-17 -3l-6 -10l5 -18l-3 -27l2 -47c0 -1 0 -5 -1 -10l5 -7l-7 -12c3 -4 4 -8 4 -10s-1 -5 -2 -8l1 -11c2 -7 -1 -13 -1 -18
l-4 -11l6 -2l-1 -10v-5v-5l3 -39l1 -10l4 -4l-1 -5h-5l-3 5zM171 554c5 -5 7 -9 7 -12l-1 -29l-4 -4c-1 -3 -1 -6 -1 -8c0 -4 2 -6 7 -8c1 -2 1 -4 1 -4l-7 -32c0 -1 1 -1 1 -2l1 -6l-2 -7l1 -41v-23c0 -1 1 -4 2 -7l61 1l2 2l7 -2l9 2l8 -2c27 2 30 1 31 8c17 4 18 4 20 0
l10 9h15l-2 4l11 6l5 6l12 6v8c12 7 18 13 20 21l11 28c4 11 6 20 6 24v4l-2 16l3 4l-3 9l3 7c-6 8 -9 16 -9 21c0 0 0 2 -7 8c-3 19 -7 24 -33 42l-6 3c-13 10 -21 14 -32 16l-25 3l-12 3l-9 1h-10l-3 2l-19 -1c-47 -3 -56 -12 -62 -53l-1 -12l2 -7l-5 -1z" />
    <glyph glyph-name="C" unicode="C" horiz-adv-x="639" 
d="M23 312c0 16 2 29 5 36c1 3 2 5 2 5l-2 15l4 10l1 10l-4 9l12 21l24 64l24 38h6l-2 6l9 3l12 23l8 5l9 11l23 17l9 8h5c10 13 13 7 26 16l2 6l9 -3c9 10 13 13 30 23s29 15 34 16l2 -1h11l1 3c7 3 13 5 17 5c10 0 29 9 31 9l14 -2l2 4c7 2 11 2 15 2c2 0 5 0 9 -1l21 3
l8 -5l-1 7l15 -1h17l8 -3l2 4l14 -1l1 -3l9 3l45 -6l10 -1l2 -5l9 3c12 -9 18 -6 30 -12c9 0 12 -1 15 -2l6 2l2 -3l6 1l5 -11v-17l2 -9l-2 -8l4 -13l6 -69l2 -11l-4 -6l-19 -3l-1 11l-4 10l1 9l-4 15l-4 22c-3 12 -9 22 -32 44c1 5 1 7 -6 7l-7 11l1 -11c-10 1 -19 5 -26 8
l-19 7l-14 -1l-43 6l-9 -2l-5 5l-9 -6l-17 3l-26 -12c-5 5 -9 7 -12 7c-2 0 -6 -2 -11 -6l-5 2c-8 -5 -12 -7 -18 -7l-8 1c-7 -8 -9 -9 -19 -9h-5c-5 -6 -7 -7 -23 -8c-6 -8 -24 -13 -29 -20c-26 -12 -32 -18 -42 -37h-9l-10 -7l-4 -7l-7 -8l-9 -2l1 -9h-10
c-1 -16 -2 -18 -11 -19l-4 -3l2 -12l-8 -4c0 -14 -2 -17 -15 -19l-4 -7l5 -4c-3 -5 -4 -8 -4 -11c0 -2 1 -5 3 -8l-7 -8l-2 -16l-3 -5l2 -14l-4 -15l2 -8l-3 -3l-1 -10l1 -8l2 -20s-1 -3 -4 -5l5 -8h-5l5 -10l2 -29l4 -10c1 -2 1 -4 1 -6c0 -4 -1 -8 -3 -17l8 -5
c2 -17 3 -21 12 -33v-6c5 -4 8 -8 8 -10l4 -14c0 -2 4 -5 11 -8c0 -10 2 -14 12 -22v-7c6 -2 9 -3 10 -5l8 -11c1 -1 5 -2 11 -2c0 -10 0 -13 3 -23l5 -11l11 3c3 1 5 1 6 1c6 0 9 -5 9 -14v-4l8 -7l8 4l16 -13l29 -9l1 -4l28 -9l32 -7l9 -3l54 -1c9 -4 10 -1 13 -1
c1 0 4 -1 6 -3l7 3l6 -2l8 3l12 7l22 -6c4 4 7 6 9 6s5 -3 11 1c13 -6 14 -4 19 7c10 2 12 3 22 9c14 9 18 10 36 14l13 2l5 7l4 -3l6 7c3 -3 4 -5 4 -8l-1 -9l5 -4l-2 -12c-12 0 -15 -2 -22 -9l-7 2c-1 -5 -2 -6 -15 -12c-5 -2 -9 -3 -11 -3h-4c-4 0 -8 0 -10 -1l-21 -11
l-7 -1l-53 -13l-14 -2l-10 -2l-4 -3l-8 3l-3 -2l-6 2l-18 -5l-13 5l-62 2l-28 7l-14 -2l-14 1l-4 9l-19 9l-39 13l-21 14l-11 3c-6 9 -9 11 -15 15c-8 4 -9 5 -12 11l-9 2l-7 8c-11 14 -19 24 -22 26l-7 4l-7 8l-5 9c-8 21 -8 22 -16 27c-5 15 -7 19 -15 33l-7 29
c-6 7 -7 9 -7 18l4 2l-5 4l-6 19l3 7c-5 6 -6 8 -6 21v2v9v12z" />
    <glyph glyph-name="D" unicode="D" horiz-adv-x="738" 
d="M22 -5l-4 22l11 2c31 5 31 5 48 12l12 6l3 -5l10 5l-7 4c2 7 3 9 8 11v6l4 3l3 26l8 4l-3 4h-4c-2 2 -3 4 -3 5c0 2 3 5 6 8l-4 25l5 9l-2 8v6v6l4 1l-3 17l1 132l-4 11c-1 3 -2 8 -3 14l8 6c-1 3 -1 7 -1 9c0 4 1 6 5 9c-1 21 1 25 1 27s-2 6 -6 10v4l1 19v2l-1 12
l-2 47c0 12 -1 14 -1 15c0 3 2 7 5 11c-5 13 -5 10 -7 54c-1 13 -3 24 -10 50l-11 10c-13 11 -28 15 -69 18v20l11 -2l38 -2l11 -6l3 4l4 -1l20 1l7 -3l18 -3c6 7 40 8 46 9c4 -4 8 -7 10 -7s5 3 9 7l19 -2c89 3 93 2 97 8l12 -2l2 3h10l13 -2l7 2l13 1c13 0 20 -2 36 -9
c5 1 10 2 13 2c7 0 10 -2 14 -10l6 1l28 -2l22 -6l10 -11l3 5h4l6 -10l9 2c2 0 6 -1 11 -4l23 -15l3 -6c9 -7 11 -9 19 -9c0 0 3 1 8 -5c8 -4 10 -6 15 -14l13 -6c3 -7 5 -8 13 -8c1 -9 2 -12 9 -21l7 -2c1 -5 2 -7 8 -9c6 -7 7 -9 8 -17l14 -15l10 -31c7 -1 8 -2 10 -9
l-6 -4l10 -7l-3 -8l11 -18l3 -32l5 -1c-1 -3 -2 -6 -2 -7c0 -3 2 -9 4 -14l-6 -3l9 -9l-4 -4c1 -3 2 -6 2 -7c0 -2 -1 -5 -4 -9l3 -3l-1 -5h-3v-5c2 -33 2 -33 -6 -41c2 -4 2 -7 2 -8c0 -6 -2 -15 -6 -25l-5 -12l-3 -4c-3 -14 -6 -22 -9 -28l-17 -29l-5 -9l-11 4l-1 -12
c-2 -13 -4 -17 -12 -27c-13 -8 -12 -11 -27 -27h-5c-4 -13 -8 -16 -16 -16h-3l-9 -15l-8 -3c-8 -1 -8 -1 -19 -11l-8 -7l-9 5l-5 -1v-8h-6l-4 -5l-29 -8l-31 -18l-10 3c-4 -6 -8 -9 -10 -9c-1 0 -2 0 -5 2l-40 -11l-5 3c-12 -6 -20 -8 -41 -8l-45 -1h-22c-11 0 -27 1 -47 3
c-37 4 -46 5 -71 5l-2 2c-5 -1 -8 -2 -9 -2l-25 1l-20 -3c-2 0 -6 2 -11 6l-20 -6l-6 7c-4 -3 -7 -5 -8 -5c-2 0 -4 1 -6 2c-4 -3 -8 -5 -11 -5c-1 0 -3 1 -6 2c-6 -5 -8 -6 -16 -6zM160 309l6 -2c3 -10 4 -13 4 -17c0 -3 0 -6 -2 -10l3 -4l-4 -6l3 -3c1 -4 2 -6 2 -8
s-2 -7 -5 -12c3 -3 4 -5 4 -9v-5v-29l4 -3l-3 -13l6 -31l-7 -15c0 -2 -1 -4 -1 -6c0 -5 1 -10 2 -16l3 -20l4 -25l12 -22c1 -2 2 -5 3 -11l-5 1l-9 14l-3 -8l6 -8c5 -1 7 -2 10 -7l7 1v7h8c11 -7 31 -12 40 -12l10 1c2 0 5 -1 10 -2l-3 -8c2 1 4 2 5 2s4 -1 6 -3l1 9h7
l23 -1l8 -1l5 1c3 0 6 1 6 1c2 0 5 -1 9 -3c5 3 9 5 11 5h10l22 4l5 -1c10 6 14 7 25 7l12 1l16 6l23 8l20 11l18 8l6 6l12 4l24 15c8 10 11 12 20 16c-3 16 13 9 17 14c8 2 10 4 10 10c0 3 0 7 -1 11c1 1 3 1 3 1c3 0 6 -2 9 -7c4 5 6 10 6 13c0 1 -1 3 -2 7l13 -5l2 9
l-9 3l8 14l7 9l17 51l-2 5l5 4l1 15l5 42l-2 18v15l-4 19l3 5l-5 6c0 17 -2 25 -8 42l-23 52l-1 9l-9 5c-2 11 -5 16 -17 28l1 4c-10 2 -13 5 -13 11v4c-11 5 -15 9 -25 23l-7 2l-4 7l-13 4l2 7l-26 8c-3 6 -5 7 -14 12c-5 4 -8 7 -9 7l-14 2l-29 14c-3 1 -5 2 -7 2h-4h-9
l-5 5l-5 -1l-45 6l-9 2l-71 -3l-4 -7c-10 4 -18 7 -22 7c-9 1 -19 0 -30 -3l-26 -5c-12 -7 -18 -19 -19 -41l-3 -6c3 -5 0 -10 1 -19l-5 -22l3 -2c1 -11 0 -15 -4 -24c3 -5 5 -10 5 -12c0 -3 -7 -17 -2 -34l3 -12l-4 -78l1 -8l-5 -7c6 -15 8 -23 8 -30s-3 -10 -11 -12z" />
    <glyph glyph-name="E" unicode="E" horiz-adv-x="538" 
d="M20 15l10 1c31 6 37 7 49 13c12 5 23 12 24 16l4 16l4 12l1 34c0 3 1 8 3 15l-3 3l3 15l-1 55l6 23v12l1 30l-3 13l3 23l1 10v2l-2 23l-1 11l5 5l-1 17l-2 11l3 20l-3 2v9l-5 4l5 21c-1 6 1 14 -3 22l8 18l-8 9c4 8 5 15 5 19c0 2 0 4 -1 9l-5 6c4 15 6 21 6 28
c0 5 -1 10 -4 20l3 4c-2 3 -2 6 -2 8s0 4 1 7l-5 5c2 6 4 12 4 15l-1 7h-11l-2 9l-10 9l-11 6l-21 6l-22 1l-11 4c-2 0 -5 -1 -8 -2c-1 4 -2 6 -2 8c0 3 2 8 5 13c4 -1 8 -1 10 -2c12 -2 23 -4 28 -4h4c15 1 26 2 31 2c4 0 5 -1 31 -4c2 0 6 0 11 -1c6 8 17 -1 19 -1l36 3
l7 -1l5 -7l9 3c9 5 14 6 17 6c5 0 28 -6 30 -7c4 4 8 6 11 6c1 0 2 -1 4 -1l1 -3h5c4 4 6 5 9 5l35 -1l12 1l2 -2c5 1 8 2 10 2c5 1 10 2 11 2c7 0 10 -1 13 -6h5l3 4l36 -2l7 5c3 1 5 2 6 2l17 -2c1 0 3 1 6 3l3 -18l-1 -16l5 -15l-7 -9l9 -13l-4 -16l2 -2l5 -71h-7l-8 7
l-3 -9l-5 2l1 14h6v4l-4 9c-3 6 -5 10 -5 13c0 1 2 5 4 9c-4 5 -7 9 -7 12l-8 28l-4 3l-9 12c-4 5 -11 9 -17 10l-13 1l-11 5l-19 -2l-7 3l-13 -2l-37 1l-13 -2l-26 -1l-27 4h-24c-2 0 -8 -4 -17 -10c-12 -9 -13 -13 -15 -55v-24l-8 -9c5 -6 7 -11 7 -16c0 -4 -1 -8 -4 -19
l-1 -11c4 -3 6 -6 6 -8c0 -1 0 -2 -1 -3h-5l-1 -9l7 -2l-2 -48l6 -5l-5 -9l5 -5l-4 -5c1 -3 1 -5 1 -6s-1 -4 -2 -7c4 -1 8 -2 10 -2s7 2 12 4c6 -3 10 -4 13 -4c1 0 2 0 4 1l9 3c15 -2 65 -6 116 3l12 -5l3 8h10l3 6c15 12 19 23 21 66c5 2 9 3 11 3c3 0 6 -2 11 -4l-2 -10
c-3 -14 -5 -27 -5 -32l1 -7v-16l-2 -11v-23l2 -18l-4 -4l3 -10v-21l7 -56c-2 -4 -5 -6 -9 -6s-7 0 -12 1l-3 13v18v13l-1 12l-17 38c-6 0 -10 1 -13 2l-6 4l-96 3c-1 0 -5 2 -10 4l-16 -5c-13 1 -15 3 -20 4l-7 -5l-8 5v5l-6 1l-2 -3c-3 1 -6 2 -8 2c-6 0 -9 -4 -12 -15h15
c-4 -16 -5 -21 -4 -45l3 -165l3 -16l-2 -10c0 -2 -1 -3 -1 -5c0 -32 31 -58 68 -58l14 1l5 -5h8l14 1l3 4l5 -6l10 2l2 3c3 1 5 1 5 1l29 -2l13 1l49 5l23 9c9 3 16 8 20 13l11 15c1 1 4 3 5 10c14 20 17 32 24 85l1 11c3 1 6 1 7 1c3 0 8 -1 13 -3l-27 -182h-15l-83 -2h-4
c-17 0 -28 1 -32 3l-8 3l-70 1c-3 0 -7 1 -12 1l-5 4c-4 -2 -7 -4 -9 -4c-28 0 -24 -1 -29 -1c-7 0 -18 2 -29 5c-2 1 -6 2 -12 -2l-26 -4c-4 7 -8 10 -10 10s-5 -3 -9 -7l-10 -2l-39 2c-1 0 -7 -1 -15 -3c-13 -3 -34 -6 -42 -6c-4 0 -8 3 -7 5z" />
    <glyph glyph-name="F" unicode="F" horiz-adv-x="477" 
d="M22 -4l-3 19l14 3l13 1c27 4 44 13 55 30c3 3 3 5 3 6l5 21l5 42l2 6v23v9c0 6 -1 9 -5 17l7 5c2 36 5 40 5 44l-7 10l2 14v11l6 2l-6 11l1 25l-1 26l-1 14l-1 16l3 17l-3 4c1 5 2 8 2 10c0 3 -1 6 -3 11l5 9l-4 10c-3 5 -4 8 -4 10s2 8 6 15l4 11l-6 10l6 14
c-2 5 -4 9 -4 12c0 1 0 2 1 5l-3 4c0 12 1 16 5 25c-3 4 -5 8 -5 10s1 4 3 8l3 -1l3 5c-9 22 -8 25 -8 27c0 3 -1 5 -2 9l-4 2c2 4 3 6 3 8s-1 4 3 11l-8 4l-1 7l-7 7l3 4l-8 1l-2 5c-7 0 -9 1 -14 6l-22 6c-4 1 -7 1 -9 1c-26 5 -29 -1 -29 3c0 2 2 4 4 6l-2 11l87 -5l8 -6
l1 5l11 1c6 0 9 -1 17 -5l5 3l11 -1l15 -1l11 1h12l12 1l25 2l6 -2l26 2l18 1l25 -4l3 4h25h19c34 0 41 1 84 5l11 2l5 -6l-6 -3c4 -7 6 -10 6 -15l-2 -27c2 -3 3 -4 3 -7v-3l-4 -1l5 -15l-6 -2l6 -6l3 -75c-4 -2 -7 -3 -10 -3c-1 0 -5 1 -8 3c-1 3 -1 5 -1 5l2 31l-4 10
l-4 8l4 5v6h-5c-3 4 -5 8 -5 10s2 5 4 8h-5c-10 23 -23 33 -44 33l-14 -1l-4 3l-4 -2l-16 4l-31 -3l-8 7c-7 -6 -10 -7 -17 -9c-10 4 -13 4 -14 5l-23 -3l-32 -2l-14 -2l-1 2c-14 -3 -18 -4 -28 -10l-10 -31l4 -7c-1 -3 -1 -5 -1 -6l2 -9l-4 -8l5 -7l-8 -10l10 -14l-7 -49
l-1 -22h-3l-1 -3l6 -3l-5 -14c6 -6 7 -9 7 -15v-3c-5 -4 -6 -5 -6 -13c4 -5 6 -8 6 -12l-1 -9l36 -1l3 -8l7 1l-1 5l16 3l26 1l20 -1l44 1l17 4l10 2l4 -2c7 6 9 7 18 8v9l13 19l-2 5l6 27l-2 6h8c3 2 5 2 6 2c2 0 4 -1 7 -3c0 -4 0 -8 -1 -10l-3 -16l1 -3s1 -21 1 -19
l-4 -53l1 -6l3 -9l-5 -5l5 -6c-2 -5 -3 -8 -3 -10l2 -25l3 -33l3 -9l-3 -7c-3 2 -6 2 -7 2c-4 0 -8 -1 -14 -4v11c0 28 -4 48 -15 76l-5 -1l-3 9c-7 0 -10 1 -15 5l-10 3l-12 -3l-1 4l-10 -3l-4 6l-9 -5l-7 4c-15 -1 -27 -2 -35 -3c-3 -1 -6 -1 -6 -1l-33 3l-35 -6
c-2 0 -6 1 -11 2l-6 -10l5 -2l-3 -12l-2 -9l2 -11l-3 -6l4 -2v-11c-1 -22 -1 -22 -4 -30c2 -4 2 -17 0 -20l5 -8c-2 -15 -3 -22 -3 -30c0 -9 2 -16 5 -31l-6 -4l9 -16c-4 -13 -4 -19 -4 -29s1 -15 5 -26l-5 -5l9 -18l1 -11l23 -17l12 -2l31 -6l45 -2l6 -3l-2 -18l-54 1l-2 4
l-8 -4l-31 3l-8 -2l-1 5l-13 -6l-1 5l-7 -4l-6 2l-34 -3l-11 7c-3 -3 -6 -3 -7 -3l-16 3l-17 -3l-14 1l-16 -3l-13 -3l-3 3c-9 0 -12 -1 -19 -5z" />
    <glyph glyph-name="G" unicode="G" horiz-adv-x="698" 
d="M36 338h-6l4 15l-3 16l5 12l8 43c2 13 14 41 27 67c12 23 21 35 36 48h3c2 8 3 11 9 16c4 3 14 12 17 12c0 0 1 0 3 -1l4 11l9 7c6 6 8 8 12 9l3 -3l9 14c11 -5 20 11 24 13c11 8 22 13 27 13c0 0 2 -1 16 9l14 6l11 -1v7h10l9 4l12 1c30 12 34 13 73 16l1 -5l4 6l22 3
l1 -4c4 2 8 3 9 3h16l20 2l26 -5l10 2l7 -4l16 -1l18 -4c3 0 6 1 9 1c5 0 9 -3 15 -9l5 4l45 -11c3 -8 4 -16 4 -20c0 -3 0 -5 -1 -10l4 -13l3 -33l3 -9l3 -39l3 -13l1 -11l-23 -1l-1 10l-2 21l-9 31l-4 13l10 7l-2 5l-7 -4l-3 4l3 5c-1 5 -2 6 -6 7v-9l-13 13
c-10 11 -11 12 -21 15v8l-12 -2v7c-2 -1 -5 -2 -6 -2s-3 0 -5 1c-3 1 -7 1 -13 1c-5 3 -10 3 -13 3l-12 2l-10 6l-2 -4l-11 -1c-5 6 -7 7 -15 10l-3 -8l-16 7l-2 -4c-4 -1 -7 -2 -9 -2c-3 0 -7 2 -13 5l-7 -6l-15 1c-10 0 -16 -3 -35 -16l-3 7h-14l-1 4l-14 -7v-5
c-11 -4 -14 -5 -25 -5c-2 -7 -2 -8 -12 -15l-8 -7l-9 7l-7 -4l-3 3l-13 -14l-8 -3c-17 -15 -17 -15 -31 -21l-11 -9c-11 -19 -13 -21 -22 -21l-3 -11c-9 -13 -12 -14 -14 -14c-1 0 -2 0 -4 1l-1 -2l3 -3v-5c0 -8 0 -9 -20 -32l-8 -10l2 -9h-10c-5 -5 -7 -8 -10 -18l17 -16
l-4 -11l-11 -20c-1 -2 -1 -5 -1 -10l1 -30l-1 -29l2 -10l1 -14v-9c0 -4 3 -22 5 -33c2 -8 4 -13 7 -24l-1 -7l12 -12l-2 -8l5 -2c0 -6 1 -8 6 -14c5 -9 7 -12 9 -22c6 -4 8 -6 5 -12l13 -8c9 -7 11 -10 13 -20l7 -1l18 -18c17 -19 20 -21 36 -21c9 -16 16 -22 27 -26l21 -8
l7 -5l14 -4l10 -4l15 -4l7 -3l9 -1l15 -6l11 2l36 -3l4 1l5 -5c5 4 10 6 13 6c2 0 5 -1 9 -2c4 3 7 4 9 4s5 -1 8 -4c11 12 13 6 36 12l10 3l21 6c2 0 6 -1 15 4c15 2 18 4 24 17l-7 1l6 21c-9 2 -14 5 -14 9c0 3 2 6 8 9l-1 9h8v4c0 4 -1 10 -3 17l-6 4l6 8l-6 2l-2 6l1 17
c1 7 -8 27 -16 35c-12 12 -26 17 -58 22l-31 4l-12 2l-2 23l40 -6l2 2l5 -2c3 -1 4 -1 4 -1l18 1c1 0 5 -2 14 -8l25 2h5c2 0 5 -1 10 -3c6 6 10 8 16 8l16 -2l4 -4l7 4c5 0 10 -1 14 -1s7 1 10 1l25 5c1 0 4 -1 9 -3v4c4 0 6 -1 8 -1s7 1 12 3c10 -4 16 -9 16 -12
c0 -2 -1 -4 -4 -8l-33 -4l-20 -12l-6 1l-6 -13h-5l-2 -10c-3 -13 -3 -13 -7 -20l2 -5l-4 -28l3 -40l-5 -9l4 -2v-7h-4l4 -7v-9l2 -7l-2 -19l2 -8l-59 -18l-14 -2l-9 -6l-26 -7l-12 -5h-8l-13 -5l-43 -4l-11 -1l-2 5l-14 -6c-14 -2 -16 -2 -20 4l-18 -6l-10 13l-13 -5l-17 2
l-27 10l-6 2l-2 -5l-21 -2c-3 5 -5 8 -7 9l-7 1l-13 9l-16 5l-16 7l-10 2v4l-28 14c-11 8 -12 10 -14 15l-14 5l-1 7l-5 2l-2 6l-13 7l-22 24l-17 22l-3 15c-5 3 -6 4 -6 10l-4 2l-1 7c-13 22 -16 29 -16 42l2 45l-4 5l-4 -11l-6 11h-2l-2 9l1 10l-3 8l-5 15c0 1 1 3 2 5
l7 13zM100 433l1 6h5l1 -7z" />
    <glyph glyph-name="H" unicode="H" horiz-adv-x="758" 
d="M20 17c24 1 41 5 60 14c21 9 24 15 29 53c1 3 1 6 2 11l3 1c-3 9 -5 16 -5 20s1 9 3 17c1 7 3 11 0 16l-3 30l7 2v6l9 2l-5 14h-7l-3 53c-1 10 5 37 3 40v10c-1 9 -1 11 -5 20l1 7h8l-8 15c4 6 6 9 6 12c0 1 -1 4 -1 7l-1 17l8 6l-2 7c-4 4 -6 9 -6 12c0 0 0 2 1 6
c1 2 1 4 1 7l-1 11l6 4l-4 10c-1 3 -2 7 -2 8v6c2 17 6 23 0 33l-1 8l7 68c0 1 -4 11 -11 24l-22 33h-6c-5 4 -10 7 -13 7l-14 3l-16 5c-1 0 -2 -1 -4 -2l-3 3l-8 -3v20h12c26 -1 29 -2 42 -7l3 4c9 -5 14 -8 20 -8c4 0 7 1 12 1l5 5l4 -1l10 -20c2 9 2 16 14 8
c11 3 14 5 19 13c15 0 21 3 24 3s8 -2 14 -6l17 9l1 -6c13 9 15 10 40 10l2 -7c-1 -4 -2 -6 -2 -8c0 -4 -3 -4 -3 -4l-21 -9l-11 -2l-19 -5l-7 1l-5 -6h-8l1 -12l-5 -3l-4 6l-8 -8c7 -1 10 -4 10 -9c0 -2 -1 -5 -3 -12l-4 -72l-10 -1c0 -2 -1 -4 -1 -5s1 -4 2 -6l9 -2
l-1 -21l3 -13l-3 -36v-4c2 -8 2 -16 2 -23v-5l-3 -19s0 -2 1 -4l118 1l7 -6l7 7l11 -1c7 -2 10 0 13 0c1 0 3 -1 6 -2l1 3l20 -2l10 9c15 -5 21 -6 34 -6h12c16 2 20 -1 31 2c2 -5 4 -8 7 -8s4 2 5 6h7c31 1 33 4 43 -5l2 5l13 -7l1 7l17 6l9 -5h12l11 -4c6 2 7 3 8 9l2 3
l-3 12l6 15l-2 21c4 22 3 26 0 32l4 4l-2 5l1 11l-2 13l3 9c-3 4 -4 8 -4 10s2 5 5 9c-5 17 -5 23 -5 43l5 5l-4 11l-5 10l1 4l-8 6l2 10l-12 7c-25 15 -26 16 -57 18l-12 1c-1 3 -2 6 -2 8s1 6 3 10l17 -3v-6h4l2 4h10l26 -3c2 -6 6 -4 7 -3c8 5 10 6 15 6s8 -1 24 -5l7 3
c47 0 42 -4 45 -7l8 2v5l10 2l2 -5l6 5l5 1l22 -1l6 2l15 6l9 -6l-4 -16l-10 -1c-62 -8 -75 -23 -75 -87h-5v-4l10 -3c-5 -19 -6 -27 -7 -56l-1 -14l3 -9l-6 -47c4 -6 6 -11 6 -15c0 -3 -3 -9 -8 -16l8 -13l-4 -3l2 -22l-1 -7l-2 -11l3 -7l-9 -7l8 -33l-2 -11l2 -11l4 -23
l-2 -11v-13l-4 -9l6 -16l-4 -8l3 -1l-2 -10c0 -3 1 -7 4 -40c-4 -24 -1 -28 -5 -35l1 -6l7 -6l-6 -5l-1 -9l11 -17l-1 -7l6 -2v-4c6 -9 10 -12 17 -15c18 -7 31 -9 66 -12l3 -16c-10 -3 -15 -3 -19 -3c-5 0 -10 2 -18 6l-9 -4c-5 3 -9 5 -11 5s-5 -1 -9 -3l-15 4h-30h-38
l-10 -1l-2 4l-9 -4l-22 1l-14 -6l-3 6l-7 -5l-7 1l-12 -4l-3 4c-4 -3 -9 -5 -11 -5c-1 0 -3 0 -6 1l-2 18l11 2c31 5 28 4 50 11c2 1 7 2 12 6c7 5 8 7 11 20c1 2 2 6 9 20l-4 9l5 13l2 40l2 16l-3 22l5 4c-4 5 -5 6 -1 31l-6 11l10 6l-3 10l-7 16l4 33l-1 32l2 12l-7 9
l-3 7l-8 5l2 -7l-8 -4l-4 10l-16 -5l-31 -3l-2 4l-11 -3l-7 1l-34 3l-10 -3l-4 7l-8 -5h-19l-91 -3l-15 -1c-22 -2 -31 -6 -32 -6l-9 2l-10 2l-2 7l-9 -4l-3 6l-7 -3c-27 -5 -31 -7 -49 -6l-5 3l-3 -2l-6 3l-1 -16l2 -40v-1c0 -6 -1 -9 -4 -16c4 -4 6 -8 6 -10
c0 -3 -3 -7 -8 -11l9 -9l-5 -26l3 -12l-2 -15l3 -28l-2 -11c5 -6 8 -11 8 -15c0 -1 -1 -3 -2 -6c-3 -5 -4 -9 -4 -10l6 -45c0 -1 -1 -3 -3 -7l3 -2c5 -14 7 -18 14 -28c6 -4 8 -5 14 -5l21 -6c5 -4 7 -5 14 -5c5 -1 9 -1 12 -1h10c1 0 4 -1 9 -3l-5 -18l-49 7l-9 -4l-4 5
c-17 -4 -24 -5 -30 -5c-11 0 -20 2 -32 6l-9 -4c-9 2 -13 3 -16 3c-4 0 -8 0 -13 -1c-8 -2 -14 -3 -17 -3l-50 -3l-12 -2c-7 0 -11 4 -11 11c0 1 0 2 1 2z" />
    <glyph glyph-name="I" unicode="I" horiz-adv-x="294" 
d="M18 5l1 14l44 7c27 4 30 7 44 37h8l6 11l-5 1l-3 -9l-5 5l4 7l-3 21l4 17v25l4 7l-1 12v47v19l5 8l-5 6l1 6l-2 24l3 28l-2 14l-1 20l1 19l9 5c-5 7 -8 12 -8 14l2 38l3 28c-3 5 -4 8 -4 12v4c4 1 5 2 8 7l-5 3l-3 10l9 8l-8 1l-2 7l3 20l-4 36l-3 50c0 9 -4 17 -11 23
l-11 8l-6 8l-6 -1l-3 3l-9 -1l-1 6l-39 2c-1 5 -2 8 -2 10c0 3 1 7 3 12l18 -2l40 -6h13l1 -4l6 5l48 -3l1 -3c7 3 13 6 17 6l4 -1v-5l-7 -5c2 1 4 2 5 2c2 0 4 -2 7 -4c6 3 7 4 7 10l-1 3l10 -1v-6l7 6h22l10 3l6 -1l3 3l18 1c5 -6 6 -9 7 -18c-40 -5 -56 -10 -74 -23
c-9 -6 -11 -11 -12 -23l-4 -3l1 -5l-4 -39l3 -9l-11 -15l6 -7c0 -2 -1 -4 -1 -4l2 -20l-1 -13l2 -6c-7 -9 0 -41 1 -44l-4 -9l4 -6l-1 -14l-1 -129l-2 -26l2 -54l-1 -15c0 -4 1 -6 4 -11l-4 -14l3 -51l-2 -9l3 -4c2 -39 14 -58 42 -63l44 -7l10 -3l-3 -19l-5 -1l-13 1
l-101 6l-12 3l-46 -3l-11 2c-4 -2 -7 -4 -9 -4c-1 0 -4 2 -8 4c-15 -5 -20 -6 -45 -8z" />
    <glyph glyph-name="J" unicode="J" horiz-adv-x="290" 
d="M5 -112c35 8 42 12 77 34l15 9l-1 5c6 5 7 8 9 17l9 13l-3 10l4 16l2 55l3 24v2l-1 12l-1 12l5 6c-2 3 -3 5 -3 7c0 1 1 3 2 5c-2 6 -3 11 -3 14c0 2 1 5 1 10l-5 5l3 14l1 127c0 3 4 9 9 16l-7 6c5 7 7 12 7 16c0 3 -2 8 -6 13l-1 181h6l1 5l-9 4l9 3l-1 8l-6 2l1 19h5
l7 13l-13 6c0 2 1 5 1 6c0 4 -1 7 -4 13l10 2l-5 6l-8 -2c-3 7 -5 14 -12 18c-19 7 -18 9 -20 16h-6l-2 -7c-6 6 -9 7 -15 7h-3l-6 7l-2 -5l-26 4l3 20l169 -9l9 3c2 1 10 2 35 4l24 2l10 1l4 -19c-4 -2 -8 -3 -10 -3l-10 3l-16 -2v-5l-10 1l-12 -7l-14 -6c-1 0 -3 -2 -6 -5
c-3 -10 -6 -17 -8 -22l-7 -18l2 -8h-5l3 -13l-1 -25l-2 -39c0 -3 -2 -9 -6 -16l7 -5l1 -5l-6 -8l3 -4c0 -3 -1 -5 -1 -6c0 -4 2 -9 6 -15c-3 -4 -5 -7 -3 -27l-3 -10l2 -12c0 -1 -1 -4 -3 -8l4 -4l-2 -11l1 -24l-1 -43v-7l3 -42l-3 -5c0 -2 1 -4 1 -4l-5 -24v-23
c1 -3 2 -5 2 -6c0 -2 -2 -5 -5 -9l3 -12c3 -14 3 -14 3 -20v-4l-1 -24v-88l-1 -12l-4 -1c2 -3 3 -5 3 -6c0 -2 -3 -5 -7 -8c0 -5 0 -9 1 -11c2 -6 3 -10 3 -11c0 -2 -3 -6 -7 -9l3 -13l-9 -5l2 -7l-4 -4l-5 1l-2 -4l2 -7c-20 -19 -19 -19 -35 -18l-1 -9l-23 -6l2 -5l-16 -6
l-4 3l-4 -7c-2 0 -3 1 -3 1l-13 -5l-26 -7l-15 -4c-6 1 -9 7 -10 15v4z" />
    <glyph glyph-name="K" unicode="K" horiz-adv-x="645" 
d="M24 662l10 -2l8 -2l34 -3l18 -3l1 4h23l20 -3l11 2l12 1l15 -1l10 2l10 -2l2 3l60 7c5 -6 6 -8 6 -17l-12 -3c-41 -9 -51 -13 -64 -26l-6 -2l2 -9c-6 -2 -5 -4 -9 -33l-2 -7l3 -10l-3 -1v-12l-1 -7l3 -6c0 -6 -3 -11 -12 -21l7 -5l5 -19l-2 -6l-1 -5v-37l-3 -5l6 -12
l-3 -10v-82l-3 -8l2 -15l-3 -10l5 -5l-4 -9l6 -5l-3 -31c4 -12 2 -16 2 -17l1 -61l-3 -13l3 -19l-2 -13l5 -11c-7 -1 -8 -2 -10 -8l9 -4c1 -3 1 -6 1 -8v-3c-1 -2 -1 -3 -1 -4c0 -3 2 -6 7 -10c-1 -4 -1 -6 -1 -8c0 -24 27 -42 69 -46l25 -3l2 -19l-8 -2l-10 4l-23 1l-8 -3
l-5 5h-10l-1 3l-10 -1l-3 -5l-13 3c-3 4 -8 -5 -36 -5c-2 0 -6 3 -10 7h-5l-1 -7l-16 4h-11h-11l-7 -1l-55 -5l-13 -1l-2 5l3 15l11 2l22 3l17 8l18 7c11 7 17 22 18 41l1 31l3 13l-1 26l3 9v3l1 5l-2 18v5v25l2 10h8l5 7l-5 3l-4 -5c-5 3 -7 7 -7 9l5 13c-5 14 -6 22 -6 34
v11l2 22v12l-3 2l4 12l-2 33v31l1 13l1 16v1c0 6 -2 11 -6 21l6 34l-4 22l2 26l-3 18l-1 30c-3 23 -24 46 -40 46l-5 -1l-6 6l-16 1l-5 2h-3l-1 -1h-2c-10 0 -14 3 -14 10c0 4 2 6 6 11zM183 362l12 8l27 22l38 29l25 24l34 28c4 3 18 5 33 26l7 6v7c49 40 79 77 79 98
c0 18 -20 27 -63 31l-16 2l2 20l43 -2l6 -7l11 1l17 4l21 -6l2 5h11l9 -2l16 4l3 -8c3 1 4 1 6 1s5 -1 9 -3l18 9l20 -1c4 2 7 4 10 4c2 0 5 -1 9 -3l1 4l30 3v-20l-15 -2l-25 -6l-32 -17l-25 -22l-17 -16l-9 -11l-16 -5l-6 -15c-2 -5 -7 -9 -13 -10c-14 -3 -15 -4 -15 -17
l-15 -4v-14l-11 2l-11 -12l-16 -22l-11 -7c-12 -8 -14 -9 -21 -19c-14 -14 -17 -16 -26 -16c-7 -7 -8 -10 -11 -19h-8c-3 -8 -6 -10 -13 -10h-6l-2 -3l2 -5l-27 -23v-7l4 1l23 -34c31 -35 28 -32 33 -48l5 -5c4 -5 6 -6 12 -7l14 -22c14 -6 17 -11 21 -27l10 -2l26 -32
l11 -9l28 -34c1 -5 2 -9 2 -12s-1 -5 -4 -8l4 -9l7 18l14 -15l21 -23l6 -5l12 -15c33 -32 79 -54 121 -54l12 1l4 -22c-14 -2 -14 -2 -34 -3c-14 -1 -32 -2 -35 -2c-53 0 -89 18 -134 60c-4 7 -5 9 -13 9c-4 12 -9 17 -26 26l-2 9l-3 1c-3 10 -3 10 -13 16
c-5 3 -12 11 -19 22l-14 19l-52 58l-7 9c3 4 1 5 0 5c-9 0 -9 1 -30 28l-4 15l-17 16l-20 21l-30 40l-5 4z" />
    <glyph glyph-name="L" unicode="L" horiz-adv-x="495" 
d="M20 640l1 20l12 -1l56 -4l25 -3l14 3c7 -6 9 -7 17 -7l2 5c3 1 5 1 7 1c3 0 9 -2 16 -6l1 3l88 9l2 -18l-12 -2l-20 -2c-29 -4 -34 -7 -45 -23l-5 -2l-5 -15l-6 -57v-5l6 -11l-5 -14c4 -9 -5 -1 3 -61l-6 -8l5 -12l-6 -44l-3 -9l9 -3v-27l-12 -11l4 -5h4l5 -6l-2 -7
l2 -23l-2 -28l3 -18v-4c0 -6 -1 -10 -5 -26c4 -5 5 0 5 -37l-4 -7l-6 2v-6l8 -4l-2 -11l3 -3l-2 -7l-8 1c-2 -3 -3 -6 -3 -8s1 -5 3 -8c9 -2 11 -3 13 -13c-5 -6 -3 -9 1 -29l-1 -8c0 -16 23 -37 45 -40l25 -4l12 -2l23 2c12 -1 16 -2 23 -6c6 4 12 7 15 7s7 -1 12 -4l4 4
l9 -2l23 6l13 1c15 10 22 13 41 19v5l10 3l-2 6c11 13 13 20 20 55l3 13c5 2 6 3 5 9l-3 2l6 6c-3 3 -5 5 -5 7s1 5 2 9l2 11l16 -2l2 -6l-6 -41v-2v-7l-4 -26l-2 -11l-5 -1v-6l5 -1l-3 -11l-4 -37l-7 -22l-2 -16l-16 1l-41 -1l-17 3c-17 5 -38 7 -65 7c-31 0 -63 -1 -96 -4
h-2c-4 0 -8 1 -16 5v-4l-53 3c-8 -3 -9 -3 -28 -4l-24 -2l-10 5c-6 0 -10 -1 -12 -2l-6 -4h-13l-8 -4l-7 8v-4c0 -8 -3 -9 -13 -7l-2 19c24 1 41 6 61 16c20 11 26 22 29 52l1 11h3c-3 5 -5 8 -5 10s1 6 2 12c2 4 2 11 2 19l1 14l-1 18c1 4 -2 9 -6 16l6 4v45
c0 8 -1 11 -1 18c0 5 0 10 3 20l-4 7l6 3c-7 13 -6 44 -1 84l-2 4l-7 12c4 15 5 21 5 29c0 5 -1 10 -4 19l4 5l-2 4l2 16l-2 8l4 7l-4 3v20v17l2 16l-6 57c-5 36 -6 37 -20 46c-17 9 -40 14 -65 14z" />
    <glyph glyph-name="M" unicode="M" horiz-adv-x="957" 
d="M18 -5l-5 21c58 4 68 1 76 27l11 33l4 21l-1 17l1 6l3 2l1 17l-7 9c4 6 6 12 6 16c0 1 0 3 -1 6c4 11 5 15 5 26l-1 17l1 20l10 5v3c0 4 -4 9 -12 13l7 11c-2 9 -3 14 -3 17s1 14 2 23l6 46l-2 14l3 4v5l-1 20l1 4c3 10 3 13 3 22l6 3l-2 11l-5 3v6c0 5 1 8 4 15h3l-5 6
l2 18l1 61c0 6 3 9 10 10c-2 9 -3 12 -10 20l8 10v23l-6 8l2 11v29l2 14v9l-2 5l1 6l5 1l8 -15l4 -10l14 -21l11 -23l6 -8l19 -34l15 -21l6 -24l2 -1l2 -13l15 -4v-17l15 -11l9 -18l8 -15c0 -14 12 -23 20 -33c13 -19 13 -19 13 -29l16 -19l22 -45l33 -54l4 -10l-7 -11
c4 -1 7 -1 9 -1c1 0 4 0 7 1v-7l-4 -4l3 -6l8 5l7 -10c10 -14 12 -20 12 -31c0 -1 0 -5 20 -31c5 -7 8 -14 8 -18c0 -1 0 -2 -1 -4l7 -3l11 -21c11 -28 13 -31 21 -38l5 9c38 68 41 75 44 97c6 0 7 1 10 7l17 32c28 47 29 49 40 77l17 26l3 11c1 3 5 9 11 16l8 8
c2 14 3 17 20 39l-1 3l2 6l4 2l4 -3l2 6l-2 6l7 14c7 21 8 23 18 25l-3 9l7 4l5 -2l3 8c-1 10 15 35 22 36l1 3l-4 4l6 10c8 17 9 18 16 18h8l3 11l-6 5c4 9 5 11 12 20c11 12 23 33 38 62l17 34l-1 -14v-11l1 -14v-5c0 -5 -2 -11 -8 -20l7 -5l1 -11l1 -52l3 -7l-1 -8v-7
l-4 -2c3 -10 4 -16 4 -21l-1 -13l-7 -6l10 -1c4 -11 5 -16 5 -22l-1 -7l-3 -16l5 -19l-4 -18l-1 -10l6 -6l-2 -14l1 -11c0 -11 2 -24 6 -38c-7 -10 -6 -14 0 -24l-1 -12l2 -11c0 -2 -1 -5 -3 -10l-6 1v-11l12 -8c0 -4 1 -7 1 -10c0 -5 -1 -8 -4 -15l4 -2c-2 -4 -4 -7 -4 -8
l3 -40l-3 -7c5 -8 7 -12 7 -18l-1 -11l-5 -3l6 -5l-2 -8l8 -29l4 -19h-8c1 -8 3 -14 5 -16l7 -7l13 -26l5 -2l22 -11l36 -6l12 -1l2 -15l-8 -1l-66 7l-13 -1h-5c-8 0 -13 1 -37 4l-12 -4l-18 3l-4 6l-4 -3v-6l-11 2l-68 -7h-7c-4 0 -7 1 -7 3s1 4 3 6l-4 10c6 1 9 2 13 2
c2 0 6 -1 11 -3l2 4l10 1c26 4 40 12 47 21l7 11l4 12v40l3 14l-5 3c0 8 1 11 5 19l-6 11c8 14 5 19 7 25l-4 10v11l-2 19c0 4 1 11 3 19l-3 8h5l3 11c15 44 -13 43 -13 45l3 8l-5 19l4 23l-4 4l2 7l-7 31l2 27c1 20 -2 20 -5 23l8 13h-7l1 18l-6 44h-10v-6
c0 -9 -3 -18 -14 -34l-15 -24l-6 -3l-9 -22l-64 -116c-1 -1 -3 -5 -9 -9l-5 -18c-6 0 -8 -1 -11 -9c-1 -15 -3 -22 -8 -22s-1 -4 -1 -10c0 -3 -4 -10 -16 -25l-18 -29l-11 -26l-6 -13l-8 -6v-4c0 -4 -3 -12 -9 -20l-23 -47l-19 -32l-21 -48l-5 -11h-5l-24 43l-2 10
c2 -1 3 -2 4 -2s3 2 6 4l-7 9l-7 -3c-5 4 -6 5 -6 11l8 6l-4 5v5l-7 3v-3l-7 -2l-13 32l-11 15l-11 23l-28 54l-18 26l-13 26c-14 21 -15 23 -15 26c0 4 2 8 6 14l-23 22c-7 0 -11 6 -15 21l6 3l-1 11c-2 -2 -4 -3 -5 -3c-2 0 -5 2 -8 4c3 4 4 7 4 9c0 1 -1 4 -2 7l-2 11
c-4 -2 -7 -4 -10 -4c-2 0 -5 3 -7 7l-7 13l-41 64c-9 14 -14 27 -18 47c-11 8 -15 13 -15 20c0 2 1 6 3 13l-13 6l2 9l-6 6l2 -21v-17l4 -34l-2 -27v-32l-1 -10c-2 -28 -3 -47 -4 -48l-7 -16l6 -7c-1 -4 -1 -8 -1 -10c-1 -23 -3 -29 -9 -38c5 -4 5 -6 6 -30l-5 -10v-11
l-3 -10c2 -14 4 -16 -1 -23c5 -4 5 -7 5 -8v-7l-10 -61l6 -18l2 -14l-2 -18c-11 -9 -10 -12 1 -20l-6 -12h5l2 4h9c5 -17 26 -31 51 -33l22 -2l13 -2l-4 -20c-15 6 -15 6 -66 7h-23l-7 4c-4 -2 -7 -4 -9 -4s-4 1 -8 3l-12 -4l-3 3l-13 -4l-1 4l-16 -5l-45 -1z" />
    <glyph glyph-name="N" unicode="N" horiz-adv-x="768" 
d="M16 -4l-3 19l12 2l15 3c2 0 4 -1 20 5l5 -2l8 7l12 5c2 1 8 9 11 15c2 5 4 10 4 14l2 21l4 9l-3 2c4 21 5 30 5 39c0 19 -2 34 -6 47c7 12 8 18 7 36l-2 5l7 16l-7 -1l-1 10c0 7 1 10 4 15l4 -1l-7 9l2 13l-1 46l2 20l-2 39l4 7l-4 50c1 17 -2 32 6 43c-4 2 -5 4 -7 9
l6 27l2 10l-8 6l3 22l4 -1l3 15l-3 11l-6 2l1 17l4 23l-6 40v17c9 -4 11 -7 14 -20c15 -4 19 -8 19 -17c0 -2 0 -6 -1 -10l11 2v-6l10 -3l8 -10c39 -41 32 -32 38 -44l35 -33v-6c9 -4 12 -7 19 -16c13 -1 17 -5 23 -23c5 -3 15 -22 27 -26l3 -10l12 -9l8 -17l9 -1
c1 -1 3 -4 0 -14c16 -1 19 -3 20 -15l12 -5l7 -10c10 -9 11 -12 13 -16c25 -17 18 -29 21 -33l2 8c14 -10 19 -15 37 -40c21 -15 31 -23 36 -30l23 -32l68 -77c3 -4 20 -25 20 -28s5 -9 13 -13l1 -11l12 -9l2 13l-1 14l-4 58l-1 10l3 23l3 11l-4 2c1 2 1 4 1 4l-3 19v2
c0 3 1 10 3 18l3 14c-1 5 -7 24 -3 29l-3 11l-2 12l-2 11c0 1 1 2 3 4l1 12l1 21l-3 63v51l-1 9l3 9c-2 4 -4 6 -4 8v19l-6 30l-1 10c-27 33 -35 38 -82 42l-13 1l2 19l12 -1c22 0 27 -1 38 -8l26 4l10 -4c9 3 18 6 22 6c6 0 10 -1 24 -4l3 -5l6 7l10 -1l4 4l11 -3l9 -1
c7 0 24 0 46 4l10 2l4 -13l-5 -5c-2 -1 -17 -4 -40 -8c-40 -6 -51 -34 -51 -125v-1v-1l1 -24l4 -30l-5 -63l3 -102l-2 -13c1 -2 2 -4 2 -5l-4 -21l4 -21l-4 -14l4 -1l1 -19l-2 -23l3 -8l-2 -24v-6s0 -4 4 -19l-5 -11l3 -17l-1 -60l1 -9v-29l-3 -4l-9 12h-4l-3 9l-11 18
s-2 16 -31 33c-10 13 -9 12 -32 36l-39 49l3 2l-2 7l-4 -5l-9 9l-24 29l-31 25v4l9 6l-2 5l-13 1l-8 24c-33 3 -43 34 -37 39c-6 7 -8 9 -18 14l-3 8l-5 -7h-7c-16 19 -15 17 -15 26h10l-1 10c-11 4 -13 6 -17 17l-5 -4c5 -4 6 -6 6 -11v-2c-15 3 -19 7 -19 21
c0 7 -17 5 -18 18c-2 8 -3 9 -13 8c-6 4 -7 6 -8 11h3l-3 9c-16 1 -21 5 -27 19l-24 15l2 7l-12 10l-12 23l-20 11l-13 16l1 9h-4c-5 6 -7 7 -16 8l-10 23l-5 -3l-10 14l-5 -2c-1 -2 -1 -4 -1 -4l3 -23v-1c-4 -19 -6 -32 -6 -33l5 -20s0 -1 -4 -20c10 -9 12 -14 12 -23
l-8 -3l-5 -10l3 -9v-45l-3 -1c5 -11 6 -16 6 -26l-2 -25l1 -9l-2 -11l1 -10l4 -24l-3 -32l2 -24l-5 -23l3 -68l1 -13l-2 -2l3 -11l-3 -3c3 -4 5 -8 5 -11c0 -1 -1 -3 -2 -5l6 -8l-3 -8c0 -1 1 -3 2 -5l5 1c2 -3 3 -5 3 -6s0 -3 11 -12l14 -3c27 -6 33 -8 36 -8l12 1h2
c5 0 8 -2 11 -9l-4 -6l1 -8l-12 2l-40 3l-15 3c-3 1 -8 0 -14 -5l-5 6c-24 1 -43 -2 -51 -5l-13 7l-3 -8c-16 4 -18 5 -18 5l-27 -4c0 -1 -2 0 -4 1c-5 -4 -5 -4 -15 -4z" />
    <glyph glyph-name="O" unicode="O" horiz-adv-x="782" 
d="M32 380l-2 9l3 11c6 22 7 25 8 37l5 6l6 1l-3 7l4 21l1 12l10 2c2 9 3 11 9 18l11 17c25 39 41 54 59 61c2 10 4 13 16 19l10 4l11 7l4 -1c5 13 9 16 23 19l3 -4l5 4l-1 5l9 5c21 12 27 14 41 13c3 5 5 7 13 8l7 -5l2 5c11 1 14 2 22 7l5 -3l30 9l10 1l20 -2l34 4h2
c4 0 8 -2 14 -6l-2 4l27 -1l7 -12l4 1v7l60 -13l5 -9c3 2 5 2 6 2c2 0 5 -1 8 -3h8l6 -6l11 -2l23 -14l36 -23l29 -26l11 -9l15 -19l12 -14l3 -9l12 -11l26 -51l7 -9l-1 -6l1 -6l10 -34l-1 -4c5 -7 7 -12 7 -17v-7l4 -22l1 -21l-7 -3l4 -7l-4 -6l8 -14l-12 -18l3 -20l-6 1
l-10 -11l1 -19c4 -5 6 -8 6 -11c0 -1 -1 -4 -4 -8l-3 -2c-1 -13 -3 -20 -7 -27l-9 -15l-5 -14h-5c-10 -29 -21 -46 -53 -76c1 -3 2 -5 2 -7v-3l-3 -3l-32 -15l-11 -11l-3 6l-9 -8c-21 -18 -30 -23 -54 -29l-1 -4l-10 -1c-9 -7 -13 -10 -20 -10h-8l-33 -9l-10 1l-6 -5
c-5 1 -8 1 -10 1c-4 0 -12 -2 -21 -4l-11 -2l-5 5l-3 -4l-5 1l-20 -2l-38 2l-10 12c-6 -11 -1 -9 -53 2l-9 9l-8 -5l-20 9c-2 1 -5 2 -10 2l-1 3c-11 1 -13 2 -14 13l-9 1l-8 -3l-8 7c-5 5 -7 5 -12 7l-14 14c-11 1 -14 3 -21 13l-8 2c-5 9 -7 11 -15 15l2 6h-9l-7 11l-10 8
l-8 11l-9 17c-7 4 -8 6 -10 13l-5 2v10l-5 4c3 4 4 6 4 10v2l7 7l-9 6v3l-7 -4l4 -7l-6 -2l-6 13c-6 12 -9 22 -9 27c0 11 -14 26 2 33l-7 8l-1 -5l-5 2v14l4 11l-2 15l-5 -6l-2 10l-2 15l2 22c2 27 2 26 7 37zM87 366c5 -5 7 -8 7 -12s-2 -8 -6 -14l5 -6l-6 -5
c5 -8 5 -10 0 -16c8 -6 8 -5 8 -24l2 -14l-7 2l3 -14c7 -22 4 -26 14 -26l5 -17l-3 -1l5 -9c5 -7 6 -8 6 -16c9 -8 10 -11 10 -24l7 -5v-9c10 -6 13 -9 20 -20v-12l5 3c5 -3 6 -5 7 -12l13 -4c2 -11 5 -16 9 -19l15 -10l26 -20l21 -8l15 -13c14 -10 61 -21 88 -22
c12 0 15 0 21 -5c5 5 7 5 17 4l4 -6v7l12 -1l11 -1l10 2l24 5l29 6l16 6l8 1c5 5 1 3 25 11l17 10v-11l5 2c0 9 0 12 4 17l13 -1l8 2c7 11 9 12 13 14l43 51l-4 6c6 8 8 10 15 15v2c0 4 4 9 12 13l-4 5l4 9c11 27 9 23 23 34l4 24c4 17 -5 6 2 42v7v6c2 3 3 4 8 4l-1 11
l-7 2l2 8l7 1l-1 12l-6 -4l-2 2l-1 12c0 21 -1 28 -6 40l4 7c-12 11 -13 13 -13 18l1 12c0 6 -3 17 -8 30l-5 12l6 2l-4 7l2 5l-3 5v4c0 5 -2 7 -10 9c6 -14 1 -20 -4 -10l-15 28l-14 9c-2 2 -4 6 -6 12l3 2l-11 18h-5l-5 10l-26 22l-6 9l-7 -1c-3 5 -6 8 -19 12l-9 5l-7 8
l-41 13l-12 5l-13 1l-46 8h-7l-8 4l-5 -1l2 -5l-12 1l-2 3l-10 -5l-23 -3c-3 -1 -14 -11 -35 -7l-24 3l-2 -12c-1 -1 -3 -1 -3 -1c-2 0 -5 2 -8 5l-8 1l-6 -12l1 -1l-3 -3h-12l-8 -13l-29 -16l-8 -8c-19 -6 -22 -8 -21 -15c-4 -7 -6 -9 -15 -13l-1 -9l-10 1
c-1 -17 -2 -17 -10 -21l-11 -10l-4 -9l4 -9l-7 -2c0 -10 -2 -12 -10 -12v-10v-12l-11 -29l-1 -9l-6 -2l3 -14l-2 -16l-3 -12l-6 1v-7z" />
    <glyph glyph-name="P" unicode="P" horiz-adv-x="478" 
d="M23 -3l-5 19l12 1c60 9 83 27 83 63v6l-2 28c0 3 2 8 7 13c-4 5 -5 9 -5 11c0 3 3 8 9 13l-7 13l2 61v69l8 13l-9 8l6 7c-3 4 -4 8 -4 10s0 4 1 7l4 2c-1 10 -2 13 -10 25c10 21 8 35 8 37l-2 10l1 8l-1 34l-1 39l-5 13h5l1 34h5c-6 6 -8 10 -8 14v9l1 9l-1 11l-8 26
c-8 9 -11 11 -24 14l-2 6l-12 2c-13 1 -13 1 -19 8h-3c-3 0 -5 1 -9 4l-2 -5h-13l1 22c17 -5 27 -7 43 -7l33 1l15 -1l2 -4h10l2 6c8 -1 10 -1 16 -5l5 5l37 -5c9 0 11 1 18 7h23l5 -3l4 4l25 1l21 1l12 -4l11 3c11 -8 20 -6 37 -9l2 3l30 -7l1 -4l11 -2c21 -3 26 -6 27 -19
h12c2 -5 3 -5 8 -6l3 -11c12 -4 15 -8 16 -11c3 -7 3 -8 8 -9l8 -19c6 -4 7 -6 7 -11v-7l-4 -2l1 -7l8 -4l-5 -5c0 1 6 -12 6 -31c-4 -5 -4 -31 -6 -44l-4 -13l-19 -30c0 -6 -3 -11 -11 -17h-5l-1 6l-1 -17l-5 1c-9 -14 -20 -22 -46 -36c-35 -19 -82 -31 -116 -31l-25 -2
l-11 1l2 9l-6 -4l-8 5c-1 -1 -1 -3 -1 -3c0 -2 1 -4 3 -6l-7 1c-1 8 -2 11 -8 17l-1 10c3 -1 5 -1 6 -1c2 0 6 2 11 5c10 -4 15 -5 23 -5c29 0 39 3 50 16c5 -2 10 -3 12 -3c4 0 9 1 16 3c5 5 7 6 14 6l15 12l9 8l6 -4l8 6l-6 3l9 8l16 25l8 7l-2 3l7 11l5 10
c-3 7 1 16 2 29l8 2v5h-7l-2 7c0 4 2 10 7 17l-9 4v3c0 3 2 5 7 6l-9 7c-5 20 -10 31 -20 40l-14 13l-5 9l-7 -1c-3 5 -4 6 -10 7l-4 6l-43 11l-1 5l-12 -2l-30 1l-28 -2l-34 -4c-12 -4 -19 -14 -22 -35l-1 -11l-5 -38l2 -17l-1 -8c-1 -12 2 -12 -6 -31c4 -4 7 -8 7 -11
l-1 -3v-7v-5c7 -16 2 -23 2 -27c0 -3 -2 -6 -5 -10l5 -3l-4 -11l2 -14v-48v-16v-6c0 -6 -1 -12 -6 -23l5 -8l-3 -6l5 -28l-2 -8l1 -11l-2 -9l-6 1l7 -15l5 -10c-5 -20 -6 -32 -6 -47c0 -40 4 -74 13 -103l6 -3v-7l14 -7l8 -2l10 -5l1 -3l4 3l3 -3l5 2l5 -1l2 -2l22 -2l2 -7
l5 1l2 5l22 -3c2 2 3 2 5 2h2l1 -6l-5 -2c2 -4 4 -8 4 -10l-1 -5l-113 9c-1 3 1 9 -11 1h-38l-4 5l-9 -5l-11 -3l-14 1l-22 -1l-10 1v7l-8 -2l3 -6l-10 -3l-3 5l-5 -6z" />
    <glyph glyph-name="Q" unicode="Q" horiz-adv-x="766" 
d="M27 271l-2 36l2 26l-3 11c3 25 2 26 2 27l5 14v6v6l6 2c-3 4 -4 8 -4 10s2 6 5 10v14l6 3c4 26 7 34 21 56l33 52l31 33c39 40 78 63 126 76l2 -11l12 5l-3 9l12 5l45 7l19 6h2l6 -1l24 -2v3c5 -2 9 -3 11 -3s6 1 13 0h35h14l1 -7l6 -2l1 5c7 0 9 0 14 -5
c14 0 17 -1 30 -5l33 -11c21 -8 27 -10 34 -14l31 -20l9 -5l1 -4h7v-7c18 -4 21 -8 24 -23l7 -11l6 -2c4 -5 5 -7 18 -11c3 -7 4 -9 9 -14l9 -9l1 -11l12 -9l-2 -5l8 -4v-8l12 -47l10 -4l6 -25l7 -30l2 -6v-9l1 -14l2 -40v-3l-2 -8v-4v-10l-3 -3l2 -8l-6 -2
c1 -7 1 -12 2 -16s1 -6 1 -7l-9 -26l-22 -52c0 -1 -2 -4 -10 -14c-6 -7 -7 -7 -13 -22l-5 -10l-9 -5l1 -9h-6l-3 5c-1 -15 -1 -15 -16 -29l-18 -18l-18 -6c-4 -18 -8 -21 -27 -22l-12 -13h-10c-9 -9 -12 -11 -22 -13l-1 6c-6 -14 -9 -17 -25 -17l-10 -2l-3 -5l-21 -5l-7 10
c-5 -6 -7 -7 -14 -7l-1 4h-8l7 -9l14 -3l22 -11l13 -4l9 -6l-5 -8l11 6c9 -8 13 -9 25 -11l15 -17c-9 6 -12 8 -23 10l1 -7h10l16 -11c8 7 13 9 18 9c6 0 8 -4 9 -13l10 -8l6 5l26 -10l23 -6l7 -8l18 -7l15 -9l18 -5l40 -13l13 -3c4 -7 6 -9 13 -11l4 9l19 -2h5
c2 0 6 1 21 6l16 4l9 5l24 13c4 -7 5 -11 5 -14c0 -7 -1 -8 -17 -15l-19 -14l-40 -20l-10 -6l-14 -3l-3 4l-1 -5l-6 -1v3c-14 -5 -20 -7 -25 -7l-4 1l-16 1c-16 1 -24 5 -35 15l-1 -5l-10 2l-25 7l-5 5l-24 9l-9 9l-21 5l-4 8l1 4h-9l-2 -4l-28 14l4 4h-9
c-14 0 -25 6 -51 28l-1 -1l-11 4l-76 37l-48 24l-8 6l-15 3c-4 5 -8 8 -11 8l-5 -2l-2 2c-9 0 -10 0 -25 4l-12 2v2l-25 4l-51 19l-2 9l-6 -2c-2 0 -6 2 -10 5l6 5c-14 1 -18 2 -29 8l-1 4c-21 11 -26 15 -41 31l-23 20l-10 18c-9 5 -11 7 -17 15v5c-14 9 -16 12 -25 35l1 6
l-3 14l-16 37c-3 8 -4 17 -4 33zM84 355c4 -3 7 -6 7 -8s-1 -4 -4 -7c4 -12 4 -17 4 -26v-14l4 -40l7 -7l7 -35l5 -5c6 -23 14 -40 37 -76c17 -27 19 -30 32 -37v-8h7l12 -13l20 -12l21 -13l10 -2l11 -15l7 7c25 -10 27 -11 37 -19l8 3l42 -8l23 -2h2h1c28 0 63 4 75 8
l40 14h10c4 5 6 6 10 6l38 26c11 6 13 7 20 7l17 20h5c11 19 12 20 23 23c15 23 14 25 14 26c0 4 3 9 9 15l7 -2l1 5l-5 3l6 14c14 33 15 38 15 54l1 9l-2 10c11 9 13 12 15 26l-5 3v17v13l-4 45l1 16l-12 36c0 2 -1 5 -2 9c7 6 8 9 4 22v10l-3 2l-2 -2l-8 3l-7 21l5 4
l-5 14c-1 7 -2 8 -11 7l-8 9l6 1l1 4l-7 5c-23 13 -18 23 -25 25c-7 10 -9 13 -20 18l3 7l-19 6l-1 8c-11 2 -13 3 -17 13l-25 12l-12 5l2 8l-2 1c-2 0 -5 -2 -8 -5l-10 3c-28 7 -31 8 -41 14l-62 5l-38 -1l-39 -9l-6 3c-7 -6 -19 6 -18 -7l-11 -3l-60 -32l-23 -14l-14 -12
l-6 -7l-19 -18l-21 -30l-15 -40l-11 -16l-4 -21l-8 -7c-8 -14 -5 -34 -6 -37c1 -7 2 -12 2 -15c0 -4 -1 -9 -2 -17h-6v-3z" />
    <glyph glyph-name="R" unicode="R" horiz-adv-x="617" 
d="M18 642l3 15h17l77 -8l15 2c17 2 35 4 52 4h9h9c6 0 11 0 14 1l13 4l12 -3l13 1c3 0 8 -1 14 -4c24 4 24 4 33 -1c4 3 6 3 8 3c9 0 12 0 19 -4c2 2 5 3 6 3c2 0 6 -2 10 -4c6 -1 11 -1 14 -1h6c6 0 10 -3 14 -10c4 2 7 3 9 3c3 0 9 -4 16 -10l2 -3c9 0 12 -1 30 -16
l12 -11l10 -15l14 -20c7 -12 11 -23 11 -29c0 -2 -1 -9 -3 -14c6 -3 7 -5 7 -8v-4l-5 -1v-7l6 -4l-3 -10l-1 -32l-12 -19l-8 -18c-2 -2 -5 -4 -12 -24l-36 -32c-20 -16 -22 -17 -39 -19l-2 -6l-11 -2c-10 -2 -11 -3 -18 -8l11 -8l-2 -10c13 -13 13 -17 11 -23l11 -2l3 -29
l7 -7l18 -17l5 -22l22 -30l21 -39l9 -11h5l4 -10c3 -11 3 -12 11 -19c-3 -3 -4 -4 -7 -4l-8 11c0 -7 1 -11 3 -13l6 -4c2 -2 4 -5 6 -10l4 4l3 -3l7 1c4 -10 7 -12 14 -13l27 -30c27 -18 44 -25 62 -25l11 1l3 -20l-10 -1l-20 -1h-10c-7 0 -13 1 -32 4l-8 -5l-9 7l-27 7
l-26 15l-11 5c-2 5 -4 8 -17 21l-9 10v5l-5 1c-6 8 -8 11 -10 20c-11 8 -14 11 -21 28l-5 9l-9 11l-9 17l-40 68c-8 14 -12 24 -17 42c-10 8 -11 11 -15 28l-14 23c-2 9 -4 12 -10 16c-5 -3 -7 -5 -7 -13l-8 -3l-33 3l-18 -4l-26 -2c-4 4 -8 6 -11 6c-1 0 -3 0 -6 -2
c2 -5 3 -9 3 -12l-2 -14l-1 -4l4 -70v-23l6 -3c-3 -5 -7 -6 -5 -44l3 -59c2 -32 22 -58 47 -61l29 -4l11 -3l9 3l3 -6l-3 -5l2 -6l-10 -3l-60 6l-27 -2c-4 0 -8 2 -15 5c-4 -2 -6 -2 -10 -2h-5c-2 0 -5 0 -10 -4v10l-6 -3l-4 2l-3 -9l-15 4l-3 -7l-6 -1l-24 5l-6 -1
c-17 -4 -31 -6 -42 -6h-6l-1 19l11 2c47 7 71 18 73 33l2 18l4 10l-1 16c0 3 1 7 3 13l7 23l-7 75l1 10l1 12l-2 19c4 12 9 17 -1 18l-1 16c0 10 1 13 9 18c-4 68 -7 70 -2 76l-1 10l-7 11l7 2l-9 32l6 1l3 11c3 20 6 25 -3 26l-1 14l8 2l-1 5c0 17 -6 27 -6 40l-5 12
c2 9 3 14 3 19c0 28 -9 51 -25 67l-8 1l-2 5h-10l-8 -1c-3 0 -10 2 -17 5c-9 3 -12 4 -23 5zM166 541l12 -11l-6 -30v-18l-1 -51l1 -6l3 -20l-3 -21l-1 -5c-1 -4 -1 -7 -1 -11l1 -21h11c9 0 13 -1 23 -5l18 4l26 1l9 -4l2 5l9 3l17 -1l21 8h9l14 9c7 4 18 4 18 8
c0 6 4 9 14 13l4 -8l4 8h3c3 0 4 0 7 3l-4 8c19 17 28 31 35 52c4 11 9 29 9 35c0 2 -2 9 -5 18l-3 10l5 1l-2 24l-7 9l-15 24c-14 23 -73 52 -107 52c-4 0 -8 -3 -13 -8l-4 7l-14 1l-16 1h-8c-31 0 -56 -14 -56 -32l1 -23l-2 -21l1 -6z" />
    <glyph glyph-name="S" unicode="S" horiz-adv-x="483" 
d="M34 198c4 -1 6 -2 8 -2c3 0 7 2 11 3l1 -24l6 -35l2 -12l-4 -2l1 -9l7 -1l-3 -14l8 -6l-4 -2l8 -7l12 -21c7 -14 20 -21 58 -33l16 -6l1 -5c9 2 15 3 17 3c6 0 11 -2 22 -7l21 8c5 -4 10 -5 12 -5s4 0 7 1l13 5l11 3l3 -3c10 3 13 4 19 12l6 -1l5 1l15 11l36 21l6 9
l15 18l7 18l6 10c1 0 1 4 2 9l3 10c-3 6 -5 11 -5 14c0 2 0 5 2 9l14 4l-6 8h-6c-3 25 -12 47 -26 67c-15 19 -37 34 -86 57l-1 4l-24 6l1 9l-10 3c-4 -2 -7 -4 -9 -4c-4 0 -10 3 -16 9l-1 6h-9c-7 0 -10 2 -15 10c-10 0 -13 1 -21 6l-10 7h-7v4l-5 1v7h6l3 3l-3 4l-13 1v-5
c-2 -1 -4 -2 -5 -2c-3 0 -8 4 -13 10l-9 12l11 -2l-10 9l-4 -5c-15 11 -18 14 -18 18c0 1 1 3 3 6c-13 4 -16 7 -18 19l-13 10l2 12l-6 48v4c0 13 7 34 19 58c8 17 15 24 31 37l5 6c2 -1 3 -1 4 -1c2 0 5 2 8 5l-3 3c9 13 27 23 49 30l1 -6l7 7c6 5 11 8 13 8s6 -1 6 0
c17 9 25 11 34 11c5 0 12 -1 20 -2l3 4l27 -2v4l27 -3l29 -3c12 -2 15 -3 45 -14l12 -4l1 -8l3 -1l-3 -7l4 -32l5 -29c-2 -6 -3 -11 -3 -13c0 -5 1 -14 4 -28c1 -7 2 -17 3 -30l-4 -2l-4 4l-10 -2c-4 13 -5 18 -6 32c-4 41 -8 51 -33 81l-9 9l-12 7l-14 -3v9l-15 -5l-5 1
l-8 11l-10 -12l-4 6h-6l-6 8c-7 -2 -8 -4 -10 -11c-7 0 -10 1 -35 -6l-20 -1l-27 -13c-1 -1 -5 -2 -10 -3l-20 -24l-12 -2l-6 -11h3l-11 -30c-2 -14 -2 -26 -2 -36c0 -32 19 -62 51 -79l4 -8h6c5 0 9 -3 17 -13l2 2l22 -16l4 -1l1 3l12 3l13 -17l7 3c1 -11 4 -13 19 -14l2 4
l20 -8l1 -6l2 2c4 -3 6 -4 7 -5l20 -7l12 -8l11 -3c13 -7 24 -21 27 -21c4 0 5 0 11 -7l30 -36l4 -11l4 -1l4 -13l6 -3l-7 -17l8 5c3 -5 4 -9 4 -12c0 -2 -1 -6 -3 -11l6 -4c-2 -4 -3 -7 -3 -9c0 -3 1 -6 3 -11l-5 -6l3 -6l-6 -27l1 -7v-1c0 -7 -3 -18 -8 -31l-9 -21l-5 -1
c-3 -11 -4 -13 -12 -17c-4 -11 -7 -14 -16 -23l-4 1l-18 -17c-42 -27 -38 -25 -68 -35l-9 -3l-5 8c-2 -10 -5 -12 -15 -13v7h-5c-12 -10 -14 -11 -22 -13l-5 6l-2 -5h-12v4l-5 1c-4 -5 -8 -7 -11 -7c0 0 -3 0 -7 1l-6 1h-9l-4 3c-4 -2 -8 -3 -10 -3l-19 4l-24 2l-23 8l-10 1
l-19 8c-28 8 -24 5 -26 22c1 -8 -1 34 -1 43v6h-6l2 7l-6 52l1 8l-3 3v8v5l2 11v2l-4 10z" />
    <glyph glyph-name="T" unicode="T" horiz-adv-x="642" 
d="M14 500c-1 2 -1 4 -1 5c0 3 2 8 6 14c-4 6 -4 8 -4 16c4 6 6 12 6 15l8 17l-3 13c5 7 8 14 8 19c0 0 0 2 -1 4h8l-3 5l-10 1v6l8 5v9c0 5 0 9 1 11l4 10c1 2 1 6 2 13l12 -3l30 -2l17 -5l1 3l12 -1h25l31 -4l20 5h5c3 0 8 -1 13 -2l10 -4c12 1 9 1 25 4l39 1
c6 -3 11 -5 13 -5c3 0 7 1 13 3l9 -5l18 7h42l2 -6l11 6l4 5c11 -4 22 -6 27 -6c4 0 8 0 16 1l3 -3l13 3l138 6l21 4c4 -2 6 -7 7 -13l2 -45l2 -10l-4 -4l5 -8l-3 -5l4 -13l-1 -22l4 -27c0 -3 -2 -8 -4 -13l-17 -2l-1 5l2 34c0 2 -3 11 -9 24c-5 13 -10 21 -18 32l-4 1
c3 4 4 7 4 14l-7 -1v-6l-10 1c-1 9 -2 11 -6 17l-8 -3l6 -1l1 -8l-12 1l-15 3l-26 3l-23 -3l-4 6l-11 1c-9 -2 -13 -3 -16 -3c-5 0 -11 2 -23 5l-6 -5l-14 -1c-2 0 -4 0 -7 1l-15 2l-13 -2l-7 3l-10 -6l-3 -12c-2 -6 -3 -10 -3 -11c0 -3 1 -6 3 -11c2 -9 -14 -28 4 -55
l1 -26l-7 -6h-6l-2 -6c10 -6 12 -9 12 -20l-1 -8h10c-9 -22 -12 -32 -12 -46c0 -4 1 -13 3 -23l-6 -5l4 -4l-1 -26l5 -32v-73l-4 -1v-9l6 -8c-4 -5 -5 -7 -5 -11v-3c4 -6 6 -10 6 -13s-3 -9 -10 -34c1 -8 2 -11 10 -16v-8v-8l-3 -14l3 -13l-7 -5c2 -9 3 -16 4 -20
c1 -3 1 -5 1 -6c0 -2 0 -5 -2 -9l5 -3c4 -14 6 -19 16 -32h4l5 -6l13 -2l18 -6c8 -2 22 -4 42 -4h19v-6c0 -6 -1 -10 -3 -13l-4 -4h-1l-73 7l-5 -1l-7 6l-1 -6l-27 1l-1 3l-9 -5l-11 1c-11 1 -19 2 -24 2c-3 0 -8 -1 -17 -2v6c-7 -3 -13 -5 -17 -5c-1 0 -2 0 -4 1l-1 -4h-7
h-10l-4 1h-3l-55 -7c-3 0 -7 -1 -12 -1c-3 4 -6 12 -6 13c0 6 16 7 35 9l3 3l12 1c29 7 26 5 33 9l5 -1l3 7h3c14 14 15 15 16 20l3 18l3 17l-1 23l3 20v50l5 9l-3 4l5 26l-5 12l-2 23l-5 28l6 15c0 3 1 8 1 15l3 1l-2 24l-1 71l1 25l7 2c0 5 -1 10 -2 11l-6 9l-1 6
c0 7 1 13 3 20l3 11l-6 50l1 13l-3 44h6c1 12 2 15 7 23c-12 -4 -21 -7 -26 -7c-3 0 -5 1 -8 5h-4v-4l-10 -2l-9 1h-15c-2 0 -5 1 -11 3c-6 -2 -11 -2 -15 -2l-12 -1l-41 -4l-3 1l-8 1l-5 2l-41 -7l-10 -2c-5 -5 -7 -6 -12 -6c-4 0 -5 -11 -14 -17c-10 -15 -12 -18 -12 -20
l-4 -16l-3 -8l-2 -10l-5 -1l5 -7l-6 -9v-11c0 -1 -1 -4 -4 -9z" />
    <glyph glyph-name="U" unicode="U" horiz-adv-x="737" 
d="M0 640l4 19h6l5 1h7c4 0 13 -2 22 -5l13 -3l1 2l15 -2l37 -1v-7c6 2 7 3 9 8c7 -1 9 -2 15 -1l15 1l-2 -4c11 5 13 5 25 6l63 4l8 -1v2l15 3c2 -6 4 -11 4 -14c0 -2 -1 -5 -2 -9l-12 2c-8 8 -29 0 -32 -6c-37 -3 -43 -6 -48 -26l-12 3l-2 -15l-1 -10l-2 -33
c0 -4 1 -7 4 -11l-4 -17l-9 -12c6 -7 10 -13 10 -17c0 -2 0 -2 -2 -15c5 -8 5 -12 5 -13l-11 -59l3 -10c2 -4 2 -7 2 -10s-1 -7 -4 -13l6 -14l-10 -1l-2 -3l12 -10c-6 -11 2 -17 -3 -52l-2 -26l1 -20l2 -22l1 -10v-9l1 -7l5 -9l-3 -16c0 -4 2 -7 7 -8v-24c4 -7 5 -9 11 -14
c5 -18 9 -25 24 -42l7 -9l3 2h8l3 -13l7 -6l24 -14l16 -9c3 -2 8 -3 15 -4c7 -5 9 -4 9 -4l21 -7l9 1c2 -1 6 -2 10 -5l24 3l10 -2c4 -1 7 -1 8 -1c3 0 8 1 14 3l3 -3c6 0 10 0 13 1l7 1l10 -2c4 4 8 6 11 6h24l9 10l7 -1l9 7l6 -2l5 8c20 8 30 15 50 38l17 12l-1 5l9 4
l-2 7c14 18 19 28 21 42c3 17 3 17 9 25l-2 11l10 7c-3 3 -5 6 -5 8l2 7c1 2 1 4 1 6c0 5 0 10 -2 17c7 20 4 30 4 32c0 6 2 8 8 9c-9 43 -3 51 -3 52l-2 17l4 7l-4 5l2 14l-5 93v87l-4 23c-4 19 -7 29 -14 35c-9 10 -12 13 -16 13l-10 1l-10 4l-10 7l-5 -4
c-10 3 -20 5 -25 5h-9c-2 2 -2 4 -2 5s0 3 1 6s1 7 1 11l9 1c8 0 11 -1 19 -7l1 2c26 -2 30 -3 34 -6c3 2 5 4 6 4l25 -2c3 -1 6 -2 7 -2c2 0 5 -2 8 -5l5 7l23 1l6 -9l7 4v4l9 2l1 -3c4 2 8 4 10 4c0 0 3 -1 10 -1h2c4 0 12 1 24 3l12 1v-3l10 5l5 -17c-6 -5 -8 -6 -18 -6
l-5 1h-4c-22 -1 -38 -8 -50 -23l4 -5l-3 -3h-7c-8 -17 -10 -33 -10 -82l1 -140h-4l-2 -7c6 -2 7 -4 7 -11l-6 -4c4 -13 5 -19 5 -27v-6v-11l-3 -38l2 -26v-16l-6 -7c8 -11 -3 -17 -2 -39c0 -4 -1 -5 -4 -9l2 -8l-3 -6c-1 -19 -4 -31 -11 -44l-11 -21l-5 -10
c-10 -12 -11 -13 -13 -18l-18 -21l-6 4c-5 -11 -7 -13 -17 -17c1 -12 -1 -15 -9 -21l-4 6l-13 -5l-3 -6c-17 -11 -32 -12 -37 -10l-7 -8h-15c-10 -4 -28 -10 -45 -12l-10 -3l-3 6c-3 -6 -4 -8 -11 -8c-2 0 -6 1 -9 1l-1 4c-7 -2 -13 -3 -17 -3s-8 1 -15 2l-14 -3l-33 8
l-40 7l-11 3c-4 1 -6 2 -9 6h-5l-6 1l-13 7l-18 9l-18 15l-14 8l-8 8l-11 10l-7 9v5l-9 8l6 7l-7 -3l-5 13l-7 14l-12 42l-4 9l-4 40l-2 16l3 5l2 -2v6h-4l-2 6l2 34v3c-2 6 -2 9 2 34l1 14c0 7 -1 15 -3 24c0 3 -1 5 -1 7c0 4 2 9 7 17l-4 2l1 5l-2 29l3 8c-3 4 -4 7 -4 9
c0 3 2 7 6 12c-4 16 -5 24 -5 34v21l2 31l-3 20l-1 10l2 11l9 3v3l-4 2l-1 9h-7c-7 25 -8 28 -21 41c-13 6 -5 4 -36 13l-1 4l-6 1l-1 -4l-6 1l-3 6l-4 -5h-12z" />
    <glyph glyph-name="V" unicode="V" horiz-adv-x="784" 
d="M3 641l3 21l12 -2c16 -2 22 -2 44 -2c11 4 25 -1 31 -5c8 3 15 5 19 5l13 -2l4 -6l8 3v3l11 -2l2 3l12 1c1 0 10 -1 24 -2h3l40 3l27 3c2 1 6 1 11 2l4 -5c-3 -3 -5 -5 -7 -5c-1 0 -4 2 -1 -4l4 4l1 -9l-14 -1c-19 -5 -22 -3 -30 -5c-20 -3 -35 -10 -48 -21l2 -6l-7 -5
v-16l5 -3c-2 -5 -3 -9 -3 -10l17 -42l12 -32l7 -14l-2 -7l9 -4l8 -22l6 -2l-3 -14l15 -15l3 -11l7 -12c1 -2 10 -37 16 -41l-4 -8c15 -1 36 -49 38 -54c2 -19 7 -19 20 -39l6 -22c4 3 6 4 11 2c0 -3 1 -6 1 -6l-1 -15c0 -2 3 -7 9 -13c-1 -3 -1 -6 -1 -7l1 -7l9 -3
c0 -5 1 -9 1 -10c7 -10 8 -14 18 -29l7 -18l-2 -13l10 -3l9 -19l8 -1v-6l10 -3c4 9 6 13 11 17c4 15 6 17 6 18l19 41l8 11l2 9l6 6l2 10l18 39l3 10l14 23l2 11l10 27l1 16l7 -3l6 12l15 37l5 7l4 13l12 23l3 11l11 19l3 11h5c0 11 1 14 7 21l15 45l6 3l2 29l5 1l4 15l7 19
c2 4 3 9 3 14c0 27 -32 41 -97 42l-4 9c2 3 4 6 4 7s-1 3 -2 5l12 -2c15 -2 26 -3 29 -3h4l26 1l24 -1l39 -3l27 2l6 1l16 -2l6 1c12 0 24 0 31 2c5 1 9 2 12 2c4 0 9 -5 9 -9c0 -3 -1 -7 -4 -11l-10 -1h-7c-21 1 -47 -16 -57 -36l-20 -40l-11 -20c-3 -10 -3 -11 -10 -15
l-3 -16c-8 -5 -9 -7 -9 -16l-14 -29l-12 -25c2 -7 -13 -32 -16 -40l-8 -19l-13 -20l-3 -10c-2 -5 -4 -8 -14 -19c1 -5 -2 -7 -4 -9c-10 -6 -10 -7 -18 -31c0 -9 -3 -12 -6 -28l-6 -6c-1 -1 -1 -3 -1 -6v-6l-6 -11c-8 -14 -13 -24 -13 -30l1 -5l-12 -15l-6 -7l-3 -10l-5 -10
c-4 -15 -12 -21 -12 -24s-2 -7 -6 -12c-2 -10 -3 -12 -12 -17l3 -5c-2 -5 -4 -9 -6 -11c-16 -28 -16 -28 -24 -49l-5 -11c-7 -9 -9 -13 -10 -22l-4 -1l-5 -12c-7 -22 -8 -23 -20 -27v6c-5 7 -7 12 -7 16c0 2 0 4 1 8c-5 4 -8 7 -9 9l-3 13l-6 11c0 1 0 3 -8 13l2 13h-7
l-6 13l-17 35l-10 24l-2 7l-18 32l-1 12c-7 4 -9 5 -12 12c5 13 6 13 -17 35c-2 11 -2 12 -10 21c-4 4 -9 12 -14 23c-1 9 -2 11 -11 16c0 14 -1 18 -10 30c-4 16 -9 20 -10 23l-5 12l-5 8v5v4h-6l-22 34c4 5 2 8 1 10l-9 22l-9 14l-4 12l-5 4c-3 23 -6 29 -20 42v7
c0 8 -3 12 -14 23v7l-4 3c-10 41 -43 78 -76 84c-10 1 -13 2 -17 7l-13 -1l-2 -4z" />
    <glyph glyph-name="W" unicode="W" horiz-adv-x="1012" 
d="M3 640l2 19l17 -1l41 -4h63l11 -2l-1 -5l21 7l17 1h9l1 -3l11 3l9 2l13 -2c15 4 18 5 22 5c2 0 5 -1 8 -4c4 4 7 5 9 5c5 0 9 -4 9 -10c0 -3 -1 -6 -3 -9l-13 -2c-52 -5 -66 -11 -74 -32l-4 -1c-3 -17 -4 -22 -4 -30c0 -4 1 -7 2 -11c3 -10 5 -17 5 -17l-2 -8l5 -4v-14
l3 -2c5 -24 2 -27 6 -34l-1 -13h6l-1 -22l8 -6l1 -11c1 -14 2 -17 7 -30c12 -33 16 -50 17 -81c4 -5 6 -9 6 -12l-1 -7l5 -8l9 -43l15 -60l21 -64l6 11c6 10 9 19 9 24c0 8 4 9 7 15l23 48c2 4 3 13 4 26c10 3 10 3 16 15l9 20l13 20l12 32l7 8l-1 4c3 6 5 10 5 12l8 27
c2 6 6 16 14 29l7 14c4 3 5 5 5 13l17 35c5 4 9 8 10 10l3 16l14 37c16 40 14 35 23 43c0 17 2 20 11 20l-1 6l6 19l10 27c1 3 5 8 12 14l-3 11l5 1c5 -4 6 -7 6 -15c6 -12 7 -16 7 -18c4 -17 7 -27 9 -31c4 -9 7 -15 7 -18c0 -2 -1 -5 -4 -10l4 -1l1 -6c9 -4 12 -6 12 -14
c0 0 0 -2 7 -19c6 0 8 -1 12 -6c-3 -5 -3 -7 -3 -11v-10c11 -8 13 -11 17 -21c3 -22 6 -25 6 -27l3 -9l17 -31c2 -5 3 -9 3 -13s-2 -9 -7 -14h14c2 -9 4 -15 6 -17l8 -12l10 -27l16 -40l4 -15l7 -13l10 -13v-5c0 -5 0 -7 6 -20l4 -10l-9 -1l-4 -9l15 -4l-2 -15l14 3l4 -10
l12 -26l1 -9h6l-1 -6c6 -6 10 -12 12 -16c4 -10 4 -10 8 -13c1 8 2 14 3 15l16 54l11 46l9 17c1 3 2 9 2 17c1 14 4 30 8 47c1 3 2 5 2 7c0 0 -1 1 -1 2v11h4c1 6 2 10 3 12l5 15l5 24l6 18c1 2 1 7 1 12c3 8 5 13 5 14l13 72l9 30l1 17l2 36c-1 5 -2 7 -11 15l-11 11
c-3 3 -10 6 -15 6h-18c-2 -1 -4 0 -6 1l-4 3l-30 2c-2 2 -3 6 -3 10c0 3 0 5 1 8l3 3c6 -1 10 -1 14 -1l59 -3s2 -1 5 -3l3 3h40l8 -2l21 1l3 -6c3 -2 5 -3 7 -3c1 0 3 0 5 2l-1 6l18 -1c-3 -8 0 -8 6 2l42 3c1 -4 2 -8 2 -10c0 -9 -2 -9 -28 -12c-1 0 -9 -3 -19 -6
c-16 -6 -18 -7 -25 -19l-10 -13c-1 -2 -1 -4 -1 -7v-4l-9 -19h-4l-12 -14l2 -4l-8 -9l12 -2c-2 -6 -3 -9 -3 -10l-4 -32c-1 -11 -5 -22 -16 -38c0 -5 1 -8 1 -9c0 -8 -3 -18 -7 -30c-6 -14 -7 -18 -10 -30c4 -4 5 -5 5 -10l-8 -5c-2 -6 -4 -11 -5 -14c-3 -14 -5 -23 -6 -25
l-4 -5l2 -31c11 52 -60 -208 -60 -222c0 -5 0 -9 1 -12l1 -6c0 -6 -3 -12 -13 -26l3 -1l-13 -55h-6v5c0 3 0 5 -1 5l-9 16c-2 2 -2 7 -1 15l-11 11c0 5 0 9 -1 11l-4 8l-6 21c-1 3 -5 5 -11 8c0 16 -2 20 -11 30c-1 16 -3 20 -16 31c1 17 -2 21 -5 23c-9 9 -10 10 -10 19
l-1 11l-24 50v11l-11 5v6c0 6 -2 10 -9 17l-7 24l-14 28l-4 16l-9 12l-5 10l4 2c-8 5 -9 7 -11 16l-18 40l-6 14c-7 5 -9 7 -13 16h4l-9 28l-21 49l-7 22l-5 5l-8 -16c-9 -17 -14 -28 -15 -32c-3 -12 -6 -20 -7 -21l-13 -10l-3 -19l-29 -62l-5 -26l-2 -11l-8 -1
c-1 -6 -3 -8 -10 -11c0 -8 -1 -13 -2 -15l-9 -22c-1 -2 -2 -6 -4 -13l-5 -1c-2 -7 -3 -8 -9 -9l1 -11c0 -5 -1 -9 -1 -10l-25 -46l-108 -242l-7 -1l-1 11l-28 115l-2 20l-17 58l2 8c-3 6 -5 10 -5 13l-1 9l-5 8l1 13c-6 11 -6 13 -6 15c0 5 -1 8 -5 14l-5 28l-3 12l-19 54
l-5 13l7 9c-6 10 -8 15 -10 26l-6 26c-1 20 0 20 3 27c-2 4 -3 7 -3 9l3 8c-15 1 -17 4 -16 20c-2 6 1 12 -7 17l-2 10l-3 18c-1 6 -4 11 -10 20l-1 12l-8 16l-8 18c-8 16 -22 23 -40 23h-6c-3 2 -5 3 -16 4l-10 1l-4 -4z" />
    <glyph glyph-name="X" unicode="X" horiz-adv-x="712" 
d="M4 0l-1 18l16 2l9 -2l10 4h8c4 6 8 7 18 6l1 4c10 4 12 6 13 15l8 -1l17 18c12 13 22 23 26 31c17 29 19 31 34 36c0 12 20 15 38 55h10c0 11 1 14 6 20c8 8 11 14 12 15l64 73l10 15l19 19l6 9l-6 10l-28 32l-8 17l-13 13l-21 29c-6 8 -7 10 -7 20c-30 20 -32 22 -42 41
c-2 13 -4 16 -19 21l-33 55c-3 32 -15 28 -33 33c-4 9 -12 11 -19 14l-10 10l-9 1c-7 4 -4 -1 -11 5h-27l-1 21l6 3l32 -6l5 2l5 -10l7 10c8 -2 10 -3 34 -3c8 -2 14 -3 18 -3h13l11 2l27 -7c5 5 10 8 13 8c1 0 3 0 5 -1l2 -6l9 3l1 6l23 -1c13 0 19 1 33 5l4 -19h-3
c-3 0 -4 -1 -7 -3c-3 1 -5 1 -6 1c-2 0 -6 -1 -11 -3l-4 4l-3 -7c-26 -1 -44 -14 -44 -33c0 -4 1 -8 3 -12l9 -13l4 -10l10 -2c10 -22 12 -27 26 -46v-9c9 0 13 -3 13 -7c0 -12 17 -23 22 -30l17 -22l14 -21l23 -26h5c0 -15 0 -15 14 -39l3 9l11 4l10 18l13 11l17 14l-1 10
c12 10 14 14 15 30h9l29 39l9 13c10 8 12 11 19 23c5 4 6 9 6 10l26 45c2 4 3 9 3 14c0 21 -23 32 -65 33l-2 2l-8 -1c-2 5 -3 10 -3 12c0 3 1 6 2 10l55 -3c2 -6 4 -7 10 -8c5 6 7 8 13 8h2l1 -8l5 -2l5 10c6 0 8 -1 12 -6l6 3l37 1l73 3l7 -1c0 -10 -1 -15 -5 -21l-10 1
h-3c-13 0 -37 -11 -52 -23l-10 -14c-10 -3 -11 -4 -22 -21l-15 -19l-7 -9l-1 -10l-18 -17c-19 -17 -19 -16 -41 -53c-5 -9 -10 -15 -15 -19l-8 -6l-24 -33l-10 -7l-4 -12l-8 -1l-4 -9l-7 -7c-7 -14 -11 -16 -15 -18v-8c0 -6 -1 -8 -4 -12l26 -35c7 -21 9 -21 10 -21
c2 0 5 -1 9 -3l-6 -9h3c4 -7 7 -11 10 -11c8 0 5 -3 11 -14c8 -6 4 0 32 -28c7 -10 9 -13 12 -23l8 -2l4 -13c7 -3 12 -7 15 -10l4 -9l33 -40l29 -44l9 -3l5 -17l3 -1c3 3 5 5 6 5c3 0 6 -3 6 -7c0 -2 -1 -4 -2 -7l8 -8l9 -3l17 -11c5 -3 15 -5 28 -6l12 -1v-22l-18 5
c-3 -3 -5 -5 -7 -5c-1 0 -3 1 -5 2l-2 5c-1 1 -3 1 -4 1c-2 0 -4 -1 -6 -5h-5l-11 1l-55 6h-17l-16 -3l-63 -2l-34 -4l-12 -1l-4 20c59 4 91 13 91 35c0 24 -22 53 -41 68l-3 10l-13 15l-9 13l-10 7l-7 9l6 5c-21 13 -24 17 -25 32c-4 4 -4 6 -4 12c-4 2 -5 3 -7 7l-10 -2
l-14 24l-6 4l-12 15l-10 9l-4 9l-8 7l-1 9l-6 9l-11 -8c-19 -23 -16 -22 -25 -23c-1 -10 -2 -12 -11 -17c-3 -7 -3 -8 -18 -25l-7 -9l-9 -19c-11 -8 -18 -15 -22 -19l-18 -25l-15 -15c-4 -11 -6 -15 -18 -26c0 3 -12 -20 -20 -31c-12 -17 -19 -35 -19 -47
c0 -10 9 -21 20 -23l22 -4l10 -4l1 3c5 -3 8 -4 11 -4c1 0 4 1 7 2c10 -1 15 -6 15 -12c0 -5 -4 -9 -10 -9c-3 0 -6 2 -11 7l-2 -4h-3c-2 0 -4 1 -7 3c-5 -2 -8 -3 -11 -3c-4 0 -8 1 -23 0l-6 7l-11 -5l-4 5c-13 -2 -18 -3 -23 -3c-4 0 -7 1 -13 5l-17 -2
c-14 -5 -17 -6 -22 -6c-2 0 -5 1 -9 4c-12 -5 -19 -6 -37 -5l-8 -1l-12 -1c-4 -1 -8 -2 -9 -2s-4 1 -7 3z" />
    <glyph glyph-name="Y" unicode="Y" horiz-adv-x="707" 
d="M136 559c-7 5 -3 13 -14 5l-3 10c-9 3 -11 5 -20 26l-11 1l-1 4l4 6l-10 -1l-4 4l3 4l-13 3l-15 9c-7 4 -17 8 -35 9l-13 1l1 19l8 1l58 -4h6l15 1l1 -3l8 2l31 -2l21 2l9 -2l90 7l7 -4l-1 -16h-9c-26 -3 -54 -10 -63 -17c-2 -2 -5 -7 -8 -14l3 -23l6 -6l42 -66l7 -5
l8 -13l9 -19s0 -2 1 -7c14 -9 25 -16 28 -22l5 -12l8 -1l5 -9c7 -18 7 -19 17 -20c2 -7 4 -12 22 -31l7 -9l1 -4l7 -2l7 -9c11 9 20 17 23 23l13 19l9 6l4 9l20 22l7 18l5 -1l8 4l4 9l13 14c1 2 2 6 3 12c17 11 35 33 42 51l8 11l6 -1l2 15c6 10 4 13 13 24c3 8 4 10 4 12v8
c-3 16 -6 20 -20 24l-2 3l-10 1l-8 4l-9 -1l-3 3l-29 1v6c0 3 2 9 5 15c18 -3 28 -4 62 -4l3 -5l5 5h41c2 -9 4 -10 13 -11l-2 7l28 2l25 -1h10l35 2l12 2l2 -17l-12 -3l-28 -5l-17 -7l-9 -4l-2 -3l-10 -5l-16 -18l-6 -5l-5 -10l-6 -2l-2 -7l-28 -36c-4 -2 -5 -4 -19 -25
l-11 -9l-19 -26l-21 -27l-8 -13l-9 -6h-11c-1 -2 -1 -3 -1 -4c0 -3 1 -7 3 -11c-12 -11 -15 -15 -22 -27c-11 -8 -12 -10 -15 -19c-12 -9 -14 -13 -18 -24c-13 -10 -14 -12 -25 -26l-8 -11l-1 -79l-3 -28l3 -16l-10 -1c1 -8 2 -10 8 -15c-6 -11 -7 -12 3 -31l-4 -5l4 -17
v-28l9 -11l-5 -6c4 -24 15 -37 33 -40l38 -7l13 -4h12l20 -1l2 -9l-3 -11l-125 5l-36 1l-2 2l-46 -3v7l-8 -7h-10l-19 1l-7 -5l-30 -1l-11 -2l-3 8l6 6h-7l-2 7l8 1h45c3 -1 13 2 28 10c2 1 6 3 18 13c12 19 15 27 15 36l-1 16l6 6l-1 12l-2 18v5l5 24l-5 27l9 5l-1 5l-6 1
l2 37l5 4l-2 11l-4 16l-1 6l1 11l3 2c-2 6 -3 10 -3 13c0 2 1 5 2 9l-55 72c-34 49 -42 45 -69 88c0 1 2 2 -5 16l-2 9c-22 1 -24 5 -23 36l-6 -2v-4l-11 -4c-5 30 -8 32 -11 40z" />
    <glyph glyph-name="Z" unicode="Z" horiz-adv-x="638" 
d="M20 2l28 39c9 11 15 18 17 22c9 15 10 16 18 19l3 8l16 19c26 37 31 44 39 66c9 3 13 5 17 12l11 17l12 11l4 10h8c8 24 14 34 27 45c10 8 11 10 15 21l8 10l14 7c3 20 5 22 18 26l3 6l7 1l8 22l30 37l5 9l9 7l6 12l16 18l11 23l4 11l10 -3l7 10l24 32l22 23l7 12l35 47
l7 9l-10 2l-6 2l-22 -3l-29 5h-43l-13 5l-15 -4l-29 2l-10 4l-9 -3c-5 -6 -7 -7 -17 -8l-6 9l-11 -1l-37 -2l-10 2h-32l-18 1l1 8c-9 -3 -11 -4 -18 -11l-14 5c-6 -6 -10 -7 -14 -5c-26 -11 -29 -5 -37 -16l-19 -24c-4 -5 -7 -16 -8 -35l-5 -35l-18 -1l1 11c0 12 1 15 5 23
l-3 2v5l2 34l5 1l-3 9l3 8l-1 11l5 28v1v17l2 7l11 -1l95 -3l12 -4l25 4l18 -4l27 2l11 -2l10 1l21 -1h13l12 3l4 -4c4 1 7 2 9 2c3 0 7 -2 12 -5c4 3 6 4 9 4h6l1 5h5l3 -5l36 -1h17h6c7 0 11 -2 19 -9l1 8h11c38 0 99 2 122 4c10 0 12 1 23 4l1 -9l-7 -7l-20 -30l-19 -22
l-24 -38l-21 -21l-6 -1l-7 -23l-6 -1l-4 6l-9 -9c2 -4 2 -6 2 -8c0 -3 -2 -8 -13 -5l-10 -16l7 2c-5 -17 -8 -22 -32 -46c-18 -13 -20 -18 -20 -21c0 -20 -21 -35 -23 -22l-19 -36l-6 2c-1 -13 -3 -15 -11 -22c-12 -15 -15 -21 -18 -37l-7 2c-8 -4 -10 -6 -13 -16
c-20 -16 -22 -18 -21 -29c-6 -1 -13 -11 -24 -6c0 -11 -1 -13 -9 -21l9 -3l-62 -80c-9 -10 -10 -13 -9 -23c-12 -4 -15 -6 -21 -15l-31 -44c-9 -11 -11 -13 -15 -23l8 -1l31 1l15 -3l9 -3l7 4l5 -4l5 3l15 -2l10 1c3 0 8 -3 13 -9l16 7l1 3l88 -2l1 -3l32 3h3l41 -3
c40 -6 37 1 41 6l19 -1l4 1c4 0 5 -1 8 -5l6 8l11 3c16 3 21 4 28 9c13 8 26 24 28 34l9 36l11 9c-3 7 -5 13 -5 16l4 21l1 14l24 -2l-1 -12c-3 -23 -5 -38 -7 -42l-10 -34l1 -15l-3 -16l-9 -55l-3 -9l-7 -1l-45 2l-14 -2l-9 -3l-4 3c-12 -2 -17 -3 -27 -3h-12l-2 4l-9 -3
l-58 2l-19 -5l-30 5l-20 1h-5h-8l-24 -1l-5 6l-11 -3l-9 -3l-26 4s-36 -2 -55 -3h-23l-4 4l-6 -2l-29 2l-8 -4l-11 5l-10 -1l-46 -2l-12 -1c-3 0 -7 1 -13 3z" />
    <glyph glyph-name="bracketleft" unicode="[" horiz-adv-x="348" 
d="M87 764c5 -3 10 -5 13 -5s7 2 13 4l9 -6l2 7h15l49 2c22 0 32 -3 38 -3c4 0 8 1 15 2l4 -4l49 6l9 -19l5 -26l-22 -3l-4 6l-11 1c-9 -2 -13 -3 -17 -3s-10 2 -22 5c-22 -7 -42 -3 -56 -5l-6 3l-10 -6c-1 -5 -2 -9 -3 -11c-2 -6 -4 -10 -4 -11c0 -3 2 -7 4 -12l3 -49
l2 -25l-7 -7l-6 1l-2 -6c10 -7 11 -10 11 -20c0 -1 0 -5 5 -21c-5 -14 -7 -26 -7 -36c0 -1 1 -12 0 -29v-26l5 -32l-7 -18v-15l7 -22l2 -36c-4 -5 -5 -7 -5 -12c0 -3 1 -16 -2 -34l8 -35l-3 -40l-13 -27l2 -5l8 -34c-1 -9 -2 -15 -2 -19v-2l7 -40c0 -1 -2 -4 -5 -9l-5 -19
l9 -21l-2 -25l-8 -38c4 -3 7 -6 7 -8c0 0 -1 -1 -2 -3c-2 -5 -4 -9 -4 -11c0 -1 2 -6 4 -11c1 -3 2 -7 3 -12l16 -2c5 -2 9 -3 10 -3c0 0 8 1 19 3h7h14l6 -6c13 4 19 5 22 5s7 -1 17 -3l11 1l4 6l11 2l7 -5l-1 -16l-9 -28l-53 1c-19 1 -25 1 -43 2l-10 -3l-37 -1l-12 3
l-2 6l-13 -6l-2 7l-9 -6c-12 0 -15 2 -18 9l8 41l-4 44c1 9 1 12 1 12l5 51c0 1 -1 5 -3 10c-2 7 -4 14 -4 21c0 2 1 4 2 5l5 9c2 2 2 6 3 12l-7 1l1 52c-1 11 -1 15 -1 17c0 15 1 18 5 28c-6 32 -7 38 -8 83l1 22c7 24 0 31 0 32l-1 22l-5 29c6 17 7 23 13 54
c-4 11 -5 14 -5 28c0 3 0 6 4 31l-4 38c6 7 5 11 -1 22l2 26l-2 58s0 1 -1 16l-2 44z" />
    <glyph glyph-name="backslash" unicode="\" horiz-adv-x="496" 
d="M476 -94c-17 -12 -22 -14 -28 -14c-4 0 -7 2 -12 6c-3 11 -5 19 -6 21l-26 47l-12 31l-6 8c-2 2 -3 7 -5 13c-6 6 -8 9 -8 16v5c-11 8 -12 11 -14 33c-7 2 -9 4 -9 9c0 4 0 8 1 13c-10 0 -11 3 -11 16c-9 14 -10 17 -11 18l-15 28l-23 52c-7 10 -11 19 -11 23
c0 0 1 2 1 4c-4 3 -7 6 -7 7l-11 25l-28 53l-75 152c-7 14 -13 25 -17 35l-12 21c-5 10 -7 15 -10 26l2 3c-2 4 -3 8 -3 10c0 14 -20 31 -20 31c0 1 1 3 2 6l-8 14l-5 -1c-6 11 -7 15 -7 25c-8 2 -9 3 -17 23c-2 10 -3 11 -10 21c-2 3 -5 8 -14 27c-3 6 -6 12 -8 18
c-3 5 -7 14 -13 24l37 15l7 -14c2 -5 3 -8 4 -9l14 -39l8 -11l4 -13l7 -11l18 -38c0 -1 2 -4 5 -9c-1 -1 -1 -3 -1 -3c0 -3 3 -7 8 -11v-8c19 -19 12 -27 24 -48c8 -6 8 -6 14 -23l16 -30l31 -70c4 -8 7 -13 15 -21c6 -8 11 -11 11 -13l3 -18l6 -10l34 -74c1 -1 3 -6 7 -12
l1 -8l14 -10l-1 -25c5 -4 8 -6 9 -8l12 -23l7 -7c3 -12 4 -13 18 -44c1 -3 3 -7 5 -12l-1 -3c7 -9 9 -12 25 -43c1 -4 4 -10 8 -17l-3 -3l-13 3c0 -11 2 -13 24 -18l-2 -6c6 -3 10 -6 10 -8l5 -19l6 -4c3 -3 5 -8 10 -22c2 -6 6 -16 13 -27c3 -10 5 -12 6 -13l6 -14l18 -33
c0 -1 1 -5 3 -11z" />
    <glyph glyph-name="bracketright" unicode="]" horiz-adv-x="349" 
d="M261 -100c-5 3 -10 5 -13 5s-7 -2 -13 -4l-9 6l-2 -7h-15l-49 -2c-22 0 -32 3 -38 3c-4 0 -8 -1 -15 -2l-4 4l-49 -6l-9 19l-5 26l22 3l4 -6l11 -1c9 2 13 3 17 3s10 -2 22 -5c22 7 42 3 56 5l6 -3l10 6c1 5 2 9 3 11c2 6 4 10 4 11c0 3 -2 7 -4 12l-3 49l-2 25l7 7l6 -1
l2 6c-10 7 -11 10 -11 20c0 1 0 5 -5 21c5 14 7 26 7 36c0 1 -1 12 0 29v26l-5 32l7 18v15l-7 22l-2 36c4 5 5 7 5 12c0 3 -1 16 2 34l-8 35l3 40l13 27l-2 5l-8 34c1 9 2 15 2 19v2l-7 40c0 1 2 4 5 9l5 19l-9 21l2 25l8 38c-4 3 -7 6 -7 8c0 0 1 1 2 3c2 5 4 9 4 11
c0 1 -2 6 -4 11c-1 3 -2 7 -3 12l-16 2c-5 2 -9 3 -10 3c0 0 -8 -1 -19 -3h-7h-14l-6 6c-13 -4 -19 -5 -22 -5s-7 1 -17 3l-11 -1l-4 -6l-11 -2l-7 5l1 16l9 28l53 -1c19 -1 25 -1 43 -2l10 3l37 1l12 -3l2 -6l13 6l2 -7l9 6c12 0 15 -2 18 -9l-8 -41l4 -44
c-1 -9 -1 -12 -1 -12l-5 -51c0 -1 1 -5 3 -10c2 -7 4 -14 4 -21c0 -2 -1 -4 -2 -5l-5 -9c-2 -2 -2 -6 -3 -12l7 -1l-1 -52c1 -11 1 -15 1 -17c0 -15 -1 -18 -5 -28c6 -32 7 -38 8 -83l-1 -22c-7 -24 0 -31 0 -32l1 -22l5 -29c-6 -17 -7 -23 -13 -54c4 -11 5 -14 5 -28
c0 -3 0 -6 -4 -31l4 -38c-6 -7 -5 -11 1 -22l-2 -26l2 -58s0 -1 1 -16l2 -44z" />
    <glyph glyph-name="asciicircum" unicode="^" 
d="M507 307h-58l-173 309l-174 -309h-58l210 368h43z" />
    <glyph glyph-name="underscore" unicode="_" horiz-adv-x="500" 
d="M0 -133h500v-49h-500v49z" />
    <glyph glyph-name="quoteleft" unicode="&#x2018;" horiz-adv-x="162" 
d="M54 555l-2 7l8 9v6v6c-1 5 -1 8 -1 8c0 2 1 4 2 8c11 0 14 2 17 15l-5 3c6 20 11 29 25 46c11 -3 17 -8 17 -13c0 -4 -2 -9 -7 -14c-2 -5 -3 -9 -5 -11c-2 -6 -4 -12 -4 -15v-4l-5 -5l3 -9l-5 -6c0 -4 1 -8 1 -10c0 -7 -1 -10 -6 -16l1 -11l-3 -2l2 -7c0 -4 -1 -8 -1 -10
c-1 -3 -2 -6 -2 -8c0 0 0 -1 1 -2l3 -15l2 -28c1 -4 3 -9 6 -17l-5 -10c-3 2 -6 3 -8 3c-1 0 -3 -1 -5 -1l-5 3c-8 -4 -13 -6 -18 -6c-10 0 -16 7 -16 18c0 2 0 4 1 6l2 12l-2 15l3 25l1 17c1 3 4 8 10 13z" />
    <glyph glyph-name="a" unicode="a" horiz-adv-x="381" 
d="M25 157l9 4l-8 5c1 16 2 19 9 27v22l18 70l6 9l18 37l20 34c3 8 3 9 9 11c11 18 18 25 35 37l7 3l3 -3l4 1l-2 6l25 13l11 1l18 5h13l10 -2c1 -1 2 -1 2 -1l19 1l26 -10l14 -4l3 11l12 18l1 13h4l2 14c11 0 19 -3 19 -9l-5 -28l-9 -61l-4 -16l2 -16l-2 -11
c5 -2 5 -3 6 -8c-9 -14 -10 -20 -10 -32v-7h-8l-3 -8c7 -4 9 -6 9 -12c0 -8 -3 -14 -11 -21c4 -5 6 -9 6 -11c0 0 -1 -5 -3 -11c-1 -3 -1 -6 -1 -9v-12c-5 1 -7 0 -9 -6c4 -2 7 -4 8 -6l-2 -13l1 -26l-6 -20v-16l-12 -11c-2 -1 -4 -4 -1 -8l2 -6c2 8 3 9 10 11l-1 -5l1 -26
l-3 -7l4 -4l-2 -6l7 -13c5 -3 9 -5 12 -5s7 1 9 2l46 24l11 2l6 -19c-40 -33 -88 -59 -111 -59c-11 0 -18 2 -29 8c0 4 -1 6 -6 8v5l-5 7l-1 45v5c-4 18 -6 15 3 24l-3 7l3 12c3 28 2 26 7 32l5 21l4 14l3 28c0 3 1 6 2 10l-2 4l-4 -9c-11 -26 -12 -27 -19 -34
c5 -7 6 -8 2 -16l-5 -11l-9 -3c-3 -1 -4 -1 -6 -4l1 -13c0 -1 2 -7 -1 -12l-23 -34l-24 -40c-17 -17 -18 -18 -19 -26l-23 -21l-8 -3l-2 -4l-16 -4l-10 -1l-9 1l-8 4l-4 -2c-14 6 -17 9 -20 20l-6 4c0 8 -2 12 -9 21l-1 9c-1 7 -2 9 -7 13l2 9v5v1l-2 14l1 13v22l2 27z
M64 98c2 -1 4 -2 5 -2c2 0 5 2 8 5c1 -5 2 -9 1 -10l-1 -26c0 -14 13 -27 26 -27c11 0 18 4 25 16c8 5 8 9 13 14l7 1v4c0 5 1 7 8 10c3 14 6 18 16 23c-1 3 -4 5 2 12c6 5 4 -6 16 37c8 2 8 3 11 14c1 4 4 11 9 20c5 8 8 15 10 22c3 10 5 17 6 18l6 9l11 39c2 6 6 10 15 19
c-4 5 -6 9 -6 11l4 12l4 17l5 9l-1 7l3 18l2 10c-4 3 -4 4 -4 9c-9 1 -11 3 -16 9l-3 -2l2 -3l-7 -3c-7 4 -14 6 -19 6s-9 3 -20 -2l-10 7l-12 -9c-14 1 -16 -2 -17 -4c-4 -6 -4 -6 -13 -7l-10 -5c-2 -4 -4 -7 -5 -9c-6 -14 -7 -15 -15 -16c2 -4 3 -7 3 -9s-2 -6 -6 -12
c-5 -8 -8 -17 -8 -22l1 -11c0 -3 -3 -7 -11 -15c0 -17 2 -20 -8 -31l7 -5c-9 -7 -10 -9 -10 -19l2 -31l-4 -27h-8l-8 -12l5 -3l3 3c3 -3 5 -7 5 -9l-4 -24l-2 -11c0 -3 -5 -9 -13 -15z" />
    <glyph glyph-name="b" unicode="b" horiz-adv-x="382" 
d="M27 715l1 20l12 -1l25 1l31 1l36 8l22 3l14 4l8 2l-1 -12l-4 -32l-4 -22c-3 -12 -4 -22 -4 -26v-4l1 -11l-5 -8l2 -27l-5 -6c-2 -6 -3 -11 -3 -14s1 -7 3 -13c-6 -3 -7 -5 -10 -12l9 -5c-5 -21 -3 -21 2 -21c0 -12 -1 -17 -5 -31c-8 -27 -9 -34 -8 -61l-4 -23l-6 -59
l-3 -34l-8 -4l6 -3l1 -5l-11 -65l1 -7l2 -4l-5 -28l1 -6c1 -3 1 -9 1 -16l6 11l30 78l26 51c0 18 1 19 17 20c0 12 2 15 13 19v5c0 9 3 11 15 12l-3 7c33 35 49 45 74 45s40 -11 55 -39c0 -9 0 -8 5 -26c4 -9 5 -19 5 -28l-1 -16l-1 -33l-1 -15l-6 -7l2 -10c2 -4 2 -8 2 -10
s0 -5 -1 -6l-6 -16l-1 -25c-1 -2 -3 -5 -7 -9l-1 -12c-1 -19 -4 -24 -14 -26l4 -7l-14 -31l-5 -19l-6 -12h-5c-1 -8 -2 -10 -8 -14c-2 -9 -4 -13 -9 -20c-19 -24 -20 -25 -31 -30c-1 -8 -10 -8 -17 -17c-3 -4 -5 -5 -9 -6l-7 -4l-32 -12l-8 -5l-5 3l-17 -3l-18 3h-14l-30 10
l-12 10l-23 -74c-6 -2 -10 -3 -13 -3c-2 0 -6 1 -11 4l1 3l-1 5l5 31v9l4 12l-1 12l2 11l3 30l4 15l4 2l-1 30v6c0 5 1 9 5 17l2 10l2 27l7 61c-6 8 -10 16 -10 20c0 2 1 6 3 11l7 1l11 126l4 1v7h9l-9 12l1 16h7l-9 18c8 8 -1 11 8 22c-5 5 1 10 1 12c0 3 2 6 -1 6
c-3 6 -4 9 -4 12c0 1 1 5 3 12c1 4 1 8 1 11l-1 23l3 12c2 6 1 7 -1 11l8 127v22l-12 9l-18 1l-7 6c-2 -2 -5 -3 -6 -3c-2 0 -4 1 -7 3c-4 -1 -7 -2 -9 -2l-7 1h-11zM104 47l17 -7l-8 -7l4 -5l8 5l12 -1l22 -4c8 -2 16 -1 23 0l33 8c3 1 10 7 21 16c8 7 13 16 16 25l16 50
l6 4l2 6c-3 4 -5 8 -5 10s2 6 5 11h4l4 7l-6 1c1 18 1 20 7 47l3 12l3 1l-4 33l5 1l2 16l1 23l3 13c8 6 9 8 8 19l-8 -4c-1 13 -2 16 -7 27h5l2 12c-4 6 -5 8 -5 16c-9 3 -15 6 -18 6c-11 0 -30 -12 -40 -25c-11 -14 -21 -29 -31 -47c-8 -14 -13 -23 -13 -24l-4 -13
c0 -2 -2 -5 -3 -10h-5c-2 -4 -3 -7 -4 -9c-3 -4 -5 -6 0 -13c-10 -10 -14 -16 -16 -21l-3 -10l-21 -55c0 -4 1 -9 3 -16c-13 -7 -15 -12 -22 -45l-3 -10l-3 -2l-1 -13l-5 -22v-6z" />
    <glyph glyph-name="c" unicode="c" horiz-adv-x="287" 
d="M20 114c7 9 10 15 10 21c0 3 -1 7 -1 11c-5 1 -8 3 -8 5c0 1 2 4 6 6c-3 4 -5 9 -5 12l1 4l8 3l-6 4l1 10l5 -1l2 6h-6l-1 4l4 11l1 13l6 -3l7 9h-9l-2 7l7 24l3 26l3 7h5l4 12l12 22l13 25l18 22l8 8l3 -1c6 18 13 24 44 40c24 12 38 16 62 17l2 -3l6 4c4 -6 6 -7 13 -8
l-1 6l10 -3c24 -3 32 -7 32 -12c0 -3 -2 -8 -4 -13l-6 -13l3 -4c0 -13 -1 -17 -9 -25l-6 2v4l-9 2l1 13c-8 -4 -13 -6 -18 -6h-11c-4 5 -5 6 -15 7l-12 4l-11 -1c-18 0 -19 0 -37 -14l-7 2c-1 -10 0 -8 -14 -25l-7 -10l5 -5l-8 -6l2 -8l-4 -5l1 -3c-5 -7 -6 -10 -5 -19
l-15 -6l14 -9l-4 -4l-7 3l-6 -5v-13h11l-5 -17l-8 -2l5 -6l-3 -10v-17l-2 -30c-2 -4 -3 -7 -3 -9s1 -3 1 -6l-3 -3l2 -11c0 -1 -1 -4 -1 -9l-1 -13l5 -4l-3 -25l6 -12l2 -17c2 -14 7 -21 22 -30l1 -5h-7c-4 5 -6 6 -12 7l9 -13l11 -2v5l10 2l3 -10l1 4l9 -1v-3l6 -2l2 5
l14 -1l2 4l11 -1l-1 5l5 1l5 -5l4 3l-3 8l11 1v7c6 5 12 8 17 8h2c0 12 2 16 14 25l5 -2l6 7c-2 5 -3 9 -3 12c0 4 3 7 8 7c7 0 11 -5 16 -17l-53 -70h-4l-11 -11l-2 -9l-5 1c-3 0 -5 -1 -6 -2l-8 -6l-10 -4l-22 -8l-5 2l-6 -1l-7 2l-5 -3l-3 4l-6 -3l-9 9v-6l-10 5
c-11 4 -12 5 -18 12c-9 7 -11 10 -13 11c-6 7 -6 8 -7 17h-5l1 8l5 -1l-4 6h-8l3 13l-7 1l-4 11l-4 21l-6 14v8z" />
    <glyph glyph-name="d" unicode="d" horiz-adv-x="387" 
d="M26 94l-3 1v20l2 25l4 24l9 41c0 5 1 7 1 9l7 22l3 11l4 3l3 -4l3 4c-4 4 -7 7 -7 10c0 1 1 3 7 15v6l6 10l8 23l15 26l3 12l5 6c2 4 3 6 8 8l1 -7c2 4 4 7 4 10c0 1 -1 3 -2 6c3 5 5 8 7 9l12 11l5 8l8 5l3 6c3 5 10 9 18 10l31 12c1 0 3 0 6 2l11 1l22 3l15 -3l17 -3
l7 -4h5h7l5 30l-3 27l5 2l1 6l-2 32l5 25l5 29l3 61l1 11h-4v5l4 2l-3 6l2 6c-6 30 -13 36 -41 42l-19 -2l-16 2l-2 8l4 2v8l10 2l56 -4l17 6l15 7h14l30 7h6l4 -12l-10 -33l-2 -10c-8 -3 -10 -4 -13 -11l8 2c5 -4 6 -6 6 -10c0 -2 0 -5 -1 -8l-2 -12c-6 -2 -7 -4 -8 -11
c-6 -8 -5 -7 3 -14l-6 -12c0 -1 1 -4 4 -7l-10 -65l-5 -13l2 -16l-3 -11l-3 -28c0 -14 -1 -21 -2 -22l-4 -21c0 -5 -4 -14 -4 -15l2 -24l-3 -10c-5 -17 -8 -28 -8 -34l1 -36c0 -2 -3 -8 -7 -14l3 -11c-3 -4 -4 -7 -5 -8c0 -1 1 -5 2 -11l-6 -29l-7 -78l-4 -18
c-1 -3 -1 -7 -1 -12l1 -20l-6 -6c7 -7 7 -9 1 -17c3 -6 4 -11 4 -14s-1 -8 -3 -13h3c0 -19 3 -24 20 -29c4 1 8 2 10 3c13 4 23 8 28 11l21 15h3c6 0 9 -5 9 -16l-6 -1v-5h-7l-3 -8c-5 -3 -9 -5 -11 -7c-9 -7 -10 -7 -15 -8l-2 -4c-9 -1 -10 -2 -18 -7c-2 -2 -5 -4 -9 -6
l-3 1c-10 -7 -13 -9 -22 -9l-3 -3c-3 0 -4 1 -4 1c-5 0 -11 -3 -17 -8l-6 5l-4 -2c-18 10 -25 21 -25 38c0 3 1 14 2 27l4 27h4c-2 5 -3 8 -3 10c0 11 13 12 3 20l8 19c-4 13 -5 17 -5 20c0 4 3 8 8 14l2 9c-3 6 -5 10 -5 12c0 4 2 8 6 14l-1 14h4c-2 7 -3 9 -6 13
c-2 -9 -3 -12 -9 -20l-2 -13l-4 -4l3 -9l-8 -6l-6 -15c-2 -11 -4 -19 -6 -22l-16 -25c0 -1 -1 -5 -5 -13l-1 -6l-5 -3c-7 -22 -12 -29 -26 -44l-7 -9l-16 -24l-13 -10l-8 -9c-2 1 -3 2 -4 2c-2 0 -6 -3 -9 -7c-15 -4 -21 -5 -30 -5c-19 0 -32 10 -43 33l2 10
c-9 30 -19 32 -19 51c0 4 1 8 6 14zM76 113l9 -12l-6 -6c4 -16 3 -10 3 -19l6 -19c1 -2 1 -6 2 -10c9 -6 14 -7 20 -7c2 0 4 0 5 1l10 8l19 21c2 2 5 4 10 7l-1 5l6 8c9 11 12 16 17 25l3 3l1 7c7 4 7 5 10 13c1 7 7 16 15 28c0 5 1 9 2 10l7 8l6 20l12 24c3 11 2 11 7 14
l-3 4c7 7 9 10 9 18c0 1 0 3 3 17c4 5 2 11 12 21l-2 5l5 15l3 23l7 28v4v5l7 3v5h-9l-2 4l-6 2l-2 -4l-16 4l-1 6l-6 1l-3 -6l-8 5c-2 -2 -4 -3 -5 -3c-2 0 -4 1 -6 4l-11 -3l-25 -2c-4 -1 -10 -3 -19 -9l-7 1l-2 -7l-5 -1c-2 -6 -3 -10 -4 -11l-10 -19l-15 -37l-5 -8
l-7 -36c-11 -23 -6 -16 -6 -29c0 -4 -1 -8 -6 -17l3 -3l-6 -7l4 -5l-8 -7l4 -12l-1 -9l-4 -18v-19c-1 -2 -4 -7 -8 -12l2 -5c0 -8 0 -10 -4 -15z" />
    <glyph glyph-name="e" unicode="e" horiz-adv-x="312" 
d="M20 89l6 16l-2 10h4v8l-6 -1v4l4 28l-2 4l-2 8l4 4l-4 9c2 6 4 10 4 11l5 33l5 13v6v6c7 1 8 3 9 9h-5c1 12 2 18 7 26l9 19l5 10l5 -1l-2 10c8 8 10 11 14 22l8 4l-2 6l4 4l4 -2l5 6c-1 2 -2 3 -2 4c0 2 4 6 10 9c4 12 7 15 17 17c3 10 5 12 16 14c2 8 4 10 13 14l9 7
l6 -4l7 4v3l9 1l2 5c6 0 9 0 11 1l7 4l10 4l39 -6c3 -4 5 -4 11 -5l5 -7l10 -2l-2 -7l14 -4l4 -8l-6 -7l4 -2v-7c6 -3 8 -5 9 -11c-4 -4 -4 -5 -4 -11l-2 -2l5 -6l-3 -12c-10 -40 -17 -52 -34 -59l2 -4c-9 -5 -10 -7 -14 -15l-7 3l-5 -13l-12 -5c-20 -10 -21 -11 -29 -19
c-13 -2 -17 -3 -23 -13l-12 -4l-3 4h-9l-2 -3l1 -6c-8 0 -14 0 -16 -1l-13 -7l-10 -2l-3 3l-18 -11c-4 -18 -8 -53 -8 -70c0 -18 4 -31 14 -50l-1 -8l20 -16c4 -8 4 -8 20 -11l10 -3l6 3l5 -3l10 2c25 5 30 8 37 24l7 -2c20 18 27 26 33 36l14 18c10 -5 14 -8 18 -15
l-14 -19c-13 -19 -26 -33 -60 -66l-6 2l-5 -8h-6c-4 -5 -7 -7 -9 -8l-12 -2c-1 -1 -4 -3 -8 -7l-6 3c-11 -6 -17 -8 -24 -8c-4 0 -7 1 -11 2c-15 4 -24 7 -25 7l-8 -2l-10 11l-9 -5c-2 3 -3 5 -3 7l1 5l1 11l-5 5h-5l-5 8l3 5l-4 6l-5 -3l-1 10l-9 26v4h-6zM93 227
c37 7 69 22 104 47c22 15 40 43 47 71c-4 3 -5 5 -5 10h7c0 27 -8 42 -25 47l-2 3l-13 -1l-8 -1l-8 1l-13 -7l-14 -3l-8 -8l-9 1c0 -10 -2 -11 -11 -14l-5 -11c-8 -20 -9 -23 -11 -36l-6 -9l-9 -33l-7 -14l2 -7l-6 -4l2 -8s-1 -4 -2 -11c0 -2 -1 -4 -1 -6z" />
    <glyph glyph-name="f" unicode="f" horiz-adv-x="222" 
d="M-93 -272l11 52h6l6 -5l31 -5l19 -3l3 -1c15 0 35 11 45 26c3 5 8 14 13 27c8 19 12 37 12 46l-2 16c4 8 5 15 5 19s0 9 -2 15c9 7 10 9 11 18l-9 -4l8 56l6 6c-6 7 -9 12 -9 16c0 8 4 14 13 24l-7 1l-1 4l5 23l-2 13l1 16v15l3 7l-1 11l5 20l2 16l3 12l-10 10
c8 2 9 3 7 15l1 16v4l-3 15l-2 18c7 5 8 8 9 14l1 34l7 70l-1 24l-24 -1l-28 -3v0c-14 0 -19 3 -19 12c0 2 0 7 1 11c34 3 40 4 57 12l5 -2c3 6 5 7 13 9c0 24 7 77 13 103c10 3 12 5 12 13h-3l-1 4h-4c6 38 23 78 43 100c5 14 12 17 12 21c0 5 3 8 11 12l-2 5
c7 7 10 9 16 11l3 7l6 4l25 21l14 5l37 14h16l13 3l3 -4c5 1 8 1 10 1c9 0 23 -3 39 -9l10 -4l-1 -9l-14 -33l-3 -11l-7 1l1 13l-5 2l-5 -10c-9 3 -11 5 -12 15l-7 -8l-5 5l-5 -1c-7 4 -11 5 -22 6l-14 -1l-9 3l-2 -4h-22c-3 -7 -5 -8 -12 -11l-10 -4l-1 -8
c-6 -4 -7 -7 -9 -16l-5 -1l-1 -11l-16 -51l-3 -28l-7 -17l7 -4c-7 -12 -11 -22 -11 -27v-11l-2 -9l-6 -43l-2 -29l-1 -10l11 -1l63 4l15 -1l17 -2l-5 -32l-8 -2c-5 -1 -10 -1 -12 -1c-5 0 -9 1 -12 2s-5 2 -6 2c-2 0 -5 -1 -8 -4l-7 6c-4 -3 -8 -4 -10 -4c-3 0 -7 1 -12 4
l-3 -7l-26 3l-3 -13l-2 -21l-5 -15l1 -13l-3 -8v-12l-5 -33v-11l-5 -3l4 -17l-4 -2l2 -10l-3 -41l-1 -18l-7 -15c2 -5 3 -9 3 -12s-2 -8 -5 -15c8 -27 -7 -31 -7 -32l7 -23s-1 -1 -1 -3l-5 -4l-1 -5l1 -5l1 -11v-2c0 -5 -3 -8 -9 -13l2 -7c-5 -4 -6 -6 -6 -10v-3l9 -6
l-4 -13l-1 -17l-7 -26l1 -13v-9l-12 -10l4 -7l-2 -4l4 -4c0 -13 -1 -19 -4 -28l-14 -46l-1 -11c-9 -2 -11 -4 -11 -13v-7l-6 -2l-2 -9l-8 -6l-1 -7l-6 -3c-4 -7 -5 -7 -15 -17l-7 -7h-8c-3 -9 -2 -9 -21 -13c-4 -3 -7 -5 -9 -5c-1 0 -2 0 -3 1l-2 -4c-8 -2 -15 -4 -19 -4
s-8 1 -15 2l-6 -3l-7 4l-11 -5c-3 7 -5 8 -13 8z" />
    <glyph glyph-name="g" unicode="g" horiz-adv-x="355" 
d="M20 138l12 25l-1 20c0 3 0 7 1 8l16 46l18 62c0 2 9 19 23 45c22 40 38 58 58 64c17 20 44 29 79 29c5 0 14 0 17 -1l42 -10l11 -2l22 60c11 0 14 -1 19 -9l-4 -13l-6 -18l-2 -23l-5 -11v-16c0 -3 -2 -7 -6 -13l4 -9l-3 -9l-1 -34l-4 -12l-2 -41c-1 -3 -4 -7 -9 -12h4
l3 -9l-7 -60l-1 -12l-4 -9l5 3v-3l-3 -25l-4 -59l2 -2l-4 -14c-4 -12 -4 -14 -4 -19v-13c3 -4 4 -6 4 -10l-2 -12l-4 -1l-3 -17l4 -2l-2 -10l-29 -127l-11 -23l-5 -14l-8 -1v-6c0 -4 -1 -5 -5 -8l-3 3c-5 -13 -7 -17 -16 -27l-12 -13l-4 3l-3 -2l-1 -10l-7 -1l-4 -9l-17 -12
h-7l-4 -7l-12 -2l-17 -9l-9 1l-11 -4l-17 2l-4 6l-10 -5c-5 4 -7 5 -15 6l-4 6l-2 -6l-17 9l5 7c0 9 1 11 7 32l3 10l34 -13c11 0 13 -1 19 -9l15 4l6 1h8l1 -7l3 6c29 7 38 11 44 23l10 19l7 14l4 18l7 8l-2 6l6 31l3 20l5 16l-1 4l6 8v18l-1 8c0 4 1 8 2 11l5 12l2 15
l-2 3l1 10c4 36 4 35 9 43l6 -2c0 10 1 12 6 21c-3 2 -4 4 -4 8v2l-6 -1l3 38l4 24l2 28l2 11l-3 11c-3 -8 -6 -14 -8 -17c-11 -19 -18 -32 -19 -38l1 -4c-11 -11 -12 -16 -12 -33c-11 -6 -16 -10 -19 -20l-7 -18l-11 -12l-4 -12h-9l-3 -3c2 -2 3 -4 3 -5
c0 -3 -4 -7 -11 -10l-1 -9l-7 -2c-1 -8 -3 -10 -14 -10l-7 -13l-12 -4h-7h-4c-5 -1 -9 -1 -9 -1c-1 0 -4 1 -7 2c-2 0 -4 -1 -6 -1c-3 0 -5 1 -18 6c-2 4 -3 5 -8 7l-4 14l-5 1l1 7c-4 4 -6 8 -6 11v3l-6 10l-1 21l8 9h-6c-3 0 -5 1 -5 4l1 7l1 34l2 11zM128 51
c16 9 19 12 37 41l6 8l30 60c8 14 13 24 14 28c5 18 5 18 13 25c-1 2 -2 4 -2 5c0 3 3 9 8 16c5 8 9 23 13 41c9 42 16 68 29 107l-16 7l-5 -1l-4 4l-8 -2l-4 4c-3 0 -5 -1 -6 -1c-2 0 -6 2 -10 4h-12c-47 0 -67 -16 -83 -65l-16 -49s-2 -4 -3 -9l4 -2
c-1 -10 -3 -13 -10 -19l-2 -13l-6 -30l-2 -14c-1 -3 -3 -7 -5 -13l3 -3c-3 -7 -5 -13 -6 -17v-14l-3 -68l2 -20c1 -15 9 -23 23 -23c8 0 13 3 21 13z" />
    <glyph glyph-name="h" unicode="h" horiz-adv-x="420" 
d="M119 736c2 2 4 3 5 3c2 0 5 -2 8 -4c21 10 25 8 29 11l24 6l-3 -9l-2 -15l-7 -39l-2 -12l-3 -3c-2 -26 0 -29 -5 -33c-2 -24 -2 -27 -2 -30l2 -9c-7 -17 -9 -18 -3 -40c-4 -6 -5 -9 -5 -13c0 -12 -3 -23 -7 -31c5 -7 7 -10 0 -20c1 -5 2 -8 2 -11c0 -6 -2 -12 -9 -27
l2 -5l-4 -20l-1 -16c-1 -3 -4 -7 -9 -11c7 -8 7 -11 7 -12l-9 -64l-4 -37l-5 -15v-5v-6l2 -12l-4 -6c6 -18 1 -32 0 -38l-4 -19l-6 -3l-1 -9l5 -3v-7l37 87l6 -2l8 19c-1 4 -2 7 -2 8c0 4 3 11 13 28c7 11 10 4 18 15l-1 7c0 4 1 7 2 9l7 12l1 5c1 3 6 6 24 26
c9 19 10 20 22 20v8l14 8c21 14 30 17 50 17c18 0 27 -9 37 -37l3 -20l3 -10c0 -6 -3 -11 -3 -12c0 -24 -3 -51 -9 -82l-3 -11h-6c2 -9 4 -16 5 -20v-2l-5 -23s-1 -6 -1 -13c0 -4 -1 -9 -2 -15l-8 1l10 -9v-5c-8 -6 -9 -10 -8 -29c0 -3 -1 -7 -1 -13l-5 -5l3 -7
c-2 -4 -3 -8 -3 -10c0 -3 1 -6 2 -10c3 -22 1 -27 -15 -31l13 -10l1 -16c7 -9 13 -12 24 -12c7 0 11 1 19 6l22 10c4 9 7 11 18 16c2 -9 4 -12 10 -16c-6 -5 -12 -8 -16 -9c0 0 -1 0 -2 1l2 -4c-4 -2 -7 -4 -8 -6c-9 -7 -8 -7 -15 -15h-7c-4 -6 -8 -9 -10 -10l-10 -4l-8 -7
c-3 -1 -7 1 -21 -8c-4 -3 -12 -2 -17 -4l-7 -1l-8 2c-9 1 -17 5 -19 17l-4 3c-1 5 -1 6 -5 9c-3 16 -3 21 -3 30c0 8 2 12 8 17l2 -4l8 6l-3 8l-8 -6v6c0 12 1 16 6 23c-4 4 -5 6 -5 10c0 3 1 4 1 6l9 56l5 45c0 5 1 8 2 10l7 13l-4 20c0 3 1 6 3 11h5c-1 4 -1 6 -1 8
c0 4 1 12 3 22c2 13 -7 15 4 24l-1 4l4 32l-1 12c-1 7 -2 10 -8 15l-6 5l-18 -6s-1 1 -26 -32c-9 -2 -8 -4 -8 -5c-1 -3 -7 -7 -17 -10v-11c0 -7 -1 -8 -13 -21c-2 -3 -5 -7 -10 -23l-5 -3l-3 -13l-13 -20l-4 -13l-2 -12l-12 -6c0 -15 -1 -19 -5 -32h-6l-26 -86l-8 -2l6 -12
c-6 -13 -5 -16 -5 -18c0 -4 -3 -10 -9 -16l2 -6l-7 -31l-2 -11c-9 -4 -12 -5 -22 -5h-7l-3 6c-5 -5 -11 -9 -15 -9c0 0 -2 0 -3 1l-1 12l1 7l5 25v24l3 21c1 3 1 6 2 11l4 5v13l2 13c1 5 1 8 1 10s-1 6 -2 11l8 11c0 11 1 13 -2 23l7 41c1 7 -1 11 -2 13l5 38l7 75
c3 17 4 7 -2 32c-1 3 -1 7 7 20l3 3l-3 10c17 6 11 12 11 32c0 0 10 60 6 86c-1 3 -1 6 -1 8c0 6 1 8 5 13c-2 6 -3 11 -3 14s2 13 2 26c0 10 3 30 8 56v2l-2 21l1 4l7 1l-8 4v11l-11 15l-39 8l-2 3l-14 -1c-6 0 -11 2 -11 7l5 15l9 -3l6 -1l60 2h6z" />
    <glyph glyph-name="i" unicode="i" horiz-adv-x="220" 
d="M10 369l2 8l2 -2l7 9h5v6l9 3l14 14l11 6c52 25 50 24 60 24c19 0 35 -16 36 -33v-39l3 -20l-6 -11l-1 -9l-4 -12l1 -9l-2 -10l4 -6c-7 -9 -8 -12 -8 -24l-6 -2v-5l-6 -4c7 -9 9 -14 9 -19s-3 -13 -9 -23l8 -5l-7 -6l4 -15l-13 -27c6 -5 10 -11 10 -14l-3 -15l-2 -12
l-8 -6l8 -10l-8 -5l5 -6l-3 -17c0 -3 2 -9 5 -16l5 -10c7 -4 12 -6 16 -6s11 2 21 5v4l6 -1c7 0 18 7 25 16c10 13 13 14 21 15l10 -14c-40 -41 -69 -62 -93 -68l-1 -4c-14 -6 -20 -7 -28 -7c-25 0 -40 15 -41 43c-3 7 -4 14 -4 18v5l4 41l2 28v6l-2 13l-1 4l1 9l5 3l1 13
l7 35l-1 23l5 19l3 25l6 15l-2 23l1 41l-5 16c-3 15 -6 19 -14 19c-14 0 -27 -7 -54 -29zM99 607l3 2l-1 11v3c0 6 4 15 11 23c9 11 20 17 30 17s19 -4 26 -13c5 -5 9 -12 9 -15s-1 -6 -3 -10l4 -1l-6 -9l6 1l3 -3l-5 -17l-4 -2l-1 -7l6 2c-7 -18 -14 -25 -30 -28l-3 -4
l-13 2h-7l-4 5l-11 9c-7 6 -9 14 -10 34z" />
    <glyph glyph-name="j" unicode="j" horiz-adv-x="193" 
d="M-108 -268l12 37l-2 3l3 2l-2 8l11 -1l30 -8l11 -2c2 -1 3 -3 6 -5l2 5c30 2 38 5 51 19l12 22h4l-2 5c4 8 5 12 6 18l12 86l6 13l-1 25l2 13l2 11l5 4l-6 2l2 11l4 24l-2 12c3 5 4 7 4 11l-1 10c4 4 4 5 5 11l-4 3l1 10c1 26 2 43 4 48l8 9c-3 6 -5 11 -5 14l2 12l1 13
h5l2 5l-8 3c3 6 5 10 5 11l2 29l6 15l-5 4l3 30l4 2l1 4c-5 6 -7 12 -7 15s1 6 3 12l4 -2l3 10l-8 10v10l2 12c0 20 -10 38 -21 38c-14 0 -35 -11 -61 -34l-11 12c7 15 12 20 20 23l13 6l10 11l8 4l17 13l29 11l5 4c5 3 10 5 17 5c19 0 39 -16 38 -31l-1 -44l1 -15l-6 -27
l1 -8l-6 -5l4 -12l-2 -20l-4 -59l-2 -11l4 -1c-1 -14 -2 -18 -10 -36c1 -9 2 -15 2 -20c0 -7 -1 -13 -6 -27l-5 -1l2 -11l-3 -59c-1 -25 -2 -30 -12 -41l5 -6l-2 -11l-4 -16c-3 -26 -6 -43 -7 -46c-1 -1 -3 -4 -6 -9l5 -4c-12 -43 -20 -67 -28 -85l-17 -37
c-7 -14 -10 -17 -20 -24l-2 -7h-5c-8 -12 -11 -16 -21 -22c-11 -7 -31 -15 -38 -15l-6 1l-15 -5l-2 2c-11 -2 -15 -3 -17 -3c-3 0 -7 0 -12 2c-5 1 -10 2 -22 5zM93 616c0 8 1 11 8 19c1 10 1 9 14 19c7 6 14 9 19 9c7 0 11 -1 26 -8l1 -4l7 -4l-4 -4l7 -9l-4 -5l7 -3l-4 -8
l1 -8l1 -5v-5h-6l-4 -11l7 -1c-2 -8 -4 -10 -13 -13v-5l-9 -5l-11 -5c-2 0 -9 3 -19 7l-4 2c-11 5 -16 15 -20 38l4 3z" />
    <glyph glyph-name="k" unicode="k" horiz-adv-x="404" 
d="M42 735l30 -3l5 2l3 -3c4 4 6 6 7 6l20 -2l31 7l8 -3l15 5l14 6v-4l-4 -1l5 -6v-11l-3 -38l-8 -43l-5 -82c0 -4 -3 -18 -7 -39c0 -3 -1 -8 -1 -24l-9 -10c7 -4 12 -8 12 -11c0 0 -1 -6 -4 -14c-1 -2 -1 -6 -1 -11l-6 -2c-1 -2 -1 -3 -1 -4c0 -2 1 -5 4 -8l-2 -12l-6 -76
l-3 -19v-11l-2 -33l-3 -5l2 -4l-1 -12c-3 -5 -3 -7 -3 -14v-6l-10 -10v-12l7 -6c-1 -5 -2 -8 -2 -11c-1 -4 -2 -7 -2 -8c0 -4 1 -8 2 -14c4 6 7 11 8 12l17 50l10 17l21 44l8 11c0 10 1 11 17 25c2 10 3 11 14 22l30 31l11 7l4 6l36 19c2 2 5 3 7 3s8 -1 14 -4c5 5 9 7 12 7
c7 0 15 -2 29 -5c11 -3 12 -3 21 -11c-10 -15 -12 -19 -17 -35l-9 -8c-9 8 -15 11 -21 11c-5 0 -9 -1 -19 -4l-10 6l-3 -3l-9 1l-2 -7l-10 -2l-14 -6l-8 -1h-5c-1 -8 -2 -13 -4 -14l-21 -13l-11 -26l-15 -26l9 -24l6 -24l14 -36l3 -10l-5 -3c10 -4 15 -9 15 -13
s-2 -7 -8 -10c25 -3 13 -23 13 -24v-4l15 1l-7 -10l1 -5c2 1 3 1 4 1c2 0 6 -2 10 -6l5 -12l20 -43l2 -13l6 -1l2 -9l-6 -3l-2 -12l9 -1l-4 9l6 6c13 -10 19 -12 31 -12c18 0 36 8 48 20c6 6 7 7 14 7l8 -11l-7 -7c-6 -6 -11 -10 -14 -10h-2c-7 -12 -10 -14 -28 -25l-27 -17
c-10 -6 -22 -10 -31 -10c-24 0 -52 28 -52 53l1 10l-11 2l-6 12l-7 9l-6 14l1 11c-4 2 -1 2 -11 14l-1 6l5 4l-13 8l-4 11l-9 28l-8 15l-7 20l-3 6c1 4 1 8 1 11c0 4 -1 7 -6 10l-6 -8c-2 -3 -4 -5 -6 -16l-20 -49l-3 -11c-9 -3 -11 -5 -13 -15l5 -3l-5 -18
c-6 0 -7 -1 -11 -25c-1 -4 -2 -6 -2 -8c0 -3 2 -8 5 -13c-3 -14 -2 -16 -9 -26l3 -8l-5 -31l-50 -4l5 50l3 2l-3 7l11 3c-9 8 -11 11 -11 22c7 2 9 4 11 11c-7 14 -5 16 -5 25c2 6 4 11 4 12l3 29l2 9l-2 10l5 35l6 81l2 10l8 1c-4 9 -5 13 -5 20c0 2 0 5 1 7c1 9 2 14 2 15
l-1 15l5 10l-3 3c0 17 1 21 10 34c-9 4 -10 6 -9 16l11 26c3 20 -3 29 -3 32c0 2 1 6 3 10l-2 4c6 11 -1 13 4 41l4 47v37l3 12l1 6l-4 29c-4 31 5 27 -22 45c-5 1 -9 1 -11 2l-19 2c-2 0 -4 0 -16 -2l-4 4c-3 2 -1 7 6 19z" />
    <glyph glyph-name="l" unicode="l" horiz-adv-x="212" 
d="M33 716l2 17c6 -1 11 -1 13 -1c9 0 22 1 53 5c15 2 16 2 29 5l1 -4l4 1v5c9 1 15 2 17 3l20 7c2 1 6 2 11 4l-7 -64l-12 -10c7 -5 9 -8 9 -12v-4l-3 -13l-5 -64c-2 -2 -5 -5 -9 -8c4 -5 7 -9 7 -12c0 -1 -1 -3 -3 -6l-9 3c8 -11 11 -16 11 -20s-4 -8 -5 -11l-5 -63l-4 -3
c0 -3 1 -5 1 -7s-2 -6 -3 -10c1 -6 2 -9 3 -12c1 -2 2 -4 2 -5s-3 -8 -8 -17c-6 -11 -1 -15 -3 -22l6 -2c-1 -5 -2 -9 -2 -11l-1 -27c-1 -3 -5 -10 -12 -17l7 1l1 -20l-16 -10c13 -7 17 -11 17 -18c0 -5 -2 -17 -6 -34c0 -2 -1 -5 -1 -9l-9 2l-2 -7l12 -3l-7 -12l-4 2l1 -14
l8 -4l-2 -10l-6 1l-9 -5c11 -4 15 -7 15 -13c0 -3 -1 -11 -3 -20c-1 -2 -2 -15 -4 -34c0 -3 0 -7 -1 -12l-10 -8l12 -2c-2 -8 -3 -10 -9 -13l4 -9c-1 -7 -1 -15 -1 -20c0 -17 11 -29 27 -29c9 0 19 4 28 11l6 4l25 20c1 1 3 3 8 6c6 -6 8 -8 10 -16c-3 -4 -5 -7 -7 -8l-6 -3
c-2 0 -4 -4 -5 -9l-7 2l-13 -19l-5 2l-10 -12c-11 -8 -13 -5 -17 -12c-7 -1 -9 -2 -14 -9l-5 1l-1 -5h-9l-4 -5c-4 -1 -7 -2 -10 -2c-1 0 -3 0 -5 1c-3 -1 -6 -2 -7 -2c-2 0 -6 2 -10 5c-7 0 -9 2 -13 9h-5l-5 11l1 8c-3 3 -4 6 -4 8c0 1 0 2 1 5l-3 3v23v23c2 9 3 15 3 15
c0 1 0 2 -1 5l4 2c-2 4 -4 7 -4 7l4 26l15 163l4 12l-1 18l5 51l1 43l5 18c1 2 1 5 1 8v9c5 0 6 1 10 5l-8 2v6v6l-1 26l2 12l1 41l4 15c1 4 1 9 1 14s0 12 -1 19l1 22c1 16 1 25 1 30c0 33 -6 44 -29 58c-4 -1 -6 -2 -7 -2l-27 2s-3 -1 -7 -3z" />
    <glyph glyph-name="m" unicode="m" horiz-adv-x="609" 
d="M8 368l2 7c53 47 81 63 111 63c25 0 37 -14 37 -41c0 -7 -1 -17 -1 -22l-8 -64l-2 -21l-6 -34c0 -5 -1 -9 -2 -10l-3 -5l1 -20l-3 -10c0 -1 1 -2 3 -4c5 9 5 11 10 26c5 21 15 45 29 69l31 57l7 8l8 9c2 9 3 11 8 20l6 2l-1 6l8 3l2 6c27 19 38 24 55 24
c27 0 46 -22 46 -54c0 -14 -3 -39 -6 -52h-4l4 -7l-4 -29c0 -19 1 -18 -6 -27l4 -7c-3 -4 -4 -8 -4 -10s1 -5 3 -9l-8 -1c3 -5 5 -8 5 -11c0 0 0 -2 -1 -5c0 -2 -1 -4 -1 -6l1 -12l-5 -5l6 -3l4 14c16 51 29 74 46 102v9c8 7 9 9 12 18h3v11l9 9l12 21l23 27c7 9 8 10 18 12
l7 7l3 -1v4l8 1v2c10 3 18 4 26 4c27 0 41 -21 41 -60v-5v-16c-1 -25 -2 -41 -4 -48l-6 -26l-2 -21c-1 -2 -3 -5 -5 -9l5 -3l-2 -11l-6 -33l-4 -36c-3 -14 -3 -14 -3 -24l-6 -5l6 -7l-5 -4l3 -18l-9 2l-5 -4l6 -8l4 -13h-5c4 -4 5 -7 5 -9l-1 -13v-6c0 -14 7 -25 16 -25
c2 0 9 2 19 5l13 2l-1 3l35 22l10 -14l-11 -9l-10 -9c-19 -15 -31 -25 -35 -26l-19 -9l-13 -8l-11 -2l-5 -3l-8 -3l-11 1l-8 4c-17 9 -21 15 -21 29v3v12l2 11l5 -1l-2 -5l5 4v5l-5 2c-1 11 -2 17 -2 25c0 18 2 27 7 43h2l3 6h-4l2 32l3 12l1 8l6 7l-4 2l1 11l5 33l1 4l-1 6
l6 14l1 7v4l-1 12l1 5l3 2l-3 8c3 3 3 5 3 9c0 2 0 5 -1 8h5l-4 6l2 16v13l1 22c0 14 -5 21 -15 21c-1 0 -2 -1 -2 -1h-2l-18 -7l-9 -17l-9 -1c1 -9 0 -10 -7 -17c-6 -6 -12 -16 -18 -30l-33 -70c-10 -22 -20 -53 -29 -87l-3 -11l-3 -10l-8 -10l1 -12v-2
c0 -6 -3 -17 -10 -30c-3 -7 -5 -15 -9 -41l-4 -27l-2 -12l-42 -6c-2 4 -2 7 -2 9c0 3 2 8 5 14l-3 5l3 15l-1 18c0 4 2 11 7 19l-3 2l5 27l-1 6l1 19l1 9v11c5 5 7 10 7 13c0 2 0 4 -2 7l-4 5c0 13 2 17 8 26l-4 6c-1 5 0 9 0 11c3 10 5 16 5 16l-3 6l3 2l-1 8c0 4 1 6 3 10
l-3 5l1 11l2 9l1 14v8l3 3l-1 14l-1 55c0 3 -6 6 -12 6s-10 -1 -20 -6c-19 -17 -26 -26 -45 -62l-11 -19l-5 1l-1 -15l-6 -4v-6c0 -5 -1 -6 -7 -15c-2 -3 -7 -15 -13 -34l-14 -33c-6 -15 -16 -46 -28 -91c-12 -42 -14 -59 -17 -101l-45 -3l-2 8l5 40l3 34l3 9l2 7l-1 27l2 8
l6 2l-6 9l4 14v24l5 14l-1 8l6 -2l2 13l-7 1c2 9 3 17 3 21s0 9 -1 17l8 20l-5 7l10 6l-4 11l-4 1l1 18l2 15c0 4 -1 7 -3 24c-4 26 -5 27 -11 31c-4 3 -8 4 -12 4c-10 0 -18 -4 -36 -19l-14 -10z" />
    <glyph glyph-name="n" unicode="n" horiz-adv-x="422" 
d="M8 377l7 6l9 8l8 7l23 14l11 8c8 -1 9 0 11 8l5 -1l5 6l23 8l6 2l1 -3l11 1h2c15 0 31 -22 31 -42c0 -4 0 -7 -1 -10c-3 -7 -4 -12 -4 -12c0 -3 1 -6 4 -11c-6 -12 -8 -17 -8 -25v-1l1 -11l-3 -6l-2 -38l-4 -28c-5 -3 -8 -6 -6 -20l-8 -13l6 -2l-1 -9l5 -3l9 10l-2 5
c5 3 7 5 7 8v3l2 3c4 9 5 14 5 21l8 18l31 61l8 7l1 4l-1 5c2 3 3 -1 13 18l9 10l15 21c15 19 43 33 69 33c13 0 25 -6 29 -15c7 -14 13 -42 13 -59l-1 -8l-3 -15l-7 -78l-6 -29l1 -5h-6l-2 5l-5 -2c0 -10 1 -12 9 -15c1 -2 2 -3 1 -3l-7 -24l3 -8l-7 -37l-7 -47
c1 -3 1 -4 1 -5c0 -3 -2 -7 -6 -11l5 -9l-5 -5c6 -18 14 -26 28 -26s27 6 51 26l10 4c2 -8 3 -10 8 -16l-32 -26l-13 -11c-5 -1 -6 -2 -8 -6c-6 0 -7 0 -14 -6l-11 -8c-5 -3 -17 -6 -19 -9l-16 -2l-16 4l6 15h-5c-5 -8 -9 -10 -14 -10h-3c-7 12 -11 32 -11 49l1 4l20 131v19
l5 18c1 3 2 7 3 13l6 -2l-3 12c-1 3 -2 6 -2 8c0 3 4 9 10 16l-7 13l4 18l7 26v4l-3 8l3 43c0 1 -2 4 -5 7c-2 3 -5 5 -9 5c-15 0 -30 -15 -58 -60l-8 -12l4 -12c-14 -10 -20 -16 -21 -19l-15 -33l-19 -37c-6 -20 -5 -19 -15 -27v-6v-11l-10 -30l-4 -15c-1 -3 -4 -6 -5 -12
l-1 -10l-10 -38l-2 -21l-6 -33v-10l-52 -4v3v4l3 11l6 50l8 39l-7 24l7 1l6 35l1 13l-1 19l2 10l4 4l1 9l-4 3l1 11l5 32v3l-1 16l1 10l1 29l-2 14l1 23c0 17 -8 27 -22 27c-17 0 -32 -8 -53 -27z" />
    <glyph glyph-name="o" unicode="o" horiz-adv-x="337" 
d="M20 76l5 14l-2 47l3 12l-2 2c1 46 5 76 20 125c17 57 34 89 66 120c30 30 62 46 89 46c10 0 21 -1 37 -5l4 -2c32 -17 42 -26 54 -51c10 -19 15 -32 19 -49l-5 -4c8 -15 10 -20 10 -27c0 -3 -1 -8 -4 -14l4 -9l-1 -20l1 -20l-5 -15v-19l-7 -13l-3 -29
c-1 -3 -4 -12 -9 -24l-22 -53c-1 -3 -6 -9 -13 -17l1 -4l-7 -9c-16 -21 -27 -35 -29 -36l-24 -14l-10 -9l-36 -12l-10 -3c-2 0 -3 2 -7 4l-5 -1c-4 1 -6 1 -8 1h-8l-21 8l-11 2c-9 5 -11 7 -16 15h-5l-1 6l-17 17l-11 32l-5 10zM79 133l4 -8c-2 -2 -2 -8 -2 -9
c0 -10 2 -22 6 -35l5 -17l8 -9l2 -8l9 -7l18 -11l4 -5l20 -5l20 4l4 2l21 12l5 8l7 3v6l5 10c15 27 19 40 21 62l6 41c4 25 4 24 16 39l-2 6h-8l-1 12l5 1c3 23 6 48 6 65c0 4 -1 8 -1 12c-3 18 -5 32 -5 32l2 7l-1 8v5l-5 7l5 2l-8 9l-8 14l-16 8l-9 9l-6 -1l-3 3l-8 -1
l-1 5l-8 -4l-4 2l-19 -5l-3 2v-6l-10 -7l-9 -11l-7 -7l-3 -12l-5 -1l-2 -10l-7 -9l-2 -11l-4 -6l-11 -46c-1 -2 -5 -8 -13 -15c4 -8 7 -13 6 -14l-6 -30v-17l-4 -40l1 -7l-4 -4c2 -4 3 -6 3 -9c0 -2 -2 -5 -4 -9z" />
    <glyph glyph-name="p" unicode="p" horiz-adv-x="408" 
d="M-28 -276l-4 20l48 13c13 6 16 10 29 28c-1 -2 -1 -5 -1 -7c0 -4 1 -5 3 -9l7 4l-2 11l-11 11c6 6 10 11 10 15c0 1 -1 2 -1 5c-1 2 -2 5 -3 10c6 8 9 15 9 19c0 2 -1 4 -2 8c10 6 5 36 6 44l5 70l3 11v15l2 9l5 47l3 17l5 5l-8 25l8 2l-2 23c2 15 4 18 11 21l-4 7v43
c0 41 2 74 7 100l2 7l-2 32l1 16l-4 11c-3 25 -4 27 -25 27h-4l-18 -7l-3 -5l-3 1l-6 -7c-5 -2 -8 -3 -10 -5l-5 -6l-10 -6l-11 17c14 16 28 27 63 50c31 20 46 26 63 26c12 0 22 -4 27 -11c3 -4 3 -2 8 -28l3 -10l-8 -2l-2 -7c6 -2 7 -4 8 -8l-9 -7c6 -3 7 -4 6 -30l-5 -5
c3 -8 4 -12 4 -15l-1 -7l-8 -48l1 -19l-4 -13l1 -5v-4v-6l-7 -1c4 -8 5 -12 5 -16v-8l6 10l48 110l6 8l3 11l6 9c6 12 12 20 14 20c0 0 1 -1 3 -2l3 7l-6 3c19 34 45 61 65 67l12 4l10 5l7 1c15 0 38 -10 42 -18l10 -18l8 -11l-5 -6c10 -8 17 -26 16 -44l-3 -34v-12h-6
l-2 -7c5 -5 6 -9 6 -13s0 -8 -1 -11l-5 -18l-10 -51l-5 -12l-18 -61c-2 -3 -6 -6 -12 -11l3 -14c-9 -7 -11 -10 -15 -20h-5l-6 -18l-9 -15c-7 -10 -10 -12 -18 -12l-5 -10l-17 -10l-6 -8h-6c-5 -7 -6 -8 -15 -12l-12 -6h-8l-23 -5l-19 -2l-18 3l-12 -1l-20 6l-10 -3v-3
l12 -3l-6 -46l-7 3l7 -6l-1 -14c1 -10 -8 -54 -8 -49l-2 -6l5 -10l-12 -20c7 -11 10 -17 10 -21l3 -27c0 -10 16 -25 29 -28l44 -12l10 -2l6 1l-2 -19l-5 -2l-37 5l-5 -1l-16 4l-33 -1h-54l-31 -4c-39 -2 -37 -1 -48 -6zM131 35l9 -3l3 3l8 -6l8 1h3c2 0 8 -2 14 -5l9 -4h13
c4 1 8 2 10 2c3 0 6 0 11 -1l5 5c12 0 14 1 35 21l7 7l3 15l17 30c3 5 5 10 5 15l5 20c1 5 4 14 8 25l4 -1l3 8l-4 1l-1 4l7 36l-1 7l-1 6l1 8l4 2l1 11l5 24l3 54l2 25v4c0 25 -11 43 -25 43c-3 0 -6 -1 -8 -3l-6 -4l-16 -7l-5 -7c-2 -2 -6 -1 -6 -7c0 -4 -2 -6 -9 -12
c-3 -3 -7 -10 -13 -21c-3 -6 -6 -11 -9 -15c-2 -3 -4 -6 -4 -7s1 -3 -6 -10c-2 -5 -3 -9 -4 -12l-20 -39l1 -10l-11 -8c-2 -2 -3 -5 -5 -9l-14 -44l-10 -28c-16 -47 -21 -71 -26 -114z" />
    <glyph glyph-name="q" unicode="q" horiz-adv-x="343" 
d="M20 83l4 5c-3 8 -4 14 -4 17c0 5 1 10 4 18l-1 9l3 21l3 28l6 22l2 15l2 11l5 1l11 46l15 41l10 10l-2 8c8 6 10 9 13 19l6 11l6 8l6 -1l2 3l-3 3l8 10c8 11 14 15 26 23c30 21 32 22 35 22s7 -1 12 -3c3 6 6 7 11 7c4 0 13 -1 24 -3c3 2 5 3 6 3c2 0 4 -1 7 -3
c17 -2 21 -3 50 -12c5 5 6 7 7 14c5 4 5 6 5 8c0 6 2 12 9 29l6 -3l5 6c-8 4 -9 6 -9 15l8 1c7 0 11 -3 11 -9c0 -3 -1 -8 -2 -13c-2 -6 -3 -12 -4 -18l-17 -153v-26l-7 -4c5 -2 8 -4 8 -5l-7 -19l2 -17l-3 -7l1 -13l-6 -41v-17l-1 -12c-2 -26 -4 -43 -5 -46
c-1 -1 -2 -4 -8 -24l-3 -12c3 -13 1 -16 1 -17l4 -24c1 -5 -3 -36 -3 -40l-6 -38v-9l1 -5l4 -20l-6 -12c0 -1 -1 -16 -1 -38l-1 -57c0 -6 5 -16 17 -35c4 1 6 2 7 2c4 0 10 -4 16 -10l4 1l21 -5l15 -2l11 -2l-3 -18c-12 0 -20 0 -25 1l-47 7l-4 -1l-27 -1l-69 1
c-4 0 -8 -1 -12 -2c-11 -3 -18 -5 -19 -5s-2 1 -5 1l-12 2l-1 -6h-5l-7 17c4 2 7 3 9 3c1 0 5 -2 54 20c6 5 10 9 11 11l5 13l5 8l5 64l4 12c3 10 5 28 5 52c1 12 2 21 3 27c1 3 1 5 1 5l-2 20l4 13l13 149l3 10l-1 9l4 10l-1 14v10v19l-4 -9l-26 -63l-7 -9l-3 -10l-21 -34
l-2 -11l-9 -1l2 -11l-12 -13l-3 -7l-13 -15l-19 -22l-21 -13c-6 -6 -8 -7 -11 -7c-4 0 -11 1 -19 2l-16 3c-8 1 -17 7 -20 12l-6 13l-10 23l-1 5v6l-5 6l5 2c-3 5 -4 9 -4 11s1 6 3 10zM76 126h5l1 -5l-3 -28l3 -21v-13c2 -12 12 -22 23 -22c9 0 18 7 29 21l18 20
c5 8 7 16 9 33l9 -1l21 40c20 38 24 45 29 66l6 -2c2 15 2 17 8 24l-4 7l6 13l7 20l8 9v2l-1 6v4v8l7 2l2 9l-1 8l9 44l1 10l-1 3l-11 1l-22 14l-2 -8l-6 11l-11 1l1 -8l-34 5l-7 -5c-9 0 -11 -1 -18 -8l-15 -13l-8 -15l-14 -37l-5 -9c-1 -1 -1 -4 -2 -8l-2 -13l-5 -2l-2 9
l-4 -2l1 -9l5 -11l-6 -16l-5 -33l-5 -14v-14l-3 -7v-13l-2 -9v-17l-12 -24z" />
    <glyph glyph-name="r" unicode="r" horiz-adv-x="313" 
d="M8 381v6c6 4 10 7 13 9c26 19 33 23 52 31s36 13 45 13c17 0 29 -18 29 -45c0 -5 -1 -27 -2 -41l-8 -8c4 -6 6 -10 6 -14c0 -2 -2 -6 -5 -11l-3 4c-5 -4 -7 -7 -7 -9c0 -1 0 -3 2 -6l4 5l7 -11l-2 -13c-4 -14 -6 -24 -6 -26c-3 -24 -5 -40 -5 -42c-1 0 -2 -2 -5 -6l5 -4
c8 11 9 12 15 36c4 13 10 27 19 43c2 3 3 5 4 7c11 25 11 25 18 28c4 15 8 21 21 40l11 15l7 -3l-1 3h3c0 14 5 22 24 37c19 14 35 21 49 21c6 0 11 0 18 -2l-1 -15l-1 -11l-4 -14c-1 -2 -1 -5 -2 -10c-31 -3 -37 -5 -46 -17c-10 0 -9 0 -23 -12c-10 -10 -14 -16 -20 -29
c-3 -2 -6 -3 -8 -3h-2l2 -4l-3 -2v-6v-3l-10 -15l-17 -37l-12 -22l-22 -56c-7 -22 -10 -32 -12 -49c-6 -1 -8 -2 -11 -8c4 -3 7 -6 7 -7l-7 -24v-9c-1 -2 -4 -4 -9 -7v-3c0 -2 1 -6 3 -9l-4 -23h4l-4 -11l-5 -18l-1 -15l-51 -6l-3 11c4 9 4 9 5 22l5 29c4 16 6 39 6 66
c0 21 1 27 7 41c-2 7 -3 18 -3 20c0 1 1 13 3 30l1 15v11l10 5l-7 2v57l7 3l4 -5l5 5c-3 6 -5 7 -13 7c-1 8 -2 14 -2 18c-2 42 -8 58 -21 58c-3 0 -6 0 -7 -1l-28 -15c-1 -1 -4 -2 -8 -4z" />
    <glyph glyph-name="s" unicode="s" horiz-adv-x="274" 
d="M3 0c3 17 6 29 10 37c3 8 4 10 4 14c0 1 0 2 -1 4h5l8 -6l11 -3l7 -4l7 1l6 -5c2 -1 4 -2 15 1c0 -5 1 -6 6 -8l-14 -14c14 0 16 3 20 19l11 -2h14h2c3 0 5 1 10 5c6 -2 11 -3 13 -3c31 0 55 31 55 71c0 15 -3 28 -9 36c-6 9 -7 9 -7 14c0 1 1 3 -4 4l-15 17h5l-7 13
l-4 -5c-10 2 -15 5 -15 9c0 2 1 5 3 7l-10 6l-2 -5c-7 3 -9 6 -12 16c-12 6 -15 8 -20 8l-7 11l-6 1l-7 11l-22 25c-5 6 -8 19 -9 35v13c2 21 8 37 24 59c13 19 25 28 54 43l31 11c5 1 9 2 12 2c2 0 7 -1 13 -4l8 4l7 -3c3 2 5 2 6 2s4 -1 6 -3l2 3l13 -2c14 -2 16 -2 24 -7
c-3 -18 -5 -23 -12 -34l2 -5c-4 -4 -4 -5 -4 -10c-3 -1 -4 -2 -4 -2l-24 10c-2 1 -6 2 -11 3l-7 -3l-5 6c-3 1 -5 1 -5 1l-30 -3l-5 2c-2 0 -4 1 -6 2l-12 -6c-12 -9 -12 -8 -18 -8l-3 -10l-9 -22c-1 -1 -1 -3 -1 -5c0 -15 9 -31 26 -50v-5l10 -10l1 3l10 -6l19 -16l14 -4
l-1 -6l33 -30l6 -10l19 -22c9 -10 14 -27 14 -46c0 -13 -2 -24 -7 -44l-4 -12l-7 -3c0 -9 0 -11 -7 -19c-2 -2 -4 -6 -12 -10c-4 -12 -6 -16 -15 -23l-8 -7c-3 -3 -6 -5 -7 -5s-3 1 -5 2v-10l-17 -10c-18 -9 -39 -14 -63 -14c-9 0 -16 1 -19 2l-12 3c-2 0 -5 0 -8 -2
c-9 5 -12 3 -27 3l-3 6c-3 -1 -5 -1 -7 -1s-6 1 -10 2z" />
    <glyph glyph-name="t" unicode="t" horiz-adv-x="266" 
d="M43 395v16l8 -5v5l16 1c13 7 14 9 24 7c3 3 6 4 8 4c1 0 2 0 4 -1c8 6 9 9 11 20h4c-2 2 -2 4 -2 5s1 4 3 6l-1 8c7 19 10 29 12 40l1 7l2 11l-3 4l5 6l-1 15l45 4c-3 -9 -5 -17 -5 -22v-7l-3 -2l1 -12l1 -7c0 -7 -3 -11 -10 -12c1 -28 3 -32 3 -38c0 -7 -1 -10 -7 -27
l-7 4l-4 -6l7 -3l6 3l13 -3v5l5 2l16 -3l4 -1l10 1l33 -2c2 1 3 2 4 2c2 0 4 -1 7 -3l-6 -32h-15h-6l-42 -1l-29 -1c-1 -6 -1 -11 -1 -13v-11c0 -10 -1 -14 -7 -21c2 -5 3 -9 3 -11s-1 -8 -3 -17l-1 -10l5 -3c-6 -6 -6 -7 -7 -16l-4 -34l2 -15l-5 -32c-1 -1 -1 -2 -1 -3
l1 -7l-5 -1l-1 -4l5 -5c-4 -17 -5 -21 -4 -36l-7 -1l5 -8c1 -14 0 -21 -6 -28l4 -6c0 -7 -1 -14 -1 -16c0 -36 4 -44 22 -44c6 0 10 1 19 5l3 -1c6 5 8 6 16 6v3c18 11 23 15 37 30l15 -19l-9 -7c-11 -6 -12 -7 -13 -13l-7 -1l-5 -8c-3 -4 -10 -6 -15 -6l-2 -8
c-7 -2 -9 -3 -12 -8l-18 -12l-8 2c-5 -9 -7 -10 -16 -12l-3 -2l-6 -1c-3 -2 -6 -3 -7 -3s-3 0 -6 2l-2 1c-38 11 -47 20 -47 52l2 43c1 20 1 20 6 33h6l6 8c-1 3 -2 5 -2 7c0 1 1 4 3 7l-3 3l-3 -8h-6l8 47h6l1 20l-3 -6l-4 3l2 11l3 32c0 1 2 6 6 12c-2 6 -2 11 -2 14
s0 8 2 15l3 28c3 4 4 7 4 9s-1 4 -3 7l7 67h-4v-4c-5 5 -7 6 -12 6v-5l-28 -3c-4 -1 -6 -1 -8 -1c-1 0 -3 1 -4 1l-6 4z" />
    <glyph glyph-name="u" unicode="u" horiz-adv-x="423" 
d="M10 370v5c30 32 87 65 113 65c24 0 37 -18 37 -50c0 -7 -2 -26 -5 -50l-1 -10l4 -2l-10 -24l-6 -46l-7 -21c-1 -5 -1 -12 -1 -22l-1 -4h-6l-2 -4l6 -23l-1 -3l-3 -10l-7 -3l7 -7l-6 -7l3 -9l-9 -92s1 -2 2 -3c4 -6 10 -9 18 -9s16 3 19 8l24 32l26 33c4 7 5 11 6 22l7 -2
c4 8 8 14 10 18l15 30l11 20c7 11 11 22 11 28l1 3l-2 10c14 16 19 26 26 59l4 20l22 72c1 5 2 12 4 24c12 2 18 2 26 2c6 0 12 0 24 -2l-3 -14l-6 -39l-3 -11c-1 -4 -1 -11 -1 -20l-8 1v-5c4 -4 6 -7 6 -9s-2 -5 -4 -9l2 -3l-1 -16l-2 -18c-6 -2 -7 -3 -11 -10
c5 -6 8 -10 8 -14c0 -2 0 -3 -1 -4l-5 -16v-29l-7 -6l2 -18l-7 -68c-2 -20 -2 -20 -14 -22v-2c0 -3 -2 -8 -5 -13c3 -1 5 -2 7 -2c1 0 4 0 7 2c3 -7 4 -9 5 -16l2 -15c9 -4 14 -5 18 -5h6c4 2 9 5 26 14l17 10c3 1 6 3 11 6c5 -9 7 -12 8 -19l-10 -5l-30 -22
c-13 -10 -22 -15 -40 -22l-1 -7l-7 1l-27 -8c-3 0 -11 1 -12 1c-18 3 -29 22 -29 54c0 12 2 20 8 37l-3 3c1 5 2 9 2 12c2 14 4 24 4 26v4v2c0 14 3 24 12 42l-3 4c2 5 3 9 3 12c4 31 3 26 9 32c-2 3 -3 6 -3 8c0 1 0 2 1 4c-2 -4 -3 -7 -5 -9l-8 -10l-3 -17l-6 -5l-6 -7h3
c1 -10 0 -12 -7 -25l-5 -8h-8v-8c0 -12 -3 -18 -17 -30v-6l-11 -7l-8 -26c-8 -3 -10 -4 -10 -11l-12 -8l2 -6l-13 -9l2 -5l-15 -10h-4l-2 -8l-9 -6c-20 -13 -28 -16 -42 -16c-28 0 -47 20 -47 51c0 1 -2 6 -2 14c0 5 2 12 2 22l3 3l-4 8l9 39v13c0 3 0 9 2 18l2 12
c3 4 5 8 5 10c0 1 -1 3 -2 6l5 6c-1 6 -2 10 -2 13c0 2 1 8 3 15l1 11c6 2 8 4 9 11c-1 5 -2 9 -3 11l-3 9l4 32l1 5l-1 8l8 1l2 5c-6 4 -7 6 -8 12c1 14 2 23 2 31c0 22 -7 35 -17 35c-3 0 -6 -1 -8 -2l-12 -6l-11 -5c-3 -1 -6 -4 -9 -8c-7 -1 -8 -3 -13 -9z" />
    <glyph glyph-name="v" unicode="v" horiz-adv-x="367" 
d="M-13 382c33 35 75 57 108 57c15 0 28 -14 31 -34l6 -50l3 -6c0 -2 2 -11 1 -29c0 -12 2 -13 9 -18c-2 -10 -2 -13 -7 -21l16 -82c-1 0 -3 1 -4 1c-4 0 -7 -4 -7 -7s2 -7 7 -11l1 8l8 -8l-5 -3l4 -10l4 -11l-4 -9l6 -10l4 -24l6 -37l1 -9l3 -10l7 10l7 12
c9 14 18 30 24 45c8 18 9 20 19 30c-1 4 -2 12 0 15l14 23l2 9c12 14 17 26 28 60l14 46c3 10 5 22 5 35c0 21 -5 31 -20 40c-24 -1 -32 -4 -53 -20l-10 -8c-9 12 -11 16 -11 19c0 4 8 12 31 30c3 2 6 5 11 9l7 -2l1 7c18 13 43 23 59 23c24 0 38 -15 42 -44v-10l1 -3l1 -8
c0 -2 -2 -4 -2 -6c0 -3 0 -6 -1 -7l-3 -7c-1 -2 -2 -5 -2 -11l1 -9l-8 -4c1 -4 1 -6 1 -7c0 -4 -1 -9 -4 -14l-12 -7l1 -7l8 2l-7 -15l-15 -37c-5 -12 -10 -21 -14 -27l-9 -13l-19 -39l-13 -26l-27 -47h-4c0 -6 -1 -10 -3 -15l-6 -6l-23 -47l-10 -12c-1 -1 -1 -4 -2 -8
l-4 -2l1 -7c-3 -2 -5 -3 -6 -3l-6 2h-7h-5l-2 -3c-3 1 -6 1 -8 1c-3 0 -5 0 -8 -4l-7 1l-8 63l3 1l-4 8l-6 29l-6 27v8v14h-3l-1 12l-6 30l-1 9l-8 17l-2 42l-10 43l-1 13l-4 13l10 -3l-8 11l-9 9l-11 31c-4 10 -13 16 -22 16s-16 -3 -26 -13l-6 1l-2 -8c-9 3 -11 5 -14 16z
" />
    <glyph glyph-name="w" unicode="w" horiz-adv-x="552" 
d="M-7 382c45 40 77 57 107 57c23 0 38 -21 40 -54l1 -23l6 -45c-1 -5 -2 -8 -6 -14c6 -4 8 -7 8 -11l-2 -17v-10l6 -2c2 -56 4 -84 10 -112c4 -19 6 -34 6 -38c3 -29 2 -26 7 -40l12 23c17 31 22 45 24 65l4 2l44 139l4 -3c0 1 1 2 1 3l-5 7l10 55l1 10l4 9c-2 3 -3 5 -3 7
c0 1 0 2 1 4l5 7l-4 1l1 18l43 6l1 -16l8 -55l1 -17l5 -14l1 -29l1 -14l6 -14l3 -23l18 -88c1 -7 2 -13 2 -16l-1 -10l7 -15c-4 -4 -5 -5 -5 -10v-2l7 -2c1 -5 2 -12 2 -14c1 -7 2 -8 4 -13l7 10l18 43c11 21 11 22 20 33l-2 6l9 8c3 14 3 16 17 42c9 16 16 36 21 58l7 26
l4 20l2 8v13c0 10 0 14 -2 23l3 3l-5 1c-6 13 -12 18 -21 18c-12 0 -23 -6 -40 -22c-7 7 -9 10 -11 17c41 43 67 60 93 60c14 0 24 -5 29 -13c6 -10 12 -32 12 -43c0 -17 -2 -26 -13 -61c-5 -14 -4 -12 -11 -19l3 -9l-5 -11l-10 -22c-4 -11 -8 -19 -8 -21
c-3 -14 -4 -15 -14 -15l4 -12l-14 -10l3 -8l-7 -4c-2 -11 -4 -18 -5 -21l-24 -44l-6 -15l-50 -95l-9 -18l-37 -6l-5 28l6 4l-1 9c-8 6 -10 8 -9 18l6 3c-6 4 -7 6 -7 12c-1 4 -2 8 -3 10c-3 12 -6 23 -8 35c-4 16 -4 17 -4 23v2v3l1 16v9c0 6 -1 9 -5 15l3 4c-4 3 -7 6 -8 7
l-3 18l-6 33l3 7c-3 4 -5 7 -5 9c0 1 1 2 2 5l-8 16l-3 -12l-5 -17l-9 -36l-16 -43l-4 -15l-4 -1c0 -5 0 -9 -1 -10l-5 -9c-1 -1 -3 -7 -5 -16c-1 -4 -6 -16 -14 -32l-33 -70l-10 -21l-14 2l-2 -3l-31 -4v9v8l-2 14c-5 32 -9 59 -9 67l-1 3l1 6l-5 21c6 2 10 5 10 8
c0 4 -5 9 -13 14l-3 33l5 11l-6 4v5l-5 28l-5 46c-1 7 -4 17 -10 31c-4 11 -6 21 -6 27c0 1 1 8 3 20l-5 3l-1 -3c-2 2 -2 4 -2 5c0 3 1 6 4 10h-8c-9 18 -12 21 -20 21c-3 0 -9 -1 -14 -2l-3 7h-9l1 -4l-5 -1l1 -7l-9 -5c-6 -5 -7 -5 -12 -5c-2 8 -3 10 -8 15z" />
    <glyph glyph-name="x" unicode="x" horiz-adv-x="372" 
d="M1 376l3 1c3 7 7 12 9 12l5 1l15 12l31 17l9 8c9 7 22 12 33 12c18 0 40 -17 43 -33l2 -15l5 -11l1 -5l-3 -7l-3 -11l3 -4l11 3l14 -46l-3 -2l2 -8l4 -1l12 -34c15 18 21 27 36 57l5 2l-3 7l6 12l9 13c7 4 8 7 8 16l6 3c1 11 2 14 7 22h5c2 5 3 7 7 9c-1 3 -1 5 -1 6
c0 4 2 10 6 16h14l32 -3l-6 -10c-3 -9 -3 -8 -7 -11c-2 -7 -3 -9 -12 -11l1 -8h-2c-3 0 -7 -2 -11 -7l-6 -13l4 -7c-8 -3 -10 -4 -10 -12h-12v-7l-1 -14c-8 -5 -10 -8 -15 -19h-4l-2 -12l-5 -1l1 -6c-5 -10 -8 -13 -16 -25l-8 -14l-8 -13c-2 -2 -4 -7 -5 -14l-6 1l10 -10
l2 -9l5 -5l5 -18l8 -21l7 -26l5 -9l-4 -2v-10h10l3 -16c5 -19 9 -21 10 -23l3 -9c3 -11 21 -25 38 -25c7 0 13 5 18 8l38 24l9 5l10 -15l-5 -6l-19 -12l-41 -30c-8 -5 -17 -10 -30 -18c-8 -6 -18 -11 -28 -11c-22 0 -46 40 -46 66l-3 11l1 7l-5 1l-3 9l-16 40l-1 14l-5 4
c-1 13 -6 9 -8 40h-5c-1 7 -2 9 -6 12l-6 -9l-12 -18l-12 -26l-10 -11c-8 -28 -9 -30 -24 -37l-2 -4l-2 -9h-5l-5 -27c-7 -4 -7 -8 -15 -13v-8l-6 -11l-5 -3v-4h-9l4 -8l-4 -5l-33 3v10c7 8 9 11 17 16l-4 2l2 8c2 11 10 20 18 22l-1 4l2 8l9 14l8 12l9 3l1 12l5 -1l-2 5
l17 31l3 1l7 17l29 47l3 8l13 -1v6l-3 6h7l2 8l-11 2l-7 19h-3v4l4 1c1 3 2 5 2 5c0 5 -6 10 -16 15v4l7 4l-6 7c-4 2 -7 3 -7 4c-3 3 -6 9 -15 29l-8 21c-8 21 -23 34 -40 34c-8 0 -15 -2 -21 -7l-12 -10l-10 -7z" />
    <glyph glyph-name="y" unicode="y" horiz-adv-x="390" 
d="M-13 384c15 15 23 20 58 39c21 12 31 15 44 15c18 0 35 -13 36 -29l13 -121l3 -16l-8 2l-5 -15l13 -13l2 -10c4 -10 3 -12 4 -37l-4 -12c0 -1 1 -3 2 -5l5 -6l1 -14v-8l4 -16l2 -11l-3 -6l4 -8l-2 -23l4 -6l-3 -4l7 -21l36 51c6 22 9 27 32 55l-2 4l18 23c-1 6 0 10 1 12
l15 30l9 19c2 13 3 15 11 18l-3 6l6 7c3 15 3 17 3 18c0 3 2 10 6 16h3l-1 9l3 16l3 14l4 5l4 44l2 13c12 5 15 5 36 6h12c1 -2 2 -4 2 -5c0 -2 0 -3 -2 -6l-2 -20l-16 -115l-3 -48c-1 -3 -3 -6 -1 -16c-7 -11 1 -6 -5 -34l-8 -88l6 -2l-4 -10l-5 -47l-6 -44
c-1 -14 -1 -13 -2 -21l-7 -1l-6 -53c-6 -20 -6 -22 -6 -23c0 -3 -1 -5 -1 -6l-8 -17l-4 -14c-1 -3 -3 -7 -7 -13l-4 1l-3 -3l3 -7c-3 -5 -6 -8 -7 -11l-8 -11l-6 -13c-2 -2 -3 -5 -6 -9l-5 1c-6 -13 -11 -19 -20 -24l-14 -8l-12 -12c-13 -10 -35 -16 -68 -18
c-4 -1 -7 -1 -8 -1c-4 0 -9 2 -15 5l-1 -5c-4 3 -8 5 -9 5h-14l-9 5c-2 1 -5 3 -9 4v10c8 15 7 18 7 19c0 4 3 9 8 15l-1 6c2 1 4 2 5 2l9 -5l30 -10c2 -1 7 -3 12 -6l2 2c5 -1 8 -1 11 -1c2 0 7 1 12 2l10 -4l20 7c3 0 5 0 6 1l6 4l13 12l15 36c1 2 4 5 6 9c-1 2 -1 4 -1 6
s2 6 6 10l-1 13l9 1c-4 6 -6 10 -6 12c0 1 1 6 3 13c1 3 1 6 2 11h7v6l-5 2c0 6 1 8 7 14c-4 15 -3 19 -2 22c5 14 8 23 8 24l-1 20v3c5 3 6 4 7 9l-4 1c1 8 2 14 2 18c4 15 7 26 7 28c0 1 -1 2 -1 4v7c-1 1 0 4 0 5l5 16c6 20 2 26 0 27l5 26l1 23l4 15l-1 11l5 32l2 11
l-3 -2l-2 -7l-2 -10l-6 -2c-1 -10 -2 -13 -7 -23l-13 -27l-5 -12l-10 -3l-3 -17c-10 -13 -11 -14 -12 -20l-8 -2l-3 -17h-6c0 -8 -1 -10 -7 -15l-4 -6c-7 -8 -9 -11 -8 -24c-8 -2 -9 -4 -15 -17l1 -6c-5 -1 -7 -2 -9 -7c0 -8 -3 -15 -6 -15l-16 1l-19 -5c-3 0 -6 2 -11 4
l2 6l-5 44l3 6c-3 5 -5 9 -5 12v13l-4 10l1 18l-12 63l4 9c4 12 -4 10 -9 13c0 6 1 9 6 15c-5 2 -7 3 -8 8v17c0 6 -1 9 -6 16l3 14h-4l-2 4l2 17l-8 24v4v8l6 -2l1 7l-8 2l-4 14c-10 38 -16 47 -32 47c-8 0 -15 -3 -29 -15l-9 -7l-7 3z" />
    <glyph glyph-name="z" unicode="z" horiz-adv-x="351" 
d="M7 -2c2 17 5 21 17 22l7 11l-4 4l11 19c10 5 11 7 21 27l6 9l13 8c2 16 4 17 14 20c2 21 4 24 20 28l-5 6c7 1 8 3 11 10c-1 3 -1 5 -1 6c0 13 7 5 26 36l23 40l7 12l10 4l-3 7h6v10l7 11c14 22 15 23 25 29l-1 8l8 9l3 7l7 5v7c0 6 2 8 10 8l2 3l-4 5
c-11 -5 -16 -6 -26 -6c-15 0 -29 3 -42 8c-10 4 -11 4 -20 5c-13 5 -18 6 -32 7l-10 5l2 -4c-5 -1 -8 -2 -11 -3c-28 -7 -41 -18 -61 -53l-16 7l4 15l8 13l16 24c18 29 55 51 85 51c4 0 8 0 15 -1l12 -2c10 -1 13 -2 20 -8l1 3l11 -5c27 -14 44 -19 59 -19c16 0 27 7 42 26
l19 -10c-9 -21 -16 -33 -40 -64l-4 4l-14 -13l1 -6l-4 -3l6 -7l-8 -15h-4l-2 -6h-6c-5 -6 -5 -6 -8 -17l-5 -12h-5l-2 4l-5 -3l-10 -27l-13 -12v-9c0 -6 0 -6 -10 -23l-16 -26l-12 -8c-11 -19 -11 -20 -14 -33l-3 -1l2 -10l-6 2l-4 -5l-9 -2l2 -9c-9 -7 -10 -9 -18 -23
l-21 -31l-10 -13c4 1 7 2 9 2s5 -1 9 -3c7 5 14 7 18 7c5 0 10 -2 19 -8l-1 9c24 -1 31 -2 39 -5l33 -12h9l21 -6c3 -1 7 -2 10 -2c9 0 14 2 23 10h4c19 0 42 24 54 58l21 -8c-6 -6 -9 -12 -9 -15c0 -2 0 -4 2 -8h-7c1 -2 1 -4 1 -5c0 -4 -4 -10 -10 -17l-12 -13l-3 2
l-3 -13l-7 3l-2 -9l-16 -13c-27 -17 -27 -18 -45 -21l-4 5h-5v-7c-12 -2 -24 -4 -35 -4c-10 0 -20 3 -30 8c-17 8 -28 14 -28 14l-28 7l-8 7l-22 2l-16 1c-5 0 -16 -9 -33 -25v-4z" />
    <glyph glyph-name="asciitilde" unicode="~" 
d="M528 306c-22 -62 -67 -110 -139 -110c-45 0 -86 15 -134 39c-29 15 -66 26 -94 26c-55 0 -79 -25 -104 -71l-34 16c17 51 54 111 142 111c45 0 89 -18 124 -36c42 -21 76 -30 105 -30c48 0 75 26 100 72z" />
    <glyph glyph-name="exclamdown" unicode="&#xa1;" horiz-adv-x="212" 
d="M146 631c-4 -6 -7 -12 -7 -16c0 0 5 -14 -8 -19c-5 -8 -8 -10 -16 -15c-3 -2 -6 -3 -10 -3c-22 0 -35 14 -38 40l7 -2l-3 10l6 10l-9 5l2 7c11 19 23 28 38 28c4 0 8 -2 20 -13c1 -1 11 -5 11 -24zM141 -1h-55l-2 6h-5l-1 -5h-9c1 12 2 20 2 26c1 18 2 30 3 47
c1 24 1 28 1 31c0 1 0 8 -1 18c0 3 0 6 -1 12l11 1c-3 5 -4 7 -12 9l1 5c4 1 5 2 6 36c-2 11 -1 16 -1 18v43c0 2 2 8 5 16c-3 10 -2 13 -2 14l2 32c0 1 1 4 3 10c-3 5 -5 9 -5 10l5 31c0 1 -2 13 -2 13l8 104v12l22 3c1 -5 2 -9 3 -12c2 -12 4 -21 4 -28
c0 -4 -3 -10 -8 -18l8 -4l-7 -20c6 -4 11 -9 12 -12v-13l1 -19c0 -1 0 12 0 -25c0 -1 -1 -11 -2 -26v-4c0 -4 2 -21 6 -43v-4c0 -3 -2 -8 3 -20c-5 -3 -5 -5 -5 -10l4 -3c0 -7 -1 -11 -1 -13l2 -46c0 -4 -2 -8 -5 -13c6 -8 8 -13 8 -18c0 -4 0 -7 -1 -11c-2 -5 -2 -8 -2 -8
l5 -39c-1 2 1 -15 1 -21c-2 -2 -3 -5 -3 -6s1 -4 3 -9c1 -1 1 -16 1 -38v-9z" />
    <glyph glyph-name="cent" unicode="&#xa2;" horiz-adv-x="497" 
d="M33 196c3 5 4 8 4 9l4 42c0 1 1 5 5 2c8 5 11 8 11 12c0 5 -2 10 -9 18c2 5 3 8 4 10c9 21 15 35 19 39c11 12 12 13 12 21c0 1 0 4 -1 7l10 1l4 5c7 6 9 10 23 22c8 6 12 4 18 14l24 9l16 10l26 13c6 3 18 5 36 8c2 1 6 1 11 2c1 8 2 13 2 16v9l1 12s0 5 -1 11v17h7
s4 0 6 -1c7 -1 12 -1 12 -1c1 0 4 1 8 2v-12v-25c0 -3 1 -7 -8 -23c15 -1 20 -2 30 -6l12 1l15 -2l10 3c4 1 7 1 9 1c4 0 14 -2 27 -6c6 -1 16 -3 29 -5c24 -3 30 -6 36 -19l-3 -7c1 -5 1 -9 1 -10l1 -24l6 -51l1 -16c0 -3 1 -6 1 -11c-4 -1 -8 -2 -10 -3
c-7 -3 -9 -3 -13 -3h-2c-1 4 -2 7 -2 8l2 35c1 3 -6 18 -18 40c-1 3 -3 7 -6 13l7 1c-3 6 -4 8 -11 11l-17 -4c-24 13 -38 16 -81 16h-16l1 -36l-3 -2l3 -21c-4 -13 -2 -18 -2 -21c0 -1 -1 -4 -3 -8c-1 -2 -2 -5 -4 -10l9 -2l-1 -47l3 -7l-15 -9l2 -6l8 -1l-1 -29
c2 -15 0 -25 0 -28c0 -2 0 -5 1 -9c0 -2 0 -5 1 -9c0 -15 0 -20 -4 -31l2 -11c2 -3 3 -5 1 -22l4 -22c0 -1 -1 -4 2 -11c-3 -4 -5 -9 -5 -11c0 -1 -5 -10 -1 -28l-1 -8c4 -1 8 -1 11 -1c4 0 7 1 13 5l8 -4l15 3c7 7 8 7 25 12l54 30c20 10 31 19 44 34c15 -7 18 -10 18 -19
v-6c-8 -5 -14 -8 -16 -11l-16 -13l-22 -15c-2 -1 -5 -3 -6 -11c-6 -4 -10 -6 -12 -6l-26 -6l-10 -5c-2 -1 -5 -3 -14 -5l-17 -7l-8 -1l-23 -6l-2 6c-10 -4 -14 -8 -14 -14c0 -3 1 -7 3 -18l1 -12c-3 -6 -4 -9 -2 -17l2 -2v-7c0 -13 -6 -15 -26 -10l-2 -4l-10 3
c-1 12 -1 19 -1 27v12c1 9 2 14 2 15c0 9 -1 21 -2 26c-4 -2 -7 -3 -8 -3c-2 0 -5 1 -9 3c-16 1 -19 0 -20 0c-2 0 -9 2 -18 6c-2 1 -4 1 -7 2c-15 4 -26 8 -31 12c-18 13 -22 14 -27 15c-5 6 -7 7 -27 27c-21 16 -23 18 -28 32l-14 19c-2 5 -4 9 -5 11c-5 12 -8 22 -8 26
c0 12 -5 21 -6 23c-2 25 -2 22 -8 32zM97 213l-5 -6c9 -4 12 -10 6 -33c6 -4 8 -5 10 -12l1 -15c4 -21 22 -60 46 -63c-2 -3 -2 -5 -2 -6c0 -5 4 -11 10 -18c0 -7 2 -9 6 -9c8 0 8 -5 11 -8l12 -5l16 -9c2 -2 14 -5 31 -9c2 0 6 -1 10 -3c1 9 2 11 9 15c-7 4 -9 6 -9 14
c0 2 1 9 1 14c1 8 1 13 1 16s0 7 -1 11v6c0 3 1 6 4 10c-4 19 -6 43 -6 45c3 52 0 49 0 51c1 5 1 8 1 8l-1 76l3 20l1 26l-6 54s1 3 3 7c1 3 2 7 2 10s-1 4 -5 4h-16c-5 -6 -7 -7 -16 -7c-3 -3 -6 -4 -8 -6c-16 -11 -18 -11 -30 -12l-5 -7c-6 -3 -22 -16 -23 -17l-14 -24
l-13 -21l-10 -19c4 -4 7 -8 7 -12c0 -3 -5 -7 -14 -9c0 -5 0 -9 -1 -10c-4 -11 -4 -12 -4 -15c0 -44 0 -24 -2 -32z" />
    <glyph glyph-name="sterling" unicode="&#xa3;" horiz-adv-x="577" 
d="M22 324l-2 28c6 0 11 1 15 1c7 0 11 -2 18 -8c11 7 22 4 24 4h4l11 3h10h24c2 0 6 1 12 2c-5 7 -6 10 -6 18c-3 11 -9 22 -10 33c-3 4 -4 9 -4 11c0 1 0 3 1 6l-4 8l4 4c-5 8 -7 13 -7 18c0 3 1 8 1 14c2 13 4 22 4 25c0 13 3 26 10 44c5 15 6 15 13 22v9l13 16
c8 6 10 6 15 20c9 10 15 14 23 16c2 4 4 7 6 8l6 2c43 26 45 22 45 22c23 14 26 10 30 14c12 3 16 6 17 6h13l13 1c4 -1 2 -6 27 2c6 1 11 1 14 1c7 0 10 -1 18 -4v3l33 -4l2 3c6 -2 9 -2 11 -3l18 -2c2 0 7 -2 14 -5h14c18 -1 27 -7 29 -21l9 -93l2 -18
c-2 -6 -8 -10 -13 -10c-3 0 -7 1 -12 3c1 6 1 12 1 16c0 7 -1 10 -5 17l1 7c-2 4 -3 7 -4 9c-6 11 -9 20 -9 25c0 1 0 2 1 4c-11 15 -15 19 -21 21l-21 8c-1 1 -5 3 -9 6c-6 -1 -10 -2 -13 -2c-2 0 -6 1 -10 2l-19 2l-3 4l-18 -1c-17 -2 -10 -1 -40 -6l-11 -3
c-17 -5 -19 -6 -36 -12c-14 -5 -20 -7 -34 -10v-5c-7 -5 -12 -9 -14 -11l-21 -23l-7 -6l-8 -18l-7 -7l-1 -8l-7 -43c0 -1 1 -3 1 -6h5c0 -2 1 -3 1 -3l-2 -22v-3c8 -47 12 -62 25 -90l8 -15c4 -2 6 -3 7 -2l51 4s3 -1 7 -2l4 2l57 -3l4 4l6 -1c10 0 5 0 30 -4c5 7 4 6 28 -1
c4 4 8 6 9 6l24 -2c1 0 4 1 8 2l-2 -42h-17l-38 3l-11 -1l-39 -2h-18c-10 0 -23 0 -35 1c-3 2 -6 4 -7 3l-10 -3l-28 1c10 -1 -17 2 -18 2c-2 0 -6 1 -11 4l-1 -8c11 -6 15 -12 19 -22c6 -16 10 -36 10 -48c0 -2 -1 -7 -7 -28c3 -6 4 -10 4 -14c0 -2 -1 -7 -5 -20
c-2 -5 -3 -9 -3 -12v-3l-11 -7l-5 -24l-14 -21c-1 -11 -5 -16 -17 -28c-1 -2 -3 -4 -7 -8c-7 -5 -9 -7 -13 -16l4 -2l9 2v-7h11l1 5h8l22 -8c14 -5 10 15 26 4l3 3c4 1 7 2 8 2l41 -3h3c7 0 13 2 24 7c5 -6 9 -8 15 -8h9h12h18h18c27 0 37 1 59 6c28 2 23 0 42 22l13 14
c0 1 6 8 6 16c0 10 4 15 17 23c-1 4 -4 13 -3 21c1 17 2 19 8 19c3 0 7 -1 16 -3l-8 -18c2 -2 3 -4 3 -4l-3 -13v-10l-5 -8c-1 -2 -1 -3 -1 -5v-7v-1c0 -13 -5 -44 -14 -83c-3 -14 -3 -14 -8 -25h-30c-13 0 -15 0 -19 1l-92 3h-2c-4 0 -8 0 -17 -2c-8 2 -14 3 -18 4
c-5 1 -9 2 -9 2l-52 -2l-36 5l-48 -3l-19 -3h-1h-37c-3 1 -13 -2 -27 -6c-2 0 -5 -1 -9 -2l-23 19l18 15l-1 6l10 5l9 16c15 16 19 21 21 26l11 35c0 1 2 4 6 9l5 -7l5 6l11 23c0 7 1 9 5 14v24l-1 6l2 18l5 5c-4 4 -6 8 -6 11c0 27 -2 29 -2 30c-1 4 -1 7 -5 13l2 5l-16 41
h-11c-8 1 -14 1 -18 1h-12c-31 -3 -52 -4 -53 -4h-3l-14 3s-2 -1 -5 -3l-17 2v6h3z" />
    <glyph glyph-name="fraction" unicode="&#x2044;" horiz-adv-x="311" 
d="M-76 16l5 12c1 8 3 11 14 14l10 16v6c10 4 12 6 15 18l-1 3l19 29c1 3 14 10 14 15s3 8 11 13l1 10l14 8l4 18l10 3c0 6 1 10 11 22c3 2 4 8 5 17l12 -2l2 -6l10 9l-10 8l10 17h6l1 7l4 1c1 12 2 14 14 30l31 43l15 15l25 39l12 13c3 10 12 16 24 31l11 31h8
c4 6 6 10 8 12c7 12 10 15 22 20v12h3l30 47l4 1l12 22l11 11l31 47l22 25c1 3 3 9 6 16l10 -7c12 -6 14 -8 21 -18c-4 -4 -7 -8 -8 -10c-15 -22 -13 -20 -25 -23v-7c0 -3 -1 -6 -9 -13c-6 -16 -8 -18 -23 -22l-1 -17c-14 -12 -29 -39 -29 -39c-8 -21 -14 -28 -25 -35
c-17 -10 -6 -13 -36 -38c0 -10 -2 -13 -12 -17c0 -13 -2 -15 -13 -16l-13 -28l-7 2l-5 -18l-6 -1l-2 -9l-8 -13c-1 -2 -2 -6 -15 -17l-9 -17c-3 -10 -5 -13 -15 -17c-1 -11 -1 -11 -17 -30c-2 -2 -4 -5 -12 -10v-18c-17 -4 -23 -12 -26 -32l-11 -10c-6 -4 -7 -6 -8 -15
c-9 -5 -22 -26 -22 -29l-10 -17l-6 -1c-10 -11 -11 -14 -14 -28l-25 -26h-5c-1 -17 -3 -21 -13 -25c-14 -28 -16 -30 -17 -32c-11 -14 -12 -15 -24 -19l5 -7l-3 -3l-9 4c-14 6 -20 11 -20 18c0 5 3 7 11 7z" />
    <glyph glyph-name="yen" unicode="&#xa5;" horiz-adv-x="425" 
d="M-107 638l4 15l-2 3l6 3c4 -3 7 -5 9 -5l9 4l21 -4l40 -5c8 4 4 4 37 5c22 2 15 1 31 -3l33 5l28 1l11 3l10 -21c-14 -5 -14 -5 -37 -5c-23 -1 -32 -6 -42 -25l6 -28c3 -5 4 -6 9 -7c-2 -5 -2 -8 6 -18v-4l-7 -6l13 4l28 -41c9 -3 9 -7 9 -9c0 -3 1 -8 2 -10l23 -28
l24 -36c0 -1 7 -14 19 -27l13 -27l11 -7c0 -2 1 -4 1 -4l-1 -17c0 -1 1 -3 3 -5c7 3 9 6 8 15c13 6 16 8 28 24l69 90l16 28l9 7c2 11 3 13 9 23c2 13 4 14 22 19c3 1 7 3 12 29c1 6 1 9 2 10l5 19c1 2 1 3 1 4c0 10 -6 18 -18 26c-5 0 -8 -1 -16 5l-9 -2c-4 3 -6 4 -11 4
l-13 -1l-10 1l-2 9h4l-1 9c3 0 6 -1 7 -1c2 0 5 1 9 2l61 -2c13 3 24 -2 28 -2l31 -2c2 0 7 0 14 1c23 1 39 2 63 5l4 -5l-5 -6l3 -5c-40 -8 -54 -15 -69 -36l-6 3l-6 -10l-12 -13l-8 -18l-11 -8l-12 -24c-3 -6 -8 -11 -21 -23c-5 -11 -17 -32 -19 -39l-19 -24l-4 1l-2 -5
c-13 -23 -22 -37 -28 -43l-14 -13l-14 -23c-1 -2 -3 -5 -12 -6c-6 -5 -8 -9 -8 -13s1 -6 5 -6c5 7 8 7 8 7l32 -3l32 5h4c5 0 8 -1 16 -5l2 3l15 -3l12 5l5 -3l-5 -7c4 -7 6 -13 6 -17c0 -1 -1 -5 -3 -9l-81 -2l2 7c-17 -5 -24 -6 -36 -6h-6l-1 -4h-8h-5l-16 4l-5 -3l-2 -34
l19 2h8l30 -2h7c6 0 12 1 24 4l9 -3l17 3l35 -1l10 1c2 -6 2 -8 2 -12v-2l1 -18l-61 -3c-13 2 -38 -3 -44 1c-15 -4 -22 -5 -34 -5l-30 1l-6 -6l17 -14l-6 -8c-2 -13 1 -17 1 -21c-1 -5 3 -17 3 -19c0 -1 11 -72 3 -79c5 -7 5 -11 6 -22l5 -18l1 -6l6 -1
c19 -17 24 -17 25 -18l32 -8h21l14 -1c2 -5 3 -8 3 -10c0 -3 -2 -8 -5 -14l-11 1l-43 7h-3c-5 -1 -8 -1 -8 -1l-35 3l-12 -2l-85 -1c-1 0 -5 0 -10 -3c-17 12 -20 8 -25 -2h-4c-3 -1 -4 -1 -5 -1l-13 1l-14 -4c-6 7 -7 9 -7 18c0 1 1 4 1 7h5c6 2 11 4 13 4s5 -1 9 -2l6 3
l2 -2c28 5 36 9 47 19l7 7c2 4 7 9 6 14l5 22l-2 20c0 5 3 16 6 21v56l1 11v5l-1 37l3 2v6l-6 4l-4 -4c-3 2 -5 3 -5 3l-16 -3c-24 0 -41 1 -49 5l-49 -7l-1 3h-31v33h10l9 -1c6 0 13 1 26 4l18 -12l8 5l-1 2l6 3l4 -5l12 12l9 -6l34 -2c5 -1 9 -1 12 -1c7 0 11 4 11 9
c0 2 0 4 -1 5l-4 9c0 2 -1 6 -1 11l-3 2c-8 -1 -13 -2 -14 -2l-56 2l-21 -2l-43 1c-2 0 -6 -1 -11 -2l-7 3c-1 3 -2 5 -2 5l5 27s0 1 -2 4l9 -4l4 4l75 -5l22 4h6h10l1 7c-6 6 -10 12 -10 16c0 8 -10 9 -16 10l-2 12l-9 11l-14 15l-36 54l-39 48l-16 28l-16 22l-5 11
c-7 2 -8 4 -9 12l-6 10l-13 8c-25 18 -33 21 -43 21c-3 0 -8 0 -17 -2z" />
    <glyph glyph-name="florin" unicode="&#x192;" horiz-adv-x="269" 
d="M-187 -270v3h6c-2 5 -2 8 -2 9c0 3 4 12 11 25c1 3 3 7 5 12c27 -10 34 -12 42 -12c3 0 26 2 43 4l11 1l21 19c2 6 4 8 10 12l5 9c2 9 2 10 2 11c0 5 4 14 10 22l-1 6c7 12 8 16 9 28l3 3l-1 6h8l2 7l-4 2l58 207l5 10c-1 3 -1 6 -1 7c0 8 2 11 9 17c-1 6 -2 10 -2 12
c0 4 3 15 9 30c1 3 2 7 4 13l7 -2v7c3 27 4 30 -1 41c6 6 9 11 10 15c0 0 -1 2 -1 6l11 37l3 9c0 2 2 6 4 11v5c0 4 0 9 2 15c5 8 6 12 7 23l4 -1l1 4l-4 5l3 18l-31 2l-27 -2l-4 8l-1 -7l-20 -1l-2 2l2 17c5 1 8 1 11 2c10 1 17 1 18 2l26 8c1 0 5 1 10 1c6 5 9 6 26 9
l-2 -7l4 -3l1 8c3 12 6 21 8 26c5 17 9 30 11 37c1 8 2 9 5 15l1 8l3 1v7c0 5 1 7 5 9c-2 5 -4 9 -4 11s1 4 2 8l10 11c1 12 3 15 11 23c3 14 0 5 11 34l10 18l12 20l8 11c1 1 3 4 5 9l10 2l-3 7c7 4 9 5 12 13l8 -1c1 5 3 9 5 11l7 3l19 15l25 11l6 5l21 4l20 6
c3 1 7 1 11 1c18 0 42 -3 54 -6c5 -2 8 -5 12 -12l-17 -40l-24 7h-10c-8 0 -11 1 -19 5l-4 -1l-5 4l-4 -3l-7 6v-5c-5 -2 -8 -3 -10 -3c-3 0 -7 2 -12 1c-13 -3 -17 -5 -24 -13h-5c-2 -6 -3 -7 -9 -9l-10 -20c-2 0 -3 1 -4 1c-2 0 -5 -3 -8 -7l6 3c1 -2 2 -4 2 -5
c0 -2 -2 -5 -4 -9h-3c-3 -5 -4 -10 -5 -13c0 -7 -1 -7 -5 -10l-14 -28l-6 -3c6 -6 7 -9 9 -15l-7 -12l-8 1c3 -5 4 -9 4 -11c0 -3 -13 -50 -12 -48c-6 -11 -9 -19 -9 -22v-9c0 -1 -4 -17 -11 -40c-1 -3 -2 -6 -3 -11c7 -2 12 -3 16 -3l46 1c5 1 13 0 26 0l-11 -33
c-6 -1 -11 -1 -15 -1c-5 0 -8 1 -12 4c-10 -3 -17 -4 -20 -4c-4 0 -11 1 -19 2c-4 1 -8 1 -11 1c-7 0 -10 -2 -15 -11l-3 2v-10c0 -9 -1 -13 -6 -23l-11 -2l1 -7h6l1 -7c-2 -5 -3 -9 -4 -12c-13 -38 -13 -40 -14 -58c2 -8 0 -11 -7 -23c-3 -6 -6 -12 -12 -33
c-2 -8 -4 -15 -6 -23c-1 -3 -2 -7 -3 -13c-7 -25 -7 -42 -25 -51l-8 -10c7 -2 11 -5 11 -9c0 -2 0 -4 -1 -6c-3 -13 -5 -22 -7 -27l-17 -44c0 -3 -2 -9 -5 -20l-4 -13v-12c-8 -8 -11 -14 -11 -18c0 -2 1 -5 3 -8c-3 -2 -5 -3 -6 -4l-5 -14l-9 -21c0 -1 -1 -5 -5 -14l-5 -21
l-7 1l-3 -8c0 -4 1 -7 1 -9c0 -3 -2 -8 -3 -11l-14 -25l-5 -12s-2 -1 -5 -2c-5 -11 -7 -15 -14 -21l-2 -8c-4 -2 -6 -4 -7 -6l-4 -8l-7 -4c-2 -1 -3 -4 -20 -19l-3 1c-5 -9 -9 -12 -16 -15c-19 -8 -38 -11 -63 -11c-2 0 -7 0 -25 4c-3 -1 -5 -1 -6 -1c-3 0 -9 2 -16 6z" />
    <glyph glyph-name="currency" unicode="&#xa4;" horiz-adv-x="563" 
d="M497 174l-32 -32l-66 65c-39 -28 -78 -41 -118 -41c-32 0 -75 9 -118 41l-66 -65l-31 32l66 64c-27 40 -40 78 -40 116s12 77 40 116l-66 65l31 32l66 -65c45 31 86 40 118 40c35 0 78 -12 117 -40l67 65l32 -32l-67 -65c31 -43 41 -81 41 -116c0 -37 -13 -74 -41 -116z
M426 355c0 84 -72 143 -144 143c-83 0 -145 -66 -145 -143c0 -78 65 -145 144 -145s145 66 145 145z" />
    <glyph glyph-name="quotesingle" unicode="'" horiz-adv-x="132" 
d="M33 675l13 1l7 -5l6 6l24 -2l3 -6l5 5c2 1 3 1 3 1c3 0 5 -2 5 -5c0 -2 0 -4 -2 -7c-3 -6 -4 -14 -4 -23c0 -7 2 -13 2 -14c0 -2 -1 -5 -3 -8l-7 1c1 -5 1 -7 2 -13l4 -3l-3 -7c-2 -3 -2 -6 -2 -7v-14c0 -4 -2 -7 -7 -11l6 -2c-1 -2 -1 -3 -2 -4l-1 -13s-1 -2 -3 -4
c1 -5 2 -9 2 -13c0 -2 -1 -3 0 -9v-4c0 -6 0 -13 -1 -21l-3 -10l1 -16h-17l-4 16c-1 2 -1 3 -1 3l-1 16l-3 3c1 3 1 5 1 7v6c0 2 2 4 6 6c-6 4 -6 7 -8 37c-1 4 -1 9 -2 16c1 1 1 2 1 2l-4 23l2 1c2 1 3 2 5 4c-4 2 -7 4 -7 5l1 7l-6 17c-2 15 -1 11 -2 18l-1 16z" />
    <glyph glyph-name="quotedblleft" unicode="&#x201c;" horiz-adv-x="258" 
d="M149 555l-2 7l8 9v6v6c-1 5 -1 8 -1 8c0 2 1 4 2 8c11 0 14 2 17 15l-5 3c6 20 11 29 25 46c11 -3 17 -8 17 -13c0 -4 -2 -9 -7 -14c-2 -5 -3 -9 -5 -11c-2 -6 -4 -12 -4 -15v-4l-5 -5l3 -9l-5 -6c0 -4 1 -8 1 -10c0 -7 -1 -10 -6 -16l1 -11l-3 -2l2 -7
c0 -4 -1 -8 -1 -10c-1 -3 -2 -6 -2 -8c0 0 0 -1 1 -2l3 -15l2 -28c1 -4 3 -9 6 -17l-5 -10c-3 2 -6 3 -8 3c-1 0 -3 -1 -5 -1l-5 3c-8 -4 -13 -6 -18 -6c-10 0 -16 7 -16 18c0 2 0 4 1 6l2 12l-2 15l3 25l1 17c1 3 4 8 10 13zM54 555l-2 7l8 9v6v6c-1 5 -1 8 -1 8
c0 2 1 4 2 8c11 0 14 2 17 15l-5 3c6 20 11 29 25 46c11 -3 17 -8 17 -13c0 -4 -2 -9 -7 -14c-2 -5 -3 -9 -5 -11c-2 -6 -4 -12 -4 -15v-4l-5 -5l3 -9l-5 -6c0 -4 1 -8 1 -10c0 -7 -1 -10 -6 -16l1 -11l-3 -2l2 -7c0 -4 -1 -8 -1 -10c-1 -3 -2 -6 -2 -8c0 0 0 -1 1 -2l3 -15
l2 -28c1 -4 3 -9 6 -17l-5 -10c-3 2 -6 3 -8 3c-1 0 -3 -1 -5 -1l-5 3c-8 -4 -13 -6 -18 -6c-10 0 -16 7 -16 18c0 2 0 4 1 6l2 12l-2 15l3 25l1 17c1 3 4 8 10 13z" />
    <glyph glyph-name="guillemotleft" unicode="&#xab;" horiz-adv-x="323" 
d="M235 373c3 1 5 5 8 9v5l4 3l1 8l20 -7l4 -7l-7 -4c0 -9 -1 -11 -7 -16l1 -6l-5 -3v-16l-14 -4l2 -24c-6 -6 -9 -10 -10 -13l-10 -27c-1 -1 -2 -6 -3 -13c-3 -14 -8 -21 -21 -27c3 -6 5 -11 7 -14c6 -9 9 -16 9 -19s-1 -6 -3 -12l5 -11l9 2v-6l-6 -1l9 -8v-18
c6 -3 9 -8 9 -10v-3c0 -9 1 -11 9 -17l5 -17l-2 -6c6 -5 7 -7 9 -14l4 -3v-5c0 -10 -4 -14 -18 -16c-2 6 -3 10 -3 12l-16 29c-1 1 -2 4 -3 9l-4 1l-3 6l2 4l-7 5c-3 5 -5 8 -5 9l-16 25l-21 34c-15 21 -21 30 -21 35c0 10 8 23 26 44c7 7 12 13 13 16l39 71
c15 29 6 16 10 20zM144 373c3 1 5 5 8 9v5l4 3l1 8l20 -7l4 -7l-7 -4c0 -9 -1 -11 -7 -16l1 -6l-5 -3v-16l-14 -4l2 -24c-6 -6 -9 -10 -10 -13l-10 -27c-1 -1 -2 -6 -3 -13c-3 -14 -8 -21 -21 -27c3 -6 5 -11 7 -14c6 -9 9 -16 9 -19s-1 -6 -3 -12l5 -11l9 2v-6l-6 -1l9 -8
v-18c6 -3 9 -8 9 -10v-3c0 -9 1 -11 9 -17l5 -17l-2 -6c6 -5 7 -7 9 -14l4 -3v-5c0 -10 -4 -14 -18 -16c-2 6 -3 10 -3 12l-16 29c-1 1 -2 4 -3 9l-4 1l-3 6l2 4l-7 5c-3 5 -5 8 -5 9l-16 25l-21 34c-15 21 -21 30 -21 35c0 10 8 23 26 44c7 7 12 13 13 16l39 71
c15 29 6 16 10 20z" />
    <glyph glyph-name="guilsinglleft" unicode="&#x2039;" horiz-adv-x="231" 
d="M141 373c3 1 5 5 8 9v5l4 3l1 8l20 -7l4 -7l-7 -4c0 -9 -1 -11 -7 -16l1 -6l-5 -3v-16l-14 -4l2 -24c-6 -6 -9 -10 -10 -13l-10 -27c-1 -1 -2 -6 -3 -13c-3 -14 -8 -21 -21 -27c3 -6 5 -11 7 -14c6 -9 9 -16 9 -19s-1 -6 -3 -12l5 -11l9 2v-6l-6 -1l9 -8v-18
c6 -3 9 -8 9 -10v-3c0 -9 1 -11 9 -17l5 -17l-2 -6c6 -5 7 -7 9 -14l4 -3v-5c0 -10 -4 -14 -18 -16c-2 6 -3 10 -3 12l-16 29c-1 1 -2 4 -3 9l-4 1l-3 6l2 4l-7 5c-3 5 -5 8 -5 9l-16 25l-21 34c-15 21 -21 30 -21 35c0 10 8 23 26 44c7 7 12 13 13 16l39 71
c15 29 6 16 10 20z" />
    <glyph glyph-name="guilsinglright" unicode="&#x203a;" horiz-adv-x="238" 
d="M94 78c-3 -1 -5 -5 -8 -9v-5l-4 -3l-1 -8l-20 7l-4 7l7 4c0 9 1 11 7 16l-1 6l5 3v16l14 4l-2 24c6 6 9 10 10 13l10 27c1 1 2 6 3 13c3 14 8 21 21 27c-3 6 -5 11 -7 14c-6 9 -9 16 -9 19s1 6 3 12l-5 11l-9 -2v6l6 1l-9 8v18c-6 3 -9 8 -9 10v3c0 9 -1 11 -9 17l-5 17
l2 6c-6 5 -7 7 -9 14l-4 3v5c0 10 4 14 18 16c2 -6 3 -10 3 -12l16 -29c1 -1 2 -4 3 -9l4 -1l3 -6l-2 -4l7 -5c3 -5 5 -8 5 -9l16 -25l21 -34c15 -21 21 -30 21 -35c0 -10 -8 -23 -26 -44c-7 -7 -12 -13 -13 -16l-39 -71c-15 -29 -6 -16 -10 -20z" />
    <glyph glyph-name="endash" unicode="&#x2013;" horiz-adv-x="516" 
d="M56 250c5 -1 8 -1 9 -1l55 1l20 -2l35 1c3 0 7 -1 12 -3l1 -11l7 -2c9 11 15 14 35 13h27l-4 -5c11 0 14 1 20 7l13 1c23 0 37 1 46 1c4 0 11 0 14 -1l67 -2h3c5 0 15 1 26 2c3 0 9 1 16 1c3 -4 5 -8 5 -10s-2 -6 -6 -11v-9c3 -4 4 -8 4 -11c0 -2 -1 -5 -3 -10l-17 6
l-3 -7l-5 6h-6v-6c-7 0 -12 1 -15 2c-5 2 -9 3 -9 3l-20 -3c-1 0 -2 1 -4 1v9l-4 1v-12h-11l-25 4h-5c-3 0 -6 -1 -10 -4l-31 1v2c-2 2 -3 2 -3 2l-17 -5l-15 3c-1 0 -4 0 -7 -1l-5 9c-4 -2 -7 -4 -10 -5c-5 -3 -9 -5 -10 -5l-35 2l-99 -2c-1 0 -5 0 -11 1l-26 -4l1 5
c-1 3 -2 4 -2 5v17l-1 11c0 3 1 8 3 15z" />
    <glyph glyph-name="periodcentered" unicode="&#xb7;" horiz-adv-x="162" 
d="M100 219c16 -12 22 -23 22 -42c0 -21 -7 -33 -21 -41l-2 -6l-15 -5c-2 2 -5 2 -6 2h-3l-3 4h-5l-3 9l-8 2c-1 4 -1 6 -2 7l-5 11c-2 4 -3 9 -3 14s1 11 4 16l6 9l6 13c5 6 11 10 18 10c2 0 5 -1 9 -1c3 -1 6 -1 11 -2z" />
    <glyph glyph-name="bullet" unicode="&#x2022;" horiz-adv-x="237" 
d="M108 409c42 0 76 -34 76 -76c0 -41 -34 -75 -76 -75c-41 0 -75 34 -75 75c0 42 34 76 75 76z" />
    <glyph glyph-name="quotedblbase" unicode="&#x201e;" horiz-adv-x="256" 
d="M33 -112c4 5 5 7 5 12l4 2c2 5 2 8 3 11c5 20 3 17 8 22l-2 10c5 6 7 9 7 14c0 3 -1 7 -1 11l4 8l-1 9l3 3c-1 5 -1 9 -1 12c0 1 2 13 0 25l-3 27l-6 25c1 2 2 4 5 8c3 -2 5 -3 6 -3c2 0 4 1 6 2l6 -4c8 4 12 6 17 6c7 0 15 -4 15 -8l-3 -29l3 -17l-3 -19v-18
c-2 -5 -4 -9 -11 -15l3 -6l-10 -11l1 -24c-13 -4 -16 -7 -17 -18l4 -3c-5 -19 -9 -26 -24 -45c-12 3 -19 7 -19 11zM128 -112c4 5 5 7 5 12l4 2c2 5 2 8 3 11c5 20 3 17 8 22l-2 10c5 6 7 9 7 14c0 3 -1 7 -1 11l4 8l-1 9l3 3c-1 5 -1 9 -1 12c0 1 2 13 0 25l-3 27l-6 25
c1 2 2 4 5 8c3 -2 5 -3 6 -3c2 0 4 1 6 2l6 -4c8 4 12 6 17 6c7 0 15 -4 15 -8l-3 -29l3 -17l-3 -19v-18c-2 -5 -4 -9 -11 -15l3 -6l-10 -11l1 -24c-13 -4 -16 -7 -17 -18l4 -3c-5 -19 -9 -26 -24 -45c-12 3 -19 7 -19 11z" />
    <glyph glyph-name="quotedblright" unicode="&#x201d;" horiz-adv-x="256" 
d="M128 464c4 5 5 7 5 12l4 2c2 5 2 8 3 11c5 20 3 17 8 22l-2 10c5 6 7 9 7 14c0 3 -1 7 -1 11l4 8l-1 9l3 3c-1 5 -1 9 -1 12c0 1 2 13 0 25l-3 27l-6 25c1 2 2 4 5 8c3 -2 5 -3 6 -3c2 0 4 1 6 2l6 -4c8 4 12 6 17 6c7 0 15 -4 15 -8l-3 -29l3 -17l-3 -19v-18
c-2 -5 -4 -9 -11 -15l3 -6l-10 -11l1 -24c-13 -4 -16 -7 -17 -18l4 -3c-5 -19 -9 -26 -24 -45c-12 3 -19 7 -19 11zM33 464c4 5 5 7 5 12l4 2c2 5 2 8 3 11c5 20 3 17 8 22l-2 10c5 6 7 9 7 14c0 3 -1 7 -1 11l4 8l-1 9l3 3c-1 5 -1 9 -1 12c0 1 2 13 0 25l-3 27l-6 25
c1 2 2 4 5 8c3 -2 5 -3 6 -3c2 0 4 1 6 2l6 -4c8 4 12 6 17 6c7 0 15 -4 15 -8l-3 -29l3 -17l-3 -19v-18c-2 -5 -4 -9 -11 -15l3 -6l-10 -11l1 -24c-13 -4 -16 -7 -17 -18l4 -3c-5 -19 -9 -26 -24 -45c-12 3 -19 7 -18 11v2z" />
    <glyph glyph-name="guillemotright" unicode="&#xbb;" horiz-adv-x="320" 
d="M175 75c-3 -1 -5 -5 -8 -9v-5l-4 -3l-1 -8l-20 7l-4 7l7 4c0 9 1 11 7 16l-1 6l5 3v16l14 4l-2 24c6 6 9 10 10 13l10 27c1 1 2 6 3 13c3 14 8 21 21 27c-3 6 -5 11 -7 14c-6 9 -9 16 -9 19s1 6 3 12l-5 11l-9 -2v6l6 1l-9 8v18c-6 3 -9 8 -9 10v3c0 9 -1 11 -9 17l-5 17
l2 6c-6 5 -7 7 -9 14l-4 3v5c0 10 4 14 18 16c2 -6 3 -10 3 -12l16 -29c1 -1 2 -4 3 -9l4 -1l3 -6l-2 -4l7 -5c3 -5 5 -8 5 -9l16 -25l21 -34c15 -21 21 -30 21 -35c0 -10 -8 -23 -26 -44c-7 -7 -12 -13 -13 -16l-39 -71c-15 -29 -6 -16 -10 -20zM87 75c-3 -1 -5 -5 -8 -9
v-5l-4 -3l-1 -8l-20 7l-4 7l7 4c0 9 1 11 7 16l-1 6l5 3v16l14 4l-2 24c6 6 9 10 10 13l10 27c1 1 2 6 3 13c3 14 8 21 21 27c-3 6 -5 11 -7 14c-6 9 -9 16 -9 19s1 6 3 12l-5 11l-9 -2v6l6 1l-9 8v18c-6 3 -9 8 -9 10v3c0 9 -1 11 -9 17l-5 17l2 6c-6 5 -7 7 -9 14l-4 3v5
c0 10 4 14 18 16c2 -6 3 -10 3 -12l16 -29c1 -1 2 -4 3 -9l4 -1l3 -6l-2 -4l7 -5c3 -5 5 -8 5 -9l16 -25l21 -34c15 -21 21 -30 21 -35c0 -10 -8 -23 -26 -44c-7 -7 -12 -13 -13 -16l-39 -71c-15 -29 -6 -16 -10 -20z" />
    <glyph glyph-name="ellipsis" unicode="&#x2026;" horiz-adv-x="1000" 
d="M181 83c16 -12 22 -23 22 -42c0 -21 -7 -33 -21 -41l-2 -6l-15 -5c-2 2 -5 2 -6 2h-3l-3 4h-5l-3 9l-8 2c-1 4 -1 6 -2 7l-5 11c-2 4 -3 9 -3 14s1 11 4 16l6 9l6 13c5 6 11 10 18 10c2 0 5 -1 9 -1c3 -1 6 -1 11 -2zM516 83c16 -12 22 -23 22 -42c0 -21 -7 -33 -21 -41
l-2 -6l-15 -5c-2 2 -5 2 -6 2h-3l-3 4h-5l-3 9l-8 2c-1 4 -1 6 -2 7l-5 11c-2 4 -3 9 -3 14s1 11 4 16l6 9l6 13c5 6 11 10 18 10c2 0 5 -1 9 -1c3 -1 6 -1 11 -2zM849 83c16 -12 22 -23 22 -42c0 -21 -7 -33 -21 -41l-2 -6l-15 -5c-2 2 -5 2 -6 2h-3l-3 4h-5l-3 9l-8 2
c-1 4 -1 6 -2 7l-5 11c-2 4 -3 9 -3 14s1 11 4 16l6 9l6 13c5 6 11 10 18 10c2 0 5 -1 9 -1c3 -1 6 -1 11 -2z" />
    <glyph glyph-name="perthousand" unicode="&#x2030;" horiz-adv-x="1207" 
d="M47 499l-6 13l7 29c1 8 11 37 22 47l8 19l11 9c14 8 14 8 16 18l9 7c10 -1 14 0 19 6c14 9 17 10 19 11c22 11 25 12 50 13l25 2l27 -1c4 0 7 0 9 -1l12 -3c2 -1 9 1 14 -5c42 -9 73 -30 93 -62l6 -9c9 -14 14 -24 15 -30l1 -16l6 -21l-3 -45l1 -10l-17 -15l10 -11
c-2 -5 -4 -9 -5 -12l-9 -19l-23 -32l-6 -11c-8 -1 -10 -2 -11 -9c-19 -15 -24 -18 -42 -19c-6 -7 -9 -8 -16 -8c-1 0 2 4 -30 -11l-24 -2c-7 0 -9 1 -14 4l-1 -5l-34 3c-7 5 -12 7 -17 7c-4 0 -19 5 -25 9c-3 1 -7 3 -12 6c-9 2 -14 5 -16 8l-37 26l-7 20l-18 28l-6 19
l-5 19c0 3 1 5 1 9zM167 16c6 20 8 23 19 26l6 16c10 8 11 5 37 56c0 1 25 28 36 53l18 14c0 19 19 32 40 40l-10 8l15 17l6 8c1 12 2 14 14 30l31 43l14 15l26 39l12 13l2 8c1 2 10 8 22 23l10 31c12 6 15 10 16 12c8 12 11 15 22 20l4 12l30 47l4 1c4 11 8 19 12 22l10 11
l32 47l21 25c2 3 4 9 6 16c5 -3 9 -5 11 -7c11 -6 13 -8 21 -18c-4 -4 -7 -8 -9 -10c-14 -22 -13 -20 -25 -23c1 -3 1 -5 1 -7c0 -6 -8 -29 -32 -35c-12 -16 -15 -17 -17 -24c9 -18 -10 -13 -20 -21l8 -9c-8 -20 -15 -30 -26 -37c-11 -6 -14 -9 -14 -14c0 -3 1 -5 -17 -24
l-43 -61l-12 -16c-7 -6 -8 -9 -8 -10l-16 -25l-17 -22c-2 -10 -4 -13 -14 -17c-2 -11 -2 -11 -18 -30c-1 -2 -3 -5 -6 -9l-5 -19c-17 -4 -23 -12 -27 -32l-8 -2c-8 -12 -22 -38 -23 -39c-8 -2 -9 -4 -19 -30l-7 -1c-9 -11 -11 -14 -13 -28c-36 -24 -27 -45 -43 -51
c-14 -28 -16 -30 -18 -32c-11 -14 -11 -15 -23 -19l5 -7l-4 -3c-4 1 -7 3 -9 4c-14 6 -19 11 -19 18c0 5 3 7 11 7zM400 200c12 30 11 31 11 32c0 2 3 6 6 10v6l8 4c4 14 8 19 24 33l13 11c9 8 12 9 21 11c6 7 10 8 12 9c17 8 33 13 41 13l18 -1c6 5 10 6 15 6
c4 0 9 -1 20 -4l-2 4h7h5l10 3l20 -7l34 -7l11 -7c2 -1 5 -2 24 -14c14 -9 16 -11 29 -29c2 -2 4 -5 7 -9v-3l7 -5c0 -6 1 -7 5 -10c0 -6 8 -17 11 -22l-3 -30l11 -9l-13 -21c9 -5 14 -10 14 -14l-11 -46l-5 -16c-8 -6 -6 -3 -21 -33c-6 -10 -15 -21 -27 -28l-23 -15
c-9 -5 -15 -9 -18 -9c-9 0 -19 -8 -23 -8l-21 -4l-32 -6l-35 1l-14 -1c-10 7 -12 8 -24 11c11 -3 -42 17 -53 27l-11 16c-10 2 -13 5 -20 16l-5 7l-3 10l-11 11c-10 27 -13 40 -14 55v9v8c0 14 1 26 5 45zM112 443c-4 -2 -6 -4 -6 -7c0 -1 0 -2 1 -2l7 -11l12 -23l16 -4
l16 -23c5 -2 10 -4 13 -5c25 -6 24 -6 32 -15l10 1l4 5l10 -3c7 4 27 0 60 16c11 2 9 4 32 25l20 27l12 6v11l-6 1c1 4 2 8 2 10l5 16l-1 16l6 31l-4 10l-1 18l-9 18l-6 16l-6 11l-6 -1c-3 8 -4 10 -10 18l-9 8c-11 4 -14 6 -19 14l-7 -1l-2 3c-17 10 -24 12 -38 12h-12
l-2 2l-15 -2c-11 0 -15 4 -23 -6l-28 -6c-21 -3 -45 -37 -51 -72l-14 -16l1 -17l5 -17c-15 -6 9 -59 11 -64zM448 153l9 -8l11 -35l-4 -7l8 -10c4 -17 14 -31 41 -55c11 -9 24 -15 34 -15h5h10l7 -7l7 5l12 -2c5 -1 9 -1 12 -1c2 0 6 0 8 1l18 7l13 3l15 5
c23 22 33 35 41 52c7 15 14 49 14 70c0 17 -2 35 -6 44l-7 16l-4 12l4 1c-1 13 -3 17 -12 23v10c-11 12 -12 13 -18 11l-29 20l-2 -1c-15 10 -18 11 -39 16v-6l-10 6c-4 -2 -8 -4 -11 -4c-2 0 -5 1 -9 2c-12 -1 -15 -1 -26 -9l-17 2c-3 -8 -5 -10 -16 -10l-38 -56
c-1 -4 -3 -7 -3 -9l-6 -13c-2 -3 -2 -10 -3 -22l-3 -5c1 -4 1 -6 1 -8c0 -5 -3 -14 -7 -23zM802 200h5l-3 8l5 8c4 17 4 20 11 26v6l7 4c4 14 8 19 25 33l13 11c8 8 11 9 21 11l1 5l10 4c18 8 33 13 41 13c2 0 5 0 9 -1l3 5l6 -5c7 5 11 6 15 6s9 -1 21 -4l-3 4h7h5l11 3
l20 -7l34 -7l10 -7l10 -3v-5l4 1l10 -7c14 -9 17 -11 29 -29l7 -9v-3l7 -5c0 -6 1 -7 5 -10v-2c0 -3 0 -4 6 -11l5 -9l-3 -30l11 -9l-12 -21c8 -5 13 -10 13 -14c0 -1 0 -2 -2 -5l-6 -3c3 -3 4 -6 4 -7c0 -2 -1 -4 -4 -7l3 -5l-10 -5l-7 -13l8 2l3 -3l-7 -12l2 -4
c-8 -6 -6 -3 -21 -33c-5 -10 -15 -21 -27 -28l-23 -15c-8 -5 -15 -9 -17 -9c-1 0 -3 1 -5 2c-10 -6 -10 -10 -33 -12l-1 -3c-3 0 -5 1 -5 1l-33 -6l-34 1l-15 -1c-9 7 -12 8 -24 11l-11 2l-3 6l-9 -1l-2 6c-14 4 -18 6 -27 14l-3 10l-11 -1l5 2l-3 5c-9 2 -13 5 -19 16l3 5
l-9 2l-2 10l-12 11c-10 27 -13 40 -13 55v9l-1 8c0 14 1 26 5 45zM850 153l10 -8c-1 -2 -1 -3 -1 -4c0 -3 3 -8 7 -13l-4 -8l13 -27c3 -17 14 -31 41 -55c11 -9 24 -15 34 -15h4h10l8 -7l6 5l12 -2l12 -2l8 2l18 7l13 3l9 6l6 -1c23 22 34 35 42 52c7 15 13 49 13 70
c0 17 -2 35 -6 44l-6 16c-1 2 -3 6 -5 12l4 1c-1 13 -3 17 -11 23l-1 10l-7 2v8c-2 1 -4 2 -6 2c-1 0 -3 0 -5 -1l-28 20l-3 -1c-14 10 -18 11 -39 16v-6l-9 6c-5 -2 -9 -4 -11 -4c-3 0 -6 1 -10 2c-14 0 5 -2 -42 -7c-4 -8 -6 -10 -16 -10l-6 -9h-6l-3 -8
c-6 -8 -7 -10 -20 -22v-8h-5l2 -9l-4 -9l-6 -13c-1 -3 -2 -10 -2 -22l-4 -5l1 -8c0 -5 -2 -14 -7 -23z" />
    <glyph glyph-name="questiondown" unicode="&#xbf;" horiz-adv-x="486" 
d="M432 153v-6h-4l3 -7l-5 -39l1 -5c-1 -12 -1 -16 -7 -17l3 -16h-4l-3 -8l6 -4l-5 -21l-4 1c3 -6 5 -11 5 -13c0 -4 -1 -8 -3 -13c-29 -9 -41 -13 -53 -13l-22 -1l-11 -2l-4 5l-4 -6h-5l-10 9v-10h-21l-6 5c-6 -2 -10 -2 -14 -2s-11 2 -20 5v-1c-7 0 -9 1 -12 8l-5 -4v-5
l-6 1l-3 7l-8 -4c-10 1 -12 3 -19 11l-5 -3l-26 13l-10 2l-8 7l-35 26l-12 13l-10 10l-10 18l-7 7v13l-7 9l-1 12l-4 16c0 1 0 4 1 7l-5 4l2 9l-2 6l1 4l-1 17v5c0 12 1 22 5 30l18 42l6 12l4 1l17 21l14 13c7 7 8 8 17 9l3 8c10 2 12 4 18 11h11v6l43 16c16 4 18 5 31 5
l24 -2h10c2 4 3 8 3 11c0 1 0 2 -1 5l-5 4l5 29c-2 15 -2 24 -2 33c0 7 1 20 3 36c6 -2 11 -3 14 -3s8 1 14 3l4 -4c0 -6 -1 -11 -1 -14c0 -21 0 -35 -1 -37c0 -1 -1 -3 -4 -6c3 -3 5 -6 5 -8c0 0 0 -1 -1 -2l-7 -2l-1 -4c7 -8 9 -14 9 -21c0 -6 -1 -12 -3 -18l-3 -13l4 -45
v-7l-6 1l-2 4l-9 -1l-1 5c-3 0 -5 -1 -7 -1c-3 0 -9 2 -15 3c-18 2 -23 1 -26 0s-6 -2 -7 -2l-10 3v-4l-14 -3l-19 -9l-8 -2l-7 -7l-6 -2l-3 -5l-7 3c1 -9 -1 -11 -8 -12l-10 -12l-19 -11l-8 -12h4l2 -6l8 -4l-11 -17l-4 11l-7 -4l-1 -20l7 1c2 -4 3 -6 3 -8
c0 -1 0 -3 -1 -6l-7 3c4 -10 7 -16 7 -19v-30l2 -12l15 -34l4 -15l27 -29l-1 6l7 2l7 -13l14 -9l5 -7l11 2l8 -7l12 -7l10 3l3 -5l7 1l4 -7l8 3l28 -2c10 2 12 1 16 2l7 2c3 -5 4 -5 8 -6l7 5l4 -2l8 6l7 -1l-1 4c35 5 56 35 64 89c5 29 4 25 7 34zM329 614l-6 -4l3 -7
c-11 -18 -21 -26 -36 -26c-12 0 -19 6 -23 19l-8 4c0 5 0 8 -1 10l-5 11l1 5l2 16l5 11c0 1 -1 3 -2 5h8l16 19c5 -2 9 -4 11 -4l9 1c4 0 10 -4 13 -9c8 -13 15 -32 14 -38z" />
    <glyph glyph-name="grave" unicode="`" horiz-adv-x="310" 
d="M67 629v4c5 4 8 7 9 8l18 25c0 1 3 4 7 7c4 -3 7 -6 8 -7l19 -21c1 -2 6 -5 13 -9l-1 -4l9 -15l7 8c9 -5 17 -8 22 -8h4v-8c9 -3 12 -5 17 -12l9 4l3 -4l6 1l27 -8l-6 -29c-11 1 -19 1 -23 2l-26 3c-22 3 -25 4 -37 11l3 5l-7 3l-4 -8l-11 4c-10 3 -13 5 -22 15
c-9 0 -11 2 -13 12l-8 -2z" />
    <glyph glyph-name="acute" unicode="&#xb4;" horiz-adv-x="329" 
d="M66 562l3 23l22 4c6 2 10 3 13 4c5 2 9 3 11 3s4 0 8 -2c3 3 6 5 8 6c6 5 11 7 14 7h3l17 18l5 -2c4 4 7 7 9 8l7 9l16 12c4 4 10 11 16 20c4 -4 6 -7 6 -8l4 -17l5 -13l2 -7c0 -2 2 -6 4 -11l-4 -3h-6v-4c-21 -16 -27 -20 -36 -20c-3 0 -8 1 -13 2l-1 -9
c-16 -7 -26 -11 -34 -13l-29 -6c-2 -1 -6 -2 -11 -3l-3 3z" />
    <glyph glyph-name="circumflex" unicode="&#x2c6;" horiz-adv-x="381" 
d="M67 572l2 3l-1 19h12c24 1 27 3 33 17l8 -4l6 6l6 -2l7 7l32 28c2 1 7 6 13 13c1 7 2 9 8 15c11 -18 13 -20 29 -35l1 -6c7 -1 7 0 17 -9c2 -2 6 -4 11 -6l-8 -4l5 -6l19 7c10 -11 14 -14 32 -18c3 0 7 -1 12 -2l5 -8c-3 -2 -4 -4 -4 -6c0 -1 0 -2 1 -4l-4 -7
c-5 1 -9 1 -11 1c-20 1 -22 1 -35 7l-3 -2c-11 2 -14 3 -19 11l-2 -5l-4 1l-3 4l-3 -2l-21 8l-4 6l-6 -3c-7 6 -11 8 -15 8c-3 0 -2 1 -26 -14l-10 -5l-2 -4c-5 0 -8 -1 -9 -2l-11 -5c0 -1 -2 -1 -5 -1h-5l-34 -6c-3 0 -6 -1 -12 -1z" />
    <glyph glyph-name="tilde" unicode="&#x2dc;" horiz-adv-x="387" 
d="M67 575c1 5 1 8 2 8l11 18l4 12c1 2 3 4 7 8v5c27 22 38 28 50 28c25 0 42 -9 66 -35h4c5 -5 10 -8 13 -8c2 0 4 1 7 2c5 -6 9 -10 13 -11c0 0 2 1 6 2h11c6 5 11 8 12 10l11 15c1 1 3 3 8 7v5l4 5l-3 2l3 3l-1 5l6 2l2 -4l17 -7c0 -2 1 -3 1 -4c0 -4 -3 -9 -6 -15l2 -5
h-6c-16 -42 -42 -65 -73 -65c-15 0 -25 4 -43 14l-3 -1c-13 14 -47 30 -63 30c-9 0 -16 -5 -25 -16l-6 -2l-1 3l-8 -8v-2c0 -3 -1 -7 -4 -11z" />
    <glyph glyph-name="dieresis" unicode="&#xa8;" horiz-adv-x="326" 
d="M106 558l-22 10c-1 5 -2 6 -7 8l-3 12v5l-4 1c0 2 -1 3 -2 7c-1 3 -1 6 -1 9c0 26 17 49 38 49c22 0 39 -19 39 -44c0 -31 -13 -50 -38 -57zM185 618h7l-5 12l7 3l5 6l-1 9c16 8 21 10 27 10c3 0 8 -1 14 -3l1 -4l9 -3l-2 -8l5 -2l1 -7l8 -7v-4l-8 2v-4l4 -3l2 -8l-9 -3
l3 -4l2 -8l-3 -3l3 -4l-4 -7h-5c-6 -12 -11 -16 -22 -16c-21 0 -36 17 -38 46z" />

<glyph glyph-name="ring2" unicode="&#x2da;" horiz-adv-x="259" 
d="
M 67 612
L 191 588 
L 140 548
L 133 549 
L 125 546
 z

M 88 602
Q 124 567 131 567 
L 142 567
L 88 602 
 z
" />

    <glyph glyph-name="ring" unicode="&#x2da;" horiz-adv-x="259" 
d="M67 612l2 15l5 4c1 14 3 17 14 20v5l14 6v4c13 4 16 4 19 4c1 0 3 0 6 -1l1 3l9 -4c4 2 6 3 8 3s7 -2 11 -6c16 -1 19 -4 20 -17c11 -3 12 -4 13 -17c0 -2 2 -9 5 -20c1 -2 1 -4 1 -6c0 -3 -2 -5 -6 -7l2 -10c-10 -1 -13 -3 -16 -15l5 -4c-7 -11 -10 -13 -19 -13
c-5 -5 -6 -5 -15 -7c-2 0 -6 -1 -10 -3l-3 3c-5 -2 -8 -3 -11 -3c-4 0 -10 3 -17 8v-4l-10 2l2 4l-8 2l-3 10l-8 -2l-8 19c-1 4 -2 7 -2 9s1 5 3 9zM88 602l5 -2l-1 -9c4 -3 6 -5 8 -6c15 -13 24 -18 31 -18c11 0 22 7 33 21l4 -1l5 8c-3 5 -5 9 -5 11s2 6 5 11l-3 8
c-4 1 -7 3 -8 4l-6 9c-1 2 -4 5 -9 8c-9 2 -16 2 -22 2c-24 0 -35 -15 -37 -46z" />

    <glyph glyph-name="emdash" unicode="&#x2014;" horiz-adv-x="1106" 
d="M1053 199c-5 -1 -9 -2 -9 -2l-86 5l-11 -4l-121 1h-4h-6l-17 1h-5l-7 1l-66 -3h-10c-10 0 -27 0 -50 1h-13c-6 7 -9 8 -19 8l3 -5c-11 0 -25 -1 -28 -1c-20 0 -25 2 -34 14l-7 -2l-1 -11c-6 -3 -10 -4 -11 -4l-36 2l-20 -2h-14h-31l-4 1l-3 -1c-10 -1 -20 -1 -26 -1
c-7 0 -14 0 -21 1c-10 1 -17 2 -18 2l-37 -2c-1 0 -6 1 -12 4l-8 6c-4 -1 -7 -2 -8 -2l-5 -2c-3 -2 -10 -3 -18 -3l-30 1l3 5c-7 -1 -11 -2 -13 -2l-20 -6c-3 -1 -12 -1 -27 -1h-21h-12l-67 3h-3c-4 0 -14 -1 -26 -2c-3 0 -9 -1 -16 -2c-3 5 -5 8 -5 10c0 3 2 7 6 12v9
c-3 4 -4 8 -4 10c0 3 1 6 3 11h21l4 -5h6v6c7 -1 12 -1 15 -3c5 -1 9 -2 9 -2l21 3l4 -2l-1 -8l4 -1v12c6 0 9 0 11 -1l25 -3h5c3 0 6 1 11 4l30 -2v-2c2 -1 3 -2 4 -2l16 6l15 -4c1 0 4 1 7 2l5 -9l10 5l10 5l35 -2l98 2s4 0 9 -1h3h23h3c4 1 7 1 7 1l98 -2l35 2
c1 0 5 -2 11 -5c2 -2 5 -3 10 -5l5 9c2 -2 3 -2 4 -2l18 4l14 -5c1 0 3 1 5 1v2l31 2c4 -3 8 -4 10 -4c0 0 11 1 31 3c2 0 5 1 10 1v-12l4 1v8c2 1 3 2 4 2l20 -3s2 0 4 2c5 1 8 1 9 1l74 -3l28 2l23 -2l15 2c3 0 6 0 11 -2h7c5 0 8 1 15 4l2 -4l5 5l4 -7l-9 -2l5 -3v-5
c14 5 18 7 25 16l7 -2h12h27c1 0 5 0 11 1l-3 -29z" />
    <glyph glyph-name="AE" unicode="&#xc6;" horiz-adv-x="934" 
d="M3 8l1 6h18c2 -1 4 -1 4 -1c10 0 35 13 49 24c10 9 18 17 33 36v-7l7 9l-4 3c9 12 11 15 22 29c13 16 18 23 23 38c6 3 9 5 11 7c14 13 14 13 23 29c1 2 3 5 4 15l11 13l4 -1l40 54l7 6l5 -4l4 8c2 1 22 6 -3 7l45 58l5 -3c6 24 8 28 35 49c0 6 1 10 3 11l17 20l30 35
l25 36c3 2 8 5 15 8c-3 12 -2 13 7 13c7 5 8 6 9 15c1 3 1 6 2 11l24 25c8 18 15 28 32 47c5 6 7 7 10 13c-16 13 -24 15 -60 17c-2 1 -6 1 -11 1v21c5 -1 9 -1 11 -1l76 -6s6 -2 13 -4l1 3c10 1 18 1 23 1c6 0 11 0 15 -1c12 -1 20 -1 21 -1h10h6l14 1h3c4 0 6 -1 11 -5
l1 5c35 1 48 1 59 2h3c3 0 8 -1 13 -3c17 -5 15 -1 20 0l33 6c1 0 3 -1 7 -2l1 -4h8l1 4h3c3 0 5 -1 8 -6h7v7l58 5l3 -60l-7 2v-5l5 -1c6 -27 7 -44 7 -90h-20l-5 48l4 1l-12 15l5 4c-3 4 -4 7 -5 10c-10 22 -11 22 -26 26l-2 6l-10 -2l-4 5c-4 -1 -7 -2 -7 -2l-33 3
l-59 -2c-3 1 -8 2 -15 5c-21 -6 -2 -4 -56 -4c-3 0 -7 -2 -12 -6l-9 5v-6c-15 -11 -17 -15 -17 -34c0 -10 -1 -26 -3 -46c-3 -9 3 -4 6 -29c-7 -38 -5 -43 -5 -45v-18v-45c0 -1 0 -6 -1 -12l8 -12c5 0 9 1 12 1c11 1 22 1 32 2c18 1 21 1 22 1c3 0 12 -2 19 -6v5
c3 0 5 1 6 1l29 -3l23 3c17 1 27 4 41 13l3 -3l8 10l-2 7c8 18 11 26 11 32l1 10c0 2 1 5 2 10l18 2c-2 -8 -2 -11 -2 -18v-13v-17l-4 -2l4 -17l-4 -1l4 -141l-20 -1l3 3c-1 3 -1 5 -1 7c0 1 1 5 2 8c-2 16 -8 41 -12 49l-7 14c-18 11 -25 13 -55 14c-5 0 -12 1 -21 1l-2 5
c2 3 3 5 3 7c0 1 0 2 -1 5l-8 -1c-2 -3 -2 -6 -2 -7s1 -4 2 -7l-57 -3l1 3l-54 -3c-1 -5 -1 -7 -1 -8l4 -66c0 -1 -1 -7 -4 -17c-1 -6 -2 -10 -2 -14c0 -5 2 -10 5 -18l-16 -18l2 -9l8 4l3 -26v-10c1 -6 2 -11 2 -14c1 -18 3 -37 5 -55s4 -22 11 -27l18 -11c1 -1 4 -4 7 -5
l12 -3c19 -5 34 -8 45 -8c3 0 9 0 16 1v3c11 -3 15 -4 20 -4h6s10 0 21 1c15 0 26 1 32 3l31 9c1 1 5 1 10 2l8 11l10 -3l-1 11c12 18 15 23 19 40l4 2v13c5 10 4 12 4 12l7 39c1 2 1 6 1 12l21 -3c-1 -5 -1 -9 -2 -12c-2 -25 -4 -41 -4 -43l-5 -19c0 -3 -3 -21 -7 -48
c-2 -19 -5 -34 -11 -61c-25 -2 -57 -4 -79 -4c-8 0 -18 1 -29 2l-60 6c-28 2 -32 3 -40 3h-2c-15 -1 -30 -2 -46 -2c-19 -1 -22 -1 -30 -1c-2 0 -4 1 -6 1l-16 3l-9 -2l-58 -3c-1 0 -5 -2 -21 -5c-3 1 -5 1 -7 1s-4 0 -5 -1c-5 -1 -8 -1 -9 -1s-4 1 -7 3l-2 -4h-7l-1 17
c22 1 33 4 57 14c16 7 15 6 25 25c1 2 3 6 6 10c-1 2 -1 3 -1 4l3 22l-3 8l5 23c0 66 1 47 1 46c0 3 0 5 1 10h6l6 12l-1 10c-9 5 -10 0 -10 27c0 3 2 7 6 12c-3 5 -5 9 -5 12c0 1 1 3 2 5c-19 1 -26 1 -38 1h-12h-40c-13 0 -19 0 -33 2c-6 -2 -8 -2 -8 -2l-23 -1
c-1 0 -4 1 -8 3l-2 -4c-5 1 -8 1 -9 1l-62 -1l-12 1c-15 -2 -24 -11 -32 -33l-14 -18c-3 -4 -6 -7 -7 -8l-18 -20l-11 -17l-36 -47l-21 -39c-7 -11 -9 -15 -9 -20c0 -20 19 -29 60 -31h14l4 -20l-45 -1l1 7l-12 2l1 -10c-6 2 -7 4 -10 11c-17 -7 -18 -6 -25 -6l-44 -5
c-14 15 -16 -1 -47 3l-6 -6c-3 1 -6 1 -7 1c-2 0 -5 0 -10 -2c-3 0 -7 -1 -12 -2zM308 283c44 0 84 3 105 2c16 -1 28 -2 38 -2c7 0 18 6 46 0c0 0 2 1 10 3h36l3 6c-3 5 -4 8 -4 11s2 8 6 14l-5 2c1 2 1 4 1 5l-2 24c0 1 1 3 2 6c-4 12 -3 -12 -3 56c0 5 -6 22 6 27
c-5 5 -7 8 -7 12c0 2 0 5 1 9c0 4 1 9 1 14c0 4 -1 8 -1 15l6 -4l5 21c-13 1 -14 6 -13 8l2 25l-5 14l4 20c0 1 -1 3 -2 5c-10 -10 -13 -14 -22 -19l2 -5c-3 -2 2 5 -29 -35l-33 -44l-10 -8l-22 -33c-3 -4 -10 -11 -18 -18c-2 -8 -3 -10 -11 -15l-7 -11
c4 -22 -18 -27 -19 -28c-14 -13 -23 -22 -24 -24l-8 -19c-2 -5 -8 -8 -21 -10l-1 -5l3 -1c1 -1 1 -3 1 -3c0 -6 -7 -12 -11 -15z" />
    <glyph glyph-name="Oslash" unicode="&#xd8;" horiz-adv-x="771" 
d="M23 302c2 3 3 5 3 5l-2 19c-3 30 0 14 0 18c0 12 1 24 4 37l8 39s2 15 12 40l13 27l8 8l20 36l19 21l34 27c2 10 5 12 6 13l12 6c2 0 4 3 7 7c12 13 21 19 29 19c3 0 7 0 11 -1c5 13 9 17 19 17c2 0 7 -1 11 -1c18 12 24 14 28 15l26 5l19 6c10 0 2 -3 22 2l50 6h4
c3 0 7 -1 14 -3l3 2c6 -1 10 -2 11 -2l33 -1l57 -13c2 0 6 0 10 -1c5 -4 8 -6 10 -7l9 -2c2 0 5 -1 10 -3l15 -15l21 -2v-4l16 -8l9 -9l-5 -5l2 -8c11 5 15 9 27 24l35 41l2 10h5v7c15 -4 19 -7 30 -19c8 0 9 -2 10 -10l-11 -2l-3 -9l-13 -11l-24 -22c-6 -6 -7 -8 -12 -14
l-7 -12l9 -3l34 -35l-1 -7c23 -21 26 -27 26 -47c10 -8 12 -10 17 -27l15 -52c0 -1 1 -5 -6 -11c9 -9 11 -12 12 -23l-6 1l-4 12l-9 -6v-8h9c2 -5 4 -8 15 -19l-2 -44c0 -2 1 -5 2 -10c-4 -7 -3 -9 -3 -11c0 -5 -3 -12 -7 -20v-8c0 -8 -3 -22 -8 -38c-7 -8 -7 -12 -8 -14
c-3 -14 -5 -18 -16 -25c1 -3 1 -5 1 -7c0 -13 -7 -24 -37 -59c-18 -22 -41 -46 -45 -49l-18 -10l-29 -20l-19 -7l-20 -14c-7 -4 -19 -8 -36 -12c-11 -3 -24 -6 -44 -10c-22 -4 -29 -6 -36 -6l-40 -1l-18 -2l-50 6h-12c-7 3 -13 5 -16 6c-33 7 -31 7 -39 12
c-18 1 -53 23 -60 30h-8l-12 20c-25 -22 -47 -48 -69 -81c-5 2 -10 3 -12 4c-5 1 -8 2 -8 2l-9 6c-2 1 -5 3 -10 5c19 17 33 31 40 41s12 17 13 18l14 13c1 1 4 5 7 10c-12 8 -12 7 -15 30l-13 -3c-3 5 -6 8 -8 11c-11 13 -14 17 -21 21v5c-7 7 -11 14 -11 19v2
c-12 20 -16 24 -17 27l-4 12c0 2 -2 5 -5 10c1 3 2 5 2 6c0 14 -9 25 -10 29c6 3 11 7 11 10c0 4 -6 7 -16 10c-2 5 -2 10 -2 12v9c0 6 -1 10 -5 17zM83 338l7 -35l6 -25l4 -26c5 -12 5 -14 5 -15c0 -4 1 -7 4 -12l-2 -5l12 -25c6 -17 9 -18 10 -20l6 -12l21 -32
c5 -8 9 -12 12 -12c0 0 3 1 7 3l4 1c7 3 10 9 10 19c12 7 15 11 17 13l12 8c1 2 3 5 18 24c15 0 19 2 26 12h-9v4l13 13l18 21l24 22l19 22c2 2 5 5 11 13l24 24l7 10l16 21c4 5 11 13 19 24l10 7l26 21l7 15c16 19 27 31 33 34l33 37c5 4 15 16 28 35c2 3 5 7 10 13l35 29
v4c-10 6 -13 9 -17 17l-7 -1l-34 23c-13 7 -21 9 -34 11l-7 14c-4 -3 -7 -5 -8 -5s-6 2 -12 6l-32 4l-40 5l-12 -2s8 0 -23 -3l-41 -4l-25 -10c-2 1 -4 2 -8 3l-2 -5c-5 -1 -9 -2 -11 -3c-42 -8 -29 -4 -41 -14c-4 -5 -8 -8 -10 -10l-10 -5l-6 -8h-7c-8 -1 -15 -9 -26 -31
l-23 -26l-18 -21l-4 -12l-16 -32c-2 -5 -4 -11 -5 -18l-14 -51c-1 -2 -1 -5 -1 -7v-9c-5 -5 -6 -7 -7 -13l6 1c1 -2 2 -4 2 -5c0 -2 -2 -5 -4 -9zM188 83h3c9 0 14 -2 23 -13h-5c6 -7 8 -8 18 -11c3 -1 7 -2 11 -4l8 -3c11 -8 15 -10 28 -13c13 -5 17 -7 20 -8
c7 -2 12 -4 12 -4l27 -6s3 -1 7 -3c9 4 12 4 18 -3c5 3 8 4 11 4c1 0 2 0 5 -1s8 -2 14 -3l4 3c5 0 43 3 45 3l41 8c20 7 21 8 29 19c5 0 9 -1 12 -1h1c18 1 67 38 102 77c9 11 13 18 19 32c19 -9 13 13 13 15l-3 6c9 16 11 21 16 40c0 3 1 6 3 11l2 24c5 19 7 29 7 43
c0 9 0 12 -3 23c3 12 5 18 5 25c0 10 -2 19 -6 35l6 3c-2 4 -4 5 -9 5c0 12 -1 16 -5 24l3 3l-2 7h-4l-2 7v19c-7 9 -9 12 -11 22c-6 3 -7 6 -7 16c-9 8 -19 36 -27 50c-7 2 -9 3 -12 11l-8 -5v-6c0 -8 -20 -30 -40 -45l-12 -17l-15 -6c0 -11 -1 -15 -5 -24
c-5 0 -9 -1 -9 -1l-18 -15c-2 -2 -8 -3 -21 -23c-4 -10 -6 -12 -16 -16c-1 -6 -2 -7 -7 -10c-2 -10 -5 -12 -18 -14l2 -9c-7 -3 -9 -5 -13 -12l-25 -27c-11 -10 -14 -13 -19 -26c-10 -5 -12 -9 -13 -10l-10 -9l-34 -38l-12 -13l-13 -6c-11 -10 -1 -11 -6 -18
c-7 -9 -11 -14 -14 -16l-17 -12c-5 -3 -14 -16 -27 -35c-2 -2 -4 -5 -10 -8l-30 -33l-7 -1v-7z" />
    <glyph glyph-name="OE" unicode="&#x152;" horiz-adv-x="961" 
d="M68 479h4c1 5 2 9 2 10l10 17l7 18c1 2 4 5 7 8c9 4 14 9 29 19l18 19c4 4 9 8 17 12c23 14 25 16 34 24c23 13 73 34 104 41c18 6 34 10 38 10c2 0 6 0 10 -2c15 -5 11 7 12 7l15 -4l11 6l10 -1l9 1h24c2 0 -18 -2 91 -2c2 0 5 -3 8 -7c5 4 9 6 11 6c3 0 7 -2 11 -6l3 4
h15h13c5 -1 8 -1 8 -1c2 0 9 1 21 2c4 0 12 -2 42 -1c10 -1 13 -3 22 -12l4 4v6l125 2v-5c6 3 10 5 13 6l9 -1l71 7c3 1 5 -9 5 -18h-7c6 -5 8 -7 8 -13l-3 -25l4 -5l3 -19l-2 -1l4 -5c-2 -9 -3 -20 -3 -28c0 -6 1 -18 4 -32c0 -2 1 -6 2 -11l-6 1l-3 -3c-2 1 -4 1 -5 1
s-4 0 -7 -2c-1 8 -2 13 -2 15l-2 30c-1 5 -3 14 -8 31l-6 13c-2 10 -4 13 -11 18c-17 10 -32 13 -57 13l-4 5l-5 -7c-9 1 -13 2 -16 2c-2 0 -4 -1 -9 -2c-16 0 32 -1 -65 -1l-37 -2c-2 -1 -8 -2 -18 -5c-2 -1 -6 -2 -12 -4l2 -10c-8 -15 -6 -18 -16 -21l5 -8
c-4 -6 -6 -11 -6 -14c0 -2 1 -14 2 -31c1 -4 1 -8 1 -15v-9l4 -1c-7 -15 -9 -22 -9 -28c0 -2 1 -7 2 -16c1 -5 1 -10 1 -18c0 -7 -1 -29 -1 -64c15 -5 20 -6 25 -6c3 0 7 0 12 1l11 2c9 -9 93 4 101 5c5 -2 9 -3 10 -3c3 0 15 5 31 12c15 7 18 12 21 37l3 18c0 2 -1 4 -1 8
l3 1l-4 5l21 1c-1 -6 -1 -10 -2 -13c-2 -12 -3 -21 -3 -26v-4v-3c0 -2 1 -13 2 -30v-2l-3 -40s1 -7 2 -16c0 -1 4 -31 4 -41c-1 -1 -1 -3 -1 -6v-3c0 -7 1 -18 1 -33l-19 -2l1 14l-4 25l4 1l-5 7l3 3l-3 8c-10 36 -24 48 -57 47h-6l-47 -1c-9 -5 -55 1 -57 3
c-14 -5 -17 -5 -21 -5c-2 0 -4 0 -17 2c-2 -9 -2 -14 -3 -20c-1 -14 -2 -53 -2 -88h-5l-1 6c-3 -5 -5 -10 -5 -12c0 -1 0 -3 1 -5l6 7h5c1 -9 1 -15 1 -20c1 -22 1 -42 2 -64c0 -36 1 -42 1 -43c3 -9 5 -16 5 -19c0 -1 0 -4 -1 -8c6 -5 10 -9 12 -11l6 -11c2 -4 9 -7 18 -11
c5 -2 12 -3 23 -5s16 -3 21 -3c2 0 7 1 20 2c18 -4 23 -5 27 -5c3 0 3 0 33 4c43 5 46 5 56 8c3 1 6 2 6 3l20 13c1 1 4 1 9 2c1 15 3 19 17 28c1 10 7 34 5 46c0 0 3 12 7 30c1 4 2 9 3 16l19 1l1 -6h-4c2 -8 2 -13 2 -16c0 -4 -1 -8 -4 -15c0 -2 1 -4 1 -5
c0 -3 -3 -8 -4 -47c-4 -4 -5 -5 -7 -12c6 -4 10 -8 10 -11v-2l-8 -2c-2 -4 -4 -7 -4 -8v-11l-8 -35c0 -2 -1 -6 -1 -11c-49 0 -71 -1 -99 -3c-3 0 -6 -1 -8 -1c-10 0 -15 3 -25 11l-6 -3l3 -5c-12 -1 -24 -1 -35 -1h-12c-15 1 -31 3 -46 4c-24 1 -27 2 -32 2
c0 0 -2 -1 -5 -1c-32 -1 -73 -3 -80 -3c-2 0 -6 0 -11 1l-10 1l-3 -3c-3 0 -5 1 -5 1l-87 -8l-3 3l-9 -3h-43c-1 0 -3 -1 -7 -3l-8 7l-3 -6c-5 0 -9 0 -10 1l-8 2l-66 8c-32 11 -58 17 -57 17c-5 0 -10 1 -17 6l3 7c-3 3 -7 5 -8 5c-2 0 -6 -2 -10 -6c-20 11 -31 18 -50 31
c-24 17 -33 26 -40 39c-26 19 -29 23 -28 42l-6 -1c-16 17 -23 28 -26 43c-4 14 -7 24 -7 25l-6 8c-1 3 -2 10 -1 19c-4 5 -6 8 -6 9l-4 37l-3 20c-1 3 -1 10 -1 17c0 19 2 42 5 50l8 28l8 33c2 8 8 20 18 36zM98 230c39 -39 34 -45 34 -46c0 -2 -1 -5 -3 -8
c13 -6 15 -8 19 -21c1 -3 2 -6 4 -11l-4 -5c14 -1 13 0 29 -18c2 -2 9 -8 20 -16c6 -5 39 -28 33 -41l5 6c23 -1 31 -6 39 -23c10 7 19 -9 38 -7l54 -8h6s7 0 19 1c5 -1 8 -2 11 -3c11 -6 17 -4 25 -2c3 0 7 1 12 0v4c5 2 7 2 8 2l43 -6l15 4l26 6c14 0 37 15 37 35v27l8 14
c1 2 2 5 3 10c-6 0 -7 -1 -9 -6l-4 4c2 6 2 10 2 11v90l1 49l-4 12c-1 2 -2 6 -3 10l7 1c0 5 -1 9 -1 10l3 20l-3 45c1 3 1 8 2 15l1 1l-2 15c0 2 -1 4 -1 6c0 3 1 6 1 9l5 2v8l-7 3l4 33c0 3 -2 7 -1 31c0 2 0 6 -1 12c0 16 -2 24 -1 33c-5 6 -6 8 -7 17v12
c-5 4 -7 7 -8 11l6 4c-2 12 -4 19 -9 24c-12 10 -35 19 -53 21l-59 3c-13 1 -21 2 -25 2c-1 0 -2 0 -3 -1l-60 -7s-3 0 -11 -3l-11 2l-10 -9l-2 6h-17l-2 -12c-22 -4 -56 -20 -74 -35c-8 -7 -49 -34 -41 -29l-39 -43c-13 -8 -14 -9 -13 -24l-7 -2v-7l-9 -18
c-6 -4 -7 -6 -10 -12l-9 1l-4 -19l7 1l5 -8l-6 -4c1 -3 1 -5 1 -6c0 -2 -2 -6 -1 -10c-4 -17 -5 -24 -5 -42v-8l-9 -15c1 -42 16 -44 15 -98z" />
    <glyph glyph-name="ae" unicode="&#xe6;" horiz-adv-x="519" 
d="M22 99h3v7l-4 3c-1 5 -1 8 -1 13c0 2 0 5 1 7l3 16l1 24c1 2 3 5 6 9c6 16 7 18 3 26c1 5 2 10 2 12c1 7 2 12 3 13l6 11l4 22c2 10 5 16 14 27c-1 3 -1 5 -1 6c0 2 1 6 4 11c1 2 3 6 5 11l4 1c0 12 2 18 11 28c6 7 10 12 11 15c3 7 4 8 11 8l-1 9c6 3 8 4 11 11l7 3l1 7
l7 4l3 -3l3 2l-2 7l18 10l5 -3l3 4l-3 2c15 13 27 17 52 17c21 0 47 -4 59 -8l11 -4c2 0 5 -1 10 -3l6 16l8 23c4 4 5 7 5 15l4 1l-1 7c4 -2 8 -3 9 -3c3 0 6 1 10 2c0 -8 0 -10 -2 -17c-9 -44 -11 -62 -11 -89c20 25 28 33 40 35c18 15 31 21 42 21h10c3 2 5 4 7 4
c1 0 4 -1 6 1c4 1 7 2 8 2c2 0 6 -1 9 -4c6 2 11 3 13 3c6 0 15 -4 20 -9l15 -15c1 -1 3 -3 7 -6c2 -5 3 -8 4 -10l2 -14l4 -11v-4v-10l-5 -2l3 -21l-8 -24l-7 -2l3 -3c-10 -24 -34 -48 -54 -55l-5 5c-6 0 -8 -1 -10 -6l7 1l-2 -8c-5 0 -8 -1 -10 -2l-8 -7
c-2 -2 -4 -2 -10 -2h-6l-1 -8c-14 -2 -18 -3 -26 -14l-7 4c-6 -2 -9 -5 -13 -12l-9 4l-4 -7c-17 -7 -22 -9 -40 -12c-1 -5 -1 -8 -1 -10l-1 -25l-3 -17c0 -3 1 -8 3 -14l-6 -10l9 -4l2 -24c11 -19 12 -21 7 -29c5 -7 8 -9 19 -12c4 -10 7 -8 9 -8c1 0 2 -1 3 -1l2 -7l17 -2
l11 7l12 -4l6 5h5l4 4h6l-1 3c4 3 11 5 22 19l8 2l-1 4c14 14 18 20 29 39h5l-2 5l10 5l11 -12c-4 -7 -7 -12 -9 -15c-7 -13 -7 -13 -12 -19c-10 -18 -12 -20 -22 -26l-1 -8l-7 -1l-2 -9l-11 -1c0 -10 -2 -11 -6 -11c-7 -8 -10 -10 -20 -13l-29 -12l-12 -1l-17 1
c-10 0 -18 1 -32 8l2 3l-13 8c-3 -1 -4 -1 -5 -1c-3 0 -8 4 -13 11l1 4l-10 4c-10 16 -8 19 -13 23l-9 32l6 3l-8 9l-3 19l3 1c-3 5 -5 8 -5 11c0 4 1 10 2 18c1 5 1 10 1 17c0 4 0 13 -1 20l-6 -18l-11 -20l-13 -28l-5 -5l-8 -19c3 3 -15 -24 -18 -29c-5 -5 -7 -7 -8 -13
l-7 -1l-25 -31l-2 -8h-7l1 -4c-19 -14 -22 -15 -38 -18c-2 -1 -6 -1 -10 -2c-5 3 -7 4 -11 4h-4c-4 4 -6 6 -8 7l-9 5c-4 2 -7 7 -10 16c-1 3 -2 6 -4 10l-6 14l2 7c-7 17 -8 26 -7 37zM90 48c7 -6 12 -8 17 -8c9 0 16 5 26 17c11 11 15 14 23 29c1 2 3 4 7 8l2 -2
c0 9 0 9 20 37c4 5 10 19 18 40c1 3 3 8 5 14c2 -1 3 -1 4 -1c2 0 6 2 10 5l-2 8l9 3l-6 19c2 5 3 9 4 11l13 32l13 49c1 3 3 6 6 7c0 9 0 15 1 17l10 33c0 1 1 5 1 11h3v5c-7 3 -13 5 -17 6c-18 3 -18 3 -23 9h-8h-3c-3 -1 -4 -1 -5 -1c-2 0 -4 1 -8 4c-8 0 -15 -3 -23 1
c-3 -2 -6 -3 -8 -3c-1 0 -2 0 -4 1c-6 -3 -9 -5 -12 -7c-16 -13 -15 -12 -21 -12l-1 -9c-6 -3 -8 -6 -9 -15c-9 -1 -11 -3 -10 -16l-11 -6l6 -3v-7l-8 -6c3 -3 5 -6 5 -6l-9 -26l-1 -11l-3 -11v-11l-9 -41l-3 -28c-4 -9 -6 -15 -6 -16s1 -2 2 -4c-3 -4 -4 -8 -4 -10
s1 -5 3 -9c-3 -15 -4 -24 -3 -33v-9c0 -10 0 -17 1 -19l2 -16l1 -11c1 -2 2 -5 5 -9zM285 219c5 3 8 4 10 4l30 5l14 7l8 2c2 1 5 3 9 6l30 15c6 0 8 1 17 7l14 21h6l6 13c7 4 8 6 17 22c6 15 9 22 9 30c0 21 -4 28 -14 36l-6 13c-5 0 -9 1 -11 1c-9 2 -15 3 -16 3
c0 0 -7 -2 -18 -5c-2 -1 -6 -2 -11 -2c-3 -7 -5 -8 -13 -8c-6 -10 -9 -12 -18 -12c-2 -7 -4 -12 -6 -14l-17 -28l-9 -30c-1 -2 -3 -3 -6 -5c1 -5 2 -8 2 -11c0 -6 -5 -11 -18 -17c1 -6 2 -7 8 -8l-4 -25c-11 -3 -17 -8 -17 -13c0 -1 0 -2 1 -3z" />
    <glyph glyph-name="dotlessi" unicode="&#x131;" horiz-adv-x="220" 
d="M13 372l2 8l9 7h5v6l9 3l14 14l11 6c52 25 50 24 60 24c18 0 35 -16 35 -33l1 -39l2 -20l-5 -11l-1 -9l-5 -12c1 -4 2 -7 2 -9s-1 -5 -2 -10l4 -6c-10 -12 -11 -15 -11 -27l-6 -2v-5l-6 -4c7 -9 9 -14 9 -19s-3 -13 -9 -23l-4 -40l5 -9l-9 -4c6 -5 10 -11 10 -14l-3 -15
l-2 -12l-3 -27c-2 -13 -3 -16 -3 -17c0 -3 2 -9 5 -16l5 -10c7 -4 12 -6 16 -6l21 5c3 3 4 3 6 3c7 0 18 7 25 16c10 13 13 14 21 15l10 -14c-40 -41 -69 -62 -93 -68l-1 -4c-14 -6 -20 -7 -28 -7c-25 0 -40 15 -41 43c-3 7 -5 14 -5 18l1 5l4 41l2 28v6l-2 13l-1 4l1 9l5 3
l1 13l7 35l-1 23l5 19l3 25l9 18l-2 23l1 41l-5 16c-4 15 -6 19 -14 19c-14 0 -27 -7 -54 -29z" />
    <glyph glyph-name="oslash" unicode="&#xf8;" horiz-adv-x="334" 
d="M28 221l4 1c-1 4 -1 8 -2 10c0 3 -1 6 -1 7c0 11 6 22 17 34v18l9 6c-1 3 -2 5 -2 6c0 6 5 14 13 22l-3 9c4 4 7 8 8 10l3 10c0 1 3 4 7 7v5h6v3c0 2 1 6 4 10c2 3 4 6 7 11l7 -2l2 2l-2 6c16 14 20 18 26 21c18 12 45 22 61 22c14 0 40 -5 56 -11l2 -5h4l19 38l25 -12
l-5 -10c-15 -32 -14 -29 -15 -43l15 -14v-4l6 -5v-13l13 -40c1 -3 1 -5 1 -7l-1 -26l1 -42c2 -40 -11 -49 -13 -53l6 -4l-16 -17l8 -13l-8 -3l2 -2l-9 -15h9c-3 -11 -5 -17 -6 -20l-9 -13l-10 -27l-12 -15c-1 -2 -2 -5 -3 -9c-5 -4 -7 -7 -9 -8l-18 -20l-33 -23l-6 -6
l-18 -4l-25 -7c-2 0 -4 -1 -7 -1c-4 0 -12 1 -20 1c-2 1 -5 1 -10 1l-35 11c-2 -4 -4 -7 -6 -9c-11 -18 -12 -21 -18 -38l-7 2l-1 4c-8 0 -11 0 -17 3c2 5 3 8 4 10l26 47s-1 1 -2 3c-15 27 -18 36 -21 53l-5 5c1 4 2 6 2 7l-6 47v5v1v16c0 37 0 36 5 55zM79 98
c-2 -5 -3 -9 -3 -10c0 -3 1 -6 3 -11c7 8 9 13 15 31l5 2c1 5 2 8 3 9l13 25l16 35l25 46c2 4 4 11 7 19l7 1c2 5 4 9 4 11l-1 8c0 3 3 8 9 17c2 2 4 5 6 9l5 -1c3 4 6 8 6 11c0 1 -1 4 -3 7c3 4 5 7 6 9l9 18l9 9l9 29c1 2 3 6 6 11l-28 18l-7 2c-5 2 -8 2 -11 2
c0 0 -6 -1 -15 -3c-3 0 -7 -1 -13 -1l-2 -5c-6 0 -9 -1 -10 -3l-7 -8c-1 -1 -4 -3 -9 -5c-17 -23 -23 -37 -28 -58l-7 -31l-6 -19c0 -2 -1 -7 -1 -13c0 -3 -1 -8 -1 -13l5 -5c-7 -9 -11 -15 -11 -18l-1 -30l-3 -15l1 -21c0 -4 -2 -10 -5 -17l5 -8c-11 -23 0 -28 -2 -34z
M95 53c3 -3 5 -5 6 -7l11 -12c1 -1 4 -2 10 -4c2 -1 5 -3 9 -5l8 1v-6c4 3 7 4 8 4h16l14 4c1 -1 2 -1 3 -2l7 5v-7c1 9 3 12 9 14l20 38l6 -2l4 4l-5 4l1 7h6l3 6l-6 1v5l10 8l-4 1l-1 7c7 9 8 13 9 32l4 3l-2 8c2 6 3 10 3 11l4 38l3 13l-1 21l4 21l-3 35c1 1 1 4 2 7
l-4 12h6v7c-6 3 -7 4 -9 10l9 17l-5 4l-115 -226c-5 -3 -9 -6 -9 -8l-3 -14l-7 -6l-5 -18l-12 -21c-1 -1 -2 -5 -4 -10z" />
    <glyph glyph-name="oe" unicode="&#x153;" horiz-adv-x="535" 
d="M30 140l-2 3l-4 -3l-3 3l1 22l8 3l-1 3h-3c-2 3 -4 6 -4 8c0 0 0 1 1 2l3 4l-3 3l2 6c-1 17 2 20 2 22l5 2l-4 3c1 5 2 8 3 10l7 28l3 12l10 29c0 3 -1 8 -3 14c6 3 11 5 11 7l9 19c0 1 3 4 7 8c0 6 1 8 7 11l9 18l7 4c16 25 31 37 58 50c12 5 30 11 38 11
c4 0 8 -2 14 -6l-1 4h6l1 -4l8 3l3 -6c2 2 5 3 6 3c-2 0 34 -18 53 -37l1 -7l8 -3c0 -4 1 -8 2 -10c6 -20 10 -34 10 -36s-3 -8 -10 -20l2 -3c10 4 12 6 12 19l6 5l1 -5l11 22c25 49 66 76 112 75l11 -1h3h16l1 -3c30 0 52 -30 52 -72c0 -22 -2 -27 -28 -70
c-1 -2 -3 -5 -14 -13c-4 -5 -8 -9 -10 -11c-8 -10 -10 -11 -18 -15l-1 -5c-7 -1 -9 -2 -13 -8h-7l-3 -7c-7 1 -9 0 -12 -6c-5 -2 -10 -4 -12 -6c-15 -7 -26 -11 -32 -11c-1 0 -4 1 -8 2l-7 -7h-6c-7 -4 -10 -5 -19 -5l-2 -3l-14 1l-9 -5v-19l-3 -9l-5 -3c4 -6 5 -10 5 -20
l-8 -8l9 -5c-2 -4 -2 -8 -2 -10c0 -3 0 -7 2 -13l4 -4l-3 -11c6 -5 9 -10 9 -14c0 -1 0 -3 2 -10c0 -6 0 -6 6 -11c2 -2 5 -5 8 -9l-1 -4c11 -2 13 -3 20 -10l7 1l4 -6c5 1 9 1 11 2c6 2 11 3 12 3s2 0 5 -1c10 4 14 6 21 11l6 1v3l32 27h5c8 13 9 15 20 27c2 2 4 5 8 8
l13 -14c-3 -4 -6 -7 -6 -9l-7 -14c-2 -3 -10 -12 -23 -26c-7 -8 -12 -11 -21 -17c-3 -4 -6 -6 -7 -8c-10 -12 -12 -14 -25 -16v-4c-25 -11 -44 -16 -59 -16c-24 0 -59 18 -66 34l-7 17l-8 11c-2 3 -3 9 -3 17l3 -1l2 6l-8 1l-1 23c-5 -6 -8 -10 -8 -11l-17 -37
c-15 -34 -61 -60 -105 -60c-17 0 -28 2 -35 7l-17 11l-13 6l-7 12l-11 12c-1 2 -2 6 -2 10l-3 1l-2 6h5l-10 8l-4 20v20c3 4 4 8 4 10s-2 5 -5 10l3 -12l-9 -1c-1 1 -1 3 -1 3v7l-1 16c0 2 3 6 10 11zM83 146c-1 -6 -1 -11 -1 -13c0 -17 7 -53 14 -73c4 -11 10 -19 24 -30h7
l2 -4l6 2c14 -5 7 -7 12 -7c16 0 39 7 58 29l9 9c3 15 3 16 8 19c1 14 2 15 9 32c4 12 9 34 15 65c0 3 1 7 2 12c10 1 13 2 20 12c-2 2 -3 5 -3 7v2l-12 -3v19l10 8l-7 5l4 23c4 6 7 49 -1 52l-2 11l5 1c-2 5 -3 6 -7 7v5v9v4c0 15 -18 35 -45 50h-4l-3 5c-2 -1 -4 -2 -5 -2
s-3 1 -5 3l-4 -3l-5 1l-1 3c-4 -2 -7 -3 -9 -4c-31 -11 -34 -13 -48 -35l-13 -31c1 -11 0 -14 -14 -41l5 -17c-2 -6 -3 -8 -11 -13c1 -5 1 -8 2 -10v-2c0 -5 -3 -17 -8 -32c-1 -2 -2 -6 -3 -11l1 -29l-8 -6l7 -5c-3 -6 -2 -11 -1 -24zM318 222c2 1 4 1 6 1s5 -1 9 -2l4 6
c5 2 9 3 12 4c17 4 28 8 31 10l6 4c2 2 8 4 21 14c11 6 14 8 22 18c6 1 9 3 10 6l6 2c7 3 11 6 11 9c0 1 -1 2 -2 4h-4c0 7 2 11 7 19l5 -1v3c-4 5 -6 9 -6 11c0 3 3 8 9 13v6c0 3 0 5 2 9c0 8 -1 11 -6 17l2 6l-4 1l-1 7l-22 13l-9 -2l-12 3l-3 -6c-13 0 -19 -2 -27 -7
c-25 -18 -53 -62 -59 -93l-12 -58c-1 -6 -1 -10 0 -12z" />
    <glyph glyph-name="germandbls" unicode="&#xdf;" horiz-adv-x="389" 
d="M-93 -269c0 6 1 10 1 11l9 26c0 1 1 5 2 10c11 -2 14 -3 22 -9l5 3c3 -3 6 -5 7 -5c14 1 16 0 39 0c1 0 8 2 18 6c2 2 7 3 13 9c5 3 7 4 8 8c7 10 16 24 17 35c24 7 6 19 6 19l7 56l2 40c1 7 1 12 4 31c2 7 3 14 4 21v4l-1 21c0 1 1 3 1 7l5 5c0 4 -1 8 -2 10
c0 4 -1 6 -1 8c0 3 4 11 8 58l-3 7c4 19 6 29 6 38l1 23v10l12 171l4 29c0 2 -1 4 -1 8c-4 -1 -6 -1 -8 -1s-5 1 -9 2c-2 -3 -5 -5 -6 -5l-40 3c-1 0 -5 -1 -10 -3v21c11 0 14 1 38 4l2 5c3 -1 5 -2 6 -2c2 0 9 3 19 7c2 1 5 2 9 3c3 8 4 13 4 14l2 45l6 25l5 35l8 22
c1 2 1 7 2 12h7v5c-3 15 -1 18 12 37c2 15 3 17 21 46c7 11 1 15 6 22l10 -3c15 22 14 21 30 32c32 23 53 32 74 32c2 0 11 0 23 -1c9 0 13 0 24 -1l1 -4h9c16 -2 29 -15 34 -21l7 -7c11 -10 24 -43 24 -61c0 -5 -2 -15 -3 -25c-1 -5 -3 -13 -4 -22v-9c-2 -5 -3 -9 -4 -11
c-7 -20 -14 -34 -19 -41l-30 -42c-5 -9 -8 -11 -12 -13v-6l-11 -5l2 -6c-2 -3 -12 -16 -13 -17l-19 -18l-7 -8c-2 -1 -5 -2 -9 -2c-2 -7 -5 -12 -16 -22c-14 -18 -15 -21 -21 -25c-11 -19 -12 -23 -14 -38l-8 -5l7 -3v-6h-3c8 -19 14 -29 23 -37c12 -11 15 -14 23 -17
c4 -12 8 -16 37 -37c12 -8 22 -19 30 -31l17 -26c7 -11 8 -14 10 -27c0 -2 1 -3 1 -3l-2 -19c-1 -1 1 -3 2 -6l-4 -2c-1 -21 -2 -26 -8 -45c-3 -5 -5 -9 -10 -26c-1 -1 -4 -5 -12 -16c-5 -2 -8 -3 -9 -3h-9c-4 0 -10 -5 -15 -13l4 -6c-5 -3 -9 -5 -11 -7
c-16 -11 -19 -13 -23 -13c-3 0 -7 1 -10 -2l-19 -4l-5 -1l-16 5c-21 -2 -26 -2 -29 -2c-12 0 -19 2 -31 11l-5 -2c-2 3 -3 6 -3 7s0 4 2 8c1 3 3 10 4 19c0 4 1 10 2 18l7 2l5 -4c10 0 14 -2 25 -10l12 -1c23 -3 28 -2 32 -3c13 -5 11 -1 31 -1h4l14 7l10 3c6 3 10 9 14 22
h3c1 4 2 7 2 8l-1 21c0 1 0 4 1 8c1 5 2 10 2 14c0 8 -6 20 -17 39c-2 2 -4 6 -7 12c-5 4 -8 8 -10 9l-27 30c-13 12 -14 14 -16 17c-19 12 -25 18 -44 48l-5 9c-6 25 -7 32 -7 40c0 33 22 71 61 106c4 7 7 11 9 14l26 30c11 15 12 15 22 27c8 7 9 12 9 12l31 55
c2 4 6 17 11 38c2 8 3 16 3 22c0 22 -10 48 -19 54c-14 7 -17 10 -23 12c-7 3 -12 5 -15 7c-11 6 -12 4 -20 5c-5 -1 -8 -1 -10 2c-5 -1 -9 -1 -12 -1s-6 -3 -11 -4l-11 1c-3 -3 -6 -5 -7 -6c-11 -9 -18 -15 -19 -16l-7 -14l-9 -17l-7 -32l-5 -14v-5v-11
c-7 -34 -7 -35 -7 -36l-5 -23s1 -2 0 -14l-3 -26l-1 -8c-4 -12 -5 -16 -5 -16l1 -18s-1 -9 -4 -23c-1 -3 -1 -6 -2 -11l7 -2c-3 -14 -6 -17 -15 -23c3 -8 4 -13 4 -17c0 -1 -1 -2 -1 -3l-9 -84l2 -15l-10 -30l3 -6l-3 -41c0 -2 0 -4 1 -6l-14 -3c5 -6 2 -11 9 -6
c2 -6 3 -12 3 -14c0 -1 -2 -13 -5 -29l-6 -46c1 -5 2 -9 2 -11c0 -4 -2 -13 -5 -27c-1 -3 -2 -7 -2 -12l1 -17c-3 -6 1 -2 -8 -44l2 -4l-5 -3c1 -4 1 -6 1 -6l-5 -40l-2 -13c-1 -1 -2 -3 1 -13c-6 -7 -6 -7 -6 -21c-1 -2 -1 -6 -6 -22l-20 -50l-6 -4l-8 -22l-5 1
c-4 -11 -7 -15 -16 -23c-20 -20 -37 -32 -46 -32l-37 -1c-4 -1 -8 -2 -10 -3c-5 -2 -9 -3 -12 -3s-6 2 -10 5l-7 -1z" />
    <glyph glyph-name="logicalnot" unicode="&#xac;" 
d="M483 133h-50v179h-365v50h415v-229z" />
    <glyph glyph-name="plusminus" unicode="&#xb1;" 
d="M516 273h-215v-205h-51v205h-215v50h215v204h51v-204h215v-50zM516 -37h-481v50h481v-50z" />
    <glyph glyph-name="divide" unicode="&#xf7;" 
d="M323 429c0 -26 -21 -47 -47 -47c-27 0 -48 21 -48 47c0 27 21 48 48 48c26 0 47 -21 47 -48zM516 224h-481v50h481v-50zM323 69c0 -26 -21 -47 -47 -47c-27 0 -48 21 -48 47c0 27 21 48 48 48c26 0 47 -21 47 -48z" />
    <glyph glyph-name="minus" unicode="&#x2212;" 
d="M516 224h-481v50h481v-50z" />
    <glyph glyph-name="multiply" unicode="&#xd7;" 
d="M503 57l-35 -35l-193 191l-193 -192l-35 36l193 192l-192 192l36 36l192 -192l192 192l35 -36l-192 -192z" />
    <glyph glyph-name="Aacute" unicode="&#xc1;" horiz-adv-x="816" 
d="M3 1l4 12l-1 9h7l19 -1c5 0 10 3 17 9h5c2 3 3 4 9 7l12 7v5l17 21l4 12l5 10l8 2l-1 11l4 9c4 4 7 8 7 11c0 0 -1 2 2 17h8c9 18 9 20 10 28l10 19l9 5l-5 13l9 -1v15c11 2 8 8 12 21c6 4 7 5 7 12l10 21l13 21c3 21 4 24 14 29v9l8 1l-3 9l3 2c8 12 10 16 12 28h7l3 8
l-2 9c6 4 7 6 8 14l10 18c5 4 5 5 6 11l13 22l6 2l-5 5l3 5l-2 5l18 24l19 34c6 6 9 11 9 14l-1 4l7 3c3 16 5 21 16 31c0 13 2 16 20 32c3 1 8 19 17 27c10 14 11 26 19 34c2 -8 7 -12 8 -14l8 -17l13 -19l9 -11c-3 -3 -4 -7 -4 -8c0 -3 1 -6 4 -10v3l9 -2l4 -11l8 -12
l2 -9l7 -7l4 -16l8 -4l2 -16l8 -10l8 -8c7 -21 6 -20 13 -29l-2 -5l3 -8l5 -1l3 -9c2 -12 2 -12 8 -18l8 -9l-3 -5l8 -7v-5c3 -3 3 -3 6 -10c2 -3 4 -8 8 -13v-6c4 -6 6 -12 6 -15c0 -2 -1 -4 -2 -7l8 1l3 -7l6 -21l7 -2l26 -53l15 -34c7 -15 8 -17 12 -23
c9 -13 10 -15 12 -25l2 -10l7 -4l-1 -10c10 -8 12 -11 15 -21l3 -9c2 -10 4 -13 8 -18v-4c6 -5 7 -7 7 -15c11 -13 12 -14 14 -23l9 -16l5 -4v-6c5 -3 6 -4 7 -11l17 -15c23 -9 33 -11 60 -11l4 -5l-1 -5l-10 2l-2 -7l-10 -1h-5c-2 0 -5 1 -9 3h-11l-15 -2l-4 6
c-5 -3 -8 -5 -11 -5c-2 0 -5 2 -9 5l-5 -1l-8 3l-11 -9l-6 9c-4 -5 -6 -6 -20 2c-3 -6 -5 -7 -10 -7c-9 1 -11 0 -22 4c-15 -5 -17 -8 -30 -2l-5 -4l-6 3l-11 -4l-25 -2l-11 -1c-2 4 -3 8 -3 10s1 4 2 7l12 3l34 6c28 6 42 20 42 44c0 10 -3 21 -8 31c-10 18 -9 16 -10 26
l-8 5v4l4 2l-1 4c-3 5 -6 9 -6 12c0 1 1 3 -5 18l-8 7l-10 16l-14 32l-12 23l-3 10l4 6l-5 3l-12 -13l-5 3l-17 -3l-9 3l-6 -3l-40 4l-40 -3s-2 1 -5 1l-3 10h-7c-5 -7 -6 -8 -14 -10l-4 9c-6 0 -7 0 -9 -5c-3 -2 -5 -2 -6 -2c-2 0 -5 1 -9 3l-18 2c-7 -4 -11 -6 -16 -6
c-6 0 -8 8 -13 8c-1 0 -4 0 -7 2l-15 -9l-14 5l-5 -6l-63 -2c-9 -8 -10 -11 -17 -28c-1 -3 -2 -6 -7 -16l-5 -10c-5 -9 -6 -12 -8 -20l-9 -1c5 -7 6 -11 6 -22c-16 -18 -15 -15 -17 -24l-5 -3l-3 -19c-12 1 -19 -2 -19 -8c0 -2 2 -4 5 -6v8l6 1c1 -3 2 -5 2 -6
c0 -3 -2 -7 -6 -12l-4 -2l-2 7h-3l1 -10h5l3 -6l-7 -15c19 -34 39 -47 80 -47h8l3 -3c-2 -1 -3 -9 -3 -11c0 -1 1 -2 1 -4l-3 -3l-10 3l-28 1l-10 2l-14 -1l-14 4l-10 -2l-4 5l-12 -4l-12 5h-23l-3 -4c-6 -1 -10 -2 -13 -2s-8 1 -14 3l-28 -4l-24 -3c-1 0 -2 1 -5 2z
M236 289c3 -1 5 -1 6 -1l13 3l44 -1l57 2c1 0 3 0 5 -1l5 5l42 -7l13 2h24l13 4c9 0 13 0 15 -6l7 -3l10 6l12 -1l18 -3l12 2l11 3l-7 25l-9 7l-4 11l-6 8l-1 7h8l-9 8c-10 9 -14 14 -14 18c0 2 1 3 -15 29c1 7 3 8 10 8v7c-15 0 -16 1 -24 19l-6 11l2 8l1 8l-5 -3l-6 1
c1 3 1 5 1 6c0 3 -2 8 -5 13h-7l-10 21l-18 32l-9 24c-3 6 -6 10 -17 24l-13 -22l-25 -50c-6 -12 -6 -12 -26 -23l1 -6l8 1c-4 -16 -7 -19 -17 -23v-10l-10 -19c-9 -20 -11 -24 -20 -35c-11 -21 -13 -23 -12 -32l-6 -5v-6l-7 -5c-1 -10 -2 -11 -8 -19c-6 -9 -13 -23 -22 -42
zM339 758l3 23l22 4c6 2 10 3 13 4c5 2 9 3 11 3s4 0 8 -2c3 3 6 5 8 6c6 5 11 7 14 7h3l17 18l5 -2c4 4 7 7 9 8l7 9l16 12c4 4 10 11 16 20c4 -4 6 -7 6 -8l4 -17l5 -13l2 -7c0 -2 2 -6 4 -11l-4 -3h-6v-4c-21 -16 -27 -20 -36 -20c-3 0 -8 1 -13 2l-1 -9
c-16 -7 -26 -11 -34 -13l-29 -6c-2 -1 -6 -2 -11 -3l-3 3z" />
    <glyph glyph-name="Acircumflex" unicode="&#xc2;" horiz-adv-x="816" 
d="M3 1l4 12l-1 9h7l19 -1c5 0 10 3 17 9h5c2 3 3 4 9 7l12 7v5l17 21l4 12l5 10l8 2l-1 11l4 9c4 4 7 8 7 11c0 0 -1 2 2 17h8c9 18 9 20 10 28l10 19l9 5l-5 13l9 -1v15c11 2 8 8 12 21c6 4 7 5 7 12l10 21l13 21c3 21 4 24 14 29v9l8 1l-3 9l3 2c8 12 10 16 12 28h7l3 8
l-2 9c6 4 7 6 8 14l10 18c5 4 5 5 6 11l13 22l6 2l-5 5l3 5l-2 5l18 24l19 34c6 6 9 11 9 14l-1 4l7 3c3 16 5 21 16 31c0 13 2 16 20 32c3 1 8 19 17 27c10 14 11 26 19 34c2 -8 7 -12 8 -14l8 -17l13 -19l9 -11c-3 -3 -4 -7 -4 -8c0 -3 1 -6 4 -10v3l9 -2l4 -11l8 -12
l2 -9l7 -7l4 -16l8 -4l2 -16l8 -10l8 -8c7 -21 6 -20 13 -29l-2 -5l3 -8l5 -1l3 -9c2 -12 2 -12 8 -18l8 -9l-3 -5l8 -7v-5c3 -3 3 -3 6 -10c2 -3 4 -8 8 -13v-6c4 -6 6 -12 6 -15c0 -2 -1 -4 -2 -7l8 1l3 -7l6 -21l7 -2l26 -53l15 -34c7 -15 8 -17 12 -23
c9 -13 10 -15 12 -25l2 -10l7 -4l-1 -10c10 -8 12 -11 15 -21l3 -9c2 -10 4 -13 8 -18v-4c6 -5 7 -7 7 -15c11 -13 12 -14 14 -23l9 -16l5 -4v-6c5 -3 6 -4 7 -11l17 -15c23 -9 33 -11 60 -11l4 -5l-1 -5l-10 2l-2 -7l-10 -1h-5c-2 0 -5 1 -9 3h-11l-15 -2l-4 6
c-5 -3 -8 -5 -11 -5c-2 0 -5 2 -9 5l-5 -1l-8 3l-11 -9l-6 9c-4 -5 -6 -6 -20 2c-3 -6 -5 -7 -10 -7c-9 1 -11 0 -22 4c-15 -5 -17 -8 -30 -2l-5 -4l-6 3l-11 -4l-25 -2l-11 -1c-2 4 -3 8 -3 10s1 4 2 7l12 3l34 6c28 6 42 20 42 44c0 10 -3 21 -8 31c-10 18 -9 16 -10 26
l-8 5v4l4 2l-1 4c-3 5 -6 9 -6 12c0 1 1 3 -5 18l-8 7l-10 16l-14 32l-12 23l-3 10l4 6l-5 3l-12 -13l-5 3l-17 -3l-9 3l-6 -3l-40 4l-40 -3s-2 1 -5 1l-3 10h-7c-5 -7 -6 -8 -14 -10l-4 9c-6 0 -7 0 -9 -5c-3 -2 -5 -2 -6 -2c-2 0 -5 1 -9 3l-18 2c-7 -4 -11 -6 -16 -6
c-6 0 -8 8 -13 8c-1 0 -4 0 -7 2l-15 -9l-14 5l-5 -6l-63 -2c-9 -8 -10 -11 -17 -28c-1 -3 -2 -6 -7 -16l-5 -10c-5 -9 -6 -12 -8 -20l-9 -1c5 -7 6 -11 6 -22c-16 -18 -15 -15 -17 -24l-5 -3l-3 -19c-12 1 -19 -2 -19 -8c0 -2 2 -4 5 -6v8l6 1c1 -3 2 -5 2 -6
c0 -3 -2 -7 -6 -12l-4 -2l-2 7h-3l1 -10h5l3 -6l-7 -15c19 -34 39 -47 80 -47h8l3 -3c-2 -1 -3 -9 -3 -11c0 -1 1 -2 1 -4l-3 -3l-10 3l-28 1l-10 2l-14 -1l-14 4l-10 -2l-4 5l-12 -4l-12 5h-23l-3 -4c-6 -1 -10 -2 -13 -2s-8 1 -14 3l-28 -4l-24 -3c-1 0 -2 1 -5 2z
M236 289c3 -1 5 -1 6 -1l13 3l44 -1l57 2c1 0 3 0 5 -1l5 5l42 -7l13 2h24l13 4c9 0 13 0 15 -6l7 -3l10 6l12 -1l18 -3l12 2l11 3l-7 25l-9 7l-4 11l-6 8l-1 7h8l-9 8c-10 9 -14 14 -14 18c0 2 1 3 -15 29c1 7 3 8 10 8v7c-15 0 -16 1 -24 19l-6 11l2 8l1 8l-5 -3l-6 1
c1 3 1 5 1 6c0 3 -2 8 -5 13h-7l-10 21l-18 32l-9 24c-3 6 -6 10 -17 24l-13 -22l-25 -50c-6 -12 -6 -12 -26 -23l1 -6l8 1c-4 -16 -7 -19 -17 -23v-10l-10 -19c-9 -20 -11 -24 -20 -35c-11 -21 -13 -23 -12 -32l-6 -5v-6l-7 -5c-1 -10 -2 -11 -8 -19c-6 -9 -13 -23 -22 -42
zM284 768l2 3l-1 19h12c24 1 27 3 33 17l8 -4l6 6l6 -2l7 7l32 28c2 1 7 6 13 13c1 7 2 9 8 15c11 -18 13 -20 29 -35l1 -6c7 -1 7 0 17 -9c2 -2 6 -4 11 -6l-8 -4l5 -6l19 7c10 -11 14 -14 32 -18c3 0 7 -1 12 -2l5 -8c-3 -2 -4 -4 -4 -6c0 -1 0 -2 1 -4l-4 -7
c-5 1 -9 1 -11 1c-20 1 -22 1 -35 7l-3 -2c-11 2 -14 3 -19 11l-2 -5l-4 1l-3 4l-3 -2l-21 8l-4 6l-6 -3c-7 6 -11 8 -15 8c-3 0 -2 1 -26 -14l-10 -5l-2 -4c-5 0 -8 -1 -9 -2l-11 -5c0 -1 -2 -1 -5 -1h-5l-34 -6c-3 0 -6 -1 -12 -1z" />
    </font>
</defs>
</svg>
