<svg
	xmlns="http://www.w3.org/2000/svg"
    version="1.1"
>
    <path 
        class="shape"
        d=" M 510 500
            L 510 300
            L 10 300
            L 10 500
            L 12 480
            L 100 480
            L 102 500
            L 104 520
            L 106 500
            L 108 480
            L 110 500
            L 112 520
            L 114 500
            L 116 480
            L 118 500
            L 120 520
            Z"
    />
    
    <!--
    <path 
        class="shape"
        d=" M510 500
            L510 300
            10 300
            10 500
            12 480
            14 500
            16 520
            18 500
            20 480
            22 500
            24 520
            26 500
            28 480
            30 500
            32 520
            34 500
            36 480
            38 500
            40 520
            42 500
            44 480
            46 500
            48 520
            50 500
            52 480
            54 500
            56 520
            58 500
            60 480
            62 500
            64 520
            66 500
            68 480
            70 500
            72 520
            74 500
            76 480
            78 500
            80 520
            82 500
            84 480
            86 500
            88 520
            90 500
            92 480
            94 500
            96 520
            98 500
            100 480
            102 500
            104 520
            106 500
            108 480
            110 500
            112 520
            114 500
            116 480
            118 500
            120 520
            122 500
            124 480
            126 500
            128 520
            130 500
            132 480
            134 500
            136 520
            138 500
            140 480
            142 500
            144 520
            146 500
            148 480
            150 500
            152 520
            154 500
            156 480
            158 500
            160 520
            162 500
            164 480
            166 500
            168 520
            170 500
            172 480
            174 500
            176 520
            178 500
            180 480
            182 500
            184 520
            186 500
            188 480
            190 500
            192 520
            194 500
            196 480
            198 500
            200 520
            202 500
            204 480
            206 500
            208 520
            210 500
            212 480
            214 500
            216 520
            218 500
            220 480
            222 500
            224 520
            226 500
            228 480
            230 500
            232 520
            234 500
            236 480
            238 500
            240 520
            242 500
            244 480
            246 500
            248 520
            250 500
            252 480
            254 500
            256 520
            258 500
            260 480
            262 500
            264 520
            266 500
            268 480
            270 500
            272 520
            274 500
            276 480
            278 500
            280 520
            282 500
            284 480
            286 500
            288 520
            290 500
            292 480
            294 500
            296 520
            298 500
            300 480
            302 500
            304 520
            306 500
            308 480
            310 500
            312 520
            314 500
            316 480
            318 500
            320 520
            322 500
            324 480
            326 500
            328 520
            330 500
            332 480
            334 500
            336 520
            338 500
            340 480
            342 500
            344 520
            346 500
            348 480
            350 500
            352 520
            354 500
            356 480
            358 500
            360 520
            362 500
            364 480
            366 500
            368 520
            370 500
            372 480
            374 500
            376 520
            378 500
            380 480
            382 500
            384 520
            386 500
            388 480
            390 500
            392 520
            394 500
            396 480
            398 500
            400 520
            402 500
            404 480
            406 500
            408 520
            410 500
            412 480
            414 500
            416 520
            418 500
            420 480
            422 500
            424 520
            426 500
            428 480
            430 500
            432 520
            434 500
            436 480
            438 500
            440 520
            442 500
            444 480
            446 500
            448 520
            450 500
            452 480
            454 500
            456 520
            458 500
            460 480
            462 500
            464 520
            466 500
            468 480
            470 500
            472 520
            474 500
            476 480
            478 500
            480 520
            482 500
            484 480
            486 500
            488 520
            490 500
            492 480
            494 500
            496 520
            498 500
            500 480
            502 500
            504 520
            506 500
            508 480
            510 500"
    />
    -->
</svg>
