<?xml version="1.0"?>
<svg 
		xmlns="http://www.w3.org/2000/svg"
		viewBox="0 -1000 1000 1000" 
		version="1.1"
		width="1000"
		height="1000"
>
	<path
		class="shape"
		d=" 
		M 192 794 L 192 128 C 192 6 235 -23 374 -23 L 702 -23 
		C 843 -23 870 33 886 209 C 867 214 838 226 820 237 
		C 808 79 793 40 703 40 L 371 40 
		C 279 40 261 57 261 126 L 261 794 Z
		"
	/>
	<!--
		<path
    		class="shape"
    		d=" 
						M 468  -195
						C 468  -96   387  -76   320  -76
						L 200  -76
						L 200  -324
						L 324  -324
						C 403  -324  468  -296  468  -195
						Z
		
						M 441  -509
						C 441  -431  397  -397  317  -397
						L 200  -397
						L 200  -614
						L 309  -614
						C 391  -614  441  -585  441  -509
						Z
		
						M 568  -197
						C 568  -311  487  -351  418  -364
						L 418  -368
						C 476  -381  538  -427  538  -515
						C 538  -650  415  -689  292  -689
						L 105  -689
						L 105  0
						L 307  0
						C 436  0     568  -46   568  -197
						Z
			"
    />
	-->
	<!--
  	<path
    	class="shape"
    	d=" M 468  -195
			C 468  -96   387  -76   320  -76
			L 200  -76
			L 200  -324
			L 324  -324
			C 403  -324  468  -296  468  -195
			Z
		
			M 441  -509
			C 441  -431  397  -397  317  -397
			L 200  -397
			L 200  -614
			L 309  -614
			C 391  -614  441  -585  441  -509
			Z
		
			M 568  -197
			C 568  -311  487  -351  418  -364
			L 418  -368
			C 476  -381  538  -427  538  -515
			C 538  -650  415  -689  292  -689
			L 105  -689
			L 105  0
			L 307  0
			C 436  0     568  -46   568  -197
			Z
		"
    	/>
		-->
</svg>

