
<svg 
    version="1.1" 
    xmlns="http://www.w3.org/2000/svg" 
    xmlns:xlink="http://www.w3.org/1999/xlink" 
    width="552" height="472"
>
<!--<path
        class="shape"
        d="M 187.41490090898841 -116.81790390763862
C 183.04673699064278 -116.81790390763864 183.15296706521468 -108.33576088145114 188.52266425584713 -97.7013073141799 
C 188.21950949048932 -95.33215540618068 188.57637290407 -91.97219039987746 189.52265717370986 -87.34307291536507 
C 191.4632547550597 -87.13299793302279 193.39163490516765 -87.04518064340715 195.25465692813717 -87.12325736705537 
C 197.42388406132008 -84.3195705455534 199.92879752416138 -81.50720790928256 202.78125 -78.78125 
C 198.3575344442118 -81.01316997996116 194.11514151270043 -83.05118946215238 190.0478212523188 -84.90713813825383 
C 190.32185766822204 -83.69223907528468 190.62915917149152 -82.40155872006183 190.96875 -81.03125 
C 179.5611689279192 -87.45235293611039 172.45835176585416 -91.18779719403186 168.55419921874997 -93.1458528400621 
L 168.55419921875 -93.1458904975971 
C 171.4615782300432 -91.92579219379296 175.74568378194934 -90.31828130372696 180.501104643572 -89.0668335012283 
C 115.46746860888294 -115.99978707419056 100.55259055314728 -92.08393763864065 104.12102256707027 -77.19774926062107 
C 115.26854200309741 -78.04231335503488 134.71112379418466 -76.56835099273214 186.90625 -73.90625 
L 139.78125 -72.15625 
L 104.21349325356037 -76.82968780505544 
C 105.52164007181075 -71.85298929798633 108.90904876492246 -67.96328713011177 113.15625 -67.46875 
C 77.61112617140066 -43.832606277657725 69.63573724887976 -55.33630452793102 71.96835618804889 -66.8793970003922 
C 89.28467019915003 -72.96129864056302 92.80702451210254 -76.04499585486 102.50907291999003 -77.05364070935015 
L 32.28173828125 -86.28118584211484 
L 32.28170020030803 -86.28076171875 
C 38.04078610441803 -80.03453281652939 42.90735542124659 -74.71269850614564 46.99994929788333 -70.28505515286079 
C 31.883689023172003 -65.0461508108232 15.443297368354875 -52.63315309030453 7.03125 -18.21875 
C -2.28125 -2.71875 39.09375 7.21875 50.59375 8.78125 
C 73.6098312521989 6.620556657956838 77.21020252260342 -1.0824393516167223 86.04172308280636 -9.180815855750819 
C 86.25239185679364 -10.105397402771823 86.52487796741235 -11.037996908577618 86.86119083922651 -11.976122802193029 
C 87.61761300043906 -11.95331291383108 88.42146901977864 -11.939614625421596 89.27402055722672 -11.935818800522295 
C 91.5208652614698 -13.702447633706749 94.14706296119964 -15.460246713351538 97.40625 -17.15625 
C 97.64157820887377 -20.267811872886572 96.40285811080201 -22.43587343798796 94.68262028760138 -23.963628475340403 
C 95.41491933708895 -24.719600048825406 96.19394740733891 -25.472346512011686 97.02074841847528 -26.22057346394086 
C 95.73513602978149 -25.785775863756943 94.50089232011695 -25.375718024866636 93.32582189386376 -24.98885210673606 
C 87.20824494172437 -28.94683762491561 78.65205903448734 -27.037548797092903 100.8767125132303 -29.408713358582727 
C 102.75795890648351 -30.83541241355511 104.8260667157476 -32.23792908431783 107.0887461800479 -33.606703117596645 
C 108.22940887658886 -33.265848116406005 109.60082231057558 -32.887534677743524 111.21875 -32.46875 
C 100.1591103577718 -11.904732540231922 84.79931188295174 3.350446854607956 281.79340910945444 4.783281976547381 
C 239.29119481561062 0.25607976169328106 192.13205623226008 -9.959358998048321 220.65625 -21.03125 
C 129.59375 -17.28125 327.78125 -32.40625 319.65625 -38.15625 
C 198.40625 -37.96875 278.59375 -36.09375 331.53125 -100.15625 
C 262.6939250374699 -85.74761852114902 222.84816709773565 -97.45125460050114 203.40910848187923 -101.4201700743951 
C 195.9734542326136 -112.4618465296904 190.54525111999013 -116.81790390763864 187.4149009089884 -116.81790390763862 
 z

M 111.8556655719224 -36.28589581928442
C 126.72179142599387 -44.05763554009541 148.5128165953803 -50.439108914810994 178.80326518915246 -53.47799653807475 
C 178.119912330195 -53.85974127152821 178.05166473211636 -53.97092013443142 178.83344634110853 -53.48102307234383 
C 185.42865650611554 -54.14208052622897 192.42667661270886 -54.64470310443873 199.84375 -54.96875 
C 192.59790048855524 -47.15085973765173 182.00702685445788 -51.759653293273765 179.0570068359374 -53.33930716229651 
L 179.0570068359375 -53.33925573477008 
C 181.1836525567976 -51.97625848987239 187.84739540186786 -47.33040878892064 201.84375 -35.46875 
L 209.15625 -37.59375 
C 207.43740396530688 -28.823227925540234 137.46943768453718 -35.56104419479277 111.85566557192237 -36.285895819284406 
 z

M 89.96001355353279 -18.11643277974735
C 90.02250242784685 -18.211934711788494 90.08567971457911 -18.307438024413926 90.14954745275043 -18.40294018935505 
C 90.9715308370902 -18.37126306222881 91.84820883702275 -18.34122663679117 92.78125 -18.3125 
C 91.80477387414484 -18.26171013439344 90.86334394393322 -18.19571640450035 89.96001355353278 -18.116432779747353 
 z


M 189.52265717370986 -87.34307291536507
C 186.47709420829406 -87.67276341499819 183.40143972482662 -88.30357446074306 180.50110464357203 -89.06683350122833 
C 183.57058592552323 -87.79564213164576 186.75171604520784 -86.41117561349671 190.0478212523188 -84.9071381382538 
C 189.85642948548298 -85.75564463116818 189.68126398550498 -86.56718601837267 189.52265717370986 -87.34307291536507 
 z


M 104.12102256707028 -77.19774926062107
C 103.56401264704999 -77.15554878890346 103.02771315331442 -77.10755961190365 102.50907291999005 -77.05364070935016 
L 104.21349325356037 -76.82968780505544 
C 104.1814132502491 -76.95173259571544 104.15058369316597 -77.0744310945441 104.12102256707024 -77.19774926062107 
 z


M 86.04172308280634 -9.18081585575082
C 84.5969889857062 -2.840177605245172 86.05952778454838 3.123375582622092 89.78125 7.90625 
L 112.93460659568362 6.850059314508172 
L 123.96330162745961 6.025965348327592 
C 113.55436753358654 4.117408636414882 109.24094919198632 -3.016421906277155 96.34375 -12.09375 
C 93.68955544839656 -11.975523071198065 91.33895451418546 -11.926625071598064 89.27402055722672 -11.935818800522295 
C 88.10593907244306 -11.017390203018083 87.04038587085664 -10.096575175243789 86.04172308280636 -9.180815855750817 
 z


M 123.96330162745959 6.025965348327595
C 124.48544370581772 6.121704043494186 125.02292401706111 6.204294307885931 125.57759546361643 6.273321897455779 
L 112.93460659568362 6.850059314508172 
L 93.78125 8.28125 
L 127.53962871190478 6.455607128483329 
C 130.6186292322457 6.650004379920763 134.21238295452594 6.47007557294204 138.5761386841895 5.858756019925234 
L 159.65625 4.71875 
L 140.294742289735 5.601967256908331 
C 142.4467351228993 5.26118972233745 144.777077766591 4.822942583992433 147.3125 4.28125 
L 123.96330162745963 6.025965348327594 
 z


M 97.0207484184753 -26.220573463940863
C 100.42132373150544 -27.370657267078766 104.1813032010967 -28.693834348246817 108.15625 -30.21875 
C 105.4265885673712 -29.903322456674005 103.00986721091873 -29.63630119603415 100.8767125132303 -29.408713358582727 
C 99.49103866004569 -28.357846452510014 98.20674434755323 -27.293859668313967 97.02074841847529 -26.22057346394086 
 z


M 281.79340910945444 4.783281976547384
C 310.0681358010856 7.795016951524622 336.28188667809843 8.289356921120909 336.78125 4.84375 
C 316.8279786585298 4.927011073344377 298.5430904498424 4.905110660978502 281.79340910945444 4.783281976547381 
 z"/>-->

<!--
<path
        class="shape"
        d="M 147.3125 4.28125
C 115.71875 11.03125 115.96875 1.71875 96.34375 -12.09375 
C 68.28125 -10.84375 74.15625 -17.34375 92.78125 -18.3125 
C 67.40625 -19.09375 83.71875 -20.84375 108.15625 -30.21875 
C 65.96875 -25.34375 98.53125 -32.03125 97.40625 -17.15625 
C 77.46875 -6.78125 81.21875 5.90625 50.59375 8.78125 
C 39.09375 7.21875 -2.28125 -2.71875 7.03125 -18.21875 
C 23.15625 -84.1875 68.78125 -69.3125 78.03125 -78.03125 
C 67.53125 -68.90625 64.28125 -34.96875 113.15625 -67.46875 
C 94.90625 -69.59375 92.53125 -134.40625 202.78125 -78.78125 
C 174.59375 -105.71875 180.34375 -141.09375 208.59375 -93.15625 
C 193.34375 -72.03125 129.34375 -115.71875 190.96875 -81.03125 
C 178.53125 -131.21875 209.40625 -74.59375 331.53125 -100.15625 
C 278.59375 -36.09375 198.40625 -37.96875 319.65625 -38.15625 
C 327.78125 -32.40625 129.59375 -17.28125 220.65625 -21.03125 
C 173.15625 -2.59375 335.53125 13.46875 336.78125 4.84375 
C 82.15625 5.90625 99.21875 -10.15625 111.21875 -32.46875 
C 67.03125 -43.90625 206.71875 -25.15625 209.15625 -37.59375 
L 201.84375 -35.46875 
C 158.40625 -72.28125 185.59375 -39.59375 199.84375 -54.96875 
C 96.84375 -50.46875 74.65625 -11.53125 89.78125 7.90625 
L 159.65625 4.71875 
L 93.78125 8.28125 
L 147.3125 4.28125 
 z

M 186.90625 -73.90625
C 77.84375 -79.46875 111.78125 -79.84375 65.59375 -64.71875 
C 69.03125 -44.96875 65.53125 -50.21875 32.28125 -86.28125 
L 139.78125 -72.15625 
L 186.90625 -73.90625 
 z"/>
 -->
 
<path
        class="shape"
        d="M 128.96875 5.96875
C 100.84375 8.46875 106.71875 1.21875 78.84375 -10.28125 
C 89.8125 -10.03125 106.09375 -15.34375 84.65625 -14.84375 
C 72.40625 -19.53125 69.96875 -16.65625 85.34375 -24.15625 
C 53.40625 -24.09375 82.59375 -25.59375 81.28125 -17.40625 
C 68.09375 -6.84375 69.15625 4.65625 39.90625 8.46875 
C 32.53125 5.59375 -2.40625 -2.96875 6.15625 -16.84375 
C 17.78125 -65.53125 72.9375 -64.40625 68.96875 -69.40625 
C 71.84375 -87.28125 75.09375 -47.53125 87.96875 -67.28125 
C 79.59375 -90.34375 104.71875 -113.09375 172.84375 -75.46875 
C 141.96875 -86.96875 139.1875 -123.90625 180.78125 -99.96875 
C 166.40625 -82.65625 215.90625 -95.21875 151.21875 -65.78125 
C 138.15625 -116.46875 199.65625 -96.34375 259.96875 -80.96875 
C 286.90625 -42.34375 175.90625 -39.15625 258.15625 -37.84375 
C 272.71875 -33.28125 173.96875 -17.78125 198.90625 -16.53125 
C 141.84375 -2.65625 282.21875 9.78125 266.0625 5.34375 
C 65.59375 10.65625 84.53125 -9.90625 116.96875 -33.1875 
C 100.46875 -36.15625 159.84375 -37.84375 184.59375 -29.53125 
L 158.53125 -50.03125 
C 169.09375 -61.78125 190.40625 -32.84375 181.28125 -46.28125 
C 74.71875 -45.6875 98.53125 -11.03125 72.09375 6.34375 
L 129.53125 4.46875 
L 128.96875 5.96875 
 z

M 180.1875 -66.59375
C 65.71875 -79.59375 100.53125 -68.34375 97.53125 -65.21875 
C 66.78125 -35.65625 65.71875 -44.28125 41.03125 -68.53125 
L 180.1875 -66.59375 
 z"
 />
 
<!--
    <path
        class="shape"
        d="M 111.203125 4.578125
C 77.953125 9.359375 89.296875 0.546875 70.765625 -8.703125 
C 70.015625 -8.859375 81.265625 -15.953125 67.296875 -17.046875 
C 78.015625 -16.109375 76.328125 -18.921875 84.046875 -32.234375 
C 75.390625 -19.296875 65.640625 -24.671875 79.140625 -17.328125 
C 59.171875 -6.015625 53.765625 4.234375 36.140625 6.140625 
C 26.484375 4.296875 -2.265625 -3.671875 4.296875 -20.609375 
C 16.390625 -58.046875 56.546875 -67.03125 69.046875 -65.453125 
C 61.796875 -70.078125 69.859375 -41.671875 84.734375 -62.859375 
C 94.671875 -94.078125 81.015625 -96.296875 139.078125 -81.359375 
C 132.453125 -102.171875 114.859375 -111.546875 140.984375 -81.078125 
C 155.390625 -66.984375 180.328125 -115.828125 212.828125 -98.734375 
C 146.078125 -99.546875 263.421875 -90.921875 262.765625 -63.765625 
C 275.265625 -57.140625 138.234375 -33.453125 232.578125 -46.921875 
C 257.03125 -34.203125 178.515625 -16.671875 162.671875 -16.390625 
C 177.109375 -3.203125 225.203125 6.640625 211.328125 4.734375 
C 112.890625 7.421875 95.234375 -14.296875 131.453125 -37.390625 
C 123.515625 -34.578125 168.828125 -38.640625 164.015625 -39.484375 
L 156.328125 -44.296875 
C 139.109375 -52.984375 158.265625 -37.671875 154.609375 -54.578125 
C 78.046875 -40.328125 87.796875 -13.234375 74.546875 4.390625 
L 111.203125 4.578125 
 z

M 139.421875 -82.390625
C 69.265625 -73.171875 81.484375 -71.796875 81.234375 -60.828125 
C 59.265625 -33.171875 51.484375 -41.796875 39.421875 -82.390625 
 z"
 />-->
 <!--
<path 
        class="shape"
        d="
            M 94.43751 3.4843751
            C 90.9531251 10.0718125 75.591375 0.1225 79.56325 -7.43475 
            C 80.7655625 -9.718675 82.0787125 -12.3589375 83.6406925 -15.1925 
            C 77.289125 -16.7996875 72.2934375 -21.2934375 67.7969875 -26.0468875 
            C 65.8758 -23.5175625 64.2036125 -21.3594375 62.7652625 -19.43375 
            C 52.43751 -6.1253 43.31255 5.0468759 32.7656259 5.0468759
            C 21.4843751 5.046875 -2.640625 -5.40625 4.203125 -24.59375 
            C 12.593751 -48.234375 45 -55.3125 55.921875 -55.3125 
            C 60.2343751 -55.3125 63.71875 -54.234375 66.59375 -52.5625 
            C 82.68751 -73.6875 101.515625 -97.203125 110.28125 -97.203125 
            C 115.6406251 -97.203125 123 -93.96875 128.546875 -89.046875 
            C 137.43751 -97.921875 151.875 -104.28125 170.515625 -104.28125 
            C 200.7656251 -104.28125 235.4375 -81.359375 221.640625 -56.640625 
            C 216.9531251 -48.125 207.953125 -44.40625 198.71875 -42.71875 
            C 204.843751 -37.4375 205.796875 -27.125 199.203125 -16.203125 
            C 191.281251 -3.125 177.953125 5.515625 162.59375 5.515625 
            C 142.31251 5.515625 123.359375 -11.40625 137.15625 -33.234375 
            C 138.718751 -35.765625 140.28125 -38.28125 142.078125 -40.921875 
            L 141.9531251 -40.921875 
            C 136.3906251 -42.078125 129.59375 -45.265625 124.734375 -50.625 
            C 114.18751 -32.484375 101.625 -10.53125 94.4375 3.484375 
            z
        
            M 110.281251 -97.2031251
            C 101.5156251 -97.18753 82.68753 -73.68753 66.593753 -52.56253
            z"
        />-->
    <!--
    <path 
        class="shape"
        d="
            M 94.4375 3.484375
            C 90.953125 10.078125 75.59375 0.125 79.5625 -7.4375 
            C 80.765625 -9.71875 82.078125 -12.359375 83.640625 -15.125 
            C 77.28125 -16.796875 72.234375 -21.234375 67.796875 -26.046875 
            C 65.875 -23.515625 64.203125 -21.359375 62.765625 -19.4375 
            C 52.4375 -6.125 43.3125 5.046875 32.765625 5.046875 
            C 21.484375 5.046875 -2.640625 -5.40625 4.203125 -24.59375 
            C 12.59375 -48.234375 45 -55.3125 55.921875 -55.3125 
            C 60.234375 -55.3125 63.71875 -54.234375 66.59375 -52.5625 
            C 82.6875 -73.6875 101.515625 -97.203125 110.28125 -97.203125 
            C 115.640625 -97.203125 123 -93.96875 128.546875 -89.046875 
            C 137.4375 -97.921875 151.875 -104.28125 170.515625 -104.28125 
            C 200.765625 -104.28125 235.4375 -81.359375 221.640625 -56.640625 
            C 216.953125 -48.125 207.953125 -44.40625 198.71875 -42.71875 
            C 204.84375 -37.4375 205.796875 -27.125 199.203125 -16.203125 
            C 191.28125 -3.125 177.953125 5.515625 162.59375 5.515625 
            C 142.3125 5.515625 123.359375 -11.40625 137.15625 -33.234375 
            C 138.71875 -35.765625 140.28125 -38.28125 142.078125 -40.921875 
            L 141.953125 -40.921875 
            C 136.390625 -42.078125 129.59375 -45.265625 124.734375 -50.625 
            C 114.1875 -32.484375 101.625 -10.53125 94.4375 3.484375 
            z
        
            M 110.28125 -97.203125
            C 101.515625 -97.1875 82.6875 -73.6875 66.59375 -52.5625 
            z"
        />
    -->
    <!--
    <path 
        class="shape"
        d="
            M 94.44 3.48
            C 90.96 10.08 75.6 0.1200000000000001 79.56 -7.4399999999999995 
            C 80.76 -9.719999999999999 82.08 -12.36 83.64 -15.12 
            C 77.28 -16.8 72.24 -21.24 67.8 -26.04 
            C 65.88 -23.52 64.2 -21.36 62.76 -19.439999999999998 
            C 52.44 -6.119999999999997 43.31999999999999 5.040000000000003 32.76 5.040000000000003 
            C 21.479999999999997 5.040000000000003 -2.6400000000000006 -5.399999999999997 4.199999999999999 -24.599999999999998 
            C 12.6 -48.239999999999995 45 -55.31999999999999 55.92 -55.31999999999999 
            C 60.24 -55.31999999999999 63.72 -54.239999999999995 66.6 -52.559999999999995 
            C 82.67999999999999 -73.67999999999999 101.52 -97.19999999999999 110.28 -97.19999999999999 
            C 115.63701 -97.19999999999999 123.00193 -93.97207999999999 128.54973 -89.04858999999999 
            C 137.44383000000002 -97.92244 151.87597 -104.27999999999999 170.52 -104.27999999999999 
            C 200.76000000000002 -104.27999999999999 235.44 -81.35999999999999 221.64000000000001 -56.639999999999986 
            C 216.96 -48.11999999999999 207.96 -44.399999999999984 198.72000000000003 -42.719999999999985 
            C 204.84000000000003 -37.43999999999998 205.80000000000004 -27.119999999999983 199.20000000000002 -16.199999999999985 
            C 191.28000000000003 -3.119999999999985 177.96 5.520000000000014 162.60000000000002 5.520000000000014 
            C 142.32000000000002 5.520000000000014 123.36000000000001 -11.399999999999988 137.16000000000003 -33.23999999999998 
            C 138.72000000000003 -35.759999999999984 140.28000000000003 -38.27999999999998 142.08 -40.91999999999998 
            C 141.96 -40.91999999999998 141.96 -40.91999999999998 141.96 -40.91999999999998 
            C 136.38936 -42.07488999999998 129.58801 -45.26811999999998 124.73478 -50.63033999999998 
            C 114.18964 -32.47705999999998 101.6256 -10.531929999999981 94.44 3.480000000000018 
            L 94.44 3.48 
            z
        
            M 56.04 -38.52
            C 52.56 -41.400000000000006 48.96 -43.440000000000005 44.76 -43.440000000000005 
            C 35.4 -43.440000000000005 23.88 -31.920000000000005 19.2 -17.400000000000006 
            C 16.56 -9.000000000000005 20.4 -5.760000000000005 24.24 -5.760000000000005 
            C 29.52 -5.760000000000005 36.239999999999995 -14.160000000000005 44.16 -23.400000000000006 
            C 47.16 -26.760000000000005 51.239999999999995 -32.160000000000004 56.04 -38.52 
            L 56.04 -38.52
            z

            M 119.4 -84.84
            C 112.32000000000001 -84.84 93.48 -60.60000000000001 78.36000000000001 -40.32 
            C 82.08000000000001 -35.52 85.68 -30.84 91.44000000000001 -28.92 
            C 100.92000000000002 -45.24 111.84 -63.24 116.64000000000001 -71.76 
            C 121.56000000000002 -80.52000000000001 122.52000000000001 -84.84 119.40000000000002 -84.84 
            L 119.4 -84.84 
            z

            M 179.88 -95.88
            C 154.68 -95.88 135.24 -77.75999999999999 135.24 -61.31999999999999 
            C 135.24 -53.99999999999999 140.16 -49.31999999999999 146.28 -47.279999999999994 
            C 155.64 -60.959999999999994 165.48 -74.16 169.2 -76.91999999999999 
            C 175.2 -81.35999999999999 187.2 -68.03999999999999 183.48 -64.32 
            C 179.16 -59.879999999999995 167.04 -44.519999999999996 153.72 -25.07999999999999 
            C 143.64 -10.559999999999992 146.64 -5.3999999999999915 153.96 -5.3999999999999915 
            C 160.8 -5.3999999999999915 171.96 -11.27999999999999 179.04000000000002 -22.55999999999999 
            C 185.76000000000002 -33.11999999999999 186.36 -40.79999999999999 180.84000000000003 -41.27999999999999 
            C 180.72000000000003 -41.27999999999999 180.60000000000002 -41.27999999999999 180.36000000000004 -41.399999999999984 
            C 180.36000000000004 -41.399999999999984 180.36000000000004 -41.399999999999984 180.24000000000004 -41.399999999999984 
            C 174.48000000000005 -41.87999999999998 174.48000000000005 -47.759999999999984 177.96000000000004 -48.47999999999998 
            C 187.92000000000004 -50.27999999999998 196.32000000000005 -55.31999999999998 201.84000000000003 -64.19999999999999 
            C 213.36000000000004 -82.91999999999999 197.16000000000003 -95.88 179.88000000000002 -95.88 
            L 179.88 -95.88 
            z

            M 110.28 -97.2
            C 101.52 -97.2 82.68 -73.68 66.6 -52.56 
            L 110.28 -97.2 
            z
"/>
-->
<!--
    <path 
        class="shape"
        d="
            M 0 0
            H 1
            V 1
            H 0
            Z
    "/>-->
    <!--
    <path 
        class="shape"
        d="
            M 168 -573
            L 320 -470
            Q 190 -549 153 -549
            Z
            
            M 416 -549
            L 52 -549
            L 52 -587
            L 416 -587
            Z
    "/>
    -->
    <!--
    <path 
        class="shape"
        d="
        M94.44,3.48c-3.48,6.6 -18.84,-3.36 -14.88,-10.92c1.2,-2.28 2.52,-4.92 4.08,-7.68c-6.36,-1.68 -11.4,-6.12 -15.84,-10.92
        c-1.92,2.52 -3.6,4.68 -5.04,6.6c-10.32,13.32 -19.44,24.48 -30,24.48c-11.28,0 -35.4,-10.44 -28.56,-29.64
        c8.4,-23.64 40.8,-30.72 51.72,-30.72c4.32,0 7.8,1.08 10.68,2.76c16.08,-21.12 34.92,-44.64 43.68,-44.64
        c5.35701,0 12.72193,3.22792 18.26973,8.15141c8.8941,-8.87385 23.32624,-15.23141 41.97027,-15.23141
        c30.24,0 64.92,22.92 51.12,47.64c-4.68,8.52 -13.68,12.24 -22.92,13.92c6.12,5.28 7.08,15.6 0.48,26.52
        c-7.92,13.08 -21.24,21.72 -36.6,21.72c-20.28,0 -39.24,-16.92 -25.44,-38.76c1.56,-2.52 3.12,-5.04 4.92,-7.68
        c-0.12,0 -0.12,0 -0.12,0c-5.57064,-1.15489 -12.37199,-4.34812 -17.22522,-9.71034
        c-10.54514,18.15328 -23.10918,40.09841 -30.29478,54.11034
        z
        
        M56.04,-38.52c-3.48,-2.88 -7.08,-4.92 -11.28,-4.92
        c-9.36,0 -20.88,11.52 -25.56,26.04c-2.64,8.4 1.2,11.64 5.04,11.64c5.28,0 12,-8.4 19.92,-17.64
        c3,-3.36 7.08,-8.76 11.88,-15.12zM119.4,-84.84c-7.08,0 -25.92,24.24 -41.04,44.52c3.72,4.8 7.32,9.48 13.08,11.4
        c9.48,-16.32 20.4,-34.32 25.2,-42.84c4.92,-8.76 5.88,-13.08 2.76,-13.08zM179.88,-95.88
        c-25.2,0 -44.64,18.12 -44.64,34.56c0,7.32 4.92,12 11.04,14.04c9.36,-13.68 19.2,-26.88 22.92,-29.64
        c6,-4.44 18,8.88 14.28,12.6c-4.32,4.44 -16.44,19.8 -29.76,39.24c-10.08,14.52 -7.08,19.68 0.24,19.68
        c6.84,0 18,-5.88 25.08,-17.16c6.72,-10.56 7.32,-18.24 1.8,-18.72c-0.12,0 -0.24,0 -0.48,-0.12
        c0,0 0,0 -0.12,0c-5.76,-0.48 -5.76,-6.36 -2.28,-7.08c9.96,-1.8 18.36,-6.84 23.88,-15.72
        c11.52,-18.72 -4.68,-31.68 -21.96,-31.68z

        M 110.28,-97.2
        c -8.76 0 -27.6 23.52 -43.68 44.64
        z
"/>-->

<!--
M110.28,-97.2c-8.76,0 -27.6,23.52 -43.68,44.64c-2.88,-1.68 -6.36,-2.76 -10.68,-2.76c-10.92,0 -43.32,7.08 -51.72,30.72
        c-6.84,19.2 17.28,29.64 28.56,29.64c10.56,0 19.68,-11.16 30,-24.48c1.44,-1.92 3.12,-4.08 5.04,-6.6
        c4.44,4.8 9.48,9.24 15.84,10.92c-1.56,2.76 -2.88,5.4 -4.08,7.68c-3.96,7.56 11.4,17.52 14.88,10.92
        c9.6,-18.72 28.8,-51.6 39.96,-70.68c8.64,-14.76 -12.48,-30 -24.12,-30zM44.16,-23.4c-7.92,9.24 -14.64,17.64 -19.92,17.64
        c-3.84,0 -7.68,-3.24 -5.04,-11.64c4.68,-14.52 16.2,-26.04 25.56,-26.04c4.2,0 7.8,2.04 11.28,4.92
        c-4.8,6.36 -8.88,11.76 -11.88,15.12zM116.64,-71.76c-4.8,8.52 -15.72,26.52 -25.2,42.84c-5.76,-1.92 -9.36,-6.6 -13.08,-11.4
        c15.12,-20.28 33.96,-44.52 41.04,-44.52c3.12,0 2.16,4.32 -2.76,13.08z
        -->

    <!--
    <path 
        class="shape"
        d="M170.52,-104.28c-32.4,0 -52.08,19.2 -52.08,37.44c0,15.48 13.68,23.88 23.52,25.92c0,0 0,0 0.12,0
        c-1.8,2.64 -3.36,5.16 -4.92,7.68c-13.8,21.84 5.16,38.76 25.44,38.76c15.36,0 28.68,-8.64 36.6,-21.72
        c6.6,-10.92 5.64,-21.24 -0.48,-26.52c9.24,-1.68 18.24,-5.4 22.92,-13.92c13.8,-24.72 -20.88,-47.64 -51.12,-47.64
        z
        
        M201.84,-64.2c-5.52,8.88 -13.92,13.92 -23.88,15.72c-3.48,0.72 -3.48,6.6 2.28,7.08
        v0c0.12,0 0.12,0 0.12,0c0.24,0.12 0.36,0.12 0.48,0.12c5.52,0.48 4.92,8.16 -1.8,18.72
        c-7.08,11.28 -18.24,17.16 -25.08,17.16c-7.32,0 -10.32,-5.16 -0.24,-19.68c13.32,-19.44 25.44,-34.8 29.76,-39.24
        c3.72,-3.72 -8.28,-17.04 -14.28,-12.6c-3.72,2.76 -13.56,15.96 -22.92,29.64c-6.12,-2.04 -11.04,-6.72 -11.04,-14.04
        c0,-16.44 19.44,-34.56 44.64,-34.56c17.28,0 33.48,12.96 21.96,31.68
        z"
    />
    -->
    <!--<g transform="translate(62.24735,362.67153) scale(2.22554,2.22554)">
    <g>-->
        <!--<g fill="none" stroke="#000000">--><!--
        <path 
            class='shape'
            d="
            M 52.08,-104.28
            c-32.4,0 -52.08,19.2 -52.08,37.44
            c0,15.48 13.68,23.88 23.52,25.92
            c0,0 0,0 0.12,0
            c-1.8,2.64 -3.36,5.16 -4.92,7.68
            c-13.8,21.84 5.16,38.76 25.44,38.76
            c15.36,0 28.68,-8.64 36.6,-21.72
            c6.6,-10.92 5.64,-21.24 -0.48,-26.52
            c9.24,-1.68 18.24,-5.4 22.92,-13.92
            c13.8,-24.72 -20.88,-47.64 -51.12,-47.64
            z
            
            M 83.4,-64.2
            c-5.52,8.88 -13.92,13.92 -23.88,15.72
            c-3.48,0.72 -3.48,6.6 2.28,7.08
            v0
            c0.12,0 0.12,0 0.12,0
            c0.24,0.12 0.36,0.12 0.48,0.12
            c5.52,0.48 4.92,8.16 -1.8,18.72
            c-7.08,11.28 -18.24,17.16 -25.08,17.16
            c-7.32,0 -10.32,-5.16 -0.24,-19.68
            c13.32,-19.44 25.44,-34.8 29.76,-39.24
            c3.72,-3.72 -8.28,-17.04 -14.28,-12.6
            c-3.72,2.76 -13.56,15.96 -22.92,29.64
            c-6.12,-2.04 -11.04,-6.72 -11.04,-14.04
            c0,-16.44 19.44,-34.56 44.64,-34.56
            c17.28,0 33.48,12.96 21.96,31.68z

            M 145.68,-104.28c-32.4,0 -52.08,19.2 -52.08,37.44
            c0,15.48 13.68,23.88 23.52,25.92
            c0,0 0,0 0.12,0
            c-1.8,2.64 -3.36,5.16 -4.92,7.68
            c-13.8,21.84 5.16,38.76 25.44,38.76
            c15.36,0 28.68,-8.64 36.6,-21.72
            c6.6,-10.92 5.64,-21.24 -0.48,-26.52
            c9.24,-1.68 18.24,-5.4 22.92,-13.92
            c13.8,-24.72 -20.88,-47.64 -51.12,-47.64
            z
            
            M 177,-64.2
            c-5.52,8.88 -13.92,13.92 -23.88,15.72
            c-3.48,0.72 -3.48,6.6 2.28,7.08
            v0
            c0.12,0 0.12,0 0.12,0
            c0.24,0.12 0.36,0.12 0.48,0.12
            c5.52,0.48 4.92,8.16 -1.8,18.72
            c-7.08,11.28 -18.24,17.16 -25.08,17.16
            c-7.32,0 -10.32,-5.16 -0.24,-19.68
            c13.32,-19.44 25.44,-34.8 29.76,-39.24
            c3.72,-3.72 -8.28,-17.04 -14.28,-12.6
            c-3.72,2.76 -13.56,15.96 -22.92,29.64
            c-6.12,-2.04 -11.04,-6.72 -11.04,-14.04
            c0,-16.44 19.44,-34.56 44.64,-34.56
            c17.28,0 33.48,12.96 21.96,31.68
            z"
        />-->
        <!--</g>-->
        <!--
        </g>
        </g>-->
    </svg>