<svg
	xmlns="http://www.w3.org/2000/svg"
    version="1.1"
>
<!--
<path 
        class="shape"
        d=" M 331 359
            C 319 351 319 360 319 367
            z

            M 319 367
            C 267 372 300 378 270 383 
            C 268 380 295 445 352 380
            z

            M 312 390
            C 303 400 293 374 312 390
            z

            "
 />-->
    <!--
    <path
        class="shape"
        d=" M 1200.001953125 3050.0006893400373
L 1199.9998500557463 3050.0019531250005 
C 1199.0032039787568 3063.0096120991875 1230.999098845728 3159.0005507053884 1213 3170 
L 1318.4980468749998 3229.498898474526 
L 1318.4982231023182 3229.498046875 
C 1273.0846784990863 3179.5803698742075 1251.5480809749877 3144.03119712882 1241.7545238925643 3121.3701391580125 
C 1241.5028166260781 3115.0996330820444 1241.076239133088 3109.6934191349396 1240.6268273473088 3108.370465016738 
C 1256.7306903531305 3079.995205563154 1283.9006296289974 3079.612141694463 1200.001953125 3050.0006893400364 
 z

    M 1235.6055368708915 3103.70302272713
C 1231.1542345566918 3085.4904948478747 1238.9023809594921 3086.435802470003 1235.6055368708915 3103.70302272713 
 z"
    />-->
    <!--
    <path
        class="shape"
        d=" M 1213 3170
            C 1231 3159 1199 3063 1200 3050
            C 1285 3080 1256 3080 1280 3109.5 
            C 1242 3095 1245 3197 1234.5 3108.5 
            C 1246 3065.5 1197.5 3096.5 1318.5 3229.5
            z"
    />
    -->
    <!--
    <path
        class="shape"
        d=" M 1213 3170
            C 1231 3159 1199 3063 1200 3050
            C 1285 3080 1256 3080 1240 3109.5 
            C 1242 3295 1245 3197 1234.5 3108.5 
            C 1246 3065.5 1197.5 3096.5 1318.5 3229.5
            z"
        />
        -->
 <!--
    <path
        class="shape"
        d=" M 1213 3170
            C 1231 3159 1199 3063 1200 3050
            C 1285 3123 1216 3050 1260 3109.5 
            C 1232 3165 1245 3197 1234.5 3108.5 
            C 1246 3065.5 1197.5 3096.5 1318.5 3229.5
            z"
 />
 -->
    
    <path
        class="shape"
        d=" M 1213.5 4270.5
            C 1226.5 4129.5 1192.5 4275.5 1249.5 4128.5 
            C 1137.5 4204.5 1113.5 4123.5 1174.5 4317.5 
            C 1155.5 4450.5 1037.5 4219.5 1033.5 4336.5 
            C 1067.5 4123.5 962.5 4254.5 962.5 4448.5 
            C 926.5 4188.5 874.5 4333.5 799.5 4205.5 
            C 779.5 4153.5 825.5 4197.5 814.5 4129.5 
            C 802.5 4165.5 794.5 3842.5 739.5 4236.5 
            C 725.5 4009.5 713.5 3883.5 720.5 4020.5 
            C 647.5 3937.5 648.5 4213.5 596.5 4128.5 
            C 1618.5 1550.5 1689.5 1680.5 1566.5 1604.5 
            C 1640.5 1790.5 1572.5 1605.5 1565.5 1673.5 
            C 1610.5 1641.5 1529.5 1851.5 1548.5 1741.5 
            C 1675.5 1792.5 1514.5 1895.5 1442.5 1793.5 
            C 1643.5 1796.5 1594.5 1936.5 1536.5 2002.5 
            C 1639.5 1914.5 1451.5 2171.5 1515.5 1993.5 
            C 1575.5 2142.5 1530.5 2131.5 1569.5 2055.5 
            C 1365.5 2248.5 1398.5 2110.5 1383.5 2237.5 
            C 1450.5 2155.5 1415.5 2262.5 1411.5 2261.5 
            C 1394.5 2232.5 1407.5 2382.5 1399.5 2297.5 
            C 1377.5 2252.5 1410.5 2333.5 1319.5 2341.5 
            C 1324.5 2546.5 1276.5 2216.5 1376.5 2555.5 
            C 1259.5 2295.5 1342.5 2509.5 1312.5 2381.5 
            C 1286.5 2549.5 1270.5 2443.5 1345.5 2414.5 
            C 1263.5 2663.5 1223.5 2695.5 1348.5 2673.5 
            C 1175.5 2615.5 1232.5 2590.5 1224.5 2608.5 
            C 1251.5 2669.5 1199.5 2863.5 1162.5 2806.5 
            C 1285.5 2723.5 1216.5 3002.5 1240.5 2809.5 
            C 1173.5 2972.5 1149.5 2875.5 1233.5 2685.5 
            C 1235.5 2949.5 1288.5 2947.5 1282.5 3032.5 
            C 1232.5 3095.5 1245.5 3197.5 1234.5 3108.5 
            C 1246.5 3065.5 1197.5 3096.5 1318.5 3229.5 
            C 1239.5 3322.5 1237.5 3173.5 1320.5 3021.5 
            C 1324.5 3110.5 1299.5 3152.5 1388.5 3282.5 
            C 1306.5 3127.5 1365.5 3302.5 1365.5 3388.5 
            C 1338.5 3136.5 1468.5 3170.5 1363.5 3356.5 
            C 1389.5 3628.5 1376.5 3297.5 1449.5 3396.5 
            C 1435.5 3454.5 1444.5 3324.5 1366.5 3662.5 
            C 1397.5 3375.5 1491.5 3565.5 1538.5 3759.5 
            C 1423.5 3710.5 1542.5 3656.5 1554.5 3688.5 
            C 1447.5 3518.5 1514.5 3995.5 1519.5 3478.5 
            C 1525.5 3798.5 1542.5 3837.5 1555.5 3735.5 
            C 1591.5 3833.5 1548.5 3800.5 1456.5 3814.5 
            C 1508.5 4114.5 1621.5 3979.5 1546.5 4185.5 
            C 1516.5 3800.5 1445.5 4099.5 1535.5 4035.5 
            C 1498.5 4044.5 1527.5 4156.5 1443.5 4075.5 
            C 1479.5 3850.5 1492.5 4303.5 1415.5 4192.5 
            C 1358.5 4225.5 1419.5 4459.5 1311.5 4355.5 
            C 1333.5 3928.5 1263.5 4374.5 1318.5 4110.5 
            C 1300.5 4331.5 1274.5 4236.5 1217.5 4375.5 
            L 1227.5 4193.5 
            L 1213.5 4270.5 
            z"
 />
 <!--
 <path 
        class="shape"
        d="M 1566.501554100286 1604.5039062500005
C 1640.4976308928344 1790.4938480752792 1572.5025552799702 1605.5075612032379 1565.5004022097282 1673.4960937500007 
L 1565.5039062500002 1673.4972226050631 
C 1590.5149795843663 1655.716473322697 1576.592109142829 1712.7124720271884 1562.557395533499 1747.9453048169519 
C 1570.350953429308 1752.0414441999528 1576.6206051798667 1756.369911158588 1581.5238326337942 1760.8233506926035 
C 1631.8704791471678 1632.521359314293 1613.1233174863455 1633.3072124050257 1566.5039062500002 1604.502413588933 
L 1566.501554100286 1604.5039062500005 
 z

M 1581.5238326337944 1760.8233506926033
C 1574.5044125608936 1778.7114452538726 1566.1419167628792 1799.1088059114118 1556.3246289604306 1822.4454739306605 
C 1533.8279617146354 1805.4140451797143 1497.5366087116886 1794.3219411642024 1442.50390625 1793.5000583199562 
L 1442.502757467199 1793.50390625 
C 1472.6270454086018 1836.1764442736596 1518.3291897884797 1842.9660367191198 1552.0000356628545 1832.6937786012393 
C 1519.2179698583132 1910.153178336901 1471.355210053116 2018.3832609927642 1404.7440483451778 2171.5025217163547 
C 1421.83155491476 2166.616184090365 1458.8257731971553 2155.6167012352707 1544.2867493929245 2078.7785028509516 
C 1541.7452856591888 2068.698462331452 1538.119033372011 2055.996212711584 1532.8984597895733 2040.4156396502226 
C 1561.9076674143782 2009.8206905871016 1593.0255705866302 1954.2076459673854 1536.5039062500002 2002.496662667569 
L 1536.5034326787138 2002.49609375 
C 1576.844616439649 1956.5882968903593 1612.8294931439752 1874.8829011614657 1563.3643929472282 1828.3789287093023 
C 1593.7103342312314 1814.3921762057455 1608.8730104936812 1785.6637055503988 1581.5238326337942 1760.823350692603 
 z

M 1404.7440483451778 2171.5025217163547
C 1389.209534720047 2175.9447660027763 1390.1277316971466 2175.3345530689962 1386.0393268338892 2214.548199461619 
C 1392.432181676509 2199.8187642984994 1398.6661601145513 2185.4737801176816 1404.744048345178 2171.5025217163547 
 z

M 1386.0393268338896 2214.54819946162
C 1369.1106316989922 2253.5527011317263 1351.0678557781996 2295.25306851985 1331.859262485504 2339.848456727218 
C 1407.4351539368538 2325.9561232248543 1378.564541432467 2254.6774711118637 1399.5 2297.5 
C 1407.4996407049991 2382.4961824906177 1394.5011676663937 2232.513473088514 1411.4977096759028 2261.49609375 
L 1411.5039062499998 2261.500939962281 
C 1415.5226546954013 2262.4305184811847 1450.4771343091677 2155.530022004937 1383.503191731733 2237.4960937500005 
L 1383.5004613628437 2237.49609375 
C 1384.5487778337408 2228.6201449899186 1385.3626314251317 2221.0386756649445 1386.039326833889 2214.548199461619 
 z

M 1331.8592624855037 2339.848456727217
C 1328.016324558634 2340.554864210923 1323.9033304706584 2341.1128940245576 1319.5 2341.5 
C 1319.7425350391766 2351.4439366062365 1319.8603647984687 2360.129055764586 1319.876430128399 2367.6927743110136 
C 1323.920179005347 2358.288076822705 1327.9143070695727 2349.0072126836503 1331.8592624855032 2339.8484567272167 
 z

M 1319.8764301283998 2367.6927743110136
C 1317.6023569112158 2372.9816711551766 1315.3125907507529 2378.309731197588 1313.007051939696 2383.677261264029 
C 1313.7560182559494 2386.9145029834694 1314.4293042333873 2389.922179878439 1315.0324673174741 2392.7147803690605 
C 1308.7547364715656 2392.870028292671 1314.7807466964218 2428.086518888646 1318.0631385105755 2408.2298202381453 
C 1321.5651972214976 2429.1358000033397 1318.159067457637 2428.178824526093 1315.097700803669 2424.267547138978 
C 1316.0092819300148 2425.999818737202 1317.1214732754222 2428.158532814244 1318.4630457818193 2430.8186960429907 
C 1308.746635395341 2439.2831494651687 1301.9762378261678 2448.7255480508466 1297.5719201453444 2456.6328491078834 
C 1301.2818602295938 2443.1754595572215 1306.234599910691 2420.991461908364 1311.6705168973447 2386.7891595657134 
C 1154.5559544069379 2752.6403624351533 924.5083257174823 3301.09749385117 596.5015485600243 4128.496093749999 
L 596.5023898240577 4128.50390625 
C 648.499153585183 4213.490210275905 647.5011496615804 3937.509931493605 720.4965642040222 4020.4960937500005 
L 720.4998004120913 4020.49609375 
C 713.5002281065324 3883.5023951258167 725.5001330620385 4009.5021575059104 739.5 4236.5 
C 794.4980099880178 3842.5142557222007 802.4994210258938 4165.47662734337 814.4986974624098 4129.50390625 
L 814.5006318506108 4129.50390625 
C 825.4982383264819 4197.4983149330355 779.5003829777651 4153.500995742189 799.5 4205.5 
C 874.5 4333.5 926.5 4188.5 962.5 4448.5 
C 962.5 4261.711123432689 1059.8392194434628 4133.325778531457 1036.7277928040692 4314.159343218006 
C 1056.3974048983412 4255.323716024844 1157.0741256692982 4439.462140628005 1174.4994419208658 4317.503906249999 
L 1174.4987717459355 4317.49609375 
C 1113.5010313355774 4123.503342682005 1137.5001936823085 4204.497606574575 1249.4960937500002 4128.5026506301965 
L 1249.4984853263104 4128.50390625 
C 1223.9644747200928 4194.354312907088 1216.6924701722296 4201.405314855995 1215.2759947485888 4201.800076022789 
C 1216.2171341896226 4202.972947162921 1218.8730351741128 4212.221533306698 1213.5003601454546 4270.496093749999 
L 1213.5007102272727 4270.49609375 
L 1227.4992897727273 4193.50390625 
L 1227.4997853708792 4193.50390625 
L 1217.5002146291208 4375.496093749999 
L 1217.5016018606252 4375.49609375 
C 1268.9296268687065 4250.086570032973 1295.1218268659318 4315.163951923531 1312.9715636730552 4166.756543708003 
C 1316.5794668846784 4183.544922759613 1317.7376413048219 4234.431474731933 1311.5002012574705 4355.49609375 
L 1311.5039062499998 4355.503761497647 
C 1419.4985291174885 4459.494357561654 1358.5006872236136 4225.499602133697 1415.5 4192.5 
C 1452.7204536226268 4246.155459118332 1468.9116282591394 4168.027436590351 1471.640939972415 4098.395495850276 
C 1515.0160630334813 4124.724407622405 1506.6814772495027 4061.976661502006 1525.9327243698754 4041.27784608026 
C 1464.6622681598901 4071.057097372625 1497.8470762207814 3901.7099474415754 1527.819189268886 4039.465868415798 
C 1530.0195437539287 4037.5901938376455 1532.5483284633913 4036.2186422707646 1535.4960937499998 4035.5009506112838 
L 1535.49609375 4035.5027776217244 
C 1532.8549961323304 4037.380680457006 1530.3525571246555 4038.9459628657323 1527.9836711521673 4040.225087901494 
C 1534.690949185769 4071.317050098927 1541.2282517762467 4117.847336164733 1546.4996956136474 4185.49609375 
L 1546.5014221707452 4185.496093750001 
C 1621.498571488301 3979.501706614553 1508.4996713153316 4114.498103742298 1456.5 3814.5 
C 1548.4987776143435 3800.500186015209 1591.4988573264968 3833.499123079457 1555.5014349326268 3735.5039062500014 
L 1555.4995021338668 3735.50390625 
C 1548.5761437364652 3789.8232974351413 1540.5183511655016 3804.151462693482 1533.591819228477 3757.341917155007 
C 1535.1770744987944 3758.061605380852 1536.8114753139953 3758.780506880537 1538.49609375 3759.4983355575564 
L 1538.4990536339812 3759.49609375 
C 1535.8164700762427 3748.4234537423417 1532.9807812352572 3737.3638545180725 1530.0124393753708 3726.4052408138814 
C 1528.7896405800532 3713.2804106312424 1527.6219671275876 3697.8242599917066 1526.5248434555647 3679.892827477768 
C 1523.4484936134518 3680.5198318919074 1520.321324773674 3681.4262535073067 1517.2506953543516 3682.5834424235313 
C 1515.6671527435617 3677.519564752808 1514.0593153270709 3672.5067024169825 1512.4294623973847 3667.5546563738267 
C 1511.8403033619597 3674.177758457692 1511.2322665572979 3680.1548415277275 1510.6118784355588 3685.531286550018 
C 1504.0734399048729 3688.9025926191543 1498.2099032949811 3693.4182033716793 1494.2149858247458 3698.7595608400957 
C 1494.2885899406133 3680.664744618087 1497.8048874857695 3659.3812052734115 1507.2606698292977 3652.270106520757 
C 1472.5614508633992 3552.430959245395 1429.4172483589018 3483.1400164194883 1398.1535592831278 3531.796915002522 
C 1442.1779256682084 3361.8513864917463 1437.7795451658676 3445.052684732398 1449.4990570782277 3396.50390625 
L 1449.4971195139112 3396.49609375 
C 1377.517499773577 3298.8880255688227 1389.1540830744518 3619.355754776553 1364.564481382775 3367.521786662198 
C 1364.2736030448004 3363.9078519995082 1363.9220786365713 3360.214787346765 1363.52021545714 3356.464186495484 
C 1441.2681315437815 3218.714180785426 1390.1110216721015 3164.354689088697 1369.3279887253207 3247.833159839866 
C 1374.6331848052312 3256.823303210422 1380.971613512944 3268.2696112496324 1388.4979334606323 3282.49609375 
L 1388.4973257373317 3282.49609375 
C 1381.0375748523752 3271.5996965762233 1374.378746142761 3261.32155338465 1368.4366279108165 3251.582163621533 
C 1363.4167931198904 3273.7024896229946 1360.4860134184091 3304.6789111422854 1362.2159785758113 3345.3905262128355 
C 1353.9693044490805 3280.7216873812013 1334.2976449364382 3205.6950732607606 1352.3545340130768 3223.2873375295394 
C 1307.147126997389 3136.9019843394813 1323.820963517297 3095.405973875243 1320.500175544533 3021.5039062500005 
L 1320.4978670002597 3021.50390625 
C 1292.8854186610859 3072.0721516623 1274.6807570493343 3122.308130674219 1265.5893089064914 3163.4114671876446 
C 1255.7057768269915 3148.760843622642 1248.832408924086 3136.4321817521104 1244.1079315178852 3126.3210847663663 
C 1248.5767680996591 3103.8170221767436 1257.9351307600602 3063.451735242324 1282.5 3032.5 
C 1287.304675148744 2964.433768726127 1254.2757588026957 2952.156053724236 1239.8979765344643 2814.402235656771 
C 1238.9531735293613 2822.1965899384704 1238.16925456927 2829.1650016188064 1237.5248701026283 2835.369946227612 
C 1236.9540138211673 2831.0007908461776 1236.1482946948151 2826.624518167376 1235.0493420424723 2822.411939236955 
C 1236.5472110025987 2818.9611775848593 1238.0691811697616 2815.3730080983537 1239.6144413426484 2811.6453466140647 
C 1236.1934048981059 2777.8838493092535 1233.8879391651292 2736.6945839299974 1233.500029596672 2685.5039062499995 
L 1233.4982730357392 2685.50390625 
C 1232.0466393605886 2688.7873992064956 1230.6272603676646 2692.043116841379 1229.239800574707 2695.270197223302 
C 1233.20237304512 2664.8577462975227 1233.196129171618 2635.272268870796 1227.0501791924903 2615.3820805654295 
C 1233.2316234336724 2622.0050299229197 1245.7621661581047 2631.1595032543655 1269.7954469210135 2642.670800913828 
C 1274.9010511209362 2610.082002460587 1298.5631114221874 2552.419862607594 1331.2197216087668 2457.0129121417754 
C 1341.1383023477183 2477.8579120550617 1355.6399572898501 2509.144402310955 1376.4982421864995 2555.49609375 
L 1376.4988477116804 2555.49609375 
C 1359.9529683912447 2499.4057754759065 1347.4588986796248 2461.630700651708 1338.1061375757913 2436.7169229826754 
C 1340.528810810523 2429.51192563255 1342.9941710658304 2422.109134885813 1345.4987136020006 2414.5039062499995 
L 1345.4960937500002 2414.501510518111 
C 1340.603992010091 2416.393377286725 1336.0990941580997 2418.6128572477805 1331.9589177996513 2421.0625266923153 
C 1326.378795671474 2407.5838643346847 1322.253828717207 2399.8589177458152 1319.2645214908407 2395.973893308815 
C 1319.666761636758 2389.0479085859124 1319.9021653204263 2379.8091609693806 1319.876430128399 2367.6927743110136 
 z

M 1235.719940124091 3103.4066834554233
C 1231.5078649852605 3085.6048494354427 1239.0473783817665 3086.5187298471405 1235.719940124091 3103.4066834554233 
 z

M 1307.63934833972 4160.815853321887
C 1288.64046418577 4244.682696746203 1298.851393957788 4170.194669883971 1307.6393483397203 4160.815853321887 
 z

M 1036.7277928040696 4314.159343218006
C 1034.948558034866 4319.481379721229 1033.8321470052554 4326.7915006316925 1033.5001335937895 4336.49609375 
L 1033.5006235234364 4336.49609375 
C 1034.7641576557187 4328.580184673746 1035.8357057358091 4321.139409272838 1036.7277928040696 4314.159343218008 
 z

M 1526.5248434555647 3679.8928274777686
C 1536.7604198024146 3677.8066695698253 1546.4334226694834 3678.8136995335303 1551.5895863874139 3683.9691612865126 
C 1541.0611758357095 3667.922645538473 1532.299950190003 3658.3749459025316 1525.059762454829 3653.6145063636072 
C 1525.53225511777 3662.9050428432356 1526.0211130918465 3671.6598385699785 1526.5248434555647 3679.8928274777686 
 z

M 1525.059762454829 3653.6145063636077
C 1522.7624588605709 3608.443047585014 1520.8520304856584 3550.6067014984037 1519.5000732429958 3478.503906250001 
L 1519.4999622205908 3478.50390625 
C 1518.7483631602233 3556.213642733778 1516.5959976729084 3611.4658084533835 1513.8443210494409 3649.8332344774353 
C 1517.0930566895063 3649.678112300879 1520.815002962538 3650.82356755657 1525.059762454829 3653.6145063636072 
 z

M 1513.8443210494406 3649.8332344774344
C 1511.3859696055035 3649.9506170129725 1509.1985834673276 3650.812723646077 1507.2606698292973 3652.2701065207557 
C 1509.0058238592135 3657.2913921693535 1510.7296166256272 3662.3899483350306 1512.4294623973847 3667.554656373827 
C 1512.9151286523067 3662.094980816581 1513.387966833548 3656.196313797765 1513.8443210494404 3649.8332344774353 
 z

M 1369.3279887253207 3247.8331598398654
C 1361.6746607174257 3234.8638906523574 1356.1716170172876 3227.0062025378434 1352.3545340130765 3223.287337529539 
C 1357.0247362986638 3232.2114740934758 1362.3553449049075 3241.6146767519576 1368.4366279108162 3251.5821636215323 
C 1368.7269274122598 3250.302934348572 1369.0242134774217 3249.0533230957126 1369.3279887253211 3247.833159839866 
 z

M 1269.7954469210135 2642.6708009138274
C 1263.6561364640584 2681.8576911014006 1284.3480164381485 2684.790482221468 1348.4960937499995 2673.500687491875 
L 1348.4960937499998 2673.498690382677 
C 1313.8081775322569 2661.8690824442406 1288.3673546962086 2651.5662472165354 1269.7954469210135 2642.6708009138274 
 z

M 1544.2867493929243 2078.7785028509516
C 1557.812978986941 2132.426698012607 1540.6114579206685 2111.798125448782 1569.4979955215708 2055.50390625 
L 1569.4960937499998 2055.5036956058216 
C 1560.6556199069275 2063.867418160511 1552.260236893546 2071.609518342933 1544.2867493929248 2078.778502850952 
 z

M 1562.5573955334987 1747.9453048169516
C 1558.3297065064253 1745.7233153540658 1553.6535894425751 1743.569691124141 1548.5039062500002 1741.5015687044463 
L 1548.4993253028933 1741.5039062500002 
C 1540.0630938308732 1790.347968702319 1551.3459306170419 1776.090636437202 1562.557395533499 1747.9453048169516 
 z"
 />-->
 
    <!--
    <path 
        class="shape"
        d=" M 200  50   
            L 150  50
            C 150  10 110 10 110 50
            L 10 50
            L 10 80
            L 200 80
            Z"
    />
    -->
</svg>
