<?xml version="1.0"?>
<svg 
		xmlns="http://www.w3.org/2000/svg"
		viewBox="0 -1000 1000 1000" 
		version="1.1"
		width="500"
		height="500"
>
	<!--
	<path
        class="shape"
        d=" M 111.203125 4.578125
            C 77.953125 9.359375 89.296875 0.546875 70.765625 -8.703125 
            C 70.015625 -8.859375 81.265625 -15.953125 67.296875 -17.046875 
            C 78.015625 -16.109375 76.328125 -18.921875 84.046875 -32.234375 
            C 75.390625 -19.296875 65.640625 -24.671875 79.140625 -17.328125 
            C 59.171875 -6.015625 53.765625 4.234375 36.140625 6.140625 
            C 26.484375 4.296875 -2.265625 -3.671875 4.296875 -20.609375 
            C 16.390625 -58.046875 56.546875 -67.03125 69.046875 -65.453125 
            C 61.796875 -70.078125 69.859375 -41.671875 84.734375 -62.859375 
            C 94.671875 -94.078125 81.015625 -96.296875 139.078125 -81.359375 
            C 132.453125 -102.171875 114.859375 -111.546875 140.984375 -81.078125 
            C 155.390625 -66.984375 180.328125 -115.828125 212.828125 -98.734375 
            C 146.078125 -99.546875 263.421875 -90.921875 262.765625 -63.765625 
            C 275.265625 -57.140625 138.234375 -33.453125 232.578125 -46.921875 
            C 257.03125 -34.203125 178.515625 -16.671875 162.671875 -16.390625 
            C 177.109375 -3.203125 225.203125 6.640625 211.328125 4.734375 
            C 112.890625 7.421875 95.234375 -14.296875 131.453125 -37.390625 
            C 123.515625 -34.578125 168.828125 -38.640625 164.015625 -39.484375 
            L 156.328125 -44.296875 
            C 139.109375 -52.984375 158.265625 -37.671875 154.609375 -54.578125 
            C 78.046875 -40.328125 87.796875 -13.234375 74.546875 4.390625 
            L 111.203125 4.578125 
            z

            M 139.421875 -82.390625
            C 69.265625 -73.171875 81.484375 -71.796875 81.234375 -60.828125 
            L 139.421875 -82.390625 
            z"
    />
	-->
	<path
    	class="shape"
		d=" M 238 -34
			L 236  0
			L 41   0
			L 39  -31
			L 101 -45
			Q 101 -53  101.50 -63
			Q 102 -73  102    -88
			Q 102 -103 102    -123.50
			Q 102 -144 102    -173
			L 102 -173
			L 101 -380
			L 101 -504
			Q 101 -567 118.50 -610
			Q 136 -653 169    -675.50
			Q 202 -698 246    -698
			L 246 -698
			Q 281 -698 306    -681.50
			Q 331 -665 331    -642
			L 331 -642
			Q 331 -631 324    -624
			Q 317 -617 306    -617
			L 306 -617
			Q 282 -617 263    -637
			L 263 -637
			L 223 -677
			L 237 -671
			Q 197 -671 174.50 -632
			Q 152 -593 152    -525
			L 152 -423
			L 153 -380
			L 154 -183
			Q 154 -143 154.50 -103.50
			Q 155 -64  156    -45
			L 156 -45
			L 238 -34
			Z
			
			M 266 -380
			L 29  -380
			L 29  -406
			L 101 -423
			L 183 -423
			L 266 -423
			L 266 -380
			Z"
	/>
	<!--
	<path
    	class="shape"
		d=" M 238 -34
			L 236  0
			L 41   0
			L 39  -31
			L 101 -45
			Q 101 -53  101.50 -63
			Q 102 -73  102    -88
			Q 102 -103 102    -123.50
			Q 102 -144 102    -173
			L 102 -173
			L 101 -380
			L 101 -504
			Q 101 -567 118.50 -610
			Q 136 -653 169    -675.50
			Q 202 -698 246    -698
			L 246 -698
			Q 281 -698 306    -681.50
			Q 331 -665 331    -642
			L 331 -642
			Q 331 -631 324    -624
			Q 317 -617 306    -617
			L 306 -617
			Q 282 -617 263    -637
			L 263 -637
			L 223 -677
			L 237 -671
			Q 197 -671 174.50 -632
			Q 152 -593 152    -525
			L 152 -423
				L 153 -380
			L 154 -183
			Q 154 -143 154.50 -103.50
			Q 155 -64  156    -45
			L 156 -45
			L 238 -34
			Z
			
			M 266 -380
			L 29  -380
			L 29  -406
			L 101 -423
			L 183 -423
			L 266 -423
			L 266 -380
			Z
		"
    />
	-->
	<!--
	<path
    	class="shape"
		d=" M 237 -671
			Q 101 -567 118.50 -610
			Q 136 -653 169    -675.50
			Q 202 -698 246    -698
			L 246 -698
			Q 281 -698 306    -681.50
			Q 331 -665 331    -642
			L 331 -642
			Q 331 -631 324    -624
			Q 317 -617 306    -617
			L 306 -617
			Q 282 -617 263    -637
			L 263 -637
			L 223 -677
			Z
		"
    	/>-->
		<!--
		<path
    		class="shape"
    		d=" M 188 -334
				L 101 -380
				L 152 -455
				L 152 -423
				L 153 -380
				Z
				
				M 266 -380
				L 29  -380
				L 101 -423
				L 183 -423
				Z
			"
    />
	-->
	<!--
	<path
    		class="shape"
    		d=" M 188 -334
				L 101 -380
				L 152 -455
				L 152 -423
				L 153 -380
				Z
				
				M 266 -380
				L 29  -380
				L 101 -423
				L 183 -423
				L 266 -380
				Z
			"
    />
	-->
</svg>


