<svg
	xmlns="http://www.w3.org/2000/svg"
    version="1.1"
>
    <path 
        class="shape"
        d="M 893 -744L 893 -744Q 893 -685 870.50 -631.50Q 848 -578 798.50 -537Q 749 -496 671 -472Q 593 -448 482 -448L 482 -448Q 468 -448 456 -448.50Q 444 -449 434 -450L 434 -450Q 423 -451 413 -452L 413 -452L 413 -183Q 413 -146 418.50 -122.50Q 424 -99 439 -85Q 454 -71 481.50 -65.50Q 509 -60 554 -60L 554 -60L 554 0L 36 0L 36 -60Q 82 -60 109.50 -65.50Q 137 -71 152 -85.50Q 167 -100 171.50 -125.50Q 176 -151 176 -190L 176 -190L 176 -852Q 176 -888 171.50 -909.50Q 167 -931 152 -942.50Q 137 -954 109.50 -958Q 82 -962 36 -962L 36 -962L 36 -1022L 524 -1022Q 611 -1022 679.50 -1002Q 748 -982 795.50 -946Q 843 -910 868 -858.50Q 893 -807 893 -744ZM 642 -744L 642 -744Q 642 -786 633 -821Q 624 -856 602 -881Q 580 -906 542.50 -919.50Q 505 -933 447 -933L 447 -933Q 441 -933 435 -932.50Q 429 -932 424 -931L 424 -931Q 418 -930 413 -929L 413 -929L 413 -539Q 419 -538 424 -537L 424 -537Q 429 -536 434.50 -535.50Q 440 -535 447 -535L 447 -535Q 504 -535 542 -551.50Q 580 -568 602 -596Q 624 -624 633 -662Q 642 -700 642 -744
        Z"
    />
    <!--
    <path 
        class="shape"
        d=" M 37 50
            Q 46 34 15 34 
            C 18 28 18 25 21 18
            C 18 25 18 28 15 34
            z"
    />
    -->
    <!--
    <path 
        class="shape"
        d="M 9.99 299.99
        C 9.730 299.374 9.456 299.350 9.171 299.332
        C 9.186 299.284 9.201 299.236 9.216 299.187
        C 9.197 299.235 9.179 299.283 9.160 299.331
        z"
    />
    -->
    <!--
    <path 
        class="shape"
        d="M 290 400
        C 289.7 399.374 289.456 399.350 289.171 399.332
        C 289.1 399.284 289.201 399.236 289.216 399.187
        C 289.1 399.235 289.179 399.283 289.160 399.331
        z"
    />
    -->
    <!--
    <path 
        class="shape"
        d="M 304.22322221892006 467.3192554224747
C 304.3035813942413 464.7635921590746 304.42710751255754 461.0537660845624 304.83712174727293 456.20388277420807 
C 306.85116079175793 462.27561859559273 309.56296939171636 463.7676535071556 311.6435880598724 464.0550182859886 
C 310.68088981354174 456.71911203082533 309.275469247318 448.0248282223388 307.2417537867464 437.8337123225573 
C 307.3805024364888 437.03705044615526 307.52586942452467 436.22645057221456 307.6781899931737 435.4019321350725 
C 314.0188271647094 436.11965088286297 318.3296859299121 434.1561657094659 320.78243359795255 430.89286199336556 
C 322.32893968634505 433.3724927999023 323.8612596769083 435.47254393746186 325.35936156745765 437.18594027335763 
C 327.00474404807727 431.01040798529107 329.16856384583576 425.95827695552305 331.55067323907633 421.8457953308347 
C 329.4081706336283 424.19927735835927 326.65453190875996 425.3495580608957 323.00210268562296 425.7111170705867 
C 323.54647216326646 422.81548754871784 323.23104047264763 419.59815923187165 322.11347180284105 416.5231486415062 
C 318.842206143889 416.3610476741708 317.2792645619322 415.3911404147876 318.28028267361987 419.0443362634784 
C 318.11565472123704 418.9419721097817 317.7357125472827 418.87963865178006 317.12235325166887 418.8668582242018 
C 315.5826955581615 416.6425796134833 314.18816389660554 414.56197589995287 312.92909842184406 412.6270639743575 
C 313.2240542279737 411.5492710211994 313.5292219586318 410.4569459200113 313.8449654237617 409.3501097612247 
C 313.3767576527944 410.01945047672496 312.7067427200586 410.55170867338796 311.757944690896 410.80848638209613 
C 311.3022916772059 410.09333477390015 310.8666092040207 409.4002621244024 310.4503311671097 408.7293866311893 
C 310.72027730601127 409.4688321640788 310.9911969769503 410.1966537530948 311.2629757744166 410.91281099118476 
C 310.9870852589138 410.9555661567789 310.69080793854897 410.9774537470972 310.37272038531825 410.9759145266361 
C 310.4706310844592 411.7317829689709 310.53619773192327 412.4183014529012 310.57126328202156 413.03909634086824 
C 310.9578062647481 414.3223519230276 311.3495895994555 415.67177963178665 311.7442909110245 417.0878643586538 
C 311.9947188050361 416.1151729728966 312.2536831974355 415.12966684634273 312.5214844304396 414.13136339013533 
C 313.2029035548442 415.82209270642414 313.88854437917564 417.4403748021098 314.576650071347 418.9855891790509 
C 313.91885727063925 419.0428223542702 313.1705474623474 419.121308231648 312.3278107440847 419.2231034650409 
C 312.48904820733617 419.8248653957302 312.6505787952174 420.4376612258149 312.81224693506243 421.06152343750006 
L 312.8115234375 421.06347069214314 
C 312.7525391840855 421.1220990069846 312.69383439777033 421.1802013322089 312.6354088472838 421.2377794418324 
C 313.6401966201676 421.003003900963 314.52831473706266 420.772903240153 315.2874306045365 420.55396454612145 
C 316.14288021610815 422.40838385903805 317.00119312113856 424.1500328400198 317.8590155413699 425.7777269631288 
C 315.4871165965782 425.6545353466621 312.8272064336821 425.3582706360706 309.8361597630584 424.9510718269456 
C 309.9453390051527 424.4713216669603 310.0567009956392 423.9879232366648 310.17029109842 423.5008791658504 
C 309.5887061956058 423.9903705054663 309.04440635737177 424.41261199724914 308.53702792300294 424.7703931849755 
C 307.3231426329225 424.59829638290887 306.05708135290325 424.4104085763873 304.73622018382946 424.2105105273954 
C 304.8686500278047 424.92764442404206 304.9927105890219 425.6315047534833 305.1086461067097 426.3223920947947 
C 305.0048580515686 426.32767111833584 304.90532755864854 426.32624013969473 304.8100397708502 426.3182131236936 
C 304.6506487517402 425.6010447061199 304.48844947826524 424.877625015243 304.32339425197074 424.147918463544 
C 303.9507025580341 424.0913124644069 303.57370109694597 424.03379727331844 303.1923324265586 423.9754556583572 
C 303.1763526602749 423.66781158361414 303.1815711639225 423.33220884591935 303.2078123229237 422.96999453758247 
C 303.4841477562339 422.93000047494513 303.757588068039 422.8896233395766 304.0280572424274 422.84890311672524 
C 303.8713105676377 422.1629508592734 303.7120664394256 421.4715363983289 303.55028642234885 420.77463105744835 
C 303.5664107640873 420.70227647307354 303.5830628252245 420.6293052288879 303.60024189133395 420.5557228050616 
C 303.5680089659765 420.5613574199652 303.5357179604658 420.56700797062757 303.503368823758 420.5726744838983 
C 303.3521517750579 419.9222501874283 303.1987293100631 419.26705514503067 303.04307032449805 418.60706614999987 
C 303.17318543704033 418.3851279082582 303.3044654624316 418.1622646463391 303.43692198456756 417.9384765625 
L 303.4377225049633 417.93847656250006 
C 303.57123758210884 418.5244749297361 303.6998127911592 419.10277001932025 303.8235466944083 419.6734831293888 
C 304.1156455136371 418.5981289795187 304.5067887387017 417.4113148855519 304.9951210881031 416.1272722141098 
C 304.1107626677106 415.4330441890441 303.15350808575124 414.5637677774394 302.1473832108227 413.5667184364072 
C 302.2043565469913 414.4279072561359 302.2593895540712 415.30113823914667 302.312441485859 416.18652343749994 
L 302.3117297653903 416.1865234375 
C 301.75137074641583 415.4760463565281 301.21077123131107 414.7667267797911 300.689021532841 414.05941976578663 
C 300.77161349170564 413.730170044852 300.8543597015235 413.39819441940324 300.9372581395681 413.06347656249994 
L 300.93693946456546 413.06347656249994 
C 300.7924598194162 413.31518960310484 300.64953715939174 413.56512141417477 300.50815943793145 413.81328749400706 
C 298.64295466628175 411.2651397784799 297.02135674881885 408.7444374609016 295.60074466582887 406.2912420741625 
C 295.5134791201734 406.1869447613962 295.4262136944998 406.0824507205313 295.33896020548605 405.97778320312494 
L 295.33588392318114 405.977783203125 
C 295.27128044306363 406.0036701409957 295.2069136062546 406.0299909102893 295.1427829542429 406.05674181001837 
C 295.14352807639494 406.0532479277957 295.1442737507251 406.0497539401558 295.1450199777168 406.0462598481523 
C 295.20872806348024 406.02276041765106 295.27232708744134 405.9991829404263 295.3358154296875 405.9755169422698 
L 295.3360091990945 405.9742431640625 
C 295.2896378698563 405.9186148073921 295.2432699497125 405.86293752691967 295.1969072124431 405.80721481289345 
C 295.20856654309125 405.7543581231166 295.2203545552835 405.70148308981993 295.2322729163079 405.64859334709206 
C 295.22094399231304 405.62863689022817 295.2096282519301 405.6086851795956 295.19832567187086 405.58873823708393 
C 295.1890851369132 405.6505591081032 295.1798850261766 405.71289448584884 295.17072362743477 405.775739650997 
C 295.1609183859107 405.76395076695565 295.1511133911629 405.75215987998195 295.1413086599724 405.7403670230962 
C 295.15552613178295 405.6800057325346 295.16919296530824 405.6200309679146 295.1823004285351 405.56044430099865 
C 294.5834376000895 404.5026381022536 294.0215711450518 403.4582764197423 293.4932255598935 402.43062604529297 
C 293.25141431152974 402.56410046666934 293.00893147951933 402.70215307043276 292.76593508775846 402.84493670996335 
C 291.82095026496853 401.68024797150144 290.89156238906025 400.5223913708088 289.99352436048775 399.4023637297803 
C 289.7305677584836 399.3741893624016 289.4566614000784 399.35092680675507 289.171519480337 399.3326275077291 
C 289.18638773805 399.2843653074026 289.20125849817856 399.2361395193562 289.2161318040733 399.18795119313734 
C 289.1976531321707 399.23524482680307 289.1790015807737 399.2832261690671 289.1601773025639 399.33190260589197 
C 289.04640211753787 399.32466101417447 288.9308412373831 399.31820808741253 288.8134765625 399.3125470835339 
L 288.812737902232 399.31347656249994 
C 288.8590768460436 399.50369259560824 288.9052687759985 399.6931676843365 288.9513135701382 399.88190440288224 
C 288.8827113582975 400.06572489914765 288.81209530849185 400.2579846488509 288.73947152801185 400.4589790921756 
C 288.7532558313396 400.5096710766937 288.7670025984818 400.56023315970043 288.7807119370648 400.61066557578266 
C 288.8451637446345 400.3984570810858 288.9096556463911 400.1867625726027 288.97419120260787 399.97566824642104 
C 289.3625307777506 401.567086871116 289.74038071037745 403.1059030637233 290.1076676021229 404.59366605403403 
C 290.03858928984835 404.64424732593255 289.96951575456484 404.695250027683 289.9004505538242 404.74667760043474 
C 290.17947324776344 405.7811338924057 290.43865244591086 406.7444780866162 290.6794891135746 407.63998174816874 
C 290.73539517032157 407.619107912241 290.7912519657763 407.59834185185025 290.8470585920919 407.5776776969394 
C 290.9275071955547 407.9011663383816 291.0074039096566 408.22205536633004 291.0867478640561 408.54036315120743 
C 291.04170658632626 408.5778893521874 290.9968251898295 408.61566001203516 290.952103401085 408.65367292328153 
C 291.4274071850018 410.42085573183846 291.8247167480959 411.89568216237103 292.15784651201835 413.108262690813 
C 292.17408136061306 413.075092080959 292.1902768894818 413.0419726802068 292.2064325732332 413.00890458312665 
C 292.42748094579656 413.8866545826337 292.64355114513427 414.74213421050075 292.85461991635015 415.57583431114284 
C 294.63665059490177 421.60867843087823 293.4370281263382 414.24202696755844 295.1065662245877 406.22855172878826 
C 294.65392152884203 409.5130467020065 294.2892156090471 414.0621495352216 293.793781583807 419.27315963658623 
C 294.05713063466175 420.30682937899593 294.3113500567464 421.30239478437875 294.5563831078039 422.26105351965464 
C 294.2016129305953 422.33201339249644 293.8424061788468 422.40426502121153 293.47873212693446 422.4778245678334 
C 293.2615379293687 424.60544834010494 293.01776652317716 426.81550201729027 292.73442143762185 429.0721640769177 
C 292.595746690357 429.3969835325109 292.46157828428824 429.7168050211741 292.3318338099175 430.0317345654423 
C 292.41931253890743 430.07862315722065 292.50659355725446 430.125179950261 292.5936770170145 430.1714061681383 
C 292.32158047131514 432.2553484713427 292.0143838783572 434.3736610205801 291.66204247796844 436.49865794562595 
C 292.0087760142608 437.4872604586959 292.3095786668976 438.5031391993578 292.5692626013466 439.54310509355713 
C 293.5362550036323 437.35515536026367 294.547516664379 434.7468050576881 295.5975034366148 431.67330322372584 
C 295.74515529312765 431.7424149791898 295.89217914483964 431.8105126212502 296.0385758654349 431.87760318033327 
C 296.24330168157957 431.4388494095517 296.4533642813098 430.99464975870154 296.668927978296 430.54500703999713 
C 296.8279991066563 431.1750678286264 296.98007773136965 431.7805244116226 297.1251272867186 432.3621485868038 
C 298.8603800931757 433.1142834411334 300.5039508352047 433.72125452436825 302.0573919604389 434.19555418855754 
C 302.2382632514174 443.57335420517063 303.1099844367284 450.0353649789728 304.3190322849498 454.4793955085759 
C 303.5073803440874 456.64351100458623 302.5185359499237 458.42878037430376 301.4495985432633 459.954701457148 
C 302.66773483097955 461.8843918394707 303.6610594730258 464.2507510289955 304.22322221892006 467.3192554224747 
 z
"
    />
    -->
    <!--
    <path 
        class="shape"
        d=" M26.53 478.83
            C028.89 481.61 031.33 484.32 033.93 486.86
            C036.76 489.64 040.21 491.85 043.58 493.99
            C045.73 495.34 048.23 496.14 050.61 497.11
            C053.89 498.45 057.19 499.72 060.50 500.99
            C060.91 501.15 061.41 501.06 061.87 501.12
            C064.94 501.53 068.02 502.34 071.08 502.28
            C072.34 502.26 073.60 502.20 074.87 502.12
            C085.21 503.33 095.76 502.51 105.73 499.31
            C110.52 497.78 113.55 492.97 112.18 487.96
            C110.88 483.27 105.62 479.98 100.83 481.52
            C098.89 482.14 096.93 482.69 094.94 483.11
            C094.81 483.14 094.67 483.17 094.54 483.19
            C089.45 483.24 084.36 483.26 079.28 483.03
            C076.29 482.89 073.35 481.55 070.39 480.71
            C068.78 480.26 067.22 479.59 065.59 479.24 
            C61.57 478.38 58.35 476.04 54.89 474.01
            C49.08 470.59 44.99 465.47 40.7 460.6
            C38.61 458.22 37.54 454.93 36.08 452.02
            C34.73 449.33 33.31 446.67 32.25 443.87
            C31.43 441.75 31.1 439.45 30.6 437.21
            C29.75 433.46 28.92 429.71 28.11 425.95
            C27.97 425.28 27.95 424.58 27.94 423.89
            C27.9 418.35 27.68 412.81 27.91 407.28
            C28.08 403.39 28.68 399.48 29.45 395.65
            C30.05 392.75 30.98 389.86 32.23 387.18
            C33.57 384.26 35.62 381.67 37.06 378.79
            C39.89 373.14 44.36 368.86 48.81 364.65
            C51.41 362.19 54.72 360.49 57.71 358.46
            C60.25 356.73 62.72 354.87 65.37 353.34
            C67.52 352.09 69.93 351.28 72.19 350.21
            C74.61 349.06 76.97 347.77 79.39 346.63
            C80.9 345.93 82.49 345.41 84.04 344.79
            C86.24 343.92 88.4 342.95 90.64 342.19
            C92.57 341.53 94.6 341.17 96.53 340.54
            C98.59 339.86 100.6 338.99 102.63 338.21
            C102.9 338.11 103.17 337.99 103.45 337.9
            C106.2 337.02 108.92 336.05 111.7 335.27
            C114.05 334.62 116.5 334.29 118.83 333.59
            C120 333.25 121.13 332.81 122.26 332.36
            C148.46 326.73 173.99 318.54 198.71 308.17
            C200.62 309.46 202.61 310.58 204.64 311.72
            C207.7 313.44 210.93 314.52 214.11 315.86
            C216.07 316.68 218.09 317.22 220.1 317.77
            C222.01 318.51 223.96 319.17 225.94 319.72
            C227.34 320.1 228.75 320.31 230.15 320.35
            C236.47 321.4 242.86 321.3 249.27 321.22
            C251.64 321.19 252.69 322.13 253.8 324.33
            C255.13 326.97 255 329.52 254.67 332.02
            C254.28 335 253.16 337.88 252.29 340.79
            C251.87 342.18 251.26 343.5 250.85 344.89
            C250.55 345.91 251 347.61 249.3 347.38
            C248.34 347.25 247.18 346.27 246.68 345.36
            C245.02 342.36 243.34 339.35 240.71 337.15
            C238.06 334.95 231.59 333.9 227.91 336.1
            C225.83 337.34 224.96 338.97 224.35 341
            C223.9 342.47 222.95 344.13 223.27 345.44
            C224.16 349.04 224.77 352.87 228.95 354.77
            C230.53 355.49 232.02 356.15 233.57 355.84
            C235.75 355.41 237.33 356.65 238.84 357.56
            C239.55 357.98 239.62 360.07 239.37 361.27
            C239.23 361.96 237.88 362.84 237.05 362.87
            C233.29 363 229.48 362.47 225.76 362.89
            C219.57 363.6 214.89 367.13 216.35 374.21
            C216.9 376.93 217.84 380.45 220.72 381.53
            C223.73 382.67 226.7 384.74 230.65 382.57
            C232.98 381.29 235.24 380.3 237.06 378.26
            C237.72 377.52 239.21 377.52 240.54 377.11
            C241.63 379.5 241.36 379.78 239.07 380.89
            C234.12 383.29 229.15 386 226.47 391
            C225.46 392.89 225.73 395.89 226.37 398.12
            C226.93 400.09 228.72 401.76 230.12 403.43
            C232.16 405.87 237.28 406.06 240.04 404.86
            C243.24 403.46 245.13 400.89 247.34 398.58
            C248.28 397.61 248.78 396.15 249.26 394.83
            C249.89 393.08 250.32 391.25 250.8 389.59
            C252.13 389.93 253.06 390.29 254.03 390.39
            C254.46 390.43 254.83 390.53 255.15 390.68
            C254.88 393.8 254.9 396.94 255.29 400.03
            C255.38 400.78 255.49 401.55 255.63 402.32
            C255.66 402.49 255.68 402.67 255.7 402.84
            C255.71 402.97 255.76 403.11 255.81 403.24
            C255.95 403.87 256.1 404.5 256.28 405.13
            C256.49 406.44 256.97 407.56 257.62 408.59
            C258.49 410.28 259.67 411.76 261.26 412.81
            C261.56 413.12 261.86 413.44 262.16 413.76
            C262.4 413.7 262.64 413.67 262.87 413.66
            C263.28 413.82 263.7 413.96 264.14 414.07
            C264.74 414.22 265.33 414.32 265.91 414.36
            C266.98 414.71 268.14 414.96 269.58 414.47
            C273.44 413.16 276.26 410.79 277.79 407.96
            C279.43 404.91 281.08 401.15 278.77 396.94
            C277.26 394.19 275.4 392.22 273.06 390.45
            C271.1 388.97 270.86 386.36 272.47 384.41
            C272.67 384.17 272.85 383.9 273.02 383.62
            C273.98 383.13 274.77 382.28 275.18 381.02
            C275.67 380.77 276.24 380.61 276.65 380.71
            C279.72 381.39 282.71 382.43 285.79 383.06
            C287.71 383.46 289.75 383.33 291.73 383.5
            C294.83 383.77 297.56 382.83 299.65 380.61
            C300.68 379.53 301.57 378.01 301.83 376.56
            C302.22 374.4 302.14 372.12 302.02 369.9
            C301.78 365.46 299.12 362.89 295.05 361.09
            C292.4 359.92 289.89 359.89 287.32 360.11
            C285.67 360.25 284.09 361.26 282.5 361.93
            C281.72 362.26 281 362.68 280.3 363.04
            C278.49 359.49 277.75 355.93 275.86 352.73
            C274.86 351.04 274.71 348.07 276.61 345.77
            C278.4 343.59 279.59 340.94 281.22 338.61
            C282.8 336.34 284.7 334.29 286.27 332.01
            C287.51 330.2 288.47 328.21 289.55 326.3
            C290.78 324.13 292.31 322.06 293.13 319.74
            C293.8 317.87 293.71 315.7 293.79 313.66
            C293.85 312.06 294.11 310.24 293.49 308.87
            C292.17 305.95 292.51 302.6 290.14 299.83
            C288.15 297.52 286.25 295.1 283.79 293.38
            C280.41 291.01 277.59 287.89 273.56 286.32
            C269.73 284.82 266.1 282.78 262.42 280.89
            C260.18 279.74 258.03 278.42 255.84 277.18
            C255.77 277.14 255.7 277.1 255.63 277.08
            C253.6 276.54 251.58 276 248.88 275.28
            C249.72 273.52 250.19 271.66 251.31 270.36
            C253.41 267.93 255.31 265.09 258.54 263.98
            C262.48 262.63 266.39 260.29 270.74 262.8
            C270.99 262.94 271.33 262.93 271.63 262.98
            C274.76 263.5 277.92 263.85 281 264.58
            C283.09 265.07 285.05 266.1 287.07 266.88
            C287.28 266.96 287.5 267.03 287.72 267.07
            C290.58 267.61 293.56 267.79 296.27 268.73
            C302.93 271.05 309.73 269.77 316.46 269.95
            C320.21 270.05 323.73 268.88 327.13 267.36
            C329.48 266.31 331.94 265.47 334.24 264.33
            C335.25 263.82 335.97 262.75 336.88 261.99
            C337.77 261.26 338.64 260.49 339.52 259.73
            C340.89 259.07 342.25 258.37 343.6 257.6
            C344.12 257.31 344.64 257 345.16 256.69
            C344.05 263.92 342.79 271.12 341.39 278.3
            C341.04 280.09 340.67 281.88 340.31 283.67
            C340.05 284.27 339.78 284.88 339.53 285.49
            C338.85 287.15 338.49 288.95 337.88 290.65
            C337.2 292.55 336.38 294.4 335.66 296.29
            C335.43 296.91 335.35 297.59 335.18 298.23
            C334.83 299.59 334.43 300.93 334.11 302.29
            C333.98 302.8 333.79 303.48 334.01 303.86
            C335.37 306.21 336.54 308.78 338.37 310.7
            C339.88 312.29 342.18 313.16 344.2 314.23
            C346.83 315.61 349.5 316.96 352.23 318.15
            C353.89 318.87 355.75 319.13 357.42 319.83
            C360.38 321.06 363.28 322.43 366.18 323.81
            C366.55 323.99 366.91 324.59 366.94 325.01
            C367.16 328.29 368.88 330.76 371.2 333.11
            C369.84 334.45 368.46 335.74 367.17 337.12
            C364.72 339.73 363.92 342.88 363.98 346.42
            C364.03 349.35 364.4 351.98 367.18 353.6
            C367.8 353.96 368.49 354.35 369.18 354.39
            C371.24 354.49 373.32 354.45 375.39 354.44
            C378.76 354.42 380.39 351.74 382.04 349.56
            C383.08 348.17 383.1 345.96 383.44 344.1
            C383.54 343.57 383.13 342.95 383.02 342.37
            C382.91 341.77 382.64 341.04 382.86 340.56
            C382.98 340.3 383.12 340.08 383.28 339.89
            C383.52 339.82 383.75 339.73 383.99 339.64
            C384.72 341.2 386.15 341.99 387.78 342.13
            C387.79 342.87 387.75 343.62 387.83 344.36
            C388.17 347.84 389.18 351.1 391.5 353.81
            C392.89 355.43 395.81 356.01 398.42 355.81
            C400.6 356.14 402.85 355.64 404.54 353.97
            C405.69 352.83 406.39 351.45 406.7 350
            C406.93 349.49 407.05 348.91 407.08 348.35
            C407.15 346.76 407.1 345.15 407.1 343.65
            C409.1 344.08 410.88 344.73 412.68 344.81
            C417.31 345 418.04 345.08 421.18 339.73
            C422.33 337.78 422.4 336.03 422.24 334.19
            C422.17 333.37 421.78 332.41 421.21 331.46
            C421.2 330.51 421.05 329.56 420.74 328.63
            C419.73 325.61 416.69 324.91 414.39 325.79
            C412.03 325.24 409.57 325.71 407.04 325.03
            C407.66 322.93 408.19 320.94 408.88 319
            C408.98 318.7 409.81 318.56 410.31 318.52
            C411.54 318.43 412.77 318.42 414 318.43
            C418.11 318.46 421.1 316.34 423.77 313.5
            C426.03 311.1 426.79 308.31 426.54 305.05
            C426.37 302.9 422.64 298.58 420.71 297.58
            C418.25 296.29 415.82 296.36 413.28 296.3
            C408.91 296.19 405.41 299.59 404.35 303.37
            C403.67 305.79 400.82 306.76 398.87 305.28
            C398.2 304.77 397.28 304.58 396.23 304.14
            C396.1 302.36 396.14 300.64 396.96 298.54
            C398.18 295.38 398.71 291.72 398.5 288.34
            C398.33 285.63 396.79 282.54 394.05 281.49
            C391.9 280.67 388.98 280.61 386.82 281.38
            C384.55 282.19 381.73 282.69 380.31 285.24
            C379.66 286.4 378.28 287.47 378.26 288.6
            C378.17 292.72 376.98 297 379.33 300.92
            C379.39 301.03 379.32 301.22 379.3 301.43
            C377.45 302.87 376.49 300.86 375.45 300.15
            C371.21 297.24 371.79 292.67 372.76 288.72
            C373.7 284.86 375.98 281.35 377.61 277.66
            C378.74 275.12 379.73 272.51 380.88 269.97
            C381.57 268.44 382.56 267.04 383.2 265.49
            C383.9 263.82 384.24 262 384.94 260.32
            C385.57 258.78 386.41 257.32 387.25 255.87
            C388.2 254.24 389.21 252.64 390.26 251.07
            C391.35 249.45 392.46 247.84 393.67 246.32
            C396.23 243.11 398.8 239.9 401.49 236.8
            C403.96 233.95 406.58 231.22 409.16 228.48
            C409.78 227.82 410.81 227.42 411.17 226.67
            C412.2 224.51 414.38 223.86 416.14 223.72
            C417.92 223.58 419.85 224.67 421.25 226.28
            C423.77 229.2 426.36 232.06 429.09 234.79
            C431.46 237.16 434.46 238.42 437.54 239.82
            C441.24 241.51 445.27 239.94 448.75 241.95
            C449.27 242.25 450.32 241.54 451.15 241.4
            C452.25 241.21 453.38 241.14 454.5 240.98
            C458.21 240.46 462 240.22 465.6 239.29
            C468.91 238.43 472.02 236.78 475.23 235.53
            C477.92 234.48 480.68 233.61 483.31 232.45
            C485.3 231.57 487.12 230.33 489.05 229.29
            C491.35 228.03 493.7 226.85 496 225.59
            C497.68 224.68 499.37 223.77 500.96 222.71
            C503.57 220.99 506.18 219.24 508.66 217.34
            C513.7 213.47 518.89 209.82 523.74 205.65
            C527.07 202.77 530.28 199.81 533.46 196.78
            C537.37 193.06 541.09 189.23 544.3 184.84
            C546.55 181.75 548.38 178.54 549.94 175.04
            C552.13 170.12 550.99 165.15 550.78 160.24
            C550.66 157.35 549.51 154.31 548.14 151.69
            C546.45 148.48 544.57 145.34 540.75 143.77
            C537.9 142.61 535.48 140.43 532.76 138.9
            C531.32 138.09 529.63 137.75 528.1 137.1
            C527.55 136.87 527 136.62 526.46 136.36
            C525.94 136.11 525.43 135.87 524.91 135.63
            C524.36 135.37 523.81 135.11 523.25 134.87
            C522.22 134.41 521.17 133.96 520.11 133.57
            C519.51 133.32 518.91 133.07 518.31 132.83
            C514.62 131.3 510.84 129.99 506.97 129
            C498.61 126.86 489.95 125.71 481.29 125.6
            C480.37 125.39 479.44 125.21 478.51 125.08
            C476.93 124.64 475.29 124.41 473.58 124.41
            C473.24 124.46 472.89 124.5 472.54 124.55
            C467.74 124.4 462.96 124.81 458.22 125.08
            C454.86 125.28 451.3 125.61 447.9 126.22
            C445.19 126.72 442.58 127.79 439.92 128.6
            C438.3 129.09 436.71 129.71 435.06 130.02
            C430.12 130.93 425.98 133.73 421.78 136.11
            C418.81 137.79 416.63 140.84 414.07 143.25
            C412.24 144.97 411.54 147 411.05 149.52
            C410.47 152.54 408.46 155.26 407.46 158.25
            C406.41 161.38 404.1 163.23 401.83 165.32
            C400.11 166.9 398.04 166.58 396.78 165.92
            C393.62 164.25 390.5 162.34 388.99 158.64
            C388.21 156.75 386.63 155.2 385.51 153.42
            C384.82 152.34 384.37 151.11 383.73 150
            C381.78 146.62 379.86 143.22 377.79 139.91
            C376.11 137.21 374.29 134.6 372.45 132
            C369.45 127.77 367.85 123.12 368.45 117.9
            C368.56 116.95 369.32 116.08 369.78 115.17
            C370.39 115.53 371.07 115.8 371.6 116.26
            C373.27 117.7 374.89 119.21 376.53 120.7
            C378.17 122.18 379.99 123.24 382.27 123.26
            C383.81 123.27 385.36 123.38 386.88 123.26
            C390.34 123 392.64 120.89 394.68 118.3
            C396.77 115.65 396.52 112.47 395.79 109.78
            C395.19 107.58 393.12 105.61 391.33 103.92
            C388.6 101.35 385.09 100.8 381.44 101.2
            C380.86 101.27 380.31 101.67 379.73 101.71
            C378.62 101.81 377.48 101.87 376.37 101.74
            C375.58 101.65 374.84 101.21 373.92 100.87
            C373.41 98.87 372.87 96.74 372.18 93.99
            C375.5 93.54 378.27 92.89 381.05 92.84
            C385.13 92.79 388.09 90.84 390.65 88.23
            C391.29 87.81 391.9 87.31 392.45 86.72
            C395.61 83.31 396.5 78.37 394.15 74.22
            C391.84 70.1 386.75 67.15 381.98 68.81
            C380.78 69.23 379.69 69.78 378.72 70.45
            C376.99 71.4 374.73 71.71 373.38 73.49
            C372.56 74.57 371.63 75.72 371.27 76.99
            C370.33 80.26 369.41 80.93 365.79 80.27
            C365.21 77.27 366.56 74.55 369.28 73.51
            C371.61 72.62 372.67 70.66 374.13 68.83
            C375.89 66.63 375.02 64.12 376.01 61.86
            C376.57 60.58 375.18 58.36 374.49 56.63
            C374.11 55.69 373.44 54.82 372.77 54.03
            C369.49 50.21 365.04 50.78 360.97 51.6
            C359.11 51.97 357.36 54.09 356.08 55.82
            C354.22 58.33 353.1 61.29 353.28 64.54
            C353.32 65.28 353.83 65.99 354.04 66.73
            C354.22 67.37 354.47 68.08 354.37 68.7
            C354.07 70.54 353.61 72.35 353.28 74.18
            C351.24 75.71 349.05 76.64 347.08 75.76
            C346.04 74.79 345.12 73.6 344.74 72.82
            C342.98 69.13 344.1 65.17 343.28 61.5
            C342.51 58.02 340.9 54.78 337.66 52.37
            C335.33 50.63 332.65 50.14 330.26 48.83
            C329.83 48.59 329.17 48.57 328.68 48.7
            C324.43 49.84 320.62 51.3 318.28 55.67

            C316.45 59.07 316.83 62.47 317.45 65.63
            C318.06 68.76 320.42 71.49 323.15 73.42
            
            C323.66 73.78 324.23 74.08 324.8 74.36
            C326.33 75.73 328 76.98 329.65 78.19
            C329.99 78.44 330.36 78.6 330.75 78.71
            C330.86 78.99 330.95 79.26 330.98 79.53
            C331.24 81.65 330.96 83.71 330.1 85.93
            C330.04 86.1 329.97 86.26 329.89 86.41
            C329.43 86.96 329.04 87.56 328.74 88.19
            C328.24 88.7 327.67 89.07 326.97 89.36
            C321.86 87.67 316.19 88.02 311.21 90.12
            C307.47 90.72 304.61 92.96 302.55 96.26
            C301.72 97.59 302.08 99.67 301.91 101.4
            C301.38 106.59 303.96 110.74 307.93 113
            C310.95 114.72 314.76 115.98 319.04 114.09
            C321.82 112.86 324.25 111.54 326.44 109.56
            C327.22 108.86 328.05 108.19 328.55 107.77
            C331.29 110.92 333.68 113.62 336 116.37
            C336.38 116.83 336.6 117.55 336.6 118.15
            C336.6 121.54 336.58 124.92 336.39 128.3
            C336.34 129.3 335.58 130.25 335.41 131.27
            C334.94 134.02 336.06 136.23 337.3 138.72
            C338.56 141.25 340.88 143.09 342.39 145.43
            C342.32 146.25 342.48 147.13 342.98 148.04
            C343.14 148.33 343.28 148.64 343.4 148.94
            C343.19 150.03 342.71 151.03 341.96 151.76
            C341.08 152.63 340.01 153.21 338.88 153.49
            C337.62 153.23 336.37 152.95 335.12 152.69
            C334.61 152.58 334.1 152.43 333.58 152.39
            C333.3 152.36 333.01 152.34 332.72 152.31
            C332.13 152.14 331.54 152.11 331 152.19
            C325.95 151.86 320.84 151.77 315.98 150.65
            C309.33 149.11 302.74 149.8 296.15 149.77
            C291.17 149.74 286.16 150.41 281.21 151.17
            C277.44 151.75 273.64 152.6 270.1 153.96
            C265.59 155.7 261.33 158.07 256.98 160.2
            C252.4 162.45 248.48 165.65 244.82 169.12
            C242.45 171.36 240.38 173.93 238.26 176.43
            C236.04 179.02 233.82 181.62 231.81 184.37
            C230.48 186.2 229.62 188.36 228.4 190.27
            C226.97 192.51 225.34 194.62 223.89 196.84
            C222.62 198.78 221.51 200.82 220.26 202.76
            C219.13 204.51 217.84 206.16 216.73 207.92
            C215.52 209.84 214.53 211.89 213.28 213.79
            C211.83 215.99 210.26 218.12 208.64 220.2
            C207.77 221.29 206.74 222.28 205.67 223.18
            C203.41 225.1 201.6 224.48 200.97 221.58
            C200.4 218.96 200.06 216.29 199.39 213.7
            C198.73 211.13 197.77 208.64 196.97 206.12
            C196.83 205.69 196.8 205.21 196.76 204.76
            C196.42 200.61 194.85 196.89 192.88 193.29
            C192.18 192.02 191.81 190.56 191.22 189.22
            C190.27 187.1 189.3 184.99 188.27 182.9
            C187.41 181.19 186.53 179.48 185.5 177.86
            C184.14 175.74 182.63 173.71 181.18 171.65
            C179.38 169.08 177.73 166.39 175.74 163.98
            C173.93 161.8 171.82 159.84 169.72 157.93
            C167.2 155.65 164.73 153.22 161.88 151.41
            C159.5 149.91 156.61 149.19 153.93 148.18
            C152.69 147.71 151.38 146.92 150.16 147.02
            C144.69 147.46 139.98 149.17 136.95 154.41
            C135.03 157.73 132.22 160.51 129.89 163.59
            C128.63 165.27 127.53 167.06 126.4 168.83
            C125.2 170.7 124.04 172.61 122.87 174.5
            C122.24 173.81 122.03 173.08 122.28 172.57
            C124.13 168.89 123.74 165.39 122.31 161.58
            C121.56 159.59 120.16 158.47 118.96 157.07
            C117.54 155.4 112.07 155.21 109.88 155.97
            C107.83 156.67 106.03 157.53 104.84 159.32
            C103.99 160.61 103.04 161.97 102.73 163.42
            C102.33 165.27 102.52 167.24 102.46 169.16
            C102.38 171.83 103.51 173.96 105.01 176.13
            C106.21 177.87 106.71 180.09 107.52 182.09
            C104.11 183.68 103.12 182.85 102.46 179.53
            C101.43 174.26 99.93 169.18 94.74 166.04
            C90.71 163.6 84.68 164.42 81.8 168.07
            C79.22 171.33 78.49 175.03 79.27 178.84
            C79.82 181.52 81.38 184.03 83.9 185.49
            C85.17 186.23 86.72 186.45 88.08 187.04
            C89.21 187.53 90.38 188.1 91.24 188.94
            C91.59 189.28 91.43 190.64 91.02 191.16
            C88.51 194.39 83.69 193.54 81.83 189.78
            C81.29 188.7 80.17 187.84 79.16 187.09
            C76.43 185.07 73.21 185.54 70.09 185.49
            C67.51 185.46 65.5 186.53 63.72 188.31
            C62.18 189.86 61.07 191.55 61.07 193.82
            C61.07 194.2 61.09 194.6 61.02 194.97
            C59.98 200.4 63.64 203.23 67.25 206.03
            C67.76 206.43 68.75 206.18 69.49 206.36
            C70.4 206.57 71.28 206.94 72.19 207.2
            C72.68 207.34 73.23 207.54 73.69 207.44
            C75.34 207.08 76.95 206.58 78.59 206.16
            C80.63 205.64 82.67 205.14 85.01 204.56
            C85.34 204.7 85.68 204.85 86.02 204.98
            C86.03 207.36 86.1 209.17 85.98 210.96
            C85.91 212.13 82.69 214.6 81.35 214.65
            C75.78 214.85 71.46 217.65 68.36 221.86
            C65.64 225.55 65.53 230.46 67.05 234.43
            C68.22 237.49 70.83 240.71 75.06 241
            C75.55 241.03 76.01 241.36 76.49 241.54
            C76.97 241.72 77.51 242.15 77.93 242.05
            C82.62 240.91 87 239.08 89.91 235.03
            C90.88 233.68 91.08 231.77 91.65 230.13
            C92.12 228.77 92.98 227.73 93.94 226.79
            C95.17 226.34 96.16 225.38 96.65 224.18
            C98.01 222.7 99.4 222.84 100.94 223.31
            C101.53 223.48 102.08 223.77 102.74 224.11
            C103.2 225.69 103.67 227.26 104.13 228.83
            C104.11 231.86 104.09 234.9 104.04 237.92
            C103.95 242.96 106 246.99 109.82 250.15
            C110.33 250.57 111.26 250.48 112 250.62
            C112.23 250.66 112.47 250.71 112.7 250.75
            C118.54 252.79 125.79 250.55 129.32 245.48
            C129.52 245.21 129.72 244.92 129.9 244.61
            C131.36 242.16 132.61 239.18 131.43 236.12
            C131.09 233.24 129.93 230.47 127.85 228.36
            C127 227.17 125.9 226.21 124.42 225.55
            C123.47 225.13 122.14 224.13 122.13 223.38
            C122.11 222.31 122.89 220.88 123.78 220.2
            C127.08 217.68 130.58 215.43 133.98 213.03
            C135.65 211.86 137.19 210.5 138.91 209.4
            C139.85 208.8 141.01 208.52 142.55 207.94
            C142.63 207.94 142.71 207.96 142.79 207.96
            C143.19 209.19 143.7 210.55 144.03 211.95
            C144.23 212.76 144.07 213.64 144.16 214.48
            C144.65 218.83 144.99 223.21 145.74 227.51
            C146.4 231.28 147.33 235.04 148.49 238.69
            C149.18 240.9 150.03 243.06 150.95 245.2
            C152.35 251.56 154.34 257.81 156.89 263.78
            C156.72 264 156.54 264.21 156.37 264.4
            C154.27 266.78 151.96 269.03 149.47 270.98
            C147.7 272.37 145.47 273.13 143.49 274.26
            C142.53 274.81 141.58 275.4 140.64 275.99
            C112.5 288.94 110.02 289.91 107.6 291.01
            C104.91 292.24 102.35 293.74 99.72 295.1
            C98.16 295.76 97.94 295.81 97.73 295.84
            C95.86 296.13 94.01 297.01 92.33 298.2
            C91.46 298.53 90.6 298.88 89.76 299.28
            C88.1 300.06 86.54 301.06 84.95 302
            C76.76 305.83 68.58 309.65 60.39 313.47
            C59.27 313.64 58.18 314.03 57.19 314.68
            C22.23 337.86 -3.67 377.77 0.43 420.98
            C2.5 442.89 11.12 463.54 26.53 478.83
            z"
    />-->
</svg>    
