<?xml version="1.0"?>
<svg 
		xmlns="http://www.w3.org/2000/svg"
		viewBox="0 -1000 1000 1000" 
		version="1.1"
		width="1000"
		height="1000"
>
    <path
    		class="shape"
    		d="
            M 791 -173L 791 -171
            Q 792 -169 792 -160L 792 -160
            Q 792 -111 755.50 -72.50
            Q 719 -34 655 -12.50
            Q 591 9 507 9L 507 9
            Q 417 9 340 -12
            Q 263 -33 209 -72L 209 -72
            Q 192 -85 183 -92
            Q 174 -99 167 -106L 167 -106
            Q 117 -159 103 -224L 103 -224L 103 -226
            Q 103 -231 102 -232L 102 -232
            Q 102 -237 101 -239L 101 -239L 101 -242
            Q 101 -244 100.50 -246
            Q 100 -248 100 -250L 100 -250L 100 -252
            Q 100 -254 100 -256.50
            Q 100 -259 100 -261L 100 -261
            Q 100 -308 120 -333.50
            Q 140 -359 177 -359L 177 -359
            Q 212 -359 250 -330L 250 -330
            Q 690 -224 689 -220L 689 -220L 679 -197L 686 -203L 693 -209
            Q 716 -229 727.50 -236.50
            Q 739 -244 747 -244L 747 -244
            Q 765 -244 777.50 -224.50
            Q 790 -205 791 -173L 791 -173
            Z
            
            
            M 169 -347L 169 -347
            Q 142 -345 126.50 -322
            Q 111 -299 111 -261L 111 -261L 111 -256
            Q 111 -230 122 -199L 122 -199
            Q 145 -138 201 -92L 201 -92
            Q 205 -90 208.50 -87
            Q 212 -84 215 -82L 215 -82
            Q 291 -32 398 -32L 398 -32
            Q 448 -32 492.50 -47
            Q 537 -62 575.50 -85
            Q 614 -108 644.50 -132.50
            Q 675 -157 697 -176L 697 -176
            Q 701 -179 704 -182.50
            Q 707 -186 711 -188L 711 -188
            Q 729 -205 739 -211.50
            Q 749 -218 757 -218L 757 -218L 760 -218
            Q 760 -218 759.50 -218
            Q 759 -218 758 -218L 758 -218L 753 -218L 749 -218
            Q 746 -218 742 -216L 742 -216
            Q 730 -210 719.50 -201.50
            Q 636 -134 613 -121L 613 -121
            Q 635 -136 654.50 -154.50
            Z
    "/>
    <!--
    <path
    		class="shape"
    		d="
            M 791 -173L 791 -171
            Q 792 -169 792 -160L 792 -160
            Q 792 -111 755.50 -72.50
            Q 719 -34 655 -12.50
            Q 591 9 507 9L 507 9
            Q 417 9 340 -12
            Q 263 -33 209 -72L 209 -72
            Q 192 -85 183 -92
            Q 174 -99 167 -106L 167 -106
            Q 117 -159 103 -224L 103 -224L 103 -226
            Q 103 -231 102 -232L 102 -232
            Q 102 -237 101 -239L 101 -239L 101 -242
            Q 101 -244 100.50 -246
            Q 100 -248 100 -250L 100 -250L 100 -252
            Q 100 -254 100 -256.50
            Q 100 -259 100 -261L 100 -261
            Q 100 -308 120 -333.50
            Q 140 -359 177 -359L 177 -359
            Q 212 -359 250 -330L 250 -330
            Q 690 -224 689 -220L 689 -220L 679 -197L 686 -203L 693 -209
            Q 716 -229 727.50 -236.50
            Q 739 -244 747 -244L 747 -244
            Q 765 -244 777.50 -224.50
            Q 790 -205 791 -173L 791 -173
            Z
            
            
            M 169 -347L 169 -347
            Q 142 -345 126.50 -322
            Q 111 -299 111 -261L 111 -261L 111 -256
            Q 111 -230 122 -199L 122 -199
            Q 145 -138 201 -92L 201 -92
            Q 205 -90 208.50 -87
            Q 212 -84 215 -82L 215 -82
            Q 291 -32 398 -32L 398 -32
            Q 448 -32 492.50 -47
            Q 537 -62 575.50 -85
            Q 614 -108 644.50 -132.50
            Q 675 -157 697 -176L 697 -176
            Q 701 -179 704 -182.50
            Q 707 -186 711 -188L 711 -188
            Q 729 -205 739 -211.50
            Q 749 -218 757 -218L 757 -218L 760 -218
            Q 760 -218 759.50 -218
            Q 759 -218 758 -218L 758 -218L 753 -218L 749 -218
            Q 746 -218 742 -216L 742 -216
            Q 730 -210 719.50 -201.50
            Q 636 -134 613 -121L 613 -121
            Q 635 -136 654.50 -154.50
            Z
            
            M 703 -45
            
            Q 778 -206 757 -206
            L 757 -206

            Q 751 -206 741 -198.50
            Q 731 -191 717 -180
            L 717 -180
            Z
    "/>
    -->

    <!-- canonical multi-level reversed orientation nested tree -->
    <!--<path
        class="shape"
        d=" M 112 -59 
            L 320 -77 
            L 280 -14 
            z

            M 110 -42
            L 275 -60
            L 213 -38 
            L 156 -69 
            L 309 -64 
            L 250 -40
            L 206 -63 
            L 199 -09 
            z
            "
    />-->
    <!--
    <path
        class="shape"
        d=" M 0 0
            L 100 0
            L 100 100
            z

            M 75 20
            L 125 20
            L 125 21
            L 75 21
            z
            "
    />
    -->
    <!--
    <path
        class="shape"
        d=" M 712 -259 
            L 915 -277 
            L 803 -184 
            z

            M 720 -220
            Q 753 -264 930 -265 
            L 821 -263 
            z
            "
    />
    -->
    <!--
    <path
        class="shape"
        d=" M 712 -259 
            L 846 -270 
            L 809 -261 
            L 940 -277 
            L 880 -214 
            L 893 -174 
            L 803 -184 
            z

            M 630 -242
            Q 753 -264 930 -265 
            L 821 -263 
            Q 865 -261 941 -254 
            L 894 -256 
            L 806 -266 
            Q 797 -243 757 -209 
            z
            "
    />
    -->
    <!--
    <path
        class="shape"
        d=" M 712.9375 -259.3125 
            Q 780.5625 -282.6875 846.8125 -270.4375 
            Q 859.3125 -292.5625 809.1875 -261.6875 
            Q 821.5625 -291.5625 940.4375 -277.1875 
            Q 819.0625 -244.8125 880.6875 -214.3125 
            L 893.0625 -174.6875 
            L 803.3125 -184.4375 
            z

            M 630.0625 -242.3125
            Q 753.8125 -264.8125 930.5625 -265.6875 
            L 821.3125 -263.3125 
            Q 865.8125 -261.6875 941.4375 -254.0625 

            L 813.1875 -238.4375 
            L 756.1875 -269.8125 
            
            Q 909.0625 -264.3125 894.9375 -256.5625 
            L 806.0625 -266.4375 
            Q 797.3125 -243.6875 757.0625 -209.9375 
            z
            "
    />
    -->
    <!--
    <path
        class="shape"
        d=" M 712.9375 -259.3125 
            Q 780.5625 -282.6875 846.8125 -270.4375 
            Q 859.3125 -292.5625 809.1875 -261.6875 
            Q 821.5625 -291.5625 940.4375 -277.1875 
            Q 819.0625 -244.8125 880.6875 -214.3125 
            L 893.0625 -174.6875 
            L 803.3125 -184.4375 
            z

            M 430.0625 -227.3125
            Q 753.8125 -264.8125 930.5625 -265.6875 
            L 821.3125 -263.3125 
            Q 865.8125 -261.6875 941.4375 -254.0625 

            L 813.1875 -238.4375 
            L 756.1875 -269.8125 
            
            Q 909.0625 -264.3125 894.9375 -256.5625 
            L 806.0625 -266.4375 
            Q 797.3125 -243.6875 757.0625 -209.9375 
            z
            "
    />-->
    <!--
    <path
        class="shape"
        d=" M 712.9375 -259.3125 
            Q 780.5625 -282.6875 846.8125 -270.4375 
            Q 859.3125 -292.5625 809.1875 -261.6875 
            L 821.5625 -287.1875 
            Q 821.5625 -291.5625 940.4375 -277.1875 
            Q 819.0625 -244.8125 880.6875 -214.3125 
            L 893.0625 -174.6875 
            L 803.3125 -184.4375 
            z

            M 130.0625 -227.3125
            Q 753.8125 -264.8125 930.5625 -265.6875 
            L 821.3125 -263.3125 
            L 933.6875 -261.3125 
            Q 814.4375 -262.0625 827.5625 -262.0625 
            Q 865.8125 -261.6875 941.4375 -254.0625 

            L 813.1875 -238.4375 
            L 756.1875 -269.8125 
            
            Q 909.0625 -264.3125 894.9375 -256.5625 
            L 806.0625 -266.4375 
            Q 797.3125 -243.6875 757.0625 -209.9375 
            z
            "
    />
    -->
    <!--
    <path
        class="shape"
        d=" M 803.3125 -184.4375
            L 931.3125 -194.3125 
            Q 863.4375 -179.0625 954.4375 -173.5625 
            L 872.3125 -160.0625 
            L 106.1875 -271.6875 
            L 107.6875 -297.8125 
            Q 109.8125 -264.9375 100.3125 -304.3125 
            Q 108.9375 -315.0625 109.0625 -318.6875 
            L 106.8125 -290.0625 
            Q 109.0625 -381.4375 131.9375 -363.5625 
            Q 153.3125 -371.3125 194.1875 -387.8125 
            L 193.6875 -420.9375 
            Q 260.3125 -405.6875 307.9375 -368.3125 
            L 310.1875 -387.1875 
            Q 744.9375 -277.8125 844.0625 -258.1875 
            L 695.6875 -264.0625 
            L 712.9375 -259.3125 
            Q 780.5625 -282.6875 846.8125 -270.4375 
            Q 859.3125 -292.5625 809.1875 -261.6875 
            L 821.5625 -287.1875 
            Q 821.5625 -291.5625 940.4375 -277.1875 
            Q 819.0625 -244.8125 880.6875 -214.3125 
            L 893.0625 -174.6875 
            L 803.3125 -184.4375 
            z

            M 197.9375 -403.6875
            L 190.4375 -428.6875 
            Q 152.5625 -419.6875 150.4375 -371.0625 
            Q 133.4375 -340.1875 133.3125 -301.6875 
            L 131.0625 -325.1875 
            L 130.1875 -273.8125 
            Q 128.4375 -281.0625 131.9375 -199.4375 
            L 130.0625 -227.3125 
            Q 753.8125 -264.8125 930.5625 -265.6875 
            L 821.3125 -263.3125 
            L 933.6875 -261.3125 
            Q 814.4375 -262.0625 827.5625 -262.0625 
            Q 865.8125 -261.6875 941.4375 -254.0625 
            L 813.1875 -238.4375 
            L 802.9375 -268.4375 
            L 756.1875 -269.8125 
            Q 909.0625 -264.3125 894.9375 -256.5625 
            L 806.0625 -266.4375 
            Q 797.3125 -243.6875 757.0625 -209.9375 
            Q 747.1875 -142.0625 732.5625 -141.5625 
            L 761.5625 -133.0625 
            Q 754.5625 -166.3125 800.6875 -157.0625 
            L 197.9375 -403.6875 
            z

            "
    />
    -->
    <!--
    <path
        class="shape"
        d=" M 803.3125 -184.4375
            L 931.3125 -194.3125 
            Q 863.4375 -179.0625 954.4375 -173.5625 
            L 872.3125 -160.0625 
            L 106.1875 -271.6875 
            L 107.6875 -297.8125 
            Q 109.8125 -264.9375 100.3125 -304.3125 
            Q 108.9375 -315.0625 109.0625 -318.6875 
            L 106.8125 -290.0625 
            Q 109.0625 -381.4375 131.9375 -363.5625 
            Q 153.3125 -371.3125 194.1875 -387.8125 
            L 193.6875 -420.9375 
            Q 260.3125 -405.6875 307.9375 -368.3125 
            L 310.1875 -387.1875 
            Q 744.9375 -277.8125 844.0625 -258.1875 
            L 695.6875 -264.0625 
            L 748.8125 -237.8125 
            L 715.8125 -214.4375 
            L 712.9375 -259.3125 
            Q 780.5625 -282.6875 846.8125 -270.4375 
            Q 859.3125 -292.5625 809.1875 -261.6875 
            L 821.5625 -287.1875 
            Q 821.5625 -291.5625 940.4375 -277.1875 
            Q 819.0625 -244.8125 880.6875 -214.3125 
            L 893.0625 -174.6875 
            L 803.3125 -184.4375 
            z

            M 197.9375 -403.6875
            L 190.4375 -428.6875 
            Q 152.5625 -419.6875 150.4375 -371.0625 
            Q 133.4375 -340.1875 133.3125 -301.6875 
            L 131.0625 -325.1875 
            L 130.1875 -273.8125 
            Q 128.4375 -281.0625 131.9375 -199.4375 
            L 130.0625 -227.3125 
            Q 175.1875 -139.9375 202.0625 -98.8125 
            L 249.9375 -96.6875 
            Q 252.5625 -98.6875 223.6875 -95.8125 
            Q 256.1875 -83.8125 269.0625 -97.9375 
            L 263.9375 -83.1875 
            Q 340.3125 -34.0625 482.0625 -38.1875 
            L 400.9375 -36.3125 
            Q 531.0625 -37.9375 552.0625 -55.9375 
            Q 597.5625 -65.3125 610.9375 -105.1875 
            Q 655.6875 -129.0625 691.5625 -141.9375 
            Q 676.4375 -193.3125 860.8125 -199.3125 
            L 855.8125 -186.8125 
            Q 803.6875 -184.1875 873.5625 -227.5625 
            Q 816.3125 -199.4375 781.3125 -208.8125 
            L 774.3125 -218.3125 
            Q 824.1875 -206.3125 867.5625 -257.1875 
            Q 753.8125 -264.8125 930.5625 -265.6875 
            L 821.3125 -263.3125 
            L 933.6875 -261.3125 
            Q 814.4375 -262.0625 827.5625 -262.0625 
            Q 865.8125 -261.6875 941.4375 -254.0625 
            L 813.1875 -238.4375 
            L 802.9375 -268.4375 
            L 756.1875 -269.8125 
            Q 909.0625 -264.3125 894.9375 -256.5625 
            L 806.0625 -266.4375 
            Q 797.3125 -243.6875 757.0625 -209.9375 
            Q 747.1875 -142.0625 732.5625 -141.5625 
            L 761.5625 -133.0625 
            Q 754.5625 -166.3125 800.6875 -157.0625 
            L 197.9375 -403.6875 
            z

            "
    />
    -->
<!--
<path
    		class="shape"
    		d="
            M 719 -201
            L 575 -85
            Q 749 -218 757 -218
            Q 760 -218 759 -218
            Q 759 -218 758 -218
            L 753 -218
            Z
    "/>-->
<!--
    <path
    		class="shape"
    		d="
            M 503 -50
            Q 212 -359 777 -224
            Q 790 -205 791 -173
            Z
            
            M 719 -201
            L 575 -85
            Q 749 -218 757 -218
            Q 760 -218 759 -218
            Q 759 -218 758 -218
            L 753 -218
            Z
    "/>
    -->
    <!--
    <path
    		class="shape"
    		d="
                M 558 -218 
                C 558.75 -218 558.75 -218 559 -218
                C 559.6079796678546 -218 559.2302545983102 -218 558 -218
                Z
            "/>
        -->    
<!-- C 558 -218 558 -218 558 -218 -->
<!-- INTERSECTION
		<path
    		class="shape"
    		d="
            M 455 -132
            Q 417 -121 303 -254
            Q 412 -359 591 -213
            Z
            
            M 400 -247
            Q 337 -262 375 -195
            Q 549 -218 557 -218
            Q 560 -218 559 -218
            Q 559 -218 558 -218
            Q 546 -218 542 -216
            Z
"/>
-->
<!--
		<path
    		class="shape"
    		d="
            M 455 -132
            Q 417 -121 303 -254
            Q 412 -359 591 -213
            Z
            
            M 400 -247
            Q 337 -262 375 -185
            Q 549 -218 557 -218
            Q 560 -218 559 -218
            Q 559 -218 558 -218
            Q 546 -218 542 -216
            Z
"/>
-->



<!--
558 -218,557.9999999999999 -217.99999999999997 558 -218 558 -218,
558 -218 558.75 -218,558.75 -218,559 -218,
559 -218 559.6079796678546 -218,559.2302545983102 -218 558 -218
-->

<!--
<path
    		class="shape"
    		d="
            M 792 -160
            Q 792 -111 755 -72
            Q 719 -34  655 -12
            Q 417 -159 503 -224
            Q 212 -359 777 -224
            Q 790 -205 791 -173
            Z
            
            M 600 -247
            Q 537 -262 575 -85
            Q 749 -218 757 -218
            Q 758 -218 759.50 -218
            Q 759 -218 758 -218
            L 753 -218
            L 719 -201
            Z
"/>
-->

<!--
<path
    		class="shape"
    		d="
            M 792 -160
            Q 792 -111 755 -72
            Q 719 -34  655 -12
            Q 417 -159 503 -224
            Q 212 -359 777 -224
            Q 790 -205 791 -173
            Z
            
            M 600 -247
            Q 537 -262 575 -85
            Q 749 -218 757 -218
            Q 760 -218 759.50 -218
            Q 759 -218 758 -218
            L 753 -218
            L 719 -201
            Z
"/>
-->


<!--
<path
    		class="shape"
    		d="
            M 791 -173
            L 791 -171
            Q 792 -169 792 -160
            Q 792 -111 755.50 -72.50
            Q 719 -34 655 -12.50
            Q 591 9 507 9
            Q 417 9 340 -12
            Q 263 -33 209 -72
            Q 192 -85 183 -92
            Q 174 -99 167 -106
            Q 117 -159 103 -224
            Q 212 -359 747 -244
            Q 765 -244 777.50 -224.50
            Q 790 -205 791 -173
            Z
            
            M 369 -247
            Q 537 -62 575 -85
            Q 614 -108 644 -132
            Q 707 -186 711 -188
            Q 729 -205 739 -211.50
            Q 749 -218 757 -218
            Q 760 -218 759.50 -218
            //Q 759 -218 758 -218
            L 753 -218
            L 749 -218
            Q 746 -218 742 -216
            Q 730 -210 719.50 -201.50
            
            Z
"/>
-->
<!--
		<path
    		class="shape"
    		d="
            M 791 -173
            L 791 -171
            Q 792 -169 792 -160
            Q 792 -111 755.50 -72.50
            Q 719 -34 655 -12.50
            Q 591 9 507 9
            Q 417 9 340 -12
            Q 263 -33 209 -72
            Q 192 -85 183 -92
            Q 174 -99 167 -106
            Q 117 -159 103 -224
            L 103 -226
            Q 212 -359 747 -244
            Q 765 -244 777.50 -224.50
            Q 790 -205 791 -173
            Z
            
            M 369 -247
            Q 537 -62 575.50 -85
            Q 614 -108 644.50 -132.50
            Q 707 -186 711 -188
            Q 729 -205 739 -211.50
            Q 749 -218 757 -218
            Q 760 -218 759.50 -218
            Q 759 -218 758 -218
            L 753 -218
            L 749 -218
            Q 746 -218 742 -216
            Q 730 -210 719.50 -201.50
            Q 635 -136 654.50 -154.50
            Z
            
            M 703 -45
            
            Q 778 -206 757 -206
            L 757 -206

            Q 751 -206 741 -198.50
            Q 731 -191 717 -180
            L 717 -180
            Z
"/>
-->

<!--
<path
    		class="shape"
    		d="
            M 791 -173
            L 791 -171
            Q 792 -169 792 -160
            Q 792 -111 755.50 -72.50
            Q 719 -34 655 -12.50
            Q 591 9 507 9
            Q 417 9 340 -12
            Q 263 -33 209 -72
            Q 192 -85 183 -92
            Q 174 -99 167 -106
            Q 117 -159 103 -224
            L 103 -226
            //Q 212 -359 250 -330
            //Q 690 -224 689 -220
            L 679 -197
            L 686 -203
            L 693 -209
            Q 716 -229 727.50 -236.50
            Q 739 -244 747 -244
            Q 765 -244 777.50 -224.50
            Q 790 -205 791 -173
            Z
            
            M 369 -247
            Q 537 -62 575.50 -85
            Q 614 -108 644.50 -132.50
            Q 707 -186 711 -188
            Q 729 -205 739 -211.50
            Q 749 -218 757 -218
            Q 760 -218 759.50 -218
            Q 759 -218 758 -218
            L 753 -218
            L 749 -218
            Q 746 -218 742 -216
            Q 730 -210 719.50 -201.50
            Q 635 -136 654.50 -154.50
            Z
            
            M 703 -45
            
            Q 778 -206 757 -206
            L 757 -206

            Q 751 -206 741 -198.50
            Q 731 -191 717 -180
            L 717 -180
            Z
"/>
-->
<!--
<path
    		class="shape"
    		d="
            M 791 -173
            L 791 -171
            Q 792 -169 792 -160
            Q 792 -111 755.50 -72.50
            Q 719 -34 655 -12.50
            Q 591 9 507 9
            Q 417 9 340 -12
            Q 263 -33 209 -72
            Q 192 -85 183 -92
            Q 174 -99 167 -106
            Q 117 -159 103 -224
            L 103 -226
            Q 103 -231 102 -232
            Q 102 -237 101 -239
            L 101 -239
            L 101 -242
            Q 101 -244 100.50 -246
            Q 100 -248 100 -250
            L 100 -250
            L 100 -252
            Q 100 -254 100 -256.50
            Q 100 -259 100 -261
            Q 100 -308 120 -333.50
            Q 140 -359 177 -359
            Q 212 -359 250 -330
            Q 690 -224 689 -220
            L 679 -197
            L 686 -203
            L 693 -209
            Q 716 -229 727.50 -236.50
            Q 739 -244 747 -244
            Q 765 -244 777.50 -224.50
            Q 790 -205 791 -173
            Z
            
            M 169 -347
            Q 537 -62 575.50 -85
            Q 614 -108 644.50 -132.50
            Q 707 -186 711 -188
            Q 729 -205 739 -211.50
            Q 749 -218 757 -218
            //Q 760 -218 759.50 -218
            Q 759 -218 758 -218
            L 753 -218
            L 749 -218
            Q 746 -218 742 -216
            Q 730 -210 719.50 -201.50
            Q 635 -136 654.50 -154.50
            Z
            
            M 703 -45
            
            Q 778 -206 757 -206
            L 757 -206

            Q 751 -206 741 -198.50
            Q 731 -191 717 -180
            L 717 -180
            Z
"/>
-->


<!--
Q 778 -206 757 -206
L 757 -206
-->

</svg>    