<svg
	xmlns="http://www.w3.org/2000/svg"
    version="1.1"
>
    <path 
        class="shape"
        d="
        M 1241 -758
        L 1241 -1245
        L 1267 -1245
        L 1394 -1126
        L 1394 -174
        Q 1394 -107 1408.50 -74
        Q 1423 -41 1452 -41
        L 1452 -41
        Q 1486 -41 1503.50 -95
        Q 1521 -149 1521 -258
        L 1521 -258
        L 1644 -137
        Q 1622 -68 1576.50 -34
        Q 1531 0 1462 0
        L 1462 0
        Q 1367 0 1304 -80
        Q 1241 -160 1241 -243
        L 1241 -243
        L 1241 -583
        Q 1158 -561 1091 -561
        L 1091 -561
        Q 1042 -561 999 -573
        L 999 -573
        Q 961 -427 868 -339.50
        Q 775 -252 661 -252
        L 661 -252
        Q 556 -252 470 -309.50
        Q 384 -367 317 -483
        L 317 -483
        Q 285 -471 254 -471
        L 254 -471
        Q 187 -471 138.50 -512.50
        Q 90 -554 90 -612
        L 90 -612
        Q 90 -660 116 -692.50
        Q 142 -725 184 -725
        L 184 -725
        Q 248 -725 295 -657
        L 295 -657
        Q 380 -688 452 -781
        Q 524 -874 524 -960
        L 524 -960
        Q 524 -1034 477.50 -1084
        Q 431 -1134 360 -1134
        L 360 -1134
        Q 272 -1134 162 -1061
        L 162 -1061
        L 73 -1214
        Q 153 -1245 225 -1245
        L 225 -1245
        Q 366 -1245 480 -1142.50
        Q 594 -1040 594 -858
        L 594 -858
        Q 594 -736 531 -636
        Q 468 -536 366 -493
        L 366 -493
        Q 404 -435 454.50 -406
        Q 505 -377 569 -377
        L 569 -377
        Q 669 -377 741.50 -446.50
        Q 814 -516 839 -641
        L 839 -641
        Q 762 -702 762 -774
        L 762 -774
        Q 762 -832 795.50 -868.50
        Q 829 -905 880 -905
        L 880 -905
        Q 942 -905 981 -844.50
        Q 1020 -784 1020 -696
        L 1020 -696
        Q 1020 -661 1014 -628
        L 1014 -628
        Q 1105 -643 1241 -758
        L 1241 -758
        Z
        
        M 1240 -1245
        L 1240 -1245
        Z
        
        M 1394 -1245
        L 1394 -1245
        Z
        
        M 1369 -1732
        L 1369 -1732
        Q 1369 -1688 1339 -1658
        Q 1309 -1628 1265 -1628
        L 1265 -1628
        Q 1222 -1628 1191.50 -1658
        Q 1161 -1688 1161 -1732
        L 1161 -1732
        Q 1161 -1775 1191.50 -1805.50
        Q 1222 -1836 1265 -1836
        L 1265 -1836
        Q 1309 -1836 1339 -1805.50
        Q 1369 -1775 1369 -1732
        Z
        
        M 1435 -1585
        L 1544 -1436
        Q 1495 -1405 1421 -1405
        L 1421 -1405
        Q 1308 -1405 1120.50 -1499.50
        Q 933 -1594 671 -1784
        L 671 -1784
        L 745 -1784
        Q 916 -1658 1049 -1595
        Q 1182 -1532 1277 -1532
        L 1277 -1532
        Q 1369 -1532 1435 -1585
        L 1435 -1585
        Z
        
        M 623 172
        L 623 172
        Q 577 172 543 138
        Q 509 104 509 58
        L 509 58
        Q 509 10 543 -23.50
        Q 577 -57 623 -57
        L 623 -57
        Q 671 -57 704.50 -23.50
        Q 738 10 738 58
        L 738 58
        Q 738 105 704.50 138.50
        Q 671 172 623 172
        Z"
    />
    <!--
    <path 
        class="shape"
        d=" M  313   312
            c  171  -116   84  -99   118  -187
            c  -81  -66    49  -63  -212   -55
            c  144   67   198  155   114   158
            c  213   87   154  134  -108    18
            c -164  -69  -165  -69   -99    96
            c  30   134    53  205   156   174
            c  134  -80   134  -80   -22  -223
            Z"
    />
    -->
</svg>
