<svg
	xmlns="http://www.w3.org/2000/svg"
    version="1.1"
>
    <path 
        class="shape"
        d="
        M 270.920  189.932  
        C 270.936 189.906,269.972 188.330,268.155 185.835 
        C 267.904 185.439,267.626 185.025,267.322 184.600 
        C 266.663 184.683,266.002 184.757,265.340 184.827 
        C 267.287 186.820,269.107 188.736,270.920 189.932 Z
        M 243.911  183.835  
        C 243.681 183.696,242.242 179.824,236.679 171.944 
        C 236.703 171.952,235.452 169.921,235.802 168.540 
        C 239.477 171.483,242.226 175.156,243.301 178.631 
        C 243.280 178.624,243.813 177.838,243.540 175.909 
        C 243.142 174.180,241.921 170.762,236.475 167.491 
        C 236.410 167.467,241.171 169.194,244.011 172.935 
        C 247.026 176.580,247.063 181.280,243.911 183.835 Z  
        "
    />
</svg>