<svg
	xmlns="http://www.w3.org/2000/svg"
    version="1.1"
>
    <path 
        class="shape"
        d="
        M 45.353  149.510  
        C 45.353 149.508,45.354 149.506,45.355 149.504 
        C 45.356 149.508,45.356 149.510,45.353 149.510 Z  M 45.355  149.504  
        C 45.313 149.339,42.246 145.306,48.229 135.061 
        C 48.232 135.064,49.265 132.569,50.586 131.289 
        C 49.695 135.350,48.634 139.379,47.432 143.329 
        C 47.716 142.845,50.880 139.143,51.780 130.410 
        C 51.778 130.410,52.286 133.365,51.483 137.166 
        C 50.736 140.993,46.555 146.154,45.355 149.504 Z  M 81.034  148.375  
        C 80.425 148.352,77.145 137.653,64.311 131.650 
        C 64.320 131.613,60.894 129.753,58.706 127.782 
        C 64.841 128.779,71.473 130.507,76.560 136.432 
        C 76.572 136.485,75.982 133.859,72.902 130.940 
        C 69.863 128.074,64.286 125.546,57.133 125.960 
        C 57.520 125.878,61.628 124.324,67.808 125.654 
        C 71.008 126.389,74.895 128.092,78.144 132.007 
        C 81.394 135.802,83.199 142.629,81.085 148.344 
        C 81.071 148.366,81.054 148.376,81.034 148.375 Z  M 57.133  125.960  
        C 57.114 125.964,57.101 125.966,57.101 125.961 
        C 57.112 125.961,57.123 125.961,57.133 125.960 Z  M 59.039  146.328  
        C 58.667 146.328,58.465 146.301,58.488 146.303 
        C 60.648 145.604,60.028 141.126,59.209 138.593 
        C 57.608 133.395,54.876 128.462,55.030 128.507 
        C 60.136 135.187,61.980 139.595,62.297 141.348 
        C 62.605 143.081,62.776 143.255,62.835 143.352 
        C 63.964 142.296,64.318 140.028,63.318 137.240 
        C 62.332 134.478,60.261 131.511,57.719 128.779 
        C 61.105 129.566,64.457 132.978,64.342 133.000 
        C 67.111 136.435,67.688 139.760,66.906 141.742 
        C 66.211 143.763,64.729 144.734,63.379 145.376 
        C 61.499 146.205,59.857 146.330,59.039 146.328 Z  M 97.865  139.410  
        C 101.174 133.207,104.732 127.235,107.619 121.118 
        C 105.798 121.126,103.928 121.600,102.262 122.530 
        C 98.783 124.348,96.282 128.213,96.179 132.384 
        C 96.137 134.778,96.722 137.230,97.865 139.410 Z  M 195.793  136.853  
        C 195.966 136.667,196.134 136.478,196.300 136.288 
        C 196.078 136.303,195.855 136.315,195.632 136.327 
        C 195.686 136.502,195.739 136.678,195.793 136.853 Z  M 53.538  126.525  
        C 53.534 126.534,52.188 125.957,49.701 125.113 
        C 48.460 124.699,46.919 124.217,45.158 123.763 
        C 44.734 123.655,44.239 123.532,43.865 123.453 
        C 42.507 123.049,42.399 122.958,41.577 122.677 
        C 40.284 122.157,38.922 121.550,37.613 120.714 
        C 32.327 117.561,27.162 111.421,25.823 103.343 
        C 25.701 102.606,25.607 101.857,25.545 101.101 
        C 20.986 97.592,17.190 92.671,15.315 86.773 
        C 9.446 71.249,15.361 53.248,24.402 43.091 
        C 33.480 32.440,44.545 29.058,48.634 28.407 
        C 48.757 28.503,41.183 29.874,32.326 36.842 
        C 23.495 43.520,14.514 57.252,14.449 72.992 
        C 14.416 80.706,16.737 88.610,21.261 94.658 
        C 22.501 96.347,23.920 97.864,25.460 99.195 
        C 25.434 96.434,25.841 93.599,26.812 90.829 
        C 28.262 86.472,31.326 82.497,35.331 79.829 
        C 43.242 74.509,55.573 74.681,62.639 83.199 
        C 65.980 87.228,67.408 92.668,66.634 97.697 
        C 66.088 102.678,62.556 107.887,57.934 110.049 
        C 53.256 112.353,47.996 112.338,43.506 109.979 
        C 42.017 109.175,40.741 108.122,39.695 106.916 
        C 35.420 106.557,30.894 104.842,26.853 102.052 
        C 27.698 109.968,32.486 116.782,38.459 120.365 
        C 41.462 122.377,45.229 123.210,47.208 123.911 
        C 49.542 124.729,51.674 125.614,53.538 126.525 Z  M 58.795  124.479  
        C 58.671 124.479,58.549 124.479,58.426 124.476 
        C 63.318 119.534,68.798 115.012,75.162 111.350 
        C 75.177 111.353,71.670 110.515,67.488 111.976 
        C 63.265 113.369,58.569 117.019,55.062 124.068 
        C 55.115 124.077,55.479 118.642,58.760 112.998 
        C 60.450 110.206,62.938 107.349,67.066 105.558 
        C 71.219 103.912,76.952 102.787,85.930 106.637 
        C 85.940 106.613,86.660 110.434,84.141 114.007 
        C 81.749 117.732,75.826 120.212,67.042 123.212 
        C 67.007 123.185,62.625 124.463,58.795 124.479 Z  
        
        
        M 201.805  121.813  
        C 201.677 121.540,198.735 117.511,198.834 112.368 
        C 198.874 112.420,201.312 113.484,202.247 118.707 
        C 202.278 118.703,202.373 120.116,202.107 121.083 
        C 201.613 119.018,200.966 117.063,200.150 115.202 
        C 200.110 115.258,200.159 117.587,201.805 121.813 Z  M 198.834  112.368  L 198.834  112.367  
        C 198.833 112.367,198.834 112.366,198.834 112.366 
        C 198.834 112.367,198.834 112.367,198.834 112.368 Z  M 107.987  115.183  
        C 108.767 115.168,109.541 115.058,110.286 114.864 
        C 111.135 112.599,111.814 110.291,112.315 107.972 
        C 111.495 109.404,110.062 110.302,108.728 110.584 
        C 104.932 111.354,103.105 107.787,103.669 106.376 
        C 103.221 107.955,105.430 111.229,108.868 110.150 
        C 110.430 109.723,111.930 108.355,112.345 106.443 
        C 112.778 104.541,112.092 102.459,110.629 100.975 
        C 107.583 97.772,101.497 99.224,99.726 103.418 
        C 97.721 107.578,100.215 112.744,104.141 114.421 
        C 105.374 114.970,106.690 115.207,107.987 115.183 Z  M 232.966  113.026  
        C 232.944 113.016,233.096 112.759,233.342 112.292 
        C 233.224 112.536,233.102 112.779,232.976 113.022 
        C 232.971 113.026,232.968 113.027,232.966 113.026 Z  M 233.342  112.292  
        C 236.689 105.396,237.006 98.291,235.895 92.663 
        C 234.729 86.756,231.978 82.360,229.303 79.453 
        C 224.476 74.793,220.542 73.975,219.448 73.768 
        C 226.448 75.557,231.799 81.352,234.227 88.007 
        C 236.632 94.348,236.753 101.465,234.781 107.924 
        C 236.306 102.555,235.778 94.661,235.534 94.713 
        C 234.264 86.038,229.540 79.174,224.036 76.174 
        C 218.543 72.812,212.775 73.179,209.436 75.611 
        C 205.968 77.829,204.588 80.847,204.465 82.804 
        C 204.329 84.800,204.833 85.736,204.763 85.738 
        C 203.026 81.655,205.791 77.051,209.340 74.846 
        C 212.921 72.285,217.792 72.308,221.622 73.851 
        C 229.670 76.742,234.193 84.462,235.759 90.893 
        C 238.299 102.100,234.576 109.953,233.342 112.292 Z  M 234.781  107.924  
        C 234.656 108.363,234.520 108.787,234.366 109.187 
        C 234.513 108.769,234.652 108.348,234.781 107.924 Z  M 50.460  110.573  
        C 52.637 110.579,54.851 110.103,56.932 109.106 
        C 60.825 107.337,64.026 103.373,64.943 98.989 
        C 65.955 94.749,65.250 89.959,62.838 86.075 
        C 60.513 82.173,56.287 79.188,51.851 78.284 
        C 47.509 77.261,42.768 77.726,38.710 79.650 
        C 34.622 81.508,31.212 84.798,29.189 88.759 
        C 27.265 92.513,26.639 96.364,26.735 100.233 
        C 30.362 103.017,34.535 104.823,38.600 105.472 
        C 37.148 103.277,36.362 100.748,36.335 98.318 
        C 36.104 94.027,38.458 89.433,41.937 87.427 
        C 45.312 85.290,49.190 85.271,51.897 86.309 
        C 51.941 86.477,49.401 85.110,45.024 86.374 
        C 42.914 87.047,40.468 88.593,38.814 91.308 
        C 37.159 94.119,36.651 97.376,37.535 100.927 
        C 37.948 102.570,38.756 104.203,39.905 105.643 
        C 42.846 105.952,45.623 105.738,47.852 104.571 
        C 50.123 103.292,51.844 100.845,52.951 98.779 
        C 55.036 94.568,54.938 90.647,54.281 88.271 
        C 54.516 88.895,55.093 90.455,55.091 92.940 
        C 55.041 96.139,53.695 101.116,49.267 104.932 
        C 46.895 106.368,44.098 107.018,41.135 106.983 
        C 42.201 107.994,43.465 108.849,44.902 109.463 
        C 46.649 110.188,48.540 110.568,50.460 110.573 Z  M 54.281  88.271  
        C 54.205 88.069,54.163 87.963,54.192 87.959 
        C 54.223 88.058,54.252 88.165,54.281 88.271 Z  M 174.663  101.644  
        C 174.248 101.639,173.583 101.564,173.001 101.221 
        C 174.412 100.381,175.744 99.428,177.013 98.423 
        C 176.951 98.433,174.663 97.636,172.265 100.609 
        C 172.520 100.172,173.725 95.063,178.915 96.797 
        C 178.984 96.712,179.336 100.560,175.070 101.622 
        C 175.072 101.626,174.912 101.647,174.663 101.644 Z  M 172.243  100.636  
        C 172.250 100.627,172.257 100.619,172.264 100.610 
        C 172.257 100.623,172.249 100.632,172.243 100.636 Z  M 92.577  96.861  
        C 92.300 96.828,88.598 94.854,83.763 91.922 
        C 78.434 88.858,73.396 85.711,63.793 81.656 
        C 63.823 81.592,58.788 79.236,54.812 76.024 
        C 64.524 74.743,75.239 76.816,83.107 83.681 
        C 83.043 83.520,82.660 79.927,78.061 75.862 
        C 73.562 71.783,63.217 67.960,51.642 72.919 
        C 51.550 73.066,57.931 66.648,69.996 67.192 
        C 75.829 67.485,83.029 70.150,87.976 75.868 
        C 92.981 81.484,94.936 89.611,92.594 96.858 
        C 92.592 96.861,92.586 96.862,92.577 96.861 Z  M 152.133  91.927  
        C 150.622 91.934,149.084 91.675,147.610 91.151 
        C 147.538 91.283,143.276 89.077,142.369 86.217 
        C 145.058 87.683,148.126 88.581,151.214 88.492 
        C 154.253 88.430,157.459 86.933,158.951 84.298 
        C 158.907 84.183,157.272 85.359,154.636 85.779 
        C 151.923 86.159,148.054 86.128,141.939 83.908 
        C 141.895 83.798,146.476 84.564,150.395 83.773 
        C 152.487 83.372,153.868 82.807,154.958 82.040 
        C 155.711 81.511,156.434 81.092,157.070 80.435 
        C 157.714 79.825,158.259 78.446,157.443 76.567 
        C 157.451 76.576,157.899 76.416,158.993 76.550 
        C 159.913 76.757,161.893 77.602,162.632 80.249 
        C 163.411 82.852,162.531 86.318,159.850 88.981 
        C 157.804 90.931,155.018 91.913,152.133 91.927 Z  M 54.678  54.390  
        C 55.112 54.222,55.514 54.061,55.954 53.891 
        C 57.419 53.315,58.961 52.731,60.507 52.147 
        C 62.070 47.991,64.581 44.240,68.673 42.137 
        C 68.560 42.096,65.905 40.617,61.785 42.732 
        C 58.603 44.323,55.292 48.535,54.678 54.390 Z  M 78.583  32.036  
        C 78.583 32.036,78.581 32.034,78.580 32.034 
        C 78.583 32.035,78.587 32.035,78.590 32.036 
        C 78.589 32.038,78.587 32.038,78.583 32.036 Z  M 78.580  32.034  
        C 69.847 30.114,61.491 29.075,54.658 29.368 
        C 47.894 29.560,42.971 30.649,42.953 30.562 
        C 51.083 28.290,57.196 27.981,61.300 27.895 
        C 65.402 27.828,67.522 27.901,67.523 27.871 
        C 60.057 26.179,52.068 26.583,44.685 29.008 
        C 47.165 27.086,52.161 25.763,52.163 25.798 
        C 61.939 23.762,69.203 26.160,73.166 28.185 
        C 77.068 30.231,78.454 31.958,78.580 32.034 Z
        "
    />
</svg>