<svg
	xmlns="http://www.w3.org/2000/svg"
    version="1.1"
>
    <path 
        class="shape"
        d="
            M 200.440  122.784  
            C 198.651 122.788,194.919 122.159,192.776 118.515 
            C 192.871 118.549,195.619 116.736,199.819 119.530 
            C 199.819 119.526,200.858 120.411,201.277 121.604 
            C 199.426 120.760,197.565 120.030,195.704 119.415 
            C 195.701 119.399,197.086 121.750,201.451 122.659 
            Z

            M 203.802  122.604  
            C 205.015 121.029,206.158 119.284,207.126 117.464 
            C 207.074 117.425,205.441 118.393,203.267 122.413 
            C 203.634 121.462,205.081 116.248,208.598 114.562 
            C 208.585 114.491,208.915 118.281,205.485 121.724 
            C 205.501 121.727,204.567 122.520,203.802 122.604
            Z

        "
    />
</svg>