<svg
	xmlns="http://www.w3.org/2000/svg"
    version="1.1"
>
    <path 
        class="shape"
        d="
        M 136.450  220.359  
        C 119.879 220.506,103.281 209.192,95.045 193.259 
        C 90.713 185.078,88.339 175.668,88.868 166.318 
        C 89.378 157.211,93.001 148.726,97.073 140.916 
        C 95.623 138.496,94.815 135.717,94.817 132.955 
        C 94.722 127.931,97.823 123.267,102.029 121.298 
        C 103.933 120.334,106.067 119.917,108.120 120.035 
        C 108.660 118.854,109.175 117.666,109.654 116.469 
        C 108.211 116.694,106.716 116.631,105.265 116.214 
        C 99.876 114.863,96.426 108.633,98.593 103.473 
        C 100.581 98.304,107.846 96.691,111.205 100.574 
        C 112.155 101.617,112.767 102.865,112.975 104.147 
        C 113.497 99.998,113.393 95.868,112.542 91.936 
        C 111.781 88.015,110.312 84.358,108.312 81.170 
        C 108.112 81.830,107.836 82.483,107.472 83.114 
        C 105.785 86.377,101.306 88.799,97.216 87.197 
        C 95.224 86.471,93.565 84.964,92.641 82.984 
        C 91.706 80.977,91.968 78.567,93.034 76.732 
        C 94.076 74.900,96.022 73.529,98.188 73.437 
        C 100.312 73.267,102.290 74.393,103.395 75.900 
        C 105.953 79.373,103.401 83.542,100.846 84.084 
        C 98.141 84.796,96.694 83.327,96.652 83.365 
        C 95.825 82.721,96.161 81.570,97.029 81.125 
        C 97.936 80.644,98.720 80.397,98.862 80.483 
        C 98.873 80.467,99.181 80.860,99.885 80.743 
        C 100.566 80.716,101.911 79.214,100.888 77.663 
        C 99.960 75.941,96.762 75.465,95.145 78.039 
        C 93.357 80.359,94.748 84.243,97.887 85.509 
        C 100.950 86.960,104.767 85.333,106.489 82.517 
        C 107.001 81.746,107.360 80.915,107.583 80.066 
        C 105.712 77.357,103.445 75.030,100.900 73.228 
        C 95.185 69.039,88.681 67.128,82.846 66.327 
        C 71.293 64.837,62.145 67.132,56.658 68.928 
        C 57.819 68.515,61.628 67.132,67.932 66.224 
        C 75.369 65.318,87.267 64.716,98.990 71.612 
        C 102.395 73.480,105.337 76.270,107.675 79.676 
        C 108.120 77.593,107.772 75.443,106.885 73.840 
        C 105.636 71.402,103.082 70.662,101.605 70.262 
        C 100.024 69.887,99.082 69.866,99.085 69.842 
        C 99.083 69.866,100.021 69.828,101.638 70.110 
        C 103.149 70.438,105.806 70.966,107.379 73.562 
        C 108.565 75.427,109.100 78.151,108.414 80.805 
        C 113.756 89.374,115.456 101.379,111.457 112.521 
        C 111.224 113.267,110.968 114.007,110.703 114.745 
        C 112.509 114.190,114.113 113.137,115.180 111.748 
        C 117.541 108.711,118.034 104.910,118.103 101.744 
        C 118.135 95.265,116.394 90.657,115.868 89.128 
        C 113.470 82.978,110.780 79.634,109.894 77.016 
        C 113.700 80.355,118.835 86.887,119.670 95.828 
        C 120.192 100.165,120.272 105.030,118.295 109.696 
        C 117.018 113.092,113.750 115.671,110.084 116.393 
        C 109.602 117.625,109.084 118.849,108.531 120.066 
        C 110.779 120.275,112.904 121.131,114.486 122.624 
        C 117.675 125.428,118.648 129.834,117.428 133.225 
        C 116.112 136.636,112.913 138.460,110.189 138.577 
        C 107.374 138.756,105.205 137.192,104.271 135.713 
        C 103.240 134.202,103.274 132.830,103.236 132.170 
        C 103.373 132.012,102.941 134.686,105.958 136.981 
        C 108.619 139.518,116.280 137.883,117.079 131.249 
        C 117.425 128.179,115.909 124.649,112.923 122.682 
        C 111.522 121.702,109.813 121.188,108.038 121.125 
        C 105.108 127.355,101.424 133.451,98.072 139.793 
        C 98.895 141.254,99.973 142.581,101.287 143.667 
        C 107.912 149.599,119.646 147.536,124.499 140.229 
        C 129.523 132.852,129.929 123.397,129.385 115.325 
        C 129.343 114.813,129.297 114.302,129.245 113.795 
        C 128.994 111.680,128.705 109.712,128.394 107.940 
        C 127.378 102.637,125.740 97.825,123.475 93.867 
        C 120.397 88.369,116.870 84.294,114.111 81.344 
        C 115.803 82.842,122.784 88.559,127.530 100.249 
        C 129.963 107.066,131.457 115.532,130.902 124.671 
        C 130.827 125.647,130.725 126.633,130.593 127.623 
        C 130.594 128.144,130.591 128.668,130.583 129.196 
        C 130.476 136.723,130.111 145.147,128.100 152.221 
        C 126.064 159.392,122.454 165.296,119.112 168.683 
        C 119.096 168.688,121.504 166.259,124.024 161.567 
        C 126.557 156.871,128.937 149.943,129.495 142.109 
        C 129.951 138.184,130.157 134.140,130.176 130.173 
        C 129.630 132.959,128.775 135.741,127.428 138.386 
        C 125.268 142.774,121.221 146.577,116.245 147.884 
        C 111.433 149.275,105.771 148.859,101.600 145.776 
        C 99.868 144.582,98.412 143.034,97.298 141.281 
        C 93.983 147.707,91.091 154.410,89.757 161.795 
        C 86.760 180.353,95.871 199.904,110.371 210.834 
        C 117.599 216.382,126.344 219.654,134.980 219.982 
        C 143.579 220.158,152.037 218.424,159.046 214.787 
        C 173.293 207.379,180.291 192.885,180.219 181.579 
        C 180.277 178.303,179.876 175.342,179.210 172.683 
        C 163.805 171.542,148.638 164.378,140.588 153.163 
        C 139.625 153.709,138.733 154.323,137.926 154.998 
        C 134.847 157.386,132.789 160.486,132.198 163.593 
        C 131.647 166.697,132.358 169.633,133.693 171.739 
        C 136.375 176.065,140.362 177.607,142.775 177.273 
        C 145.223 176.884,146.117 175.842,146.146 175.941 
        C 144.177 177.636,141.173 178.044,138.745 176.918 
        C 136.281 175.912,134.284 173.991,132.873 171.754 
        C 129.978 167.148,130.920 160.848,134.377 156.973 
        C 135.987 155.065,137.905 153.510,139.983 152.306 
        C 130.532 138.707,131.076 124.734,132.053 119.187 
        C 132.179 119.162,130.625 128.349,135.340 141.161 
        C 136.637 144.599,138.540 148.237,141.097 151.701 
        C 141.524 151.485,141.956 151.282,142.393 151.094 
        C 139.944 148.280,138.640 146.299,138.692 146.353 
        C 138.630 146.300,140.019 148.264,142.581 151.014 
        C 144.052 150.396,145.568 149.937,147.085 149.638 
        C 147.116 149.632,147.146 149.627,147.177 149.622 
        C 145.179 148.067,143.381 146.396,141.850 144.681 
        C 136.613 138.963,133.972 133.212,133.423 130.465 
        C 133.427 130.456,135.037 134.322,138.896 139.328 
        C 141.352 142.566,144.882 146.226,149.249 149.343 
        C 153.215 148.985,157.053 149.623,160.406 150.777 
        C 164.724 152.357,168.135 154.753,170.746 157.286 
        C 174.549 157.658,178.256 157.596,181.577 157.234 
        C 188.778 156.504,194.303 154.847,196.752 154.432 
        C 195.322 154.903,185.070 159.362,172.161 158.755 
        C 173.678 160.439,174.858 162.125,175.727 163.621 
        C 176.761 165.324,177.451 166.807,177.914 167.977 
        C 179.289 167.949,180.593 167.843,181.800 167.671 
        C 187.363 166.842,190.896 165.234,191.093 165.112 
        C 192.064 164.480,196.970 158.934,200.019 160.180 
        C 200.006 160.188,201.923 161.545,201.956 163.341 
        C 202.005 167.251,192.971 167.768,191.988 167.543 
        C 191.717 167.497,187.890 168.944,182.019 169.530 
        C 180.916 169.636,179.739 169.685,178.511 169.675 
        C 178.649 170.133,178.730 170.463,178.772 170.626 
        C 178.675 170.305,178.572 169.989,178.465 169.675 
        C 178.461 169.675,178.456 169.675,178.452 169.675 
        C 178.614 170.129,178.769 170.602,178.916 171.091 
        C 186.405 171.625,193.988 170.799,201.122 169.332 
        C 204.531 168.611,207.858 167.744,211.114 166.939 
        C 209.903 165.560,208.759 164.116,207.698 162.603 
        C 205.843 160.064,204.210 157.434,202.741 154.736 
        C 197.893 156.157,193.682 155.742,193.807 155.635 
        C 197.400 155.269,200.121 154.455,202.116 153.589 
        C 201.929 153.230,201.753 152.866,201.572 152.505 
        C 199.303 153.254,197.013 153.922,194.706 154.492 
        C 195.991 153.205,198.352 151.996,198.354 151.996 
        C 199.196 151.590,200.004 151.225,200.778 150.897 
        C 198.733 146.601,197.069 142.150,195.640 137.608 
        C 195.358 137.900,195.066 138.189,194.760 138.473 
        C 187.738 145.188,177.054 146.874,172.741 146.667 
        C 172.778 146.633,180.327 146.555,188.274 142.499 
        C 190.864 141.192,193.398 139.351,195.499 137.164 
        C 195.415 136.891,195.327 136.620,195.244 136.347 
        C 190.780 136.546,186.128 136.081,181.465 134.726 
        C 169.943 131.532,159.323 124.125,149.719 115.428 
        C 149.454 115.515,149.172 115.595,148.872 115.666 
        C 146.047 116.398,140.657 115.882,136.558 110.823 
        C 136.535 110.864,134.647 108.008,135.088 105.483 
        C 138.160 108.970,142.132 111.420,146.392 112.531 
        C 146.396 112.522,146.258 112.297,145.981 111.931 
        C 145.814 111.771,145.645 111.612,145.479 111.451 
        C 144.313 110.329,143.164 109.185,142.024 108.030 
        C 140.493 106.830,138.486 105.452,135.810 103.502 
        C 135.809 103.518,136.957 103.886,138.513 104.390 
        C 130.440 95.852,122.862 86.755,114.868 78.492 
        C 108.122 71.103,99.247 66.552,90.246 64.625 
        C 88.142 64.361,85.991 64.187,83.815 64.099 
        C 83.804 64.079,84.043 63.939,84.407 63.738 
        C 83.069 63.619,81.739 63.558,80.421 63.553 
        C 79.967 63.708,79.509 63.856,79.046 63.996 
        C 75.050 64.062,70.801 64.389,66.673 64.920 
        C 58.123 66.585,50.599 69.578,44.419 72.558 
        C 37.098 76.123,31.520 79.756,27.676 82.475 
        C 31.604 79.530,41.512 72.493,57.176 67.130 
        C 59.048 66.527,61.022 65.952,63.077 65.437 
        C 60.647 65.827,58.301 66.285,56.122 66.801 
        C 55.339 66.769,66.717 58.855,70.541 53.356 
        C 74.219 47.587,80.838 49.470,84.359 51.652 
        C 87.842 53.514,99.503 51.656,99.632 51.896 
        C 99.448 51.922,91.720 59.455,81.187 63.284 
        C 82.394 63.315,83.612 63.393,84.836 63.507 
        C 87.504 62.069,95.150 58.185,99.285 55.627 
        C 99.354 55.670,100.232 60.223,95.313 61.619 
        C 95.345 61.536,100.923 61.437,103.277 58.363 
        C 103.308 58.348,104.345 60.682,103.037 62.744 
        C 103.007 62.736,105.688 62.519,107.433 55.901 
        C 108.817 49.006,117.456 50.890,116.463 56.454 
        C 116.656 56.339,121.365 56.004,119.843 45.937 
        C 119.818 45.934,123.335 48.245,124.764 51.856 
        C 126.308 55.502,125.232 59.602,119.132 63.201 
        C 119.102 63.180,114.130 65.942,110.282 66.286 
        C 110.415 66.547,112.969 67.710,122.091 68.656 
        C 126.785 69.297,130.147 71.355,132.032 72.954 
        C 133.927 74.697,134.514 76.630,133.935 79.732 
        C 133.854 79.684,131.329 75.409,125.284 75.371 
        C 125.321 75.364,127.613 77.775,131.260 82.104 
        C 135.167 86.079,139.815 93.508,152.467 97.857 
        C 152.509 97.767,149.091 98.921,143.231 97.947 
        C 137.393 97.051,129.979 93.241,124.618 87.219 
        C 122.423 84.909,120.531 82.530,118.813 80.132 
        C 118.394 79.544,117.943 78.903,117.553 78.358 L 116.807  77.381  
        C 116.351 76.698,115.786 76.105,115.236 75.498 
        C 113.028 73.091,110.333 71.043,107.095 69.423 
        C 103.282 67.478,98.837 66.095,94.058 65.215 
        C 100.658 67.160,107.153 70.584,112.460 75.667 
        C 117.851 80.667,122.710 86.404,127.770 92.020 
        C 131.536 96.249,135.351 100.508,139.281 104.640 
        C 140.280 104.965,141.354 105.317,142.471 105.692 
        C 145.954 106.908,148.629 108.313,153.056 113.381 
        C 153.051 113.328,152.198 114.497,150.125 115.284 
        C 153.364 118.211,156.702 120.984,160.176 123.521 
        C 170.770 131.470,183.378 136.591,195.170 136.096 
        C 189.880 118.588,187.844 99.823,181.036 83.298 
        C 175.961 70.466,166.880 59.620,155.610 52.825 
        C 144.511 45.773,131.978 42.062,119.896 41.290 
        C 111.954 40.781,104.343 41.245,97.104 42.304 
        C 95.602 43.822,93.703 45.079,91.572 45.855 
        C 91.599 45.935,86.936 47.154,84.195 45.696 
        C 86.027 45.264,87.889 44.565,89.615 43.620 
        C 83.095 44.968,76.926 46.737,71.149 48.637 
        C 70.839 49.083,70.556 49.518,70.282 49.927 
        C 69.464 51.144,68.077 52.441,65.625 54.994 
        C 65.608 54.944,62.757 57.430,58.709 59.027 
        C 59.081 56.842,59.618 54.588,60.402 52.433 
        C 59.441 52.789,58.442 53.150,57.510 53.501 
        C 56.546 53.846,55.600 54.193,54.664 54.541 
        C 54.498 56.266,54.565 58.132,54.938 60.114 
        C 54.855 59.934,53.646 58.156,52.919 55.201 
        C 51.635 55.690,50.375 56.182,49.147 56.676 
        C 51.368 60.716,51.069 65.126,50.120 68.729 
        C 50.085 68.740,49.767 67.726,48.977 65.864 
        C 48.177 64.092,46.925 61.140,44.310 59.204 
        C 44.172 59.095,44.030 58.992,43.884 58.893 
        C 36.973 61.938,31.206 65.065,26.868 68.217 
        C 29.213 66.442,32.378 64.331,36.559 62.188 
        C 38.705 61.059,41.153 59.942,43.766 58.815 
        C 41.248 57.184,37.553 57.051,33.573 59.258 
        C 30.211 61.147,26.864 64.632,25.070 69.593 
        C 25.639 69.134,26.237 68.675,26.868 68.217 
        C 26.197 68.725,25.582 69.206,25.050 69.648 
        C 24.555 71.027,24.180 72.520,23.958 74.124 
        C 23.721 74.041,23.107 81.966,23.822 87.583 
        C 21.126 81.287,19.951 74.001,22.253 67.433 
        C 24.439 61.024,30.013 55.232,37.045 54.287 
        C 36.472 54.218,32.035 53.235,25.916 58.039 
        C 22.727 60.630,19.463 65.253,18.613 71.550 
        C 17.731 77.776,19.491 85.195,23.903 91.846 
        C 23.694 91.583,22.094 89.894,20.213 86.520 
        C 18.297 82.901,15.809 76.970,16.867 69.224 
        C 17.898 61.665,23.599 52.614,33.829 50.271 
        C 38.769 49.142,45.223 50.715,48.265 55.277 
        C 48.577 55.710,48.854 56.149,49.102 56.593 
        C 50.328 56.100,51.597 55.595,52.893 55.088 
        C 52.319 52.692,52.070 49.543,52.980 45.853 
        C 54.012 41.747,57.427 36.391,63.917 34.339 
        C 70.472 32.209,77.477 35.595,79.648 41.417 
        C 79.756 41.515,76.361 43.464,73.423 46.033 
        C 72.577 46.768,71.936 47.545,71.389 48.301 
        C 74.794 47.192,78.353 46.122,82.070 45.132 
        C 84.715 44.431,87.491 43.778,90.356 43.193 
        C 93.998 40.994,96.891 37.655,97.349 33.380 
        C 97.304 33.344,96.241 35.012,94.112 37.088 
        C 91.919 39.125,88.559 41.722,82.225 44.278 
        C 82.168 44.243,86.061 41.679,89.152 38.322 
        C 90.739 36.623,91.838 34.999,92.791 33.158 
        C 93.660 31.906,94.728 29.639,92.715 25.914 
        C 92.915 25.879,95.413 24.648,98.791 27.975 
        C 100.601 29.556,101.502 33.854,100.255 37.188 
        C 99.754 38.863,98.777 40.503,97.453 41.937 
        C 113.876 39.524,132.697 40.156,150.236 49.351 
        C 161.750 55.154,172.244 64.533,178.462 76.879 
        C 184.888 89.109,187.698 103.064,190.722 116.830 
        C 192.108 123.258,193.616 129.742,195.556 136.079 
        C 195.882 136.062,196.208 136.041,196.534 136.015 
        C 197.212 135.212,197.830 134.372,198.370 133.500 
        C 200.824 129.755,201.768 125.718,202.246 122.901 
        C 202.243 122.672,202.027 129.715,197.078 135.964 
        C 197.733 135.902,198.387 135.826,199.035 135.727 
        C 211.827 134.096,222.043 127.357,227.910 120.304 
        C 233.253 114.133,235.233 107.828,235.883 103.683 
        C 235.658 105.254,235.133 107.859,233.768 111.234 
        C 231.430 116.807,226.095 124.322,216.914 129.836 
        C 211.442 133.122,204.455 135.631,196.852 136.246 
        C 196.561 136.601,196.254 136.953,195.931 137.301 
        C 197.383 141.895,199.087 146.399,201.150 150.741 
        C 208.544 147.672,212.707 148.000,212.775 148.074 
        C 210.106 151.631,206.479 153.578,203.111 154.625 
        C 203.528 155.394,203.958 156.158,204.403 156.914 
        C 206.442 160.453,208.859 163.783,211.576 166.828 
        C 216.640 165.585,221.533 164.520,226.278 164.454 
        C 234.140 164.058,241.197 165.779,246.106 168.533 
        C 251.111 171.192,253.862 174.658,255.157 176.668 
        C 255.237 176.944,250.341 168.930,237.603 166.281 
        C 231.394 164.972,223.774 165.275,215.799 167.117 
        C 214.749 167.381,213.677 167.659,212.591 167.943 
        C 219.111 174.875,227.280 180.132,236.397 182.448 
        C 241.600 183.896,246.895 184.663,252.175 184.905 
        C 252.217 184.417,252.251 183.909,252.270 183.366 
        C 252.275 183.401,252.561 180.511,253.292 179.209 
        C 253.895 181.207,254.071 183.056,254.094 184.977 
        C 254.618 184.988,255.140 184.986,255.663 184.987 
        C 255.561 183.110,255.169 180.954,254.192 178.387 
        C 254.231 178.319,255.787 181.068,256.500 184.993 
        C 258.584 184.978,260.660 184.880,262.724 184.720 
        C 261.878 183.403,260.565 181.371,259.299 179.464 
        C 261.381 180.866,263.261 182.707,265.032 184.513 
        C 265.721 184.443,266.407 184.368,267.092 184.284 
        C 264.995 181.438,261.770 178.207,257.666 176.871 
        C 257.687 176.904,260.150 176.321,264.285 178.928 
        C 265.871 179.866,267.739 181.803,269.440 183.966 
        C 271.818 183.615,274.168 183.186,276.478 182.689 
        C 289.327 180.032,300.841 173.689,309.330 165.209 
        C 317.877 156.768,323.391 146.319,325.588 136.050 
        C 327.877 125.754,326.783 115.785,324.101 107.591 
        C 319.719 94.484,311.759 86.268,305.315 81.785 
        C 307.784 83.464,310.950 86.006,314.370 89.929 
        C 321.654 98.331,329.781 114.617,326.132 134.579 
        C 322.855 154.164,305.998 175.159,281.079 181.873 
        C 277.380 182.872,273.567 183.685,269.679 184.273 
        C 270.019 184.715,270.353 185.163,270.674 185.614 
        C 272.502 187.905,274.556 190.758,276.547 193.002 
        C 276.533 192.985,275.655 193.708,273.535 193.598 
        C 271.473 193.354,267.933 192.109,263.601 186.087 
        C 263.598 186.082,263.315 185.640,262.935 185.047 
        C 260.823 185.214,258.696 185.310,256.557 185.325 
        C 256.732 186.371,256.844 187.493,256.851 188.665 
        C 257.039 195.294,258.109 203.342,257.458 209.013 
        C 257.527 209.056,254.642 205.518,253.132 200.200 
        C 252.349 197.553,251.760 194.471,251.681 191.225 
        C 251.646 188.937,251.954 187.251,252.144 185.243 
        C 248.753 185.089,245.346 184.727,241.945 184.126 
        C 230.757 182.299,220.081 176.589,212.140 168.061 
        C 205.202 169.879,197.588 171.929,189.672 172.506 
        C 186.274 172.887,182.808 172.939,179.354 172.692 
        C 181.058 179.628,181.058 189.298,175.755 198.876 
        C 172.555 204.606,167.620 210.101,161.045 213.988 
        C 154.509 217.940,146.422 219.910,138.054 220.309 
        C 137.519 220.338,136.985 220.354,136.450 220.359 Z  M 305.315  81.785  
        C 305.072 81.620,304.800 81.418,304.572 81.270 
        C 304.815 81.432,305.067 81.613,305.315 81.785 Z  M 304.572  81.270  
        C 304.514 81.232,304.461 81.201,304.404 81.163 
        C 304.462 81.200,304.513 81.232,304.572 81.270 Z  M 304.404  81.163  
        C 301.925 79.576,300.385 78.998,300.479 78.915 
        C 301.657 79.482,302.988 80.234,304.404 81.163 Z
        
        "
    />
</svg>