<svg
	xmlns="http://www.w3.org/2000/svg"
    version="1.1"
>
    <path 
        class="shape"
        d="
        
        
        M 53.538  126.525  
        C 53.534 126.534,52.188 125.957,49.701 125.113 
        C 48.460 124.699,46.919 124.217,45.158 123.763 
        C 44.734 123.655,44.239 123.532,43.865 123.453 
        C 42.507 123.049,42.399 122.958,41.577 122.677 
        C 40.284 122.157,38.922 121.550,37.613 120.714 
        C 32.327 117.561,27.162 111.421,25.823 103.343 
        C 25.701 102.606,25.607 101.857,25.545 101.101 
        C 20.986 97.592,17.190 92.671,15.315 86.773 
        C 9.446 71.249,15.361 53.248,24.402 43.091 
        C 33.480 32.440,44.545 29.058,48.634 28.407 
        C 48.757 28.503,41.183 29.874,32.326 36.842 
        C 23.495 43.520,14.514 57.252,14.449 72.992 
        C 14.416 80.706,16.737 88.610,21.261 94.658 
        C 22.501 96.347,23.920 97.864,25.460 99.195 
        C 25.434 96.434,25.841 93.599,26.812 90.829 
        C 28.262 86.472,31.326 82.497,35.331 79.829 
        C 43.242 74.509,55.573 74.681,62.639 83.199 
        C 65.980 87.228,67.408 92.668,66.634 97.697 
        C 66.088 102.678,62.556 107.887,57.934 110.049 
        C 53.256 112.353,47.996 112.338,43.506 109.979 
        C 42.017 109.175,40.741 108.122,39.695 106.916 
        C 35.420 106.557,30.894 104.842,26.853 102.052 
        C 27.698 109.968,32.486 116.782,38.459 120.365 
        C 41.462 122.377,45.229 123.210,47.208 123.911 
        C 49.542 124.729,51.674 125.614,53.538 126.525 Z  
        
        
        
        
        M 50.460  110.573  
        C 52.637 110.579,54.851 110.103,56.932 109.106 
        C 60.825 107.337,64.026 103.373,64.943 98.989 
        C 55.041 96.139,53.695 101.116,49.267 104.932 
        C 46.895 106.368,44.098 107.018,41.135 106.983 
        C 42.201 107.994,43.465 108.849,44.902 109.463 
        C 46.649 110.188,48.540 110.568,50.460 110.573 Z  
        "
    />
</svg>