<svg
	xmlns="http://www.w3.org/2000/svg"
    version="1.1"
>
    <path 
        class="shape"
        d="
        M 59.039  146.328  
        C 58.667 146.328,58.465 146.301,58.488 146.303 
        C 60.648 145.604,60.028 141.126,59.209 138.593 
        C 57.608 133.395,54.876 128.462,55.030 128.507 
        C 60.136 135.187,61.980 139.595,62.297 141.348 
        C 62.605 143.081,62.776 143.255,62.835 143.352 
        C 63.964 142.296,64.318 140.028,63.318 137.240 
        C 62.332 134.478,60.261 131.511,57.719 128.779 
        C 61.105 129.566,64.457 132.978,64.342 133.000 
        C 67.111 136.435,67.688 139.760,66.906 141.742 
        C 66.211 143.763,64.729 144.734,63.379 145.376 
        C 61.499 146.205,59.857 146.330,59.039 146.328 Z
        
        M 97.865  139.410  
        C 101.174 133.207,104.732 127.235,107.619 121.118 
        C 105.798 121.126,103.928 121.600,102.262 122.530 
        C 98.783 124.348,96.282 128.213,96.179 132.384 
        C 96.137 134.778,96.722 137.230,97.865 139.410 Z
        
        M 195.793  136.853  
        C 195.966 136.667,196.134 136.478,196.300 136.288 
        C 196.078 136.303,195.855 136.315,195.632 136.327 
        C 195.686 136.502,195.739 136.678,195.793 136.853 Z  
        
        M 58.795  124.479  
        C 58.671 124.479,58.549 124.479,58.426 124.476 
        C 63.318 119.534,68.798 115.012,75.162 111.350 
        C 75.177 111.353,71.670 110.515,67.488 111.976 
        C 63.265 113.369,58.569 117.019,55.062 124.068 
        C 55.115 124.077,55.479 118.642,58.760 112.998 
        C 60.450 110.206,62.938 107.349,67.066 105.558 
        C 71.219 103.912,76.952 102.787,85.930 106.637 
        C 85.940 106.613,86.660 110.434,84.141 114.007 
        C 81.749 117.732,75.826 120.212,67.042 123.212 
        C 67.007 123.185,62.625 124.463,58.795 124.479 Z  
        
        
        M 234.781  107.924  
        C 234.656 108.363,234.520 108.787,234.366 109.187 
        C 234.513 108.769,234.652 108.348,234.781 107.924 Z
        
        
        "
    />
</svg>