
<?xml version="1.0"?>
<svg 
		xmlns="http://www.w3.org/2000/svg"
		viewBox="0 -1000 1000 1000" 
		version="1.1"
		width="1000"
		height="1000"
>
	<path
    	class="shape"
    	d="M -15 -15
           L 15 -15
           L 15 15 
		   L -15 15
		   Z"
	/>
	<!--
	<path
    	class="shape"
    	d="M 10 315
           L 110 215
           A 30 50 1 1 1 162.55 162.45
		   L 200 200
		   Z"
	/>
	-->
	<!--
	<path
    	class="shape"
    	d="M 10 315
           L 110 215
           A 30 50 0 0 1 162.55 162.45
           L 172.55 152.45
           A 30 50 -45 0 1 215.1 109.9
           L 315 10
		   Z"
		/>
		-->
	<!--<path
    	class="shape"
    	d=" 
			M 104  -50
            C 90   -91    72 -111    49 -111 
            C 72   -111   95 -113    118 -118 
            C 113  -95    109 -90    104 -85

            z
		"
    />
	-->
</svg>


