<svg
	xmlns="http://www.w3.org/2000/svg"
    version="1.1"
>
    <path 
        class="shape"
        d=" 
            m 156.22344,294.17732 
            C 212.97153,294.17732,230.00164,405.45629,230.00164,914.38983
            C 230.00164,1423.3247999999999,212.97153,1534.6033,156.22344,1534.6033
            C 99.476044,1534.6033,76.75910300000001,1423.3248,77.94454100000002,914.38983
            C 79.129384,405.45629 99.476044,294.17732 156.22344,294.17732 
            Z 

            M 152.42498,0.56763972 
            C 25.756989,0.56763972 2.3652082,164.52699 0.6181635,914.40008
            C -1.128782,1664.2731 42.316897,1828.2324 152.42497999999998,1828.2323999999999
            C 262.53375,1828.2323999999999 304.23238,1664.2730999999999 304.23238,914.40008
            C 304.23238,164.52698999999998 279.09366,0.56763972 152.42498,0.56763972
            Z
        "
    />

    <!--
    <path 
        class="shape2"
        d=" 
            m 156.22344,294.17732 
            C 212.97153,294.17732,230.00164,405.45629,230.00164,914.38983
            C 230.00164,1423.3247999999999,212.97153,1534.6033,156.22344,1534.6033
            C 99.476044,1534.6033,76.75910300000001,1423.3248,77.94454100000002,914.38983
            C 79.129384,405.45629 99.476044,294.17732 156.22344,294.17732 
            Z 
            
            M 152.42498,0.56763972 
            C 279.09366,0.56763972 304.23238,164.52698999999998 304.23238,914.40008
            C 304.23238,1664.2730999999999,262.53375,1828.2323999999999,152.42497999999998,1828.2323999999999
            C 42.316897,1828.2324 -1.128782,1664.2731 0.6181635,914.40008 
            C 2.3652082,164.52699 25.756989,0.56763972 152.42498,0.56763972 
            Z
        "
    />
    -->
</svg>
