<svg
	xmlns="http://www.w3.org/2000/svg"
    version="1.1"
>
    <path 
        class="shape"
        d=" 
            M 103.04 91.04
            L 103.04 91.04
            L 114.08 119.68
            L 108.96 121.76
            L 102.56 121.76
            Q 97.60 115.84 92.48 111.36
            Q 87.36 106.88 81.92 104
            L 81.92 104
            Q 77.12 101.44 71.52 100
            Q 65.92 98.56 59.36 98.24
            L 59.36 98.24
            Q 59.20 98.24 58.88 98.24
            Q 58.56 98.24 58.24 98.24
            L 58.24 98.24
            Q 57.76 98.24 57.28 98.24
            Q 56.80 98.24 56.32 98.24
            L 56.32 98.24
            Q 55.84 98.40 55.36 98.40
            Q 54.88 98.40 54.40 98.40
            L 54.40 98.40
            Q 53.28 98.56 52.08 98.80
            Q 50.88 99.04 49.76 99.36
            L 49.76 99.36
            Q 48.64 99.52 47.68 100
            Q 46.72 100.48 45.92 101.12
            L 45.92 101.12
            Q 44.32 102.24 43.44 103.60
            Q 42.56 104.96 42.24 106.72
            L 42.24 106.72
            Q 42.08 108.32 41.92 110
            Q 41.76 111.68 41.76 113.44
            L 41.76 113.44
            L 41.76 137.76
            L 46.08 137.76
            Q52.16 138.08 56.08 137.12
            Q60 136.16 61.92 134.24
            L 61.92 134.24
            Q63.84 132.32 65.20 128.32
            Q66.56 124.32 67.20 118.40
            L 67.20 118.40
            L 72.64 118.08
            L 79.04 118.08
            L 79.04 165.92
            L 72.64 165.92
            L 67.20 165.92
            Q67.04 164.32 66.72 162.56
            Q66.40 160.80 66.08 159.04
            L 66.08 159.04
            Q65.60 157.28 64.88 155.60
            Q64.16 153.92 63.04 152.32
            L 63.04 152.32
            Q61.44 149.92 59.60 148.48
            Q57.76 147.04 55.52 146.56
            L 55.52 146.56
            Q53.28 146.08 50.88 145.84
            Q48.48 145.60 45.76 145.60
            L 45.76 145.60
            L 41.76 145.44
            L 41.76 177.12
            Q41.76 177.92 41.76 178.56
            Q41.76 179.20 41.76 179.84
            L 41.76 179.84
            Q41.76 180.16 41.76 180.48
            Q41.76 180.80 41.92 181.12
            L 41.92 181.12
            Q41.92 181.60 42 181.92
            Q42.08 182.24 42.08 182.56
            L 42.08 182.56
            Q42.24 183.52 42.48 184.32
            Q42.72 185.12 42.88 185.92
            L 42.88 185.92
            Q43.20 186.72 43.44 187.44
            Q43.68 188.16 44.16 188.64
            L 44.16 188.64
            Q44.96 189.76 46 190.56
            Q47.04 191.36 48.32 191.84
            L 48.32 191.84
            Q49.60 192.32 51.04 192.64
            Q52.48 192.96 53.92 193.12
            L 53.92 193.12
            Q54.24 193.12 54.56 193.20
            Q54.88 193.28 55.20 193.28
            L 55.20 193.28
            Q55.52 193.28 55.84 193.36
            Q56.16 193.44 56.48 193.44
            L 56.48 193.44
            Q64.96 193.12 72 191.36
            Q79.04 189.60 84.80 186.08
            L 84.80 186.08
            Q90.88 182.40 96.56 176.88
            Q102.24 171.36 107.68 164
            L 107.68 164
            L 114.08 163.84
            L 119.20 165.92
            L 104.64 200
            L 98.24 200
            L 4.96 200
            L 4.96 195.20
            L 6.56 195.04
            L 12.96 195.04
            L 13.28 195.20
            L 6.88 195.20
            L 7.52 195.04
            L 7.84 195.04
            L 8.16 195.04
            Q9.60 195.04 10.96 194.80
            Q12.32 194.56 13.60 194.08
            L 13.60 194.08
            Q14.88 193.76 16 192.80
            Q17.12 191.84 17.76 190.24
            L 17.76 190.24
            Q18.08 189.44 18.40 188.64
            Q18.72 187.84 18.88 186.72
            L 18.88 186.72
            Q19.04 185.76 19.12 184.64
            Q19.20 183.52 19.36 182.40
            L 19.36 182.40
            Q19.36 182.08 19.36 181.76
            Q19.36 181.44 19.36 180.96
            L 19.36 180.96
            Q19.36 180.64 19.36 180.32
            Q19.36 180 19.36 179.68
            L19.36 179.68
            Q19.36 178.88 19.36 178.32
            Q19.36 177.76 19.36 177.12
            L19.36 177.12
            L19.36 176
            L19.36 175.20
            L19.36 116
            L19.36 115.04
            Q19.36 115.04 19.36 114.88
            Q19.36 114.72 19.36 114.56
            L19.36 114.56
            Q19.36 114.56 19.36 114.40
            Q19.36 114.24 19.36 114.08
            L19.36 114.08
            Q19.36 110.40 19.04 107.44
            Q18.72 104.48 17.92 101.92
            L17.92 101.92
            Q17.28 99.52 14.64 98.08
            Q12 96.64 7.36 96.32
            L7.36 96.32
            L4.96 95.84
            L4.96 91.04
            L11.36 91.04
            L103.04 91.04
            L103.04 91.04
            Z
        "
    />
</svg>
