<svg
	xmlns="http://www.w3.org/2000/svg"
    version="1.1"
>
    <path 
        class="shape"
        d=" 
            M22.28 0C22.28 0 27.42 0 27.42 0C27.42 0 27.42-0.86 27.42-0.86C27.42-0.86 28.28 0 28.28 0C28.28 0 35.99 0 35.99 0C35.99 0 39.42-3.43 39.42-3.43C39.42-3.43 39.42-12 39.42-12C39.42-12 35.99-15.43 35.99-15.43C35.99-15.43 29.14-15.43 29.14-15.43C29.14-15.43 27.42-17.14 27.42-17.14C27.42-17.14 29.14-18.86 29.14-18.86C29.14-18.86 33.42-18.86 33.42-18.86C33.42-18.86 34.28-18 34.28-18C34.28-18 34.28-17.14 34.28-17.14C34.28-17.14 39.42-17.14 39.42-17.14C39.42-17.14 39.42-24 39.42-24C39.42-24 34.28-24 34.28-24C34.28-24 34.28-23.14 34.28-23.14C34.28-23.14 33.42-24 33.42-24C33.42-24 25.71-24 25.71-24C25.71-24 22.28-20.57 22.28-20.57C22.28-20.57 22.28-13.71 22.28-13.71C22.28-13.71 25.71-10.28 25.71-10.28C25.71-10.28 32.57-10.28 32.57-10.28C32.57-10.28 34.28-8.57 34.28-8.57C34.28-8.57 34.28-6.86 34.28-6.86C34.28-6.86 32.57-5.14 32.57-5.14C32.57-5.14 28.28-5.14 28.28-5.14C28.28-5.14 27.42-6 27.42-6C27.42-6 27.42-6.86 27.42-6.86C27.42-6.86 22.28-6.86 22.28-6.86C22.28-6.86 22.28 0 22.28 0Z
        "
    />
</svg>
