<svg
	xmlns="http://www.w3.org/2000/svg"
    version="1.1"
>
    <path 
        class="shape"
        d="M 893 -744L 893 -744Q 893 -685 870.50 -631.50Q 848 -578 798.50 -537Q 749 -496 671 -472Q 593 -448 482 -448L 482 -448Q 468 -448 456 -448.50Q 444 -449 434 -450L 434 -450Q 423 -451 413 -452L 413 -452L 413 -183Q 413 -146 418.50 -122.50Q 424 -99 439 -85Q 454 -71 481.50 -65.50Q 509 -60 554 -60L 554 -60L 554 0L 36 0L 36 -60Q 82 -60 109.50 -65.50Q 137 -71 152 -85.50Q 167 -100 171.50 -125.50Q 176 -151 176 -190L 176 -190L 176 -852Q 176 -888 171.50 -909.50Q 167 -931 152 -942.50Q 137 -954 109.50 -958Q 82 -962 36 -962L 36 -962L 36 -1022L 524 -1022Q 611 -1022 679.50 -1002Q 748 -982 795.50 -946Q 843 -910 868 -858.50Q 893 -807 893 -744ZM 642 -744L 642 -744Q 642 -786 633 -821Q 624 -856 602 -881Q 580 -906 542.50 -919.50Q 505 -933 447 -933L 447 -933Q 441 -933 435 -932.50Q 429 -932 424 -931L 424 -931Q 418 -930 413 -929L 413 -929L 413 -539Q 419 -538 424 -537L 424 -537Q 429 -536 434.50 -535.50Q 440 -535 447 -535L 447 -535Q 504 -535 542 -551.50Q 580 -568 602 -596Q 624 -624 633 -662Q 642 -700 642 -744
        Z"
    />
</svg>
