<svg
	xmlns="http://www.w3.org/2000/svg"
    version="1.1"
>
    <!--
    <path 
        class="shape"
        d=" M 225.50  221.25
            C 189  301.50  248.00  403.50  300.50  339.00 
             C 301 340  302 341 303  347
            C 353  274.50  98.75   306.75  134.75  222.00 
            C 170  137.25  223.50  222.25  324     318
            C 304 295 256 348 372 265
            Z"
    />
    -->

    <path 
        class="shape"
        d=" M 225.50  221.25
            C 189  301.50  248.00  403.50  300.50  339.00 
             C 301 340  302 341 303  347
            C 353  274.50  98.75   306.75  134.75  222.00 
            C 170  137.25  223.50  222.25  225.50  221.25
            Z"
    />
    
    <!--
    <path 
        class="shape"
        d=" M 214.78605650086527 287.0226459162569
            C 220.24906865698784 344.30531821161173 262.1121448915552 386.1622219903751 300.5 339 
            C 300.99998643632534 339.9999728726507 301.9999457456692 340.9999457453013 302.999918617952 346.99951171875 
            L 303.00033674218173 346.99951171875 
            C 313.5321767776762 331.7280254970817 310.56441642761706 321.10430467575594 299.65341350624897 313.0558137706536 
            C 296.6000290396549 313.9851547662471 295.78194234265624 314.6989985240325 299.343604076307 312.82951410576254 
            C 282.7079511065515 300.7959463094411 248.21920249744682 294.54465429861494 214.78605650086524 287.022645916257 
            z
            
            M 500 500 L 600 600 L 500 600 z
            "
    />
    -->

</svg>
