<?xml version="1.0"?>
<!DOCTYPE svg PUBLIC "-//W3C//DTD SVG 20010904//EN" "http://www.w3.org/TR/2001/REC-SVG-20010904/DTD/svg10.dtd">

<svg version="1.0" xmlns="http://www.w3.org/2000/svg">
<path 
    class="shape" 
    d="
    M 1337 4606
    C 1187 4504 822 4076 1314 4423 
    C 966 4540 1203 4859 1206 3376 
    C 955 4375 1110 4268 923 4481 
    C 664 4510 1039 4825 1075 4198 
    C 1051 4110 882 3404 761 4739 
    C 876 2246 531 4419 729 4487 
    C 730 4168 804 2965 555 4558 
    C 591 2779 790 2910 517 4440 
    C 545 4480 581 4463 551 4389 
    C 564 3359 647 3964 575 3187 
    C 468 4505 555 3422 542 3346 
    C 248 4494 313 2740 458 4282 
    C 322 2327 432 4367 318 3421 
    C 300 2204 292 3901 316 4271 
    C 288 4309 319 3954 156 2693 
    C 190 4225 204 4150 132 3075 
    C 177 2559 141 2840 154 3969 
    C 103 2274 140 4045 132 3592 
    C 71 2151 140 3022 91 2767 
    C 70 3106 68 3816 68 3235 
    C 45 3795 64 3545 37 2654 
    C 9 3194 2 2649 16 2177 
    C 35 2963 37 2306 20 3347 
    C -0 2115 -2 3188 16 2277 
    C 41 2932 32 2983 32 2123 
    C 36 2258 35 2406 56 3088 
    C 82 2972 117 2198 72 2258 
    C 79 2841 97 2131 109 1426 
    C 114 2171 141 2183 140 3074 
    C 141 2298 158 2986 87 2198 
    C 136 1116 216 2913 153 2252 
    C 157 2147 158 2806 182 2672 
    C 212 2407 278 2132 139 1427 
    C 158 2163 270 2509 263 2192 
    C 289 2241 280 1122 353 1601 
    C 296 2091 364 2208 340 2095 
    C 402 1839 418 2121 397 2259 
    C 381 1167 294 2362 356 2083 
    C 339 2227 436 1448 384 2234 
    C 279 1498 401 2072 342 1414 
    C 529 1459 429 1567 377 2104 
    C 400 1199 441 1930 489 1733 
    C 519 1859 534 1270 393 1312 
    C 478 674 395 1868 557 1629 
    C 549 1215 392 1219 516 1136 
    C 256 1108 320 1382 546 1233 
    C 536 1160 589 1316 419 1032 
    C 336 1461 344 1291 557 1463 
    C 560 1098 602 1297 522 1198 
    C 564 1110 541 1250 427 1051 
    C 585 1131 601 1197 540 897 
    C 545 1024 511 1092 279 1157 
    C 259 985 574 1039 535 522 
    C 344 983 523 596 508 648 
    C 524 955 457 750 456 521 
    C 338 539 258 567 347 572 
    C 403 672 267 712 471 657 
    C 340 541 316 654 352 610 
    C 455 540 282 561 390 402 
    C 363 390 304 408 340 474 
    C 327 407 270 298 386 374 
    C 315 338 221 301 340 261 
    C 324 268 281 181 295 202 
    C 285 198 276 192 281 128 
    C 284 108 304 111 205 112 
    C 314 130 298 139 330 99 
    C 278 135 277 141 287 151 
    C 321 143 331 164 264 128 
    C 369 128 262 174 429 193 
    C 418 165 353 248 474 263 
    C 432 256 562 258 585 260 
    C 577 288 622 257 674 373 
    C 632 287 537 256 691 323 
    C 650 434 605 376 621 350 
    C 790 164 595 355 662 370 
    C 586 408 625 350 660 290 
    C 626 306 837 330 723 245 
    C 1044 279 1101 296 1027 159 
    C 983 145 633 190 553 143 
    C 1202 204 1171 194 1207 179 
    C 1061 131 1253 150 1299 149 
    C 1075 137 1056 81 880 69 
    C 843 81 1212 70 1415 74 
    C 1359 73 1131 65 829 33 
    C 1403 -22 1246 7 1534 66 
    C 1588 86 1336 132 1514 151 
    C 1322 131 1038 211 1522 205 
    C 1369 138 1365 313 1736 342 
    C 1467 279 1694 268 1483 293 
    C 1238 128 1038 312 1260 329 
    C 1155 518 1065 532 1122 547 
    C 1312 403 1070 572 1583 373 
    C 1541 577 1095 553 1357 554 
    C 1288 566 1640 651 1581 563 
    C 1073 820 1120 566 1756 576 
    C 1462 769 1468 790 1692 990 
    C 1880 812 1439 1089 1485 681 
    C 1223 763 1177 1051 1800  682  
    C 1368 1077  1361 1116  1220 1042  
    C 1081 1096 1650  1242  1777 1333 
    C 1418  1141  1504 1246 1076  1093  
    C 1118  1196 1735  1372  1738 1029 
    C 1103 1459 1305  1349  1105  1335 
    C 1818  1208 1263  1450 1286  1572  
    C 1733  1411 1531  1031 1135 1572 
    C 1055 1156  1878 1205  1491 1109 
    C 934  1141 1625  641 1656  1478 
    C 1326  1901  1627  1349  1397  1618 
    C 1798 1100 1081  1708  568 1171 
    C 1058 1386  1772  1459  1435  1831 
    C 1593  1630 1304  1145 1071 1507 
    C 1759 2170 1280  1335  1599 1285  
    C 1170 2144 1478 2157  1169  2349 
    C 1726 1922  1330 2284  1446  1126  
    C 1130 2240  1422 1174 1045 2261  
    C 1131 2356  1069  2179  1187 1489 
    C 1258 2583 1420  2075 1570 2376 
    C 1078  2399 1224  2206 1531 2400  
    C 871 1127 1377 1593  1184 2389 
    C 1353 2588  1455 2394 797  2852  
    C 1265 2430 1157 2090  1393 2962 
    C 1160 2593 1141 2435 1191  3003  
    C 1248 2622 1362  3129 1365  3031  
    C 1400 2513 1340 2277 1407  2926 
    C 1190 2274 1437 3190 1077 2554  
    C 1040 3365 1234 2992  1346  2409  
    C 1455 2078 1371 2370 1309 2736 
    C 1122 2496 1045 2210 1341 3037  
    C 1097 2345 1332 2071  793 3431  
    C 1259 2909 1263 2123 1459 2384  
    C 1148 3058 1346 2309 1073 2435 
    C 1405 2943 1092 3667 1136 3290  
    C 1093 3403 1077 2887 926 3526  
    C 1176 3998 1263 3165 1027 3612 
    C 1143 4129 1668 3495 1357 2594  
    C 1623 2818 1435 3076 1041 3682 
    C 1720 3466 1265 3076 1654 4186  
    C 1081 4377 1121 2695 1513 3994  
    C 1074 4349 1477 2311 1367 4232 
    C 1609 2960 1576 4144 1560 4567 
    C 1464 4366 1561 3127 1737 4362 
    C 1127 4347 1258 4503 1039 3340 
    C 1509 2158 1183 4445 1346 4667 
    C 1102 4147 1463 4535 1339 4302 
    C 1563 4739 1377 2224 1469 4303 
    C 1078 4733 1440 4111 1279 4411 
    C 1088 2757 1305 4491 1461 3275 
    L 1337 4606 
 z"/>

</svg>
