<?xml version="1.0"?>
<svg 
	xmlns="http://www.w3.org/2000/svg"
	viewBox="0 -1000 1000 1000" 
	version="1.1"
	width="500"
	height="500"
>
<path class="shape" 
	d=" M 365.3 931.1 
		C 400.3 513.1 340.1 277.1 407.1 926.1
 		z"
/>
<!--
<path class="shape" 
	d=" M 365 931 
		C 400 513 340 277 407 926
 		z"
/>
-->
<!--
<path class="shape" 
d="M 390 930
L 365 931 
C 400 513 340 277 407 926
 z"/>
 -->
<!--
<path class="shape" 
d="M 337 606
L 365 931 
C 400 513 340 277 407 926
 z"/>
 -->
<!--
<path class="shape" 
d="M 337 606
C 248 622 362 929 365 931 
C 400 513 340 277 407 926
 z"/>
 -->
<!--
<path class="shape" 
d="M 337 606
C 248 622 362 929 365 931 
C 400 513 340 277  407 926
 z"/>
 -->
 <!--
<path class="shape" 
d="M 1337 606
C 1248 622 1362 1129 1365 1031 
C 1400 513 1340 277 1407 926
 z"/>
 -->
<!--
<path class="shape" 
d="M 1337 1606
C 1248 1622 1362 2129 1365 2031 
C 1400 1513 1340 1277 1407 1926
 z"/>
 -->
<!--
<path class="shape" 
d="M 1337.75 2606.75
C 1248.75 2622.25 1362.75 3129.25 1365.75 3031.75 
C 1400.75 2513.75 1340.25 2277.25 1407.75 2926.25 
L 1337.75 2606.75 
 z"/>-->
 <!--
 <path class="shape" 
d="M 1337.75 4606.75
C 1160.75 2593.25 1141.25 2435.25 1191.75 3003.75 
C 1248.75 2622.25 1362.75 3129.25 1365.75 3031.75 
C 1400.75 2513.75 1340.25 2277.25 1407.75 2926.25 
L 1337.75 4606.75 
 z"/>
 -->
<!--
<path class="shape" d="M 1337.75 4606.75
C 1265.75 2430.25 1157.25 2090.75 1393.5 2962.25 
C 1160.75 2593.25 1141.25 2435.25 1191.75 3003.75 
C 1248.75 2622.25 1362.75 3129.25 1365.75 3031.75 
C 1400.75 2513.75 1340.25 2277.25 1407.75 2926.25 
C 1190.25 2274.25 1437.75 3190.25 1077.25 2554.75 
C 1040.75 3365.75 1234.75 2992.75 1346.75 2409.75 
C 1455.25 2078.25 1371.75 2370.25 1309.25 2736.25 
C 1122.75 2496.25 1045.75 2210.25 1341.25 3037.75 
L 1337.75 4606.75 
 z"/>
-->





















<!--
<path 
		class="shape"
    	d=" 
			M 50 -55
			L 21 -55
			C 22.333333333333332 -55  25.333333333333336 -54 30 -52
			L 28 -45
			Q 19 -55  6  -55
			L 0  -55
			Q 1  -65  56 -66
			Z
		"
    />
	-->
	<!-- FAILS! due to bezier intersection not found
	<path 
		class="shape"
    	d=" 
			M 50 -55
			L 21 -55
			C 22.333333333333332 -55  25.333333333333336 -55.001 30 -52
			L 28 -45
			Q 19 -55  6  -55
			L 0  -55
			Q 1  -65  56 -66
			Z
		"
    />
		-->
	<!--
	<path 
		class="shape"
    	d=" 
			M 50 -55
			L 21 -55
			C 22.333333333333332 -55  25.333333333333336, -54 30 -52
			L 28 -45
			Q 19 -55  6  -55
			L 0  -55
			Q 1  -65  56 -66
			Z
		"
    />
		-->
	<!--
	<path 
		class="shape"
    	d=" 
			M 50 -55
			L 21 -55
			Q 23 -55  30 -52
			L 28 -45
			Q 19 -55  6  -55
			L 0  -55
			Q 1  -65  56 -66
			Z
		"
    />
		-->
	<!--
	<path 
		class="shape"
    	d=" 
			M 702 -552
			L 411 -552
			Q 431 -552 499 -518
			L 477 -449
			Q 392 -550 262 -550
			L 200 -500
			Q 207 -650 345 -650
			Q 712 -651 756 -656
			Z
		"
    />
	-->
	<!--
	<path 
		class="shape"
    	d=" 
			M 702 -552
			L 411 -552
			Q 431 -552 499 -518
			Q 562 -348 477 -449
			Q 392 -550 262 -550
			L 262 -550
			L 200 -358
			Q 207 -650 345 -650
			L 345 -650
			Q 842 -651 596 -656
			Z
		"
    />
	-->
	<!--
	<path 
		class="shape"
    	d=" 
			M 702 -552
			L 411 -552
			Q 431 -552 499 -518.50
			Q 562 -348 477 -449
			Q 392 -550 262 -550
			L 262 -550
			L 2   -358
			Q 207 -650 345 -650
			L 345 -650
			Q 842 -651 896.50 -656.50
			Z
		"
    	/>
		-->
		<!--
  	<path
    	class="shape"
    		d=" M996 -669
				L996 -669
				Q935 -604 866-578
				Q797 -552 702-552
				L702 -552
				L411 -552
				Q431 -552 499.50-518.50
				L562-145
				Q562-348 477-449
				Q392-550 262-550
				L262-550
				Q155-550 102-503
				Q49-456 2-358
				L2-358
				Q2-496 104.50-573
				Q207-650 345-650
				L345-650
				L445-650
				L524-650
				L587-650
				L637-650
				L676-650
				L707-650
				L730-650
				L749-650
				L764-650
				L775-650
				Q790-650 799-650
				Q808-650 812-651
				L812-651
				Q842-651 896.50-656.50
				Q951-662 996-669
				Z
		"
    	/>
	-->
</svg>



