
<?xml version="1.0"?>
<svg 
	xmlns="http://www.w3.org/2000/svg"
	viewBox="0 -1000 1000 1000" 
	version="1.1"
	width="500"
	height="500"
>
    <!--
  <path 
  		class="shape"
    	d=" 
            M 1268 -701 
            L 1268 -1083 
            L 1781 -1083 
            L 1781 -701 
            Z
		"
    />
    -->
  
    <!--
    <path 
  		class="shape"
    	d=" 
            M 2568 -576 
            L 2568 -1083 
            
            L 1923 -1661 
            L 1127 -1536 
            L 1127 -1216 
            L 193 -1216 
            L 1127 -1083 
            L 1127 -701 
            Q 540 73 1127 -472 
            L 1268 -576 
            L 1781 -576 
            L 2636 -50 2012 -576 
            L 2568 -576
            Z

            M 1268 -1536 
            L 1781 -1536 
            L 1781 -1216 
            L 1268 -1216 
            Z

            M 1268 -701 
            L 1268 -1083 
            L 1781 -1083 
            L 1781 -701 
            Z

            M 2427 -701 
            L 1923 -701 
            L 1923 -1083 
            L 2427 -1083 
            Z
		"
    />
    -->
    
<!--
<path 
		class="shape"
    	d=" 
          M 2568 -576 
          L 2568 -1661 
          L 1127 -1661 
          L 1127 -1216 
          L 193 -1083 
          L 1127 -1083 
          L 1127 -701 
          C 540 73 894 -188 1127 -472 
          L 1268 -576 
          L 1781 -576 
          C 2636 -50 2255 -311 2012 -576 
          L 2568 -576

          M 1268 -701 
          L 1268 -1083 
          L 1781 -1083 
          L 1781 -701 
          Z

          M 1268 -1536 
          L 1781 -1216 
          L 1268 -1216 
          Z

          M 2427 -701 
          L 1923 -701 
          L 1923 -1083 
          L 2427 -1083 
          Z
		"
    />
    -->

    <path 
		class="shape"
    	d=" 
        M 2718 -1090 L 2912 -1090 L 2912 -1216 L 2718 -1216 L 2718 -1661 L 2230 -1661 L 2230 -1920 L 2860 -1920 L 2860 -2049 L 2239 -2049 C 2334 -2179 2442 -2347 2528 -2491 L 2390 -2557 C 2316 -2408 2187 -2192 2086 -2049 L 1136 -2049 L 1136 -1920 L 1585 -1920 L 1585 -1661 L 1182 -1661 L 1182 -1536 L 1585 -1536 L 1585 -1216 L 1093 -1216 L 1093 -1090 L 1585 -1090 L 1585 -768 L 1167 -768 L 1167 -642 L 1529 -642 C 1391 -352 1164 -66 949 80 C 980 105 1026 155 1050 189 C 1241 43 1443 -215 1585 -489 L 1585 270 L 1720 270 L 1720 -642 L 2095 -642 L 2095 267 L 2230 267 L 2230 -505 C 2390 -237 2614 27 2808 174 C 2832 136 2875 90 2909 62 C 2691 -78 2442 -365 2285 -642 L 2718 -642 L 2718 -1090
        M 2230 -768 L 2230 -1090 L 2589 -1090 L 2589 -768 L 2230 -768
        M 1720 -768 L 1720 -1090 L 2095 -1090 L 2095 -768 L 1720 -768
        M 1720 -1536 L 2095 -1536 L 2095 -1216 L 1720 -1216 L 1720 -1536
        M 1720 -1920 L 2095 -1920 L 2095 -1661 L 1720 -1661 L 1720 -1920
        M 2589 -1536 L 2589 -1216 L 2230 -1216 L 2230 -1536 L 2589 -1536
		"
    />        

    <!--
    <path 
		class="shape"
    	d=" 
          M 2568 -576 
          L 2568 -1083 
          L 2881 -1083 
          L 2881 -1216 
          L 2568 -1216 
          L 2568 -1661 
          L 1923 -1661 
          L 1923 -1984 
          L 2832 -1984 
          L 2832 -2116 
          L 2122 -2116 
          C 2218 -2232 2325 -2377 2411 -2513 
          L 2261 -2574 
          C 2184 -2439 2052 -2245 1947 -2116 
          L 1038 -2116 
          L 1145 -2180 
          C 1078 -2290 930 -2458 801 -2574 
          L 678 -2510 
          C 798 -2390 940 -2229 1007 -2116 
          L 242 -2116 
          L 242 -1984 
          L 1127 -1984 
          L 1127 -1661 
          L 439 -1661 
          L 439 -1536 
          L 1127 -1536 
          L 1127 -1216 
          L 193 -1216 
          L 193 -1083 
          L 1127 -1083 
          L 1127 -701 
          L 414 -701 
          L 414 -576 
          L 1044 -576 
          C 820 -298 451 -37 135 92 
          C 168 120 211 171 236 209 
          C 540 73 894 -188 1127 -472 
          L 1127 272 
          L 1268 272 
          L 1268 -576 
          L 1781 -576 
          L 1781 272 
          L 1923 272 
          L 1923 -494 
          C 2175 -217 2546 51 2847 190 
          C 2872 152 2915 102 2946 73 
          C 2636 -50 2255 -311 2012 -576 
          L 2568 -576
          M 1268 -701 
          L 1268 -1083 
          L 1781 -1083 
          L 1781 -701 
          L 1268 -701
          M 1268 -1536 
          L 1781 -1536 
          L 1781 -1216 
          L 1268 -1216 
          L 1268 -1536
          M 1268 -1984 
          L 1781 -1984 
          L 1781 -1661 
          L 1268 -1661 
          L 1268 -1984
          M 2427 -1536 
          L 2427 -1216 
          L 1923 -1216 
          L 1923 -1536 
          L 2427 -1536
          M 2427 -701 
          L 1923 -701 
          L 1923 -1083 
          L 2427 -1083 
          L 2427 -701
		"
    />
    -->

<!--
<path 
		class="shape"
    	d=" 
            M 502 -428
            L 214 -279
            L 171 -311
            Z
            
            M 247 -232
            Q 118 -222 118 -259
            L 179 -397
            Z
		"
    />
  -->
</svg>




