
<?xml version="1.0"?>
<svg 
	xmlns="http://www.w3.org/2000/svg"
	viewBox="0 -1000 1000 1000" 
	version="1.1"
	width="500"
	height="500"
>
<path 
		class="shape"
    	d=" 
				M 212 -296
				L 142 -296
				L 169 -354
				L 270 -350
				L 260 -328
				L 298 -296
				L 244 -296
				L 214 -247
				Z
				
				M 228 -328
				L 241 -333
				L 198 -328
				Z
		"
    />
<!--
<path 
		class="shape"
    	d=" 
				M 212 -296
				L 142 -296
				L 169 -354
				L 270 -350
				L 260 -328
				L 298 -296
				L 244 -296
				L 214 -247
				Z
				
				M 228 -328
				L 241 -333
				L 198 -328
				Z
		"
    />
		-->
<!--
<path 
		class="shape"
    	d=" 
				M 212-296
				L 142-296
				L 112-237
				L 80-237
				L 110-296
				L 50-296
				L 74-328
				L 126-328
				L 169-414
				L 104-414
				L 128-446
				L 185-446
				L 218-512
				L 250-512
				L 217-446
				L 287-446
				L 320-512
				L 352-512
				L 319-446
				L 376-446
				L 352-414
				L 303-414
				L 260-328
				L 322-328
				L 298-296
				L 244-296
				L 214-237
				L 182-237
				L 212-296
				Z
				
				M 228-328
				L 271-414
				L 201-414
				L 158-328
				L 228-328
				Z
		"
    />-->
</svg>




