<?xml version="1.0"?>
<svg 
        xmlns="http://www.w3.org/2000/svg"
        viewBox="0 -1000 1000 1000" 
        version="1.1"
        width="1000"
        height="1000"
>
    <path 
        class="shape"
        d="M627 265c0 -53 -48 -56 -68 -56h-180v-92c0 -36 31 -52 86 -52c50 0 68 10 97 10c24 0 39 -16 39 -33c0 -16 -12 -34 -34 -39c-34 -8 -89 -13 -120 -13c-48 0 -86 16 -107 37l-3 2l-2 -2c-17 -17 -49 -35 -93 -35h-61c-63 0 -139 41 -139 129v20c0 88 78 131 159 131h98
        v51c0 38 -27 52 -74 52c-23 0 -46 -3 -67 -6v-21c0 -22 -19 -41 -41 -41s-39 18 -39 40v51c0 16 11 33 34 39c31 8 109 11 137 11c38 0 70 -13 92 -35c28 24 64 35 97 35h50c63 0 139 -41 139 -129v-54zM553 283v41c0 41 -34 51 -71 51h-32c-37 0 -71 -10 -71 -51v-41h174z
        M299 107v91h-85c-43 0 -92 -12 -92 -60v-17c0 -28 20 -53 79 -53c42 0 68 13 98 39z" />
</svg>

