<?xml version="1.0"?>
<svg 
        xmlns="http://www.w3.org/2000/svg"
        viewBox="0 -1000 1000 1000" 
        version="1.1"
        width="1000"
        height="1000"
>
    <path 
        class="shape"
        d="M911 32c0 -17 -13 -32 -32 -32h-219c-22 0 -39 17 -39 39c0 105 119 167 191 220c16 12 27 25 27 45c0 22 -19 33 -58 33c-19 0 -33 -2 -44 -5v-10c0 -19 -16 -35 -35 -35c-20 0 -35 14 -35 34v26c0 11 4 21 13 28c31 23 72 25 99 25c66 0 129 -22 129 -94
        c0 -40 -22 -73 -52 -97c-48 -39 -128 -79 -157 -133c-3 -5 -3 -9 -3 -11h183c20 0 32 -15 32 -33zM700 714c0 -6 -1 -12 -3 -17l-362 -761c-7 -14 -21 -23 -36 -23c-23 0 -40 20 -40 42c0 6 1 12 4 17l362 760c7 15 21 24 36 24c23 0 39 -20 39 -42zM288 278
        c0 -18 -15 -33 -33 -33h-152c-18 0 -33 15 -33 33s15 33 33 33h40v233c0 4 0 11 -3 14c-1 1 -2 2 -5 2s-7 -1 -9 -2l-26 -10c-5 -2 -10 -3 -15 -3c-18 0 -32 14 -32 32c0 12 6 24 18 29c14 6 84 40 109 40c19 0 33 -25 33 -44v-291h42c18 0 33 -15 33 -33z" />
</svg>
