<?xml version="1.0"?>
<svg 
        xmlns="http://www.w3.org/2000/svg"
        viewBox="0 -1000 1000 1000" 
        version="1.1"
        width="1000"
        height="1000"
>
    <path 
        class="shape"
        d="M604 622c0 -20 -16 -36 -36 -36h-34v-105c0 -88 -76 -129 -139 -129h-26v-79h102c20 0 37 -16 37 -36s-16 -38 -36 -38h-103v-125h39c20 0 36 -16 36 -36s-16 -38 -36 -38h-161c-20 0 -36 17 -36 37s16 37 36 37h42v125h-101c-20 0 -38 18 -38 38s16 36 36 36h103v79h-26
        c-63 0 -139 41 -139 129v105h-38c-20 0 -36 17 -36 37s16 37 36 37h152c20 0 36 -18 36 -38s-16 -36 -36 -36h-34v-109c0 -41 35 -51 81 -51h88c46 0 81 9 81 51v109h-36c-20 0 -36 17 -36 37s16 37 36 37h150c20 0 36 -18 36 -38z" />
    />
</svg>
