<svg xmlns="http://www.w3.org/2000/svg" version="1.1">
    <path class="shape" d=
          " M377.79 139.91
            C376.11 137.21 374.29 134.6 372.45 132
            C369.45 127.77 367.85 123.12 368.45 117.9
            C368.56 116.95 369.32 116.08 369.78 115.17
            C370.39 115.53 371.07 115.8 371.6 116.26
            C373.27 117.7 374.89 119.21 376.53 120.7
            C378.17 122.18 379.99 123.24 382.27 123.26
            C383.81 123.27 385.36 123.38 386.88 123.26
            C390.34 123 392.64 120.89 394.68 118.3
            C396.77 115.65 396.52 112.47 395.79 109.78
            C395.19 107.58 393.12 105.61 391.33 103.92
            C388.6 101.35 385.09 100.8 381.44 101.2
            C380.86 101.27 380.31 101.67 379.73 101.71
            C378.62 101.81 377.48 101.87 376.37 101.74
            C375.58 101.65 374.84 101.21 373.92 100.87
            C373.41 98.87 372.87 96.74 372.18 93.99
            C375.5 93.54 378.27 92.89 381.05 92.84
            C385.13 92.79 388.09 90.84 390.65 88.23
            C391.29 87.81 391.9 87.31 392.45 86.72
            C395.61 83.31 396.5 78.37 394.15 74.22
            C391.84 70.1 386.75 67.15 381.98 68.81
            C380.78 69.23 379.69 69.78 378.72 70.45
            C376.99 71.4 374.73 71.71 373.38 73.49
            C372.56 74.57 371.63 75.72 371.27 76.99
            C370.33 80.26 369.41 80.93 365.79 80.27
            C365.21 77.27 366.56 74.55 369.28 73.51
            C371.61 72.62 372.67 70.66 374.13 68.83
            C375.89 66.63 375.02 64.12 376.01 61.86
            C376.57 60.58 375.18 58.36 374.49 56.63
            C374.11 55.69 373.44 54.82 372.77 54.03
            C369.49 50.21 365.04 50.78 360.97 51.6
            C359.11 51.97 357.36 54.09 356.08 55.82
            C354.22 58.33 353.1 61.29 353.28 64.54
            C353.32 65.28 353.83 65.99 354.04 66.73
            C354.22 67.37 354.47 68.08 354.37 68.7
            C354.07 70.54 353.61 72.35 353.28 74.18
            C351.24 75.71 349.05 76.64 347.08 75.76
            C346.04 74.79 345.12 73.6 344.74 72.82
            C342.98 69.13 344.1 65.17 343.28 61.5
            C342.51 58.02 340.9 54.78 337.66 52.37
            C335.33 50.63 332.65 50.14 330.26 48.83
            C329.83 48.59 329.17 48.57 328.68 48.7
            C324.43 49.84 320.62 51.3 318.28 55.67
            C316.45 59.07 316.83 62.47 317.45 65.63
            C318.06 68.76 320.42 71.49 323.15 73.42
            C323.66 73.78 324.23 74.08 324.8 74.36
            C326.33 75.73 328 76.98 329.65 78.19
            C329.99 78.44 330.36 78.6 330.75 78.71
            C330.86 78.99 330.95 79.26 330.98 79.53
            C331.24 81.65 330.96 83.71 330.1 85.93
            C330.04 86.1 329.97 86.26 329.89 86.41
            C329.43 86.96 329.04 87.56 328.74 88.19
            C328.24 88.7 327.67 89.07 326.97 89.36
            C321.86 87.67 316.19 88.02 311.21 90.12
            C307.47 90.72 304.61 92.96 302.55 96.26
            C301.72 97.59 302.08 99.67 301.91 101.4
            C301.38 106.59 303.96 110.74 307.93 113
            C310.95 114.72 314.76 115.98 319.04 114.09
            C321.82 112.86 324.25 111.54 326.44 109.56
            C327.22 108.86 328.05 108.19 328.55 107.77
            C331.29 110.92 333.68 113.62 336 116.37
            C336.38 116.83 336.6 117.55 336.6 118.15
            C336.6 121.54 336.58 124.92 336.39 128.3
            C336.34 129.3 335.58 130.25 335.41 131.27
            C334.94 134.02 336.06 136.23 337.3 138.72
            C338.56 141.25 340.88 143.09 342.39 145.43
            C342.32 146.25 342.48 147.13 342.98 148.04
            C343.14 148.33 343.28 148.64 343.4 148.94
            C343.19 150.03 342.71 151.03 341.96 151.76
            C341.08 152.63 340.01 153.21 338.88 153.49
            C337.62 153.23 336.37 152.95 335.12 152.69
            C334.61 152.58 334.1 152.43 333.58 152.39
            C333.3 152.36 333.01 152.34 332.72 152.31
            C332.13 152.14 331.54 152.11 331 152.19
            C325.95 151.86 320.84 151.77 315.98 150.65
            C309.33 149.11 302.74 149.8 296.15 149.77
            C291.17 149.74 286.16 150.41 281.21 151.17
            C277.44 151.75 273.64 152.6 270.1 153.96
            C265.59 155.7 261.33 158.07 256.98 160.2
            C252.4 162.45 248.48 165.65 244.82 169.12
            C242.45 171.36 240.38 173.93 238.26 176.43
            C236.04 179.02 233.82 181.62 231.81 184.37
            C230.48 186.2 229.62 188.36 228.4 190.27
            C226.97 192.51 225.34 194.62 223.89 196.84
            C222.62 198.78 221.51 200.82 220.26 202.76
            C219.13 204.51 217.84 206.16 216.73 207.92
            z"
    />
</svg>    
