<svg
	xmlns="http://www.w3.org/2000/svg"
    version="1.1"
>
    <path 
        class="shape"
        d=" M 239.5000 123.5000
            C 239.5200 123.4800 240.5000 122.5000 240.5000 120.5000 
            C 240.5000 117.5000 238.5000 113.5000 235.5000 108.5000 
            C 232.5000 103.5000 228.8954 99.0706 223.5000 94.5000 
            C 216.9363 88.9397 210.5694 83.4205 196.5000 77.5000 
            C 192.6997 75.9008 185.4197 71.1236 181.5000 69.5000 
            C 175.9567 67.2039 169.5000 68.5000 163.5000 68.5000 
            C 158.5000 68.5000 151.4364 68.2326 142.5000 70.5000 
            C 135.4435 72.2904 125.9920 76.6788 117.5000 82.5000 
            C 111.0580 86.9159 105.8454 92.2842 103.5000 100.5000 
            C 102.1003 105.4031 99.5000 113.5000 98.5000 121.5000 
            C 97.5000 129.5000 97.5000 139.5000 97.5000 150.5000 
            C 97.5000 157.5000 99.2402 166.7400 108.5000 176.5000 
            C 113.3668 181.6297 123.2430 187.9047 132.5000 193.5000 
            C 143.2233 199.9815 148.1475 200.4725 152.5000 201.5000 
            C 154.4465 201.9595 158.5000 201.5000 163.5000 201.5000 
            C 171.5000 201.5000 183.5000 201.5000 194.5000 201.5000 
            C 205.5000 201.5000 210.8720 202.1149 214.5000 199.5000 
            C 219.0891 196.1924 225.1303 189.9371 232.5000 185.5000 
            C 240.1626 180.8865 245.0582 177.9807 248.5000 175.5000 
            C 250.3140 174.1926 250.8375 168.1900 252.5000 165.5000 
            C 253.9870 163.0940 254.5000 162.5000 254.5000 158.5000 
            C 254.5000 155.5000 254.5000 150.5000 254.5000 147.5000 
            C 254.5000 144.5000 254.5000 141.5000 254.5000 138.5000 
            C 254.5000 135.5000 255.5000 132.5000 255.5000 131.5000 
            C 255.5000 131.1667 255.5000 130.8333 255.5000 130.5000 
            C 250.1667 128.1667 244.8333 125.8333 239.5000 123.5000 

            M 300.5000 105.5000
            C 302.5000 104.5000 303.2240 97.2773 306.5000 93.5000 
            C 307.4266 92.4316 309.2055 92.1538 311.5000 90.5000 
            C 316.9420 86.5776 321.5885 85.8273 331.5000 84.5000 
            C 342.8009 82.9866 355.5429 80.5746 365.5000 81.5000 
            C 381.7090 83.0065 398.8118 89.4153 407.5000 92.5000 
            C 411.7144 93.9963 412.6860 95.1925 414.5000 96.5000 
            C 416.7945 98.1538 418.6439 104.4065 422.5000 110.5000 
            C 425.6181 115.4272 430.4552 119.0492 431.5000 122.5000 
            C 431.7898 123.4571 432.2702 126.5267 432.5000 127.5000 
            C 433.0137 129.6763 433.5000 132.5000 433.5000 135.5000 
            C 433.5000 137.5000 433.5000 140.5000 433.5000 142.5000 
            C 433.5000 145.5000 433.3699 148.8641 430.5000 154.5000 
            C 426.5965 162.1657 421.5415 166.5349 416.5000 172.5000 
            C 410.5488 179.5415 402.6634 187.7243 394.5000 193.5000 
            C 385.6699 199.7474 374.8310 206.0734 366.5000 210.5000 
            C 357.8027 215.1213 351.7770 217.5158 342.5000 219.5000 
            C 332.6724 221.6020 319.5000 221.5000 310.5000 221.5000 
            C 298.5000 221.5000 285.5000 221.5000 273.5000 221.5000 
            C 265.5000 221.5000 256.6992 219.0801 246.5000 214.5000 
            C 241.5874 212.2939 241.7533 207.1287 237.5000 204.5000 
            C 231.7937 200.9733 228.0412 199.8066 227.5000 198.5000 
            C 227.1173 197.5761 225.5000 193.5000 225.5000 189.5000 
            C 225.5000 181.5000 225.5000 171.5000 225.5000 164.5000 
            C 225.5000 155.5000 225.5000 142.5000 225.5000 130.5000 
            C 225.5000 125.5000 225.2102 119.4571 225.5000 118.5000 
            C 226.5448 115.0492 228.2240 113.2773 231.5000 109.5000 
            C 234.2798 106.2949 240.1138 104.2030 242.5000 101.5000 
            C 243.9798 99.8237 245.5535 97.9595 247.5000 97.5000 
            C 249.6763 96.9863 252.5307 94.5877 255.5000 93.5000 
            C 260.5566 91.6477 262.5000 90.5000 263.5000 90.5000 
            C 263.5000 90.1667 263.5000 89.8333 263.5000 89.5000 
            C 275.8333 94.8333 288.1667 100.1667 300.5000 105.5000 
            Z"
    />
</svg>
