<svg
	xmlns="http://www.w3.org/2000/svg"
    version="1.1"
>
    <path 
        class="shape"
        d="
            M674 502q-5 46 -26.5 88.5t-58.5 75.5t-90 52t-120 19q-77 0 -139.5 -27t-106 -76.5t-66.5 -118.5t-23 -152q0 -100 26.5 -173.5t72 -119t103 -67.5t121.5 -22q34 0 76.5 8t92.5 35.5t90.5 86.5t54.5 153h-94q-11 -59 -35 -98.5t-53.5 -61t-59 -29.5t-57.5 -8
q-65 0 -111 22.5t-74 62.5t-40.5 94t-12.5 120q0 136 66.5 210.5t168.5 74.5q30 0 60 -6t58.5 -22.5t50.5 -46t32 -74.5h94z
        "
    />
</svg>
